<?xml version="1.0" encoding="UTF-8"?>
<svg id="ORANGE_BACKGROUNDS" width="96" height="96" enable-background="new 0 0 96 96" version="1.1" viewBox="0 0 96 96" xml:space="preserve" xmlns="http://www.w3.org/2000/svg" xmlns:xlink="http://www.w3.org/1999/xlink"><defs><linearGradient id="linearGradient5098" x1="48" x2="48" y1="8.0107" y2="87.99" gradientUnits="userSpaceOnUse"><stop stop-color="#63B3E0" offset=".0364"/><stop stop-color="#59ACDA" offset=".204"/><stop stop-color="#3F99C9" offset=".4875"/><stop stop-color="#147BAE" offset=".8499"/><stop stop-color="#006DA2" offset="1"/></linearGradient></defs>


<g><rect width="96" height="96" fill-opacity="0"/><path id="SHADOW" d="m88.023 49c0 29.633-10.364 40-40 40-29.635 0-40-10.367-40-40 0-29.634 10.366-40 40-40 29.636 0 40 10.365 40 40z" opacity=".4"/>
	<g id="BLUE_2_2_">
		
		<path id="BLUE_2_1_" d="m8 47.989c0 29.633 10.365 40 40 40 29.637 0 40-10.367 40-40 0-28.985-9.926-39.53-38.091-39.979h-3.817c-28.164 0.449-38.092 10.994-38.092 39.979z" fill="url(#linearGradient5098)"/>
		<linearGradient id="HIGHLIGHT_BLU2_1_" x1="48" x2="48" y1="8.2559" y2="87.504" gradientUnits="userSpaceOnUse">
			<stop stop-color="#fff" offset=".0364"/>
			<stop stop-color="#F5F9FB" offset=".1233"/>
			<stop stop-color="#DBE7F0" offset=".2704"/>
			<stop stop-color="#AFCBDD" offset=".4598"/>
			<stop stop-color="#73A4C4" offset=".6841"/>
			<stop stop-color="#2873A4" offset=".9352"/>
			<stop stop-color="#13659B" offset="1"/>
		</linearGradient>
		<path d="m48 8c-29.635 0-40 10.365-40 40 0 29.633 10.365 40 40 40 29.637 0 40-10.367 40-40 0-29.635-10.363-40-40-40zm0 79.023c-29.158 0-39-9.847-39-39.023s9.842-39.023 39-39.023 39 9.847 39 39.023-9.842 39.023-39 39.023z" fill="url(#HIGHLIGHT_BLU2_1_)" opacity=".25"/>
	</g>
<g transform="matrix(2.1942 0 0 2.1942 21.632 21.726)" fill="#fff"><g id="icons" fill="#fff"><path id="send" d="m21.5 11.1-17.9-9c-0.9-0.4-1.9 0.4-1.5 1.3l2.5 6.7 11.4 1.9-11.4 1.9-2.5 6.7c-0.3 0.9 0.6 1.7 1.5 1.2l17.9-9c0.7-0.3 0.7-1.3 0-1.7z" fill="#fff"/></g></g></g></svg>
