<?xml version="1.0" encoding="utf-8"?>
<!-- Generator: Adobe Illustrator 15.0.0, SVG Export Plug-In . SVG Version: 6.00 Build 0)  -->
<!DOCTYPE svg PUBLIC "-//W3C//DTD SVG 1.1//EN" "http://www.w3.org/Graphics/SVG/1.1/DTD/svg11.dtd">
<svg version="1.1" xmlns="http://www.w3.org/2000/svg" xmlns:xlink="http://www.w3.org/1999/xlink" x="0px" y="0px" width="30px"
	 height="30px" viewBox="0 0 30 30" enable-background="new 0 0 30 30" xml:space="preserve">
<g id="DO_NOT_EDIT_-_BOUNDING_BOX">
	<rect id="BOUNDING_BOX" fill="none" width="30" height="30"/>
</g>
<g id="PLACE_YOUR_GRAPHIC_HERE">
	<g>
		<path opacity="0.3" d="M28.294,7.076c-0.388-0.381-1.337-0.763-2.11-0.846l-3.547-0.388c-0.772-0.084-1.726,0.389-2.111,1.051
			l-2.118,2.44h-1.412l-0.705,1.167h-0.707l-0.706,0.692h-0.705l-0.705-0.692h-2.12l-0.706,0.692H9.229l-0.707-0.692H7.815
			l-0.704,0.692H6.403l-0.707-0.692H4.991L1,14.001l3.991,3.5H16.29l0.705,1.166h1.412l2.118,2.44
			c0.386,0.662,1.338,1.135,2.111,1.051l3.547-0.388c0.772-0.084,1.723-0.465,2.11-0.845C28.684,20.545,29,19.61,29,18.848V9.154
			C29,8.391,28.684,7.456,28.294,7.076z M26.667,17.501c0,0.645-0.522,1.166-1.167,1.166s-1.167-0.521-1.167-1.166v-7
			c0-0.646,0.522-1.167,1.167-1.167s1.167,0.521,1.167,1.167V17.501z"/>
		<path opacity="0.15" d="M22.454,24.168c-1.073,0-2.183-0.599-2.738-1.467l-1.765-2.034h-0.956c-0.35,0-0.675-0.183-0.855-0.482
			l-0.414-0.684H4.991c-0.243,0-0.477-0.088-0.659-0.248l-3.991-3.5C0.124,15.563,0,15.289,0,15.001s0.124-0.562,0.341-0.752
			l3.991-3.5c0.182-0.16,0.417-0.248,0.659-0.248h0.705c0.262,0,0.513,0.103,0.7,0.286l0.361,0.353l0.357-0.352
			c0.187-0.184,0.439-0.287,0.701-0.287h0.706c0.262,0,0.513,0.103,0.7,0.286l0.416,0.407h0.595l0.415-0.406
			c0.187-0.184,0.438-0.286,0.7-0.286h2.12c0.262,0,0.514,0.103,0.701,0.287l0.357,0.351l0.358-0.351
			c0.187-0.184,0.438-0.286,0.7-0.286h0.143l0.414-0.684c0.181-0.3,0.505-0.483,0.855-0.483h0.956L19.716,7.3
			c0.556-0.869,1.665-1.467,2.738-1.467c0.099,0,0.195,0.005,0.291,0.016l3.547,0.388c0.867,0.093,2.075,0.51,2.703,1.126
			C29.653,8.005,30,9.254,30,10.154v9.693c0,0.898-0.346,2.147-1.007,2.793c-0.625,0.613-1.833,1.029-2.701,1.124l-3.547,0.388
			C22.649,24.163,22.553,24.168,22.454,24.168z M25.5,11.334c-0.092,0-0.167,0.075-0.167,0.167v7c0,0.092,0.075,0.166,0.167,0.166
			s0.167-0.074,0.167-0.166v-7C25.667,11.409,25.592,11.334,25.5,11.334z"/>
		<path opacity="0.15" d="M28.294,8.076c-0.388-0.381-1.337-0.763-2.11-0.846l-3.547-0.388c-0.772-0.084-1.726,0.389-2.111,1.051
			l-2.118,2.44h-1.412l-0.705,1.167h-0.707l-0.706,0.692h-0.705l-0.705-0.692h-2.12l-0.706,0.692H9.229l-0.707-0.692H7.815
			l-0.704,0.692H6.403l-0.707-0.692H4.991L1,15.001l3.991,3.5H16.29l0.705,1.166h1.412l2.118,2.44
			c0.386,0.662,1.338,1.135,2.111,1.051l3.547-0.388c0.772-0.084,1.723-0.465,2.11-0.845C28.684,21.545,29,20.61,29,19.848v-9.693
			C29,9.391,28.684,8.456,28.294,8.076z M26.667,18.501c0,0.645-0.522,1.166-1.167,1.166s-1.167-0.521-1.167-1.166v-7
			c0-0.646,0.522-1.167,1.167-1.167s1.167,0.521,1.167,1.167V18.501z"/>
		<path fill="#FFFFFF" d="M28.294,8.076c-0.388-0.381-1.337-0.763-2.11-0.846l-3.547-0.388c-0.772-0.084-1.726,0.389-2.111,1.051
			l-2.118,2.44h-1.412l-0.705,1.167h-0.707l-0.706,0.692h-0.705l-0.705-0.692h-2.12l-0.706,0.692H9.229l-0.707-0.692H7.815
			l-0.704,0.692H6.403l-0.707-0.692H4.991L1,15.001l3.991,3.5H16.29l0.705,1.166h1.412l2.118,2.44
			c0.386,0.662,1.338,1.135,2.111,1.051l3.547-0.388c0.772-0.084,1.723-0.465,2.11-0.845C28.684,21.545,29,20.61,29,19.848v-9.693
			C29,9.391,28.684,8.456,28.294,8.076z M26.667,18.501c0,0.645-0.522,1.166-1.167,1.166s-1.167-0.521-1.167-1.166v-7
			c0-0.646,0.522-1.167,1.167-1.167s1.167,0.521,1.167,1.167V18.501z"/>
		<rect fill="none" width="30" height="30"/>
	</g>
</g>
</svg>
