<?xml version="1.0" encoding="utf-8"?>
<!-- Generator: Adobe Illustrator 15.0.0, SVG Export Plug-In . SVG Version: 6.00 Build 0)  -->
<!DOCTYPE svg PUBLIC "-//W3C//DTD SVG 1.1//EN" "http://www.w3.org/Graphics/SVG/1.1/DTD/svg11.dtd">
<svg version="1.1" xmlns="http://www.w3.org/2000/svg" xmlns:xlink="http://www.w3.org/1999/xlink" x="0px" y="0px" width="30px"
	 height="30px" viewBox="0 0 30 30" enable-background="new 0 0 30 30" xml:space="preserve">
<g id="DO_NOT_EDIT_-_BOUNDING_BOX">
	<rect id="BOUNDING_BOX" fill="none" width="30" height="30"/>
</g>
<g id="PLACE_YOUR_GRAPHIC_HERE">
	<g>
		<polygon opacity="0.3" points="16,12 16,8 13,8 13,12 9,12 9,15 13,15 13,19 16,19 16,15 20,15 20,12 		"/>
		<rect fill="none" width="30" height="30"/>
		<path opacity="0.15" d="M13,21c-0.552,0-1-0.447-1-1v-3H9c-0.552,0-1-0.447-1-1v-3c0-0.552,0.448-1,1-1h3V9c0-0.552,0.448-1,1-1h3
			c0.553,0,1,0.448,1,1v3h3c0.553,0,1,0.448,1,1v3c0,0.553-0.447,1-1,1h-3v3c0,0.553-0.447,1-1,1H13z"/>
		<polygon opacity="0.15" points="16,13 16,9 13,9 13,13 9,13 9,16 13,16 13,20 16,20 16,16 20,16 20,13 		"/>
		<polygon fill="#FFFFFF" points="16,13 16,9 13,9 13,13 9,13 9,16 13,16 13,20 16,20 16,16 20,16 20,13 		"/>
	</g>
</g>
</svg>
