<?xml version="1.0" encoding="utf-8"?>
<!-- Generator: Adobe Illustrator 15.0.0, SVG Export Plug-In . SVG Version: 6.00 Build 0)  -->
<!DOCTYPE svg PUBLIC "-//W3C//DTD SVG 1.1//EN" "http://www.w3.org/Graphics/SVG/1.1/DTD/svg11.dtd">
<svg version="1.1" xmlns="http://www.w3.org/2000/svg" xmlns:xlink="http://www.w3.org/1999/xlink" x="0px" y="0px" width="30px"
	 height="30px" viewBox="0 0 30 30" enable-background="new 0 0 30 30" xml:space="preserve">
<g id="DO_NOT_EDIT_-_BOUNDING_BOX">
	<rect id="BOUNDING_BOX" fill="none" width="30" height="30"/>
</g>
<g id="PLACE_YOUR_GRAPHIC_HERE">
	<path opacity="0.3" d="M14.512,13.688c-0.399,0.459-1.215,1.264-2.724,2.131c-1.779,1.02-4.544-0.951-3.442-2.625l0.333-0.508
		c-0.581,0.088-1.181,0.182-1.484,0.227c-0.13,0.855-0.906,5.725-0.906,5.725c0.266,0.223,0.475,0.406,0.642,0.557
		c0.486-0.584,1.186-1.266,1.962-1.447c0.457-0.104,0.901-0.033,1.286,0.211c0,0,6.328,3.605,6.371,4.727
		c0.135,0.555-0.1,1.076-0.445,1.525l1.999-0.074c0.993-0.021,3.103-2.711,3.14-2.742c-0.352-1.285-1.344-4.367-2.396-5.445
		C17.795,14.865,15.435,13.998,14.512,13.688z M2,20.645l2.629,0.393l1.472-9.561l-2.63-0.393L2,20.645z M9.492,19.014
		c-0.096-0.061-0.186-0.072-0.311-0.043c-0.518,0.121-1.17,0.857-1.568,1.408c0.03,0.389,0.07,0.943,0.093,1.229
		C8.155,21.9,12.358,24.631,12.92,25c0.398-0.232,2.21-1.182,2.393-2.012C14.99,22.15,9.492,19.014,9.492,19.014z M28,4h-3V1
		c0-0.553-0.447-1-1-1s-1,0.447-1,1v3h-3c-0.553,0-1,0.447-1,1s0.447,1,1,1h3v3c0,0.553,0.447,1,1,1s1-0.447,1-1V6h3
		c0.553,0,1-0.447,1-1S28.553,4,28,4z M20.332,13.053c0,0-2.352-2.229-4.07-2.857c-1.594-0.58-4.066,0.277-4.561,0.654
		c-1.113,1.016-2.303,3.057-2.303,3.057c0.195,0.803,1.139,1.176,1.745,0.828c2.216-1.262,2.89-2.514,2.89-2.514
		s4.189,1.27,5.733,2.855c1.302,1.338,2.325,4.648,2.647,5.781c0.558-0.225,1.205-0.486,1.547-0.623c0,0-1.029-6.635-1.094-7.037
		C20.785,13.268,20.489,13.156,20.332,13.053z M23.898,11.477l1.471,9.561L28,20.645l-1.473-9.561L23.898,11.477z"/>
	<path opacity="0.15" d="M12.92,27c-0.191,0-0.383-0.055-0.549-0.164c-0.379-0.25-5.211-3.391-5.211-3.391
		c-0.26-0.17-0.426-0.45-0.451-0.76l-0.093-1.229c-0.008-0.104,0-0.207,0.023-0.307C6.5,21.108,6.371,21.036,6.26,20.937
		c-0.111-0.101-0.242-0.216-0.396-0.349l-0.247,1.602c-0.076,0.494-0.502,0.848-0.987,0.848c-0.049,0-0.099-0.004-0.149-0.011
		l-2.629-0.393c-0.263-0.039-0.5-0.182-0.658-0.396c-0.158-0.214-0.224-0.482-0.183-0.745l1.471-9.56
		c0.076-0.494,0.501-0.848,0.987-0.848c0.049,0,0.099,0.003,0.149,0.011l2.63,0.393c0.263,0.04,0.5,0.182,0.658,0.396
		c0.158,0.214,0.224,0.482,0.183,0.746l-0.045,0.294c0.001,0,1.486-0.227,1.486-0.227c0.05-0.007,0.1-0.011,0.149-0.011
		c0.286,0,0.559,0.123,0.748,0.336c0.454-0.647,1.029-1.389,1.601-1.911C11.66,10.624,13.376,10,15,10
		c0.597,0,1.136,0.086,1.603,0.256c1.657,0.606,3.662,2.376,4.263,2.927c0.115,0.015,0.366,0.036,0.875,0.036
		c0.293,0,0.651-0.006,1.092-0.021c0.012,0,0.123,0.002,0.166,0.008l-0.089-0.578c-0.04-0.263,0.025-0.531,0.184-0.745
		c0.019-0.025,0.038-0.049,0.059-0.072C22.472,11.492,22,10.8,22,10V8h-2c-1.103,0-2-0.897-2-2s0.897-2,2-2h2V2c0-1.103,0.897-2,2-2
		s2,0.897,2,2v2h2c1.103,0,2,0.897,2,2s-0.897,2-2,2h-2v2c0,0.456-0.153,0.876-0.411,1.213l0.791-0.118
		c0.05-0.007,0.1-0.011,0.148-0.011c0.485,0,0.911,0.354,0.987,0.848l1.473,9.561c0.041,0.263-0.025,0.531-0.184,0.745
		c-0.157,0.215-0.394,0.357-0.657,0.396l-2.631,0.393c-0.05,0.007-0.1,0.011-0.148,0.011c-0.485,0-0.911-0.354-0.987-0.848
		l-0.007-0.044c-0.014,0.006-1.586,0.64-1.586,0.64c-0.12,0.048-0.247,0.072-0.374,0.072c-0.091,0-0.181-0.013-0.269-0.037
		c-0.04,0.086-0.093,0.165-0.156,0.237c-2.231,2.708-3.234,3.063-3.865,3.077c0,0-2.008,0.074-2.021,0.074
		c-0.364,0-0.7-0.198-0.875-0.518c-0.479,0.396-1.069,0.757-1.673,1.098l-0.131,0.075C13.268,26.955,13.094,27,12.92,27z"/>
	<path opacity="0.15" d="M14.512,14.688c-0.399,0.459-1.215,1.264-2.724,2.131c-1.779,1.02-4.544-0.951-3.442-2.625l0.333-0.508
		c-0.581,0.088-1.181,0.182-1.484,0.227c-0.13,0.855-0.906,5.725-0.906,5.725c0.266,0.223,0.475,0.406,0.642,0.557
		c0.486-0.584,1.186-1.266,1.962-1.447c0.457-0.104,0.901-0.033,1.286,0.211c0,0,6.328,3.605,6.371,4.727
		c0.135,0.555-0.1,1.076-0.445,1.525l1.999-0.074c0.993-0.021,3.103-2.711,3.14-2.742c-0.352-1.285-1.344-4.367-2.396-5.445
		C17.795,15.865,15.435,14.998,14.512,14.688z M2,21.645l2.629,0.393l1.472-9.561l-2.63-0.393L2,21.645z M9.492,20.014
		c-0.096-0.061-0.186-0.072-0.311-0.043c-0.518,0.121-1.17,0.857-1.568,1.408c0.03,0.389,0.07,0.943,0.093,1.229
		C8.155,22.9,12.358,25.631,12.92,26c0.398-0.232,2.21-1.182,2.393-2.012C14.99,23.15,9.492,20.014,9.492,20.014z M28,5h-3V2
		c0-0.553-0.447-1-1-1s-1,0.447-1,1v3h-3c-0.553,0-1,0.447-1,1s0.447,1,1,1h3v3c0,0.553,0.447,1,1,1s1-0.447,1-1V7h3
		c0.553,0,1-0.447,1-1S28.553,5,28,5z M20.332,14.053c0,0-2.352-2.229-4.07-2.857c-1.594-0.58-4.066,0.277-4.561,0.654
		c-1.113,1.016-2.303,3.057-2.303,3.057c0.195,0.803,1.139,1.176,1.745,0.828c2.216-1.262,2.89-2.514,2.89-2.514
		s4.189,1.27,5.733,2.855c1.302,1.338,2.325,4.648,2.647,5.781c0.558-0.225,1.205-0.486,1.547-0.623c0,0-1.029-6.635-1.094-7.037
		C20.785,14.268,20.489,14.156,20.332,14.053z M23.898,12.477l1.471,9.561L28,21.645l-1.473-9.561L23.898,12.477z"/>
	<path fill="#FFFFFF" d="M14.512,14.688c-0.399,0.459-1.215,1.264-2.724,2.131c-1.779,1.02-4.544-0.951-3.442-2.625l0.333-0.508
		c-0.581,0.088-1.181,0.182-1.484,0.227c-0.13,0.855-0.906,5.725-0.906,5.725c0.266,0.223,0.475,0.406,0.642,0.557
		c0.486-0.584,1.186-1.266,1.962-1.447c0.457-0.104,0.901-0.033,1.286,0.211c0,0,6.328,3.605,6.371,4.727
		c0.135,0.555-0.1,1.076-0.445,1.525l1.999-0.074c0.993-0.021,3.103-2.711,3.14-2.742c-0.352-1.285-1.344-4.367-2.396-5.445
		C17.795,15.865,15.435,14.998,14.512,14.688z M2,21.645l2.629,0.393l1.472-9.561l-2.63-0.393L2,21.645z M9.492,20.014
		c-0.096-0.061-0.186-0.072-0.311-0.043c-0.518,0.121-1.17,0.857-1.568,1.408c0.03,0.389,0.07,0.943,0.093,1.229
		C8.155,22.9,12.358,25.631,12.92,26c0.398-0.232,2.21-1.182,2.393-2.012C14.99,23.15,9.492,20.014,9.492,20.014z M28,5h-3V2
		c0-0.553-0.447-1-1-1s-1,0.447-1,1v3h-3c-0.553,0-1,0.447-1,1s0.447,1,1,1h3v3c0,0.553,0.447,1,1,1s1-0.447,1-1V7h3
		c0.553,0,1-0.447,1-1S28.553,5,28,5z M20.332,14.053c0,0-2.352-2.229-4.07-2.857c-1.594-0.58-4.066,0.277-4.561,0.654
		c-1.113,1.016-2.303,3.057-2.303,3.057c0.195,0.803,1.139,1.176,1.745,0.828c2.216-1.262,2.89-2.514,2.89-2.514
		s4.189,1.27,5.733,2.855c1.302,1.338,2.325,4.648,2.647,5.781c0.558-0.225,1.205-0.486,1.547-0.623c0,0-1.029-6.635-1.094-7.037
		C20.785,14.268,20.489,14.156,20.332,14.053z M23.898,12.477l1.471,9.561L28,21.645l-1.473-9.561L23.898,12.477z"/>
</g>
</svg>
