<?xml version="1.0" encoding="utf-8"?>
<!-- Generator: Adobe Illustrator 15.0.0, SVG Export Plug-In . SVG Version: 6.00 Build 0)  -->
<!DOCTYPE svg PUBLIC "-//W3C//DTD SVG 1.1//EN" "http://www.w3.org/Graphics/SVG/1.1/DTD/svg11.dtd">
<svg version="1.1" xmlns="http://www.w3.org/2000/svg" xmlns:xlink="http://www.w3.org/1999/xlink" x="0px" y="0px" width="30px"
	 height="30px" viewBox="0 0 30 30" enable-background="new 0 0 30 30" xml:space="preserve">
<g id="DO_NOT_EDIT_-_BOUNDING_BOX">
	<rect id="BOUNDING_BOX" fill="none" width="30" height="30"/>
</g>
<g id="PLACE_YOUR_GRAPHIC_HERE">
	<path opacity="0.3" d="M28.388,10.658c1.337-1.335,0.068-2.238,0.068-2.238c-0.633-0.691-2.189-0.75-2.189-0.75
		c-2.477-0.347-4.428-1.925-4.428-1.925l-5.133-3.706c-4.817-3.186-8.578-2.014-10.74-0.667C5.503,0.633,4.688,0.138,3.75,0.138
		c-1.441,0-2.614,1.172-2.614,2.614c0,0.938,0.497,1.751,1.237,2.214c-1.349,2.162-2.52,5.922,0.666,10.74l3.705,5.135
		c0,0,1.58,1.946,1.926,4.427c0,0,0.059,1.555,0.75,2.188c0,0,0.903,1.269,2.242-0.068l6.201-6.2
		c0.431,1.438,1.749,2.492,3.327,2.492c1.925,0,3.487-1.561,3.487-3.486c0-1.578-1.055-2.896-2.493-3.328l0.087-0.087L28.388,10.658
		z"/>
	<path opacity="0.15" d="M10.451,30C9.5,30,8.889,29.383,8.68,29.132c-0.848-0.845-0.985-2.35-1.006-2.771
		c-0.316-2.158-1.691-3.873-1.706-3.891l-3.74-5.18c-3.231-4.886-2.292-8.826-1.133-11.095C0.483,5.538,0.136,4.673,0.136,3.752
		c0-1.993,1.622-3.614,3.614-3.614c0.921,0,1.786,0.346,2.444,0.955c1.405-0.725,2.896-1.092,4.444-1.092
		c2.18,0,4.407,0.741,6.619,2.204l5.166,3.729c0.06,0.045,1.8,1.424,3.937,1.739c0.423,0.021,1.929,0.158,2.771,1.007
		c0.235,0.196,0.79,0.744,0.861,1.593c0.042,0.503-0.08,1.275-0.898,2.092l-5.23,5.234c1.123,0.824,1.813,2.138,1.813,3.594
		c0,2.474-2.013,4.486-4.487,4.486c-1.456,0-2.769-0.69-3.593-1.813l-5.229,5.228C11.768,29.695,11.122,30,10.451,30z"/>
	<path opacity="0.15" d="M28.388,11.658c1.337-1.335,0.068-2.238,0.068-2.238c-0.633-0.691-2.189-0.75-2.189-0.75
		c-2.477-0.347-4.428-1.925-4.428-1.925l-5.133-3.706c-4.817-3.186-8.578-2.014-10.74-0.667C5.503,1.633,4.688,1.138,3.75,1.138
		c-1.441,0-2.614,1.172-2.614,2.614c0,0.938,0.497,1.751,1.237,2.214c-1.349,2.162-2.52,5.922,0.666,10.74l3.705,5.135
		c0,0,1.58,1.946,1.926,4.427c0,0,0.059,1.555,0.75,2.188c0,0,0.903,1.269,2.242-0.068l6.201-6.2
		c0.431,1.438,1.749,2.492,3.327,2.492c1.925,0,3.487-1.561,3.487-3.486c0-1.578-1.055-2.896-2.493-3.328l0.087-0.087L28.388,11.658
		z"/>
	<path fill="#FFFFFF" d="M28.388,11.658c1.337-1.335,0.068-2.238,0.068-2.238c-0.633-0.691-2.189-0.75-2.189-0.75
		c-2.477-0.347-4.428-1.925-4.428-1.925l-5.133-3.706c-4.817-3.186-8.578-2.014-10.74-0.667C5.503,1.633,4.688,1.138,3.75,1.138
		c-1.441,0-2.614,1.172-2.614,2.614c0,0.938,0.497,1.751,1.237,2.214c-1.349,2.162-2.52,5.922,0.666,10.74l3.705,5.135
		c0,0,1.58,1.946,1.926,4.427c0,0,0.059,1.555,0.75,2.188c0,0,0.903,1.269,2.242-0.068l6.201-6.2
		c0.431,1.438,1.749,2.492,3.327,2.492c1.925,0,3.487-1.561,3.487-3.486c0-1.578-1.055-2.896-2.493-3.328l0.087-0.087L28.388,11.658
		z"/>
</g>
</svg>
