<?xml version="1.0" encoding="utf-8"?>
<!-- Generator: Adobe Illustrator 15.0.0, SVG Export Plug-In . SVG Version: 6.00 Build 0)  -->
<!DOCTYPE svg PUBLIC "-//W3C//DTD SVG 1.1//EN" "http://www.w3.org/Graphics/SVG/1.1/DTD/svg11.dtd">
<svg version="1.1" xmlns="http://www.w3.org/2000/svg" xmlns:xlink="http://www.w3.org/1999/xlink" x="0px" y="0px" width="30px"
	 height="30px" viewBox="0 0 30 30" enable-background="new 0 0 30 30" xml:space="preserve">
<g id="DO_NOT_EDIT_-_BOUNDING_BOX">
	<rect id="BOUNDING_BOX" fill="none" width="30" height="30"/>
</g>
<g id="PLACE_YOUR_GRAPHIC_HERE">
	<path opacity="0.3" d="M12,16H5c-1.102,0-2,0.9-2,2v7c0,1.1,0.898,2,2,2h7c1.101,0,2-0.9,2-2v-7C14,16.9,13.101,16,12,16z M5,25v-7
		h7l0,7H5z M26,16h-7c-1.102,0-2,0.9-2,2v7c0,1.1,0.898,2,2,2h7c1.102,0,2-0.9,2-2v-7C28,16.9,27.102,16,26,16z M26,25h-7v-7h7V25z
		 M26,2h-7c-1.102,0-2,0.9-2,2v7c0,1.1,0.898,2,2,2h7c1.102,0,2-0.9,2-2V4C28,2.9,27.102,2,26,2z M26,11h-7V4h7V11z M4.441,3.221
		l-0.22,0.213c-3.332,3.342-2.597,5.532,0.1,8.234c2.708,2.715,4.921,3.438,8.237,0.116l0.221-0.212
		c3.338-3.346,2.59-5.543-0.102-8.243C9.971,0.621,7.763-0.107,4.441,3.221z"/>
	<path opacity="0.15" d="M19,29c-1.654,0-3-1.346-3-3v-7c0-1.654,1.346-3,3-3h7c1.654,0,3,1.346,3,3v7c0,1.654-1.346,3-3,3H19z
		 M25,25v-5h-5v5H25z M5,29c-1.654,0-3-1.346-3-3v-7c0-1.654,1.346-3,3-3h3.419c-1.965-0.029-3.599-1.416-4.806-2.626
		c-2.524-2.53-4.284-5.45-0.1-9.646l0.232-0.225C5.445,1.799,6.966,1,8.521,1c1.989,0,3.644,1.401,4.864,2.622
		C14.799,5.041,15.973,6.582,16,8.398V5c0-1.654,1.346-3,3-3h7c1.654,0,3,1.346,3,3v7c0,1.654-1.346,3-3,3h-7c-1.654,0-3-1.346-3-3
		V8.525c-0.021,1.398-0.724,2.959-2.513,4.753l-0.236,0.227c-1.67,1.674-3.171,2.473-4.703,2.495H12c1.654,0,3,1.346,3,3v7
		c0,1.654-1.346,3-3,3H5z M11,25l0-5H6v5H11z M25,11V6h-5v5H25z"/>
	<path opacity="0.15" d="M12,17H5c-1.102,0-2,0.9-2,2v7c0,1.1,0.898,2,2,2h7c1.101,0,2-0.9,2-2v-7C14,17.9,13.101,17,12,17z M5,26
		v-7h7l0,7H5z M26,17h-7c-1.102,0-2,0.9-2,2v7c0,1.1,0.898,2,2,2h7c1.102,0,2-0.9,2-2v-7C28,17.9,27.102,17,26,17z M26,26h-7v-7h7
		V26z M26,3h-7c-1.102,0-2,0.9-2,2v7c0,1.1,0.898,2,2,2h7c1.102,0,2-0.9,2-2V5C28,3.9,27.102,3,26,3z M26,12h-7V5h7V12z
		 M4.441,4.221l-0.22,0.213c-3.332,3.342-2.597,5.532,0.1,8.234c2.708,2.715,4.921,3.438,8.237,0.116l0.221-0.212
		c3.338-3.346,2.59-5.543-0.102-8.243C9.971,1.621,7.763,0.893,4.441,4.221z"/>
	<path fill="#FFFFFF" d="M12,17H5c-1.102,0-2,0.9-2,2v7c0,1.1,0.898,2,2,2h7c1.101,0,2-0.9,2-2v-7C14,17.9,13.101,17,12,17z M5,26
		v-7h7l0,7H5z M26,17h-7c-1.102,0-2,0.9-2,2v7c0,1.1,0.898,2,2,2h7c1.102,0,2-0.9,2-2v-7C28,17.9,27.102,17,26,17z M26,26h-7v-7h7
		V26z M26,3h-7c-1.102,0-2,0.9-2,2v7c0,1.1,0.898,2,2,2h7c1.102,0,2-0.9,2-2V5C28,3.9,27.102,3,26,3z M26,12h-7V5h7V12z
		 M4.441,4.221l-0.22,0.213c-3.332,3.342-2.597,5.532,0.1,8.234c2.708,2.715,4.921,3.438,8.237,0.116l0.221-0.212
		c3.338-3.346,2.59-5.543-0.102-8.243C9.971,1.621,7.763,0.893,4.441,4.221z"/>
</g>
</svg>
