<?xml version="1.0" encoding="utf-8"?>
<!-- Generator: Adobe Illustrator 15.0.0, SVG Export Plug-In . SVG Version: 6.00 Build 0)  -->
<!DOCTYPE svg PUBLIC "-//W3C//DTD SVG 1.1//EN" "http://www.w3.org/Graphics/SVG/1.1/DTD/svg11.dtd">
<svg version="1.1" xmlns="http://www.w3.org/2000/svg" xmlns:xlink="http://www.w3.org/1999/xlink" x="0px" y="0px" width="30px"
	 height="30px" viewBox="0 0 30 30" enable-background="new 0 0 30 30" xml:space="preserve">
<g id="DO_NOT_EDIT_-_BOUNDING_BOX">
	<rect id="BOUNDING_BOX" fill="none" width="30" height="30"/>
</g>
<g id="PLACE_YOUR_GRAPHIC_HERE">
	<path opacity="0.3" d="M2.528,22.592C1.684,22.592,1,23.275,1,24.12c0,0.844,0.684,1.529,1.528,1.529
		c0.844,0,1.528-0.686,1.528-1.529C4.057,23.275,3.372,22.592,2.528,22.592z M14.484,16.04V7.6l6.77-1.79v7.314
		c-0.762-0.203-1.738-0.106-2.674,0.346c-1.592,0.77-2.443,2.252-1.902,3.311s2.271,1.293,3.865,0.521
		c1.268-0.613,2.066-1.678,2.064-2.62V2.183c0-0.372-0.295-0.599-0.654-0.504l-8.17,2.16c-0.359,0.096-0.654,0.478-0.654,0.85v9.79
		c-0.762-0.204-1.738-0.106-2.673,0.345c-1.592,0.771-2.444,2.252-1.902,3.311c0.541,1.059,2.271,1.291,3.865,0.522
		C13.683,18.043,14.484,16.981,14.484,16.04z M7.509,21.719c-1.327,0-2.401,1.075-2.401,2.401s1.074,2.401,2.401,2.401
		c1.326,0,2.401-1.075,2.401-2.401S8.835,21.719,7.509,21.719z M27.473,22.592c-0.844,0-1.529,0.684-1.529,1.528
		c0,0.844,0.686,1.529,1.529,1.529S29,24.964,29,24.12C29,23.275,28.316,22.592,27.473,22.592z M22.473,21.72
		c-1.326,0-2.402,1.074-2.402,2.4s1.076,2.401,2.402,2.401c1.324,0,2.4-1.075,2.4-2.401S23.797,21.72,22.473,21.72z M14.99,20.245
		c-2.141,0-3.875,1.735-3.875,3.875c0,2.141,1.735,3.876,3.875,3.876c2.141,0,3.875-1.735,3.875-3.876
		C18.865,21.98,17.131,20.245,14.99,20.245z"/>
	<path opacity="0.15" d="M14.99,29.996c-2.078,0-3.855-1.307-4.557-3.141c-0.594,0.997-1.682,1.666-2.924,1.666
		c-1.304,0-2.439-0.738-3.01-1.818c-0.464,0.577-1.175,0.946-1.971,0.946C1.134,27.649,0,26.515,0,25.12s1.134-2.528,2.528-2.528
		c0.795,0,1.506,0.369,1.97,0.945c0.57-1.08,1.706-1.818,3.01-1.818c1.242,0,2.331,0.669,2.925,1.666
		c0.701-1.834,2.479-3.14,4.556-3.14s3.856,1.307,4.557,3.142c0.594-0.997,1.683-1.667,2.926-1.667c1.31,0,2.449,0.744,3.017,1.833
		c0.464-0.585,1.181-0.961,1.983-0.961c1.394,0,2.527,1.134,2.527,2.528s-1.134,2.529-2.527,2.529c-0.803,0-1.52-0.376-1.983-0.961
		c-0.567,1.088-1.707,1.833-3.017,1.833c-1.243,0-2.332-0.67-2.926-1.667C18.846,28.689,17.067,29.996,14.99,29.996z M10.534,21.109
		c-1.312,0-2.385-0.568-2.872-1.521c-0.316-0.617-0.357-1.355-0.116-2.076c0.354-1.057,1.255-2,2.473-2.589
		c0.681-0.329,1.405-0.514,2.109-0.542V5.688c0-0.823,0.601-1.604,1.397-1.816l8.172-2.161c0.139-0.037,0.278-0.055,0.416-0.055
		c0.838,0,1.494,0.67,1.494,1.525v12.499c0.003,1.363-1.029,2.746-2.629,3.521c-0.749,0.362-1.551,0.555-2.319,0.555
		c-1.312,0-2.385-0.569-2.872-1.521c-0.316-0.619-0.357-1.356-0.115-2.078c0.355-1.057,1.256-2,2.472-2.588
		c0.68-0.328,1.404-0.514,2.109-0.542V8.108l-4.77,1.261v7.67c0,1.361-1.032,2.742-2.63,3.517
		C12.103,20.918,11.301,21.109,10.534,21.109C10.535,21.109,10.535,21.109,10.534,21.109z"/>
	<path opacity="0.15" d="M2.528,23.592C1.684,23.592,1,24.275,1,25.12c0,0.844,0.684,1.529,1.528,1.529
		c0.844,0,1.528-0.686,1.528-1.529C4.057,24.275,3.372,23.592,2.528,23.592z M14.484,17.04V8.6l6.77-1.79v7.314
		c-0.762-0.203-1.738-0.106-2.674,0.346c-1.592,0.77-2.443,2.252-1.902,3.311s2.271,1.293,3.865,0.521
		c1.268-0.613,2.066-1.678,2.064-2.62V3.183c0-0.372-0.295-0.599-0.654-0.504l-8.17,2.16c-0.359,0.096-0.654,0.478-0.654,0.85v9.79
		c-0.762-0.204-1.738-0.106-2.673,0.345c-1.592,0.771-2.444,2.252-1.902,3.311c0.541,1.059,2.271,1.291,3.865,0.522
		C13.683,19.043,14.484,17.981,14.484,17.04z M7.509,22.719c-1.327,0-2.401,1.075-2.401,2.401s1.074,2.401,2.401,2.401
		c1.326,0,2.401-1.075,2.401-2.401S8.835,22.719,7.509,22.719z M27.473,23.592c-0.844,0-1.529,0.684-1.529,1.528
		c0,0.844,0.686,1.529,1.529,1.529S29,25.964,29,25.12C29,24.275,28.316,23.592,27.473,23.592z M22.473,22.72
		c-1.326,0-2.402,1.074-2.402,2.4s1.076,2.401,2.402,2.401c1.324,0,2.4-1.075,2.4-2.401S23.797,22.72,22.473,22.72z M14.99,21.245
		c-2.141,0-3.875,1.735-3.875,3.875c0,2.141,1.735,3.876,3.875,3.876c2.141,0,3.875-1.735,3.875-3.876
		C18.865,22.98,17.131,21.245,14.99,21.245z"/>
	<path fill="#FFFFFF" d="M2.528,23.592C1.684,23.592,1,24.275,1,25.12c0,0.844,0.684,1.529,1.528,1.529
		c0.844,0,1.528-0.686,1.528-1.529C4.057,24.275,3.372,23.592,2.528,23.592z M14.484,17.04V8.6l6.77-1.79v7.314
		c-0.762-0.203-1.738-0.106-2.674,0.346c-1.592,0.77-2.443,2.252-1.902,3.311s2.271,1.293,3.865,0.521
		c1.268-0.613,2.066-1.678,2.064-2.62V3.183c0-0.372-0.295-0.599-0.654-0.504l-8.17,2.16c-0.359,0.096-0.654,0.478-0.654,0.85v9.79
		c-0.762-0.204-1.738-0.106-2.673,0.345c-1.592,0.771-2.444,2.252-1.902,3.311c0.541,1.059,2.271,1.291,3.865,0.522
		C13.683,19.043,14.484,17.981,14.484,17.04z M7.509,22.719c-1.327,0-2.401,1.075-2.401,2.401s1.074,2.401,2.401,2.401
		c1.326,0,2.401-1.075,2.401-2.401S8.835,22.719,7.509,22.719z M27.473,23.592c-0.844,0-1.529,0.684-1.529,1.528
		c0,0.844,0.686,1.529,1.529,1.529S29,25.964,29,25.12C29,24.275,28.316,23.592,27.473,23.592z M22.473,22.72
		c-1.326,0-2.402,1.074-2.402,2.4s1.076,2.401,2.402,2.401c1.324,0,2.4-1.075,2.4-2.401S23.797,22.72,22.473,22.72z M14.99,21.245
		c-2.141,0-3.875,1.735-3.875,3.875c0,2.141,1.735,3.876,3.875,3.876c2.141,0,3.875-1.735,3.875-3.876
		C18.865,22.98,17.131,21.245,14.99,21.245z"/>
</g>
</svg>
