<?xml version="1.0" encoding="utf-8"?>
<!-- Generator: Adobe Illustrator 15.0.0, SVG Export Plug-In . SVG Version: 6.00 Build 0)  -->
<!DOCTYPE svg PUBLIC "-//W3C//DTD SVG 1.1//EN" "http://www.w3.org/Graphics/SVG/1.1/DTD/svg11.dtd">
<svg version="1.1" xmlns="http://www.w3.org/2000/svg" xmlns:xlink="http://www.w3.org/1999/xlink" x="0px" y="0px" width="30px"
	 height="30px" viewBox="0 0 30 30" enable-background="new 0 0 30 30" xml:space="preserve">
<g id="DO_NOT_EDIT_-_BOUNDING_BOX">
	<rect id="BOUNDING_BOX" fill="none" width="30" height="30"/>
</g>
<g id="PLACE_YOUR_GRAPHIC_HERE">
	<path opacity="0.3" d="M7.039,9.527L2,27h2.931l1.03-3.844h5.285L12.254,27h3.41L10.836,9.527H7.039z M6.418,21.188l2.203-8.684
		l2.146,8.684H6.418z M27,9l-7.42,0.002L22.188,1h-4.59L14,12h7.553l-2.434,6l-2.557,0.002l5,8.998l5-9H23.71L27,9z"/>
	<path opacity="0.15" d="M21.563,29c-0.363,0-0.697-0.197-0.874-0.515l-5-8.998c-0.172-0.31-0.167-0.687,0.012-0.992
		c0.18-0.306,0.508-0.493,0.861-0.493l1.884-0.001L20.068,14H14c-0.32,0-0.622-0.154-0.81-0.413s-0.241-0.593-0.141-0.898l3.598-11
		C16.781,1.278,17.165,1,17.598,1h4.59c0.32,0,0.621,0.153,0.81,0.413c0.188,0.259,0.24,0.593,0.142,0.897l-2.181,6.691L27,9
		c0.326,0,0.632,0.159,0.819,0.427s0.232,0.61,0.12,0.917L25.141,18h1.422c0.354,0,0.683,0.188,0.862,0.493
		c0.18,0.305,0.184,0.683,0.012,0.992l-5,9C22.261,28.803,21.926,29,21.563,29z M12.254,29c-0.455,0-0.852-0.307-0.967-0.746
		l-0.812-3.098H6.728l-0.832,3.103C5.779,28.696,5.383,29,4.931,29H2c-0.314,0-0.61-0.147-0.799-0.398
		c-0.188-0.251-0.249-0.577-0.162-0.879L6.078,10.25c0.124-0.428,0.515-0.723,0.961-0.723h3.797c0.45,0,0.844,0.3,0.964,0.734
		l4.828,17.472c0.083,0.301,0.021,0.624-0.168,0.872C16.271,28.854,15.977,29,15.664,29H12.254z M9.489,21.188l-0.881-3.566
		l-0.905,3.566H9.489z"/>
	<path opacity="0.15" d="M7.039,10.527L2,28h2.931l1.03-3.844h5.285L12.254,28h3.41l-4.828-17.473H7.039z M6.418,22.188l2.203-8.684
		l2.146,8.684H6.418z M27,10l-7.42,0.002L22.188,2h-4.59L14,13h7.553l-2.434,6l-2.557,0.002l5,8.998l5-9H23.71L27,10z"/>
	<path fill="#FFFFFF" d="M7.039,10.527L2,28h2.931l1.03-3.844h5.285L12.254,28h3.41l-4.828-17.473H7.039z M6.418,22.188l2.203-8.684
		l2.146,8.684H6.418z M27,10l-7.42,0.002L22.188,2h-4.59L14,13h7.553l-2.434,6l-2.557,0.002l5,8.998l5-9H23.71L27,10z"/>
</g>
</svg>
