<?xml version="1.0" encoding="utf-8"?>
<!-- Generator: Adobe Illustrator 15.0.0, SVG Export Plug-In . SVG Version: 6.00 Build 0)  -->
<!DOCTYPE svg PUBLIC "-//W3C//DTD SVG 1.1//EN" "http://www.w3.org/Graphics/SVG/1.1/DTD/svg11.dtd">
<svg version="1.1" xmlns="http://www.w3.org/2000/svg" xmlns:xlink="http://www.w3.org/1999/xlink" x="0px" y="0px" width="30px"
	 height="30px" viewBox="0 0 30 30" enable-background="new 0 0 30 30" xml:space="preserve">
<g id="DO_NOT_EDIT_-_BOUNDING_BOX">
	<rect id="BOUNDING_BOX" fill="none" width="30" height="30"/>
</g>
<g id="PLACE_YOUR_GRAPHIC_HERE">
	<path opacity="0.3" d="M27.555,5.122C27.414,5.04,27.256,5,27.1,5c-0.15,0-0.305,0.038-0.439,0.115L17,12.456V5.898
		c0-0.319-0.168-0.612-0.445-0.776C16.414,5.04,16.256,5,16.1,5c-0.15,0-0.305,0.038-0.439,0.115L6,12.456V6c0-0.553-0.447-1-1-1H3
		C2.447,5,2,5.447,2,6v16c0,0.553,0.447,1,1,1h2c0.553,0,1-0.447,1-1v-6.456l9.658,7.341C15.795,22.962,15.947,23,16.1,23
		c0.156,0,0.314-0.038,0.455-0.122C16.832,22.716,17,22.421,17,22.102v-6.558l9.658,7.341C26.795,22.962,26.947,23,27.1,23
		c0.156,0,0.314-0.038,0.455-0.122C27.832,22.716,28,22.421,28,22.102V5.898C28,5.579,27.832,5.286,27.555,5.122z"/>
	<path opacity="0.15" d="M27.1,25c-0.327,0-0.649-0.085-0.933-0.244c-0.04-0.022-0.078-0.048-0.114-0.075L18,18.561v4.541
		c0,0.672-0.36,1.301-0.94,1.64C16.778,24.909,16.444,25,16.1,25c-0.327,0-0.649-0.085-0.933-0.244
		c-0.04-0.022-0.078-0.048-0.114-0.075L7,18.561V23c0,1.103-0.897,2-2,2H3c-1.103,0-2-0.897-2-2V7c0-1.103,0.897-2,2-2h2
		c1.103,0,2,0.897,2,2v4.44l8.055-6.121c0.035-0.026,0.071-0.05,0.108-0.071C15.446,5.085,15.77,5,16.1,5
		c0.338,0,0.669,0.089,0.959,0.258C17.642,5.603,18,6.23,18,6.898v4.542l8.055-6.121c0.035-0.026,0.071-0.05,0.108-0.071
		C26.446,5.085,26.77,5,27.1,5c0.338,0,0.669,0.089,0.959,0.258C28.642,5.603,29,6.23,29,6.898v16.203c0,0.672-0.36,1.301-0.94,1.64
		C27.778,24.909,27.444,25,27.1,25z"/>
	<path opacity="0.15" d="M27.555,6.122C27.414,6.04,27.256,6,27.1,6c-0.15,0-0.305,0.038-0.439,0.115L17,13.456V6.898
		c0-0.319-0.168-0.612-0.445-0.776C16.414,6.04,16.256,6,16.1,6c-0.15,0-0.305,0.038-0.439,0.115L6,13.456V7c0-0.553-0.447-1-1-1H3
		C2.447,6,2,6.447,2,7v16c0,0.553,0.447,1,1,1h2c0.553,0,1-0.447,1-1v-6.456l9.658,7.341C15.795,23.962,15.947,24,16.1,24
		c0.156,0,0.314-0.038,0.455-0.122C16.832,23.716,17,23.421,17,23.102v-6.558l9.658,7.341C26.795,23.962,26.947,24,27.1,24
		c0.156,0,0.314-0.038,0.455-0.122C27.832,23.716,28,23.421,28,23.102V6.898C28,6.579,27.832,6.286,27.555,6.122z"/>
	<path fill="#FFFFFF" d="M27.555,6.122C27.414,6.04,27.256,6,27.1,6c-0.15,0-0.305,0.038-0.439,0.115L17,13.456V6.898
		c0-0.319-0.168-0.612-0.445-0.776C16.414,6.04,16.256,6,16.1,6c-0.15,0-0.305,0.038-0.439,0.115L6,13.456V7c0-0.553-0.447-1-1-1H3
		C2.447,6,2,6.447,2,7v16c0,0.553,0.447,1,1,1h2c0.553,0,1-0.447,1-1v-6.456l9.658,7.341C15.795,23.962,15.947,24,16.1,24
		c0.156,0,0.314-0.038,0.455-0.122C16.832,23.716,17,23.421,17,23.102v-6.558l9.658,7.341C26.795,23.962,26.947,24,27.1,24
		c0.156,0,0.314-0.038,0.455-0.122C27.832,23.716,28,23.421,28,23.102V6.898C28,6.579,27.832,6.286,27.555,6.122z"/>
</g>
</svg>
