<?xml version="1.0" encoding="utf-8"?>
<!-- Generator: Adobe Illustrator 15.0.0, SVG Export Plug-In . SVG Version: 6.00 Build 0)  -->
<!DOCTYPE svg PUBLIC "-//W3C//DTD SVG 1.1//EN" "http://www.w3.org/Graphics/SVG/1.1/DTD/svg11.dtd">
<svg version="1.1" xmlns="http://www.w3.org/2000/svg" xmlns:xlink="http://www.w3.org/1999/xlink" x="0px" y="0px" width="30px"
	 height="30px" viewBox="0 0 30 30" enable-background="new 0 0 30 30" xml:space="preserve">
<g id="DO_NOT_EDIT_-_BOUNDING_BOX">
	<rect id="BOUNDING_BOX" fill="none" width="30" height="30"/>
</g>
<g id="PLACE_YOUR_GRAPHIC_HERE">
	<g>
		<path opacity="0.3" d="M20.831,9.553L14.262,3v8.877l-3.724-3.723L9.273,9.417l4.555,4.578l-4.659,4.657l1.267,1.265l3.823-3.821
			V25l6.572-6.557l-4.474-4.448L20.831,9.553z M16.049,7.299l2.237,2.23l-2.237,2.24V7.299z M18.361,18.512l-2.313,2.307v-4.621
			L18.361,18.512z"/>
		<rect fill="none" width="30" height="30"/>
		<path opacity="0.15" d="M14.259,27c-0.129,0-0.259-0.025-0.383-0.076c-0.374-0.155-0.617-0.52-0.617-0.924v-6.491l-2.116,2.115
			c-0.195,0.195-0.451,0.293-0.707,0.293s-0.511-0.098-0.707-0.292L8.462,20.36c-0.188-0.188-0.293-0.442-0.293-0.708
			c0-0.265,0.105-0.52,0.293-0.707l3.954-3.952l-3.851-3.871c-0.389-0.391-0.388-1.023,0.002-1.413l1.265-1.263
			c0.195-0.195,0.451-0.292,0.707-0.292s0.512,0.098,0.707,0.293l2.017,2.016V4c0-0.404,0.243-0.769,0.617-0.924
			C14.002,3.025,14.132,3,14.262,3c0.26,0,0.515,0.101,0.706,0.292l6.569,6.553c0.188,0.188,0.294,0.443,0.294,0.709
			s-0.106,0.521-0.295,0.708l-3.76,3.733l3.76,3.739c0.188,0.188,0.295,0.442,0.295,0.708s-0.105,0.521-0.294,0.709l-6.572,6.557
			C14.774,26.898,14.519,27,14.259,27z"/>
		<path opacity="0.15" d="M20.831,10.553L14.262,4v8.877l-3.724-3.723l-1.265,1.263l4.555,4.578l-4.659,4.657l1.267,1.265
			l3.823-3.821V26l6.572-6.557l-4.474-4.448L20.831,10.553z M16.049,8.299l2.237,2.23l-2.237,2.24V8.299z M18.361,19.512
			l-2.313,2.307v-4.621L18.361,19.512z"/>
		<path fill="#FFFFFF" d="M20.831,10.553L14.262,4v8.877l-3.724-3.723l-1.265,1.263l4.555,4.578l-4.659,4.657l1.267,1.265
			l3.823-3.821V26l6.572-6.557l-4.474-4.448L20.831,10.553z M16.049,8.299l2.237,2.23l-2.237,2.24V8.299z M18.361,19.512
			l-2.313,2.307v-4.621L18.361,19.512z"/>
	</g>
</g>
</svg>
