<?xml version="1.0" encoding="utf-8"?>
<!-- Generator: Adobe Illustrator 15.0.0, SVG Export Plug-In . SVG Version: 6.00 Build 0)  -->
<!DOCTYPE svg PUBLIC "-//W3C//DTD SVG 1.1//EN" "http://www.w3.org/Graphics/SVG/1.1/DTD/svg11.dtd">
<svg version="1.1" xmlns="http://www.w3.org/2000/svg" xmlns:xlink="http://www.w3.org/1999/xlink" x="0px" y="0px" width="30px"
	 height="30px" viewBox="0 0 30 30" enable-background="new 0 0 30 30" xml:space="preserve">
<g id="DO_NOT_EDIT_-_BOUNDING_BOX">
	<rect id="BOUNDING_BOX" fill="none" width="30" height="30"/>
</g>
<g id="PLACE_YOUR_GRAPHIC_HERE">
	<g>
		<path opacity="0.3" d="M14.838,5.063c-0.217-0.221-0.623-0.445-0.926-0.461L8.602,4.427l0.027-0.027l-3.4-3.4L4.307,1.925
			l0.933,0.93L3.853,4.241L2.918,3.308L2,4.233l3.4,3.402l0.009-0.01l0.189,5.289c0.016,0.32,0.235,0.703,0.462,0.926L19,27.001v-9
			h9L14.838,5.063z"/>
		<path opacity="0.15" d="M19,29.001c-0.263,0-0.521-0.104-0.713-0.299L5.348,15.542c-0.318-0.313-0.716-0.924-0.748-1.578
			l-0.175-4.89L1.292,5.94c-0.389-0.39-0.39-1.02-0.002-1.411l0.918-0.926C2.395,3.415,2.65,3.308,2.916,3.308
			c0.001,0,0.001,0,0.002,0c0.198,0,0.39,0.059,0.553,0.167C3.216,3.087,3.258,2.561,3.598,2.219L4.52,1.293
			C4.708,1.105,4.962,1,5.228,0.999c0,0,0,0,0.001,0c0.265,0,0.52,0.105,0.707,0.293l3.15,3.15l4.859,0.161
			c0.631,0.032,1.257,0.405,1.606,0.76l13.15,12.925c0.289,0.284,0.378,0.716,0.225,1.092c-0.154,0.376-0.52,0.621-0.926,0.621h-8v8
			c0,0.406-0.245,0.771-0.621,0.926C19.256,28.977,19.128,29.001,19,29.001z"/>
		<path opacity="0.15" d="M14.838,6.063c-0.217-0.221-0.623-0.445-0.926-0.461L8.602,5.427l0.027-0.027l-3.4-3.4L4.307,2.925
			l0.933,0.93L3.853,5.241L2.918,4.308L2,5.233l3.4,3.402l0.009-0.01l0.189,5.289c0.016,0.32,0.235,0.703,0.462,0.926L19,28.001v-9
			h9L14.838,6.063z"/>
		<path fill="#FFFFFF" d="M14.838,6.063c-0.217-0.221-0.623-0.445-0.926-0.461L8.602,5.427l0.027-0.027l-3.4-3.4L4.307,2.925
			l0.933,0.93L3.853,5.241L2.918,4.308L2,5.233l3.4,3.402l0.009-0.01l0.189,5.289c0.016,0.32,0.235,0.703,0.462,0.926L19,28.001v-9
			h9L14.838,6.063z"/>
		<rect fill="none" width="30" height="30"/>
	</g>
</g>
</svg>
