<?xml version="1.0" encoding="utf-8"?>
<!-- Generator: Adobe Illustrator 15.0.0, SVG Export Plug-In . SVG Version: 6.00 Build 0)  -->
<!DOCTYPE svg PUBLIC "-//W3C//DTD SVG 1.1//EN" "http://www.w3.org/Graphics/SVG/1.1/DTD/svg11.dtd">
<svg version="1.1" xmlns="http://www.w3.org/2000/svg" xmlns:xlink="http://www.w3.org/1999/xlink" x="0px" y="0px" width="30px"
	 height="30px" viewBox="0 0 30 30" enable-background="new 0 0 30 30" xml:space="preserve">
<g id="DO_NOT_EDIT_-_BOUNDING_BOX">
	<rect id="BOUNDING_BOX" fill="none" width="30" height="30"/>
</g>
<g id="PLACE_YOUR_GRAPHIC_HERE">
	<path opacity="0.3" d="M26.077,3h-3.121c-0.573,0-0.796,0.4-0.488,0.889l0.847,1.368c0.308,0.486,0.086,0.888-0.487,0.888h-3.132
		c-0.573,0-0.795-0.4-0.489-0.888l0.849-1.368C20.357,3.4,20.139,3,19.564,3h-9.131C9.859,3,9.641,3.4,9.945,3.889l0.849,1.368
		c0.306,0.486,0.085,0.888-0.489,0.888H7.174c-0.572,0-0.795-0.4-0.49-0.888l0.851-1.368C7.838,3.4,7.616,3,7.042,3H3.924
		C3.413,3,3,3.41,3,3.917v20.166C3,24.59,3.413,25,3.924,25h22.153C26.588,25,27,24.59,27,24.083V3.917C27,3.41,26.588,3,26.077,3z
		 M14.091,20.715c0,0.111-0.089,0.201-0.199,0.201h-7c-0.11,0-0.2-0.09-0.2-0.201v-1.516c0-0.109,0.09-0.199,0.2-0.199H8.94v-7.004
		l-2.002,0.48c-0.016,0.004-0.031,0.006-0.047,0.006c-0.045,0-0.088-0.016-0.124-0.043C6.72,12.4,6.691,12.344,6.691,12.281v-1.613
		c0-0.08,0.048-0.152,0.121-0.184l3.393-1.469L11.892,9c0.11,0,0.199,0.09,0.199,0.199V19h1.801c0.11,0,0.199,0.09,0.199,0.199
		V20.715z M23.307,20.715c0,0.111-0.09,0.201-0.2,0.201h-7.215c-0.11,0-0.2-0.09-0.2-0.201v-0.998c0-2.398,1.561-3.908,3.022-5.137
		c0.947-0.795,1.521-1.342,1.521-2.236c0-0.658-0.271-1.445-1.563-1.445c-0.614,0-1.395,0.178-2.32,0.525
		c-0.022,0.008-0.047,0.014-0.07,0.014c-0.041,0-0.08-0.012-0.114-0.037c-0.054-0.037-0.086-0.098-0.086-0.164V9.689
		c0-0.09,0.06-0.168,0.146-0.191C17.403,9.168,18.458,9,19.367,9c2.408,0,3.846,1.215,3.846,3.25c0,1.744-0.925,2.658-2.336,3.854
		c-1.31,1.107-2.149,1.865-2.336,2.896h4.566c0.053,0,0.103,0.021,0.142,0.059c0.037,0.037,0.059,0.088,0.059,0.141L23.307,20.715z"
		/>
	<path opacity="0.15" d="M3.924,27C2.863,27,2,26.14,2,25.083V4.917C2,3.86,2.863,3,3.924,3h3.118c0.647,0,2.745,0,3.392,0h9.131
		c0.646,0,2.743,0,3.392,0h3.121C27.138,3,28,3.86,28,4.917v20.166C28,26.14,27.138,27,26.077,27H3.924z"/>
	<path opacity="0.15" d="M26.077,4h-3.121c-0.573,0-0.796,0.4-0.488,0.889l0.847,1.368c0.308,0.486,0.086,0.888-0.487,0.888h-3.132
		c-0.573,0-0.795-0.4-0.489-0.888l0.849-1.368C20.357,4.4,20.139,4,19.564,4h-9.131C9.859,4,9.641,4.4,9.945,4.889l0.849,1.368
		c0.306,0.486,0.085,0.888-0.489,0.888H7.174c-0.572,0-0.795-0.4-0.49-0.888l0.851-1.368C7.838,4.4,7.616,4,7.042,4H3.924
		C3.413,4,3,4.41,3,4.917v20.166C3,25.59,3.413,26,3.924,26h22.153C26.588,26,27,25.59,27,25.083V4.917C27,4.41,26.588,4,26.077,4z
		 M14.091,21.715c0,0.111-0.089,0.201-0.199,0.201h-7c-0.11,0-0.2-0.09-0.2-0.201v-1.516c0-0.109,0.09-0.199,0.2-0.199H8.94v-7.004
		l-2.002,0.48c-0.016,0.004-0.031,0.006-0.047,0.006c-0.045,0-0.088-0.016-0.124-0.043C6.72,13.4,6.691,13.344,6.691,13.281v-1.613
		c0-0.08,0.048-0.152,0.121-0.184l3.393-1.469L11.892,10c0.11,0,0.199,0.09,0.199,0.199V20h1.801c0.11,0,0.199,0.09,0.199,0.199
		V21.715z M23.307,21.715c0,0.111-0.09,0.201-0.2,0.201h-7.215c-0.11,0-0.2-0.09-0.2-0.201v-0.998c0-2.398,1.561-3.908,3.022-5.137
		c0.947-0.795,1.521-1.342,1.521-2.236c0-0.658-0.271-1.445-1.563-1.445c-0.614,0-1.395,0.178-2.32,0.525
		c-0.022,0.008-0.047,0.014-0.07,0.014c-0.041,0-0.08-0.012-0.114-0.037c-0.054-0.037-0.086-0.098-0.086-0.164v-1.547
		c0-0.09,0.06-0.168,0.146-0.191C17.403,10.168,18.458,10,19.367,10c2.408,0,3.846,1.215,3.846,3.25
		c0,1.744-0.925,2.658-2.336,3.854c-1.31,1.107-2.149,1.865-2.336,2.896h4.566c0.053,0,0.103,0.021,0.142,0.059
		c0.037,0.037,0.059,0.088,0.059,0.141L23.307,21.715z"/>
	<path fill="#FFFFFF" d="M26.077,4h-3.121c-0.573,0-0.796,0.4-0.488,0.889l0.847,1.368c0.308,0.486,0.086,0.888-0.487,0.888h-3.132
		c-0.573,0-0.795-0.4-0.489-0.888l0.849-1.368C20.357,4.4,20.139,4,19.564,4h-9.131C9.859,4,9.641,4.4,9.945,4.889l0.849,1.368
		c0.306,0.486,0.085,0.888-0.489,0.888H7.174c-0.572,0-0.795-0.4-0.49-0.888l0.851-1.368C7.838,4.4,7.616,4,7.042,4H3.924
		C3.413,4,3,4.41,3,4.917v20.166C3,25.59,3.413,26,3.924,26h22.153C26.588,26,27,25.59,27,25.083V4.917C27,4.41,26.588,4,26.077,4z
		 M14.091,21.715c0,0.111-0.089,0.201-0.199,0.201h-7c-0.11,0-0.2-0.09-0.2-0.201v-1.516c0-0.109,0.09-0.199,0.2-0.199H8.94v-7.004
		l-2.002,0.48c-0.016,0.004-0.031,0.006-0.047,0.006c-0.045,0-0.088-0.016-0.124-0.043C6.72,13.4,6.691,13.344,6.691,13.281v-1.613
		c0-0.08,0.048-0.152,0.121-0.184l3.393-1.469L11.892,10c0.11,0,0.199,0.09,0.199,0.199V20h1.801c0.11,0,0.199,0.09,0.199,0.199
		V21.715z M23.307,21.715c0,0.111-0.09,0.201-0.2,0.201h-7.215c-0.11,0-0.2-0.09-0.2-0.201v-0.998c0-2.398,1.561-3.908,3.022-5.137
		c0.947-0.795,1.521-1.342,1.521-2.236c0-0.658-0.271-1.445-1.563-1.445c-0.614,0-1.395,0.178-2.32,0.525
		c-0.022,0.008-0.047,0.014-0.07,0.014c-0.041,0-0.08-0.012-0.114-0.037c-0.054-0.037-0.086-0.098-0.086-0.164v-1.547
		c0-0.09,0.06-0.168,0.146-0.191C17.403,10.168,18.458,10,19.367,10c2.408,0,3.846,1.215,3.846,3.25
		c0,1.744-0.925,2.658-2.336,3.854c-1.31,1.107-2.149,1.865-2.336,2.896h4.566c0.053,0,0.103,0.021,0.142,0.059
		c0.037,0.037,0.059,0.088,0.059,0.141L23.307,21.715z"/>
</g>
</svg>
