<?xml version="1.0" encoding="utf-8"?>
<!-- Generator: Adobe Illustrator 15.0.0, SVG Export Plug-In . SVG Version: 6.00 Build 0)  -->
<!DOCTYPE svg PUBLIC "-//W3C//DTD SVG 1.1//EN" "http://www.w3.org/Graphics/SVG/1.1/DTD/svg11.dtd">
<svg version="1.1" xmlns="http://www.w3.org/2000/svg" xmlns:xlink="http://www.w3.org/1999/xlink" x="0px" y="0px" width="30px"
	 height="30px" viewBox="0 0 30 30" enable-background="new 0 0 30 30" xml:space="preserve">
<g id="DO_NOT_EDIT_-_BOUNDING_BOX">
	<rect id="BOUNDING_BOX" fill="none" width="30" height="30"/>
</g>
<g id="PLACE_YOUR_GRAPHIC_HERE">
	<path opacity="0.3" d="M15,9.5c-3.033,0-5.5,2.469-5.5,5.5s2.467,5.5,5.5,5.5c3.031,0,5.5-2.469,5.5-5.5S18.031,9.5,15,9.5z
		 M15,18.5c-1.93,0-3.5-1.57-3.5-3.5s1.57-3.5,3.5-3.5s3.5,1.57,3.5,3.5S16.93,18.5,15,18.5z M27,6H9c0-0.55-0.451-1-1-1H5
		C4.449,5,4,5.45,4,6H3C2.449,6,2,6.45,2,7v16c0,0.55,0.449,1,1,1h24c0.549,0,1-0.45,1-1V7C28,6.45,27.549,6,27,6z M6.5,10
		c-0.553,0-1-0.447-1-1s0.447-1,1-1s1,0.447,1,1S7.053,10,6.5,10z M15,21.75c-3.729,0-6.75-3.021-6.75-6.75S11.271,8.25,15,8.25
		s6.75,3.021,6.75,6.75S18.729,21.75,15,21.75z M26,9h-4V7.5h4V9z"/>
	<path opacity="0.15" d="M3,26c-1.103,0-2-0.897-2-2V8c0-1.103,0.897-2,2-2h0.269C3.615,5.403,4.261,5,5,5h3
		c0.739,0,1.385,0.403,1.731,1H27c1.103,0,2,0.897,2,2v16c0,1.103-0.897,2-2,2H3z"/>
	<path opacity="0.15" d="M15,10.5c-3.033,0-5.5,2.469-5.5,5.5s2.467,5.5,5.5,5.5c3.031,0,5.5-2.469,5.5-5.5S18.031,10.5,15,10.5z
		 M15,19.5c-1.93,0-3.5-1.57-3.5-3.5s1.57-3.5,3.5-3.5s3.5,1.57,3.5,3.5S16.93,19.5,15,19.5z M27,7H9c0-0.55-0.451-1-1-1H5
		C4.449,6,4,6.45,4,7H3C2.449,7,2,7.45,2,8v16c0,0.55,0.449,1,1,1h24c0.549,0,1-0.45,1-1V8C28,7.45,27.549,7,27,7z M6.5,11
		c-0.553,0-1-0.447-1-1s0.447-1,1-1s1,0.447,1,1S7.053,11,6.5,11z M15,22.75c-3.729,0-6.75-3.021-6.75-6.75S11.271,9.25,15,9.25
		s6.75,3.021,6.75,6.75S18.729,22.75,15,22.75z M26,10h-4V8.5h4V10z"/>
	<path fill="#FFFFFF" d="M15,10.5c-3.033,0-5.5,2.469-5.5,5.5s2.467,5.5,5.5,5.5c3.031,0,5.5-2.469,5.5-5.5S18.031,10.5,15,10.5z
		 M15,19.5c-1.93,0-3.5-1.57-3.5-3.5s1.57-3.5,3.5-3.5s3.5,1.57,3.5,3.5S16.93,19.5,15,19.5z M27,7H9c0-0.55-0.451-1-1-1H5
		C4.449,6,4,6.45,4,7H3C2.449,7,2,7.45,2,8v16c0,0.55,0.449,1,1,1h24c0.549,0,1-0.45,1-1V8C28,7.45,27.549,7,27,7z M6.5,11
		c-0.553,0-1-0.447-1-1s0.447-1,1-1s1,0.447,1,1S7.053,11,6.5,11z M15,22.75c-3.729,0-6.75-3.021-6.75-6.75S11.271,9.25,15,9.25
		s6.75,3.021,6.75,6.75S18.729,22.75,15,22.75z M26,10h-4V8.5h4V10z"/>
</g>
</svg>
