<?xml version="1.0" encoding="utf-8"?>
<!-- Generator: Adobe Illustrator 15.0.0, SVG Export Plug-In . SVG Version: 6.00 Build 0)  -->
<!DOCTYPE svg PUBLIC "-//W3C//DTD SVG 1.1//EN" "http://www.w3.org/Graphics/SVG/1.1/DTD/svg11.dtd">
<svg version="1.1" xmlns="http://www.w3.org/2000/svg" xmlns:xlink="http://www.w3.org/1999/xlink" x="0px" y="0px" width="30px"
	 height="30px" viewBox="0 0 30 30" enable-background="new 0 0 30 30" xml:space="preserve">
<g id="DO_NOT_EDIT_-_BOUNDING_BOX">
	<rect id="BOUNDING_BOX" fill="none" width="30" height="30"/>
</g>
<g id="PLACE_YOUR_GRAPHIC_HERE">
	<path opacity="0.3" d="M15,1C7.819,1,2,6.82,2,14s5.819,13,13,13c7.18,0,13-5.82,13-13S22.18,1,15,1z M23.001,8.175l-6.848,6.846
		c0,0.001-0.001,0.003-0.002,0.004l-0.654,0.652c-0.359,0.359-0.948,0.359-1.308,0l-5.231-5.231c-0.359-0.359-0.359-0.948,0-1.308
		l0.654-0.654c0.359-0.359,0.947-0.359,1.307,0l4.252,4.251l6.195-6.194c0.359-0.359,0.948-0.359,1.308,0l0.327,0.326
		C23.36,7.227,23.36,7.815,23.001,8.175z"/>
	<path opacity="0.15" d="M15,29C7.28,29,1,22.72,1,15S7.28,1,15,1s14,6.28,14,14S22.72,29,15,29z"/>
	<path opacity="0.15" d="M15,2C7.819,2,2,7.82,2,15s5.819,13,13,13c7.18,0,13-5.82,13-13S22.18,2,15,2z M23.001,9.175l-6.848,6.846
		c0,0.001-0.001,0.003-0.002,0.004l-0.654,0.652c-0.359,0.359-0.948,0.359-1.308,0l-5.231-5.231c-0.359-0.359-0.359-0.948,0-1.308
		l0.654-0.654c0.359-0.359,0.947-0.359,1.307,0l4.252,4.251l6.195-6.194c0.359-0.359,0.948-0.359,1.308,0l0.327,0.326
		C23.36,8.227,23.36,8.815,23.001,9.175z"/>
	<path fill="#FFFFFF" d="M15,2C7.819,2,2,7.82,2,15s5.819,13,13,13c7.18,0,13-5.82,13-13S22.18,2,15,2z M23.001,9.175l-6.848,6.846
		c0,0.001-0.001,0.003-0.002,0.004l-0.654,0.652c-0.359,0.359-0.948,0.359-1.308,0l-5.231-5.231c-0.359-0.359-0.359-0.948,0-1.308
		l0.654-0.654c0.359-0.359,0.947-0.359,1.307,0l4.252,4.251l6.195-6.194c0.359-0.359,0.948-0.359,1.308,0l0.327,0.326
		C23.36,8.227,23.36,8.815,23.001,9.175z"/>
</g>
</svg>
