<?xml version="1.0" encoding="utf-8"?>
<!-- Generator: Adobe Illustrator 15.0.0, SVG Export Plug-In . SVG Version: 6.00 Build 0)  -->
<!DOCTYPE svg PUBLIC "-//W3C//DTD SVG 1.1//EN" "http://www.w3.org/Graphics/SVG/1.1/DTD/svg11.dtd">
<svg version="1.1" xmlns="http://www.w3.org/2000/svg" xmlns:xlink="http://www.w3.org/1999/xlink" x="0px" y="0px" width="30px"
	 height="30px" viewBox="0 0 30 30" enable-background="new 0 0 30 30" xml:space="preserve">
<g id="DO_NOT_EDIT_-_BOUNDING_BOX">
	<rect id="BOUNDING_BOX" fill="none" width="30" height="30"/>
</g>
<g id="PLACE_YOUR_GRAPHIC_HERE">
	<g>
		<path opacity="0.3" d="M28,19h-4V4.999h-4V5H9.998V1c0-0.55-0.45-1-1-1h-2c-0.55,0-1,0.45-1,1v4H2C1.45,5,1,5.45,1,6v2
			c0,0.55,0.45,1,1,1h3.998v12C5.998,21.004,6,21.006,6,21.01V23h14v4c0,0.55,0.45,1,1,1h2c0.55,0,1-0.45,1-1v-4h4
			c0.55,0,1-0.45,1-1v-2C29,19.45,28.55,19,28,19z M20,19H9.998V9H20V19z"/>
		<rect fill="none" width="30" height="30"/>
		<path opacity="0.15" d="M21,30c-1.103,0-2-0.897-2-2v-3H6c-0.552,0-1-0.447-1-1L4.998,11H2c-1.103,0-2-0.897-2-2V7
			c0-1.103,0.897-2,2-2h2.998V2c0-1.103,0.897-2,2-2h2c1.103,0,2,0.897,2,2v3L24,4.999c0.265,0,0.52,0.105,0.707,0.293
			S25,5.734,25,5.999V19h3c1.103,0,2,0.897,2,2v2c0,1.103-0.897,2-2,2h-3v3c0,1.103-0.897,2-2,2H21z M19,19v-8h-8.002v8H19z"/>
		<path opacity="0.15" d="M28,20h-4V5.999h-4V6H9.998V2c0-0.55-0.45-1-1-1h-2c-0.55,0-1,0.45-1,1v4H2C1.45,6,1,6.45,1,7v2
			c0,0.55,0.45,1,1,1h3.998v12C5.998,22.004,6,22.006,6,22.01V24h14v4c0,0.55,0.45,1,1,1h2c0.55,0,1-0.45,1-1v-4h4
			c0.55,0,1-0.45,1-1v-2C29,20.45,28.55,20,28,20z M20,20H9.998V10H20V20z"/>
		<path fill="#FFFFFF" d="M28,20h-4V5.999h-4V6H9.998V2c0-0.55-0.45-1-1-1h-2c-0.55,0-1,0.45-1,1v4H2C1.45,6,1,6.45,1,7v2
			c0,0.55,0.45,1,1,1h3.998v12C5.998,22.004,6,22.006,6,22.01V24h14v4c0,0.55,0.45,1,1,1h2c0.55,0,1-0.45,1-1v-4h4
			c0.55,0,1-0.45,1-1v-2C29,20.45,28.55,20,28,20z M20,20H9.998V10H20V20z"/>
	</g>
</g>
</svg>
