<?xml version="1.0" encoding="utf-8"?>
<!-- Generator: Adobe Illustrator 15.0.0, SVG Export Plug-In . SVG Version: 6.00 Build 0)  -->
<!DOCTYPE svg PUBLIC "-//W3C//DTD SVG 1.1//EN" "http://www.w3.org/Graphics/SVG/1.1/DTD/svg11.dtd">
<svg version="1.1" xmlns="http://www.w3.org/2000/svg" xmlns:xlink="http://www.w3.org/1999/xlink" x="0px" y="0px" width="30px"
	 height="30px" viewBox="0 0 30 30" enable-background="new 0 0 30 30" xml:space="preserve">
<g id="DO_NOT_EDIT_-_BOUNDING_BOX">
	<rect id="BOUNDING_BOX" fill="none" width="30" height="30"/>
</g>
<g id="PLACE_YOUR_GRAPHIC_HERE">
	<path opacity="0.3" d="M22.803,3.205l-0.672-1.702C22.021,1.227,21.693,1,21.4,1H8.6C8.307,1,7.979,1.227,7.871,1.503L7.199,3.205
		C7.09,3.482,7,3.952,7,4.25v19.5c0,0.298,0.09,0.768,0.199,1.045l0.67,1.702C7.979,26.773,8.307,27,8.6,27H21.4
		c0.293,0,0.621-0.227,0.73-0.503l0.67-1.702C22.912,24.518,23,24.048,23,23.75V4.25C23,3.952,22.912,3.482,22.803,3.205z
		 M17.201,25h-4.4C12.357,25,12,24.664,12,24.25s0.357-0.75,0.801-0.75h4.4c0.439,0,0.799,0.336,0.799,0.75S17.643,25,17.201,25z
		 M21,22H9V4h12V22z"/>
	<path opacity="0.15" d="M8.6,29c-0.702,0-1.4-0.478-1.66-1.135l-0.671-1.704C6.113,25.767,6,25.173,6,24.75V5.25
		c0-0.423,0.113-1.017,0.269-1.412l0.672-1.703C7.196,1.479,7.895,1,8.6,1H21.4c0.702,0,1.4,0.478,1.66,1.135l0.672,1.703
		C23.888,4.23,24,4.824,24,5.25v19.5c0,0.43-0.114,1.026-0.271,1.417l-0.667,1.696C22.801,28.522,22.103,29,21.4,29H8.6z"/>
	<path opacity="0.15" d="M22.803,4.205l-0.672-1.702C22.021,2.227,21.693,2,21.4,2H8.6C8.307,2,7.979,2.227,7.871,2.503L7.199,4.205
		C7.09,4.482,7,4.952,7,5.25v19.5c0,0.298,0.09,0.768,0.199,1.045l0.67,1.702C7.979,27.773,8.307,28,8.6,28H21.4
		c0.293,0,0.621-0.227,0.73-0.503l0.67-1.702C22.912,25.518,23,25.048,23,24.75V5.25C23,4.952,22.912,4.482,22.803,4.205z
		 M17.201,26h-4.4C12.357,26,12,25.664,12,25.25s0.357-0.75,0.801-0.75h4.4c0.439,0,0.799,0.336,0.799,0.75S17.643,26,17.201,26z
		 M21,23H9V5h12V23z"/>
	<path fill="#FFFFFF" d="M22.803,4.205l-0.672-1.702C22.021,2.227,21.693,2,21.4,2H8.6C8.307,2,7.979,2.227,7.871,2.503L7.199,4.205
		C7.09,4.482,7,4.952,7,5.25v19.5c0,0.298,0.09,0.768,0.199,1.045l0.67,1.702C7.979,27.773,8.307,28,8.6,28H21.4
		c0.293,0,0.621-0.227,0.73-0.503l0.67-1.702C22.912,25.518,23,25.048,23,24.75V5.25C23,4.952,22.912,4.482,22.803,4.205z
		 M17.201,26h-4.4C12.357,26,12,25.664,12,25.25s0.357-0.75,0.801-0.75h4.4c0.439,0,0.799,0.336,0.799,0.75S17.643,26,17.201,26z
		 M21,23H9V5h12V23z"/>
</g>
</svg>
