<?xml version="1.0" encoding="utf-8"?>
<!-- Generator: Adobe Illustrator 15.0.0, SVG Export Plug-In . SVG Version: 6.00 Build 0)  -->
<!DOCTYPE svg PUBLIC "-//W3C//DTD SVG 1.1//EN" "http://www.w3.org/Graphics/SVG/1.1/DTD/svg11.dtd">
<svg version="1.1" xmlns="http://www.w3.org/2000/svg" xmlns:xlink="http://www.w3.org/1999/xlink" x="0px" y="0px" width="30px"
	 height="30px" viewBox="0 0 30 30" enable-background="new 0 0 30 30" xml:space="preserve">
<g id="DO_NOT_EDIT_-_BOUNDING_BOX">
	<rect id="BOUNDING_BOX" fill="none" width="30" height="30"/>
</g>
<g id="PLACE_YOUR_GRAPHIC_HERE">
	<path opacity="0.3" d="M12.63,14.55h1.676l-0.83-3.616L12.63,14.55z M4.849,3.924v20.152c0,0.424,0.369,0.772,0.827,0.772H6.95
		V3.149H5.676C5.218,3.149,4.849,3.498,4.849,3.924z M24.324,3.149H8.35v21.7h15.975c0.457,0,0.826-0.349,0.826-0.773V3.924
		C25.15,3.498,24.781,3.149,24.324,3.149z M14.898,17.162l-0.383-1.599h-2.098l-0.39,1.599h-1.578l2.16-7.7h2.119l2.022,7.7H14.898z
		 M22.35,10.255l-2.854,5.893h2.811v1.015h-4.857v-0.795l2.854-5.892h-2.684V9.462h4.73V10.255z"/>
	<path opacity="0.15" d="M8.35,26.85c-0.272,0-0.52-0.109-0.7-0.286c-0.18,0.177-0.427,0.285-0.699,0.285H5.676
		c-1.007,0-1.827-0.795-1.827-1.772V4.924c0-0.979,0.82-1.774,1.827-1.774H6.95c0.272,0,0.52,0.109,0.7,0.286
		c0.18-0.177,0.427-0.286,0.7-0.286h15.975c1.007,0,1.826,0.796,1.826,1.774v20.152c0,0.978-0.819,1.773-1.826,1.773H8.35z"/>
	<path opacity="0.15" d="M12.63,15.55h1.676l-0.83-3.616L12.63,15.55z M4.849,4.924v20.152c0,0.424,0.369,0.772,0.827,0.772H6.95
		V4.149H5.676C5.218,4.149,4.849,4.498,4.849,4.924z M24.324,4.149H8.35v21.7h15.975c0.457,0,0.826-0.349,0.826-0.773V4.924
		C25.15,4.498,24.781,4.149,24.324,4.149z M14.898,18.162l-0.383-1.599h-2.098l-0.39,1.599h-1.578l2.16-7.7h2.119l2.022,7.7H14.898z
		 M22.35,11.255l-2.854,5.893h2.811v1.015h-4.857v-0.795l2.854-5.892h-2.684v-1.014h4.73V11.255z"/>
	<path fill="#FFFFFF" d="M12.63,15.55h1.676l-0.83-3.616L12.63,15.55z M4.849,4.924v20.152c0,0.424,0.369,0.772,0.827,0.772H6.95
		V4.149H5.676C5.218,4.149,4.849,4.498,4.849,4.924z M24.324,4.149H8.35v21.7h15.975c0.457,0,0.826-0.349,0.826-0.773V4.924
		C25.15,4.498,24.781,4.149,24.324,4.149z M14.898,18.162l-0.383-1.599h-2.098l-0.39,1.599h-1.578l2.16-7.7h2.119l2.022,7.7H14.898z
		 M22.35,11.255l-2.854,5.893h2.811v1.015h-4.857v-0.795l2.854-5.892h-2.684v-1.014h4.73V11.255z"/>
</g>
</svg>
