<?xml version="1.0" encoding="utf-8"?>
<!-- Generator: Adobe Illustrator 15.0.0, SVG Export Plug-In . SVG Version: 6.00 Build 0)  -->
<!DOCTYPE svg PUBLIC "-//W3C//DTD SVG 1.1//EN" "http://www.w3.org/Graphics/SVG/1.1/DTD/svg11.dtd">
<svg version="1.1" xmlns="http://www.w3.org/2000/svg" xmlns:xlink="http://www.w3.org/1999/xlink" x="0px" y="0px" width="30px"
	 height="30px" viewBox="0 0 30 30" enable-background="new 0 0 30 30" xml:space="preserve">
<g id="DO_NOT_EDIT_-_BOUNDING_BOX">
	<rect id="BOUNDING_BOX" fill="none" width="30" height="30"/>
</g>
<g id="PLACE_YOUR_GRAPHIC_HERE">
	<path opacity="0.3" d="M21,1H5C4.451,1,4,1.45,4,2v24c0,0.55,0.451,1,1,1h20c0.551,0,1-0.45,1-1V6L21,1z M22.096,20.971H7.904
		c-0.553,0-1-0.447-1-1s0.447-1,1-1h14.191c0.553,0,1,0.447,1,1S22.648,20.971,22.096,20.971z M22.096,16.971H7.904
		c-0.553,0-1-0.447-1-1s0.447-1,1-1h14.191c0.553,0,1,0.447,1,1S22.648,16.971,22.096,16.971z M22.096,12.971H7.904
		c-0.553,0-1-0.447-1-1s0.447-1,1-1h14.191c0.553,0,1,0.447,1,1S22.648,12.971,22.096,12.971z M22.096,8.971H7.904
		c-0.553,0-1-0.447-1-1s0.447-1,1-1h14.191c0.553,0,1,0.447,1,1S22.648,8.971,22.096,8.971z"/>
	<path opacity="0.15" d="M5,29c-1.103,0-2-0.897-2-2V3c0-1.103,0.897-2,2-2h16c0.266,0,0.52,0.105,0.707,0.293l5,5
		C26.895,6.48,27,6.735,27,7v20c0,1.103-0.897,2-2,2H5z M7.903,20.971h14.193H7.904H7.903z M7.903,16.971h14.193H7.904H7.903z
		 M7.903,12.971h14.193H7.904H7.903z M7.903,8.971h14.193H7.904H7.903z"/>
	<path opacity="0.15" d="M21,2H5C4.451,2,4,2.45,4,3v24c0,0.55,0.451,1,1,1h20c0.551,0,1-0.45,1-1V7L21,2z M22.096,21.971H7.904
		c-0.553,0-1-0.447-1-1s0.447-1,1-1h14.191c0.553,0,1,0.447,1,1S22.648,21.971,22.096,21.971z M22.096,17.971H7.904
		c-0.553,0-1-0.447-1-1s0.447-1,1-1h14.191c0.553,0,1,0.447,1,1S22.648,17.971,22.096,17.971z M22.096,13.971H7.904
		c-0.553,0-1-0.447-1-1s0.447-1,1-1h14.191c0.553,0,1,0.447,1,1S22.648,13.971,22.096,13.971z M22.096,9.971H7.904
		c-0.553,0-1-0.447-1-1s0.447-1,1-1h14.191c0.553,0,1,0.447,1,1S22.648,9.971,22.096,9.971z"/>
	<path fill="#FFFFFF" d="M21,2H5C4.451,2,4,2.45,4,3v24c0,0.55,0.451,1,1,1h20c0.551,0,1-0.45,1-1V7L21,2z M22.096,21.971H7.904
		c-0.553,0-1-0.447-1-1s0.447-1,1-1h14.191c0.553,0,1,0.447,1,1S22.648,21.971,22.096,21.971z M22.096,17.971H7.904
		c-0.553,0-1-0.447-1-1s0.447-1,1-1h14.191c0.553,0,1,0.447,1,1S22.648,17.971,22.096,17.971z M22.096,13.971H7.904
		c-0.553,0-1-0.447-1-1s0.447-1,1-1h14.191c0.553,0,1,0.447,1,1S22.648,13.971,22.096,13.971z M22.096,9.971H7.904
		c-0.553,0-1-0.447-1-1s0.447-1,1-1h14.191c0.553,0,1,0.447,1,1S22.648,9.971,22.096,9.971z"/>
</g>
</svg>
