<?xml version="1.0" encoding="utf-8"?>
<!-- Generator: Adobe Illustrator 15.0.0, SVG Export Plug-In . SVG Version: 6.00 Build 0)  -->
<!DOCTYPE svg PUBLIC "-//W3C//DTD SVG 1.1//EN" "http://www.w3.org/Graphics/SVG/1.1/DTD/svg11.dtd">
<svg version="1.1" xmlns="http://www.w3.org/2000/svg" xmlns:xlink="http://www.w3.org/1999/xlink" x="0px" y="0px" width="30px"
	 height="30px" viewBox="0 0 30 30" enable-background="new 0 0 30 30" xml:space="preserve">
<g id="DO_NOT_EDIT_-_BOUNDING_BOX">
	<rect id="BOUNDING_BOX" fill="none" width="30" height="30"/>
</g>
<g id="PLACE_YOUR_GRAPHIC_HERE">
	<path opacity="0.3" d="M27.018,10.627C28.131,10.564,29,10.096,29,9.52C29,8.9,27.996,8.4,26.76,8.4
		c-0.305,0-0.6,0.031-0.865,0.088c-1.557-2.68-3.969-5.688-6.975-5.688h-7.84c-3.006,0-5.416,3.008-6.974,5.688
		C3.841,8.432,3.547,8.4,3.24,8.4C2.002,8.4,1,8.9,1,9.52c0,0.576,0.869,1.045,1.984,1.107c-0.222,0.477-0.401,0.889-0.536,1.213
		C1.563,12.66,1,13.82,1,15.121V22.4c0,1.547,1.004,2.801,2.24,2.801c1.085,0,1.988-0.965,2.195-2.246
		c0.017,0,0.029,0.006,0.045,0.006h19.041c0.014,0,0.027-0.006,0.045-0.006c0.205,1.281,1.109,2.246,2.193,2.246
		c1.236,0,2.24-1.254,2.24-2.801v-7.279c0-1.301-0.563-2.461-1.447-3.281C27.418,11.516,27.238,11.104,27.018,10.627z M11.08,5.041
		h7.84c2.137,0,4.248,3.055,5.586,5.6H5.495C6.832,8.096,8.944,5.041,11.08,5.041z M3.016,14.561c0-1.051,1.106-1.904,2.465-1.904
		s2.464,0.854,2.464,1.904c0,1.049-1.105,1.904-2.464,1.904S3.016,15.609,3.016,14.561z M21.336,21.84H8.664
		c-0.954,0-1.729-0.752-1.729-1.68s0.774-1.68,1.729-1.68h12.672c0.955,0,1.729,0.752,1.729,1.68S22.291,21.84,21.336,21.84z
		 M24.521,16.465c-1.359,0-2.465-0.855-2.465-1.904c0-1.051,1.105-1.904,2.465-1.904c1.357,0,2.463,0.854,2.463,1.904
		C26.984,15.609,25.879,16.465,24.521,16.465z"/>
	<path opacity="0.15" d="M26.76,27.201c-1.298,0-2.443-0.903-2.955-2.24H6.196c-0.512,1.337-1.659,2.24-2.956,2.24
		C1.454,27.201,0,25.496,0,23.4v-7.279c0-1.421,0.541-2.75,1.529-3.78C0.587,11.981,0,11.318,0,10.52C0,9.292,1.363,8.4,3.24,8.4
		c0.116,0,0.232,0.003,0.346,0.011c2.271-3.674,4.853-5.61,7.494-5.61h7.84c2.644,0,5.226,1.937,7.495,5.61
		C26.529,8.404,26.644,8.4,26.76,8.4C28.638,8.4,30,9.292,30,10.52c0,0.798-0.587,1.461-1.528,1.822C29.46,13.37,30,14.7,30,16.121
		V23.4C30,25.496,28.547,27.201,26.76,27.201z"/>
	<path opacity="0.15" d="M27.018,11.627C28.131,11.564,29,11.096,29,10.52C29,9.9,27.996,9.4,26.76,9.4
		c-0.305,0-0.6,0.031-0.865,0.088c-1.557-2.68-3.969-5.688-6.975-5.688h-7.84c-3.006,0-5.416,3.008-6.974,5.688
		C3.841,9.432,3.547,9.4,3.24,9.4C2.002,9.4,1,9.9,1,10.52c0,0.576,0.869,1.045,1.984,1.107c-0.222,0.477-0.401,0.889-0.536,1.213
		C1.563,13.66,1,14.82,1,16.121V23.4c0,1.547,1.004,2.801,2.24,2.801c1.085,0,1.988-0.965,2.195-2.246
		c0.017,0,0.029,0.006,0.045,0.006h19.041c0.014,0,0.027-0.006,0.045-0.006c0.205,1.281,1.109,2.246,2.193,2.246
		c1.236,0,2.24-1.254,2.24-2.801v-7.279c0-1.301-0.563-2.461-1.447-3.281C27.418,12.516,27.238,12.104,27.018,11.627z M11.08,6.041
		h7.84c2.137,0,4.248,3.055,5.586,5.6H5.495C6.832,9.096,8.944,6.041,11.08,6.041z M3.016,15.561c0-1.051,1.106-1.904,2.465-1.904
		s2.464,0.854,2.464,1.904c0,1.049-1.105,1.904-2.464,1.904S3.016,16.609,3.016,15.561z M21.336,22.84H8.664
		c-0.954,0-1.729-0.752-1.729-1.68s0.774-1.68,1.729-1.68h12.672c0.955,0,1.729,0.752,1.729,1.68S22.291,22.84,21.336,22.84z
		 M24.521,17.465c-1.359,0-2.465-0.855-2.465-1.904c0-1.051,1.105-1.904,2.465-1.904c1.357,0,2.463,0.854,2.463,1.904
		C26.984,16.609,25.879,17.465,24.521,17.465z"/>
	<path fill="#FFFFFF" d="M27.018,11.627C28.131,11.564,29,11.096,29,10.52C29,9.9,27.996,9.4,26.76,9.4
		c-0.305,0-0.6,0.031-0.865,0.088c-1.557-2.68-3.969-5.688-6.975-5.688h-7.84c-3.006,0-5.416,3.008-6.974,5.688
		C3.841,9.432,3.547,9.4,3.24,9.4C2.002,9.4,1,9.9,1,10.52c0,0.576,0.869,1.045,1.984,1.107c-0.222,0.477-0.401,0.889-0.536,1.213
		C1.563,13.66,1,14.82,1,16.121V23.4c0,1.547,1.004,2.801,2.24,2.801c1.085,0,1.988-0.965,2.195-2.246
		c0.017,0,0.029,0.006,0.045,0.006h19.041c0.014,0,0.027-0.006,0.045-0.006c0.205,1.281,1.109,2.246,2.193,2.246
		c1.236,0,2.24-1.254,2.24-2.801v-7.279c0-1.301-0.563-2.461-1.447-3.281C27.418,12.516,27.238,12.104,27.018,11.627z M11.08,6.041
		h7.84c2.137,0,4.248,3.055,5.586,5.6H5.495C6.832,9.096,8.944,6.041,11.08,6.041z M3.016,15.561c0-1.051,1.106-1.904,2.465-1.904
		s2.464,0.854,2.464,1.904c0,1.049-1.105,1.904-2.464,1.904S3.016,16.609,3.016,15.561z M21.336,22.84H8.664
		c-0.954,0-1.729-0.752-1.729-1.68s0.774-1.68,1.729-1.68h12.672c0.955,0,1.729,0.752,1.729,1.68S22.291,22.84,21.336,22.84z
		 M24.521,17.465c-1.359,0-2.465-0.855-2.465-1.904c0-1.051,1.105-1.904,2.465-1.904c1.357,0,2.463,0.854,2.463,1.904
		C26.984,16.609,25.879,17.465,24.521,17.465z"/>
</g>
</svg>
