<?xml version="1.0" encoding="utf-8"?>
<!-- Generator: Adobe Illustrator 15.0.0, SVG Export Plug-In . SVG Version: 6.00 Build 0)  -->
<!DOCTYPE svg PUBLIC "-//W3C//DTD SVG 1.1//EN" "http://www.w3.org/Graphics/SVG/1.1/DTD/svg11.dtd">
<svg version="1.1" xmlns="http://www.w3.org/2000/svg" xmlns:xlink="http://www.w3.org/1999/xlink" x="0px" y="0px" width="30px"
	 height="30px" viewBox="0 0 30 30" enable-background="new 0 0 30 30" xml:space="preserve">
<g id="DO_NOT_EDIT_-_BOUNDING_BOX">
	<rect id="BOUNDING_BOX" fill="none" width="30" height="30"/>
</g>
<g id="PLACE_YOUR_GRAPHIC_HERE">
	<path opacity="0.3" d="M14.232,15.997c1.549,0.604,2.971,1.418,4.52,2.092v-4.791c-1.549-0.787-2.971-1.737-4.52-2.456V15.997z
		 M25.984,19.151v-4.519c-0.982,0.142-1.877,0.151-2.711,0.072v4.557C24.107,19.316,25.002,19.292,25.984,19.151z M4.022,0.727
		h-0.04C3.464,0.727,3,1.15,3,1.67v24.659c0,0.52,0.464,0.943,0.982,0.943h0.04c0.519,0,0.942-0.424,0.942-0.943V1.67
		C4.965,1.15,4.541,0.727,4.022,0.727z M18.752,8.779v4.519c1.352,0.688,2.803,1.243,4.521,1.407v-4.519
		C21.555,10.025,20.104,9.467,18.752,8.779z M7,15.537c0.98-0.244,1.876-0.36,2.712-0.383V9.766C8.876,9.766,7.98,9.87,7,10.112
		V15.537z M18.752,4.259c-1.549-0.786-2.971-1.74-4.52-2.46V6.32c1.549,0.723,2.971,1.674,4.52,2.459V4.259z M7,1.072v4.519
		c0.98-0.242,1.876-0.347,2.712-0.347V0.727C8.876,0.727,7.98,0.828,7,1.072z M25.984,10.112V5.591
		c-0.982,0.142-1.877,0.153-2.711,0.074v4.521C24.107,10.263,25.002,10.253,25.984,10.112z M9.712,5.244v4.521
		c1.715,0,3.167,0.447,4.52,1.076V6.32C12.878,5.692,11.427,5.244,9.712,5.244z"/>
	<g>
		<path opacity="0.15" d="M3.982,0.727C2.908,0.727,2,1.617,2,2.67v24.659c0,1.054,0.908,1.943,1.982,1.943h0.04
			c1.071,0,1.942-0.872,1.942-1.943V2.67C5.965,1.598,5.093,0.727,3.982,0.727z"/>
		<path opacity="0.15" d="M26.926,6.321c-0.014-0.048-0.011-0.1-0.031-0.145c-0.06-0.129-0.146-0.246-0.256-0.341
			c-0.183-0.159-0.415-0.244-0.654-0.244c-0.048,0-0.095,0.003-0.143,0.01c-0.01,0.001-0.019,0.001-0.027,0.003
			c-0.501,0.071-0.997,0.107-1.478,0.109c-0.01,0-0.02,0.001-0.029,0.001c-0.313,0-0.613-0.016-0.907-0.043
			c-2.243-0.428-4.171-1.292-4.192-1.301c-0.002,0-0.003-0.002-0.004-0.002c-0.428-0.217-0.837-0.457-1.251-0.691
			c-0.229-0.13-0.464-0.252-0.691-0.383c-0.237-0.137-0.481-0.272-0.724-0.409c-0.466-0.264-0.943-0.518-1.432-0.761
			c-0.141-0.07-0.279-0.149-0.42-0.214c-0.001,0-0.01-0.005-0.012-0.005c-0.007-0.003-0.014-0.007-0.021-0.011c0,0-0.001,0-0.002,0
			c-0.213-0.106-2.163-1.037-4.936-1.164c-0.001,0-0.002-0.001-0.004-0.001c-0.77,0-1.542,0.1-2.33,0.257
			C7.174,1.025,6.97,1.049,6.758,1.102C6.313,1.213,6,1.613,6,2.072v0v4.519v4.521v5.425c0,0.309,0.142,0.6,0.384,0.789
			C6.562,17.465,6.779,17.538,7,17.538c0.081,0,0.162-0.009,0.242-0.029c0.01-0.003,0.019-0.004,0.029-0.007
			c0.853-0.211,1.657-0.325,2.457-0.347c1.958,0.01,4.14,0.774,4.141,0.774c0.011,0.004,0.022,0.01,0.033,0.014
			c0.837,0.328,1.635,0.719,2.479,1.133c0.623,0.306,1.25,0.61,1.897,0.895c0.005,0.003,0.019,0.01,0.022,0.012
			c0.015,0.008,0.029,0.013,0.043,0.02c0.003,0.001,0.006,0.003,0.009,0.004h0.001c2.37,1.182,4.793,1.253,4.854,1.254
			c0.289,0.018,0.586,0.029,0.89,0.029c0.397,0,0.803-0.023,1.211-0.06c0.271-0.023,0.544-0.049,0.818-0.087
			c0.492-0.07,0.857-0.492,0.857-0.99v-0.001v-4.519v-4.521V6.592V6.591C26.984,6.497,26.951,6.41,26.926,6.321z"/>
	</g>
	<path opacity="0.15" d="M14.232,16.997c1.549,0.604,2.971,1.418,4.52,2.092v-4.791c-1.549-0.787-2.971-1.737-4.52-2.456V16.997z
		 M25.984,20.151v-4.519c-0.982,0.142-1.877,0.151-2.711,0.072v4.557C24.107,20.316,25.002,20.292,25.984,20.151z M4.022,1.727
		h-0.04C3.464,1.727,3,2.15,3,2.67v24.659c0,0.52,0.464,0.943,0.982,0.943h0.04c0.519,0,0.942-0.424,0.942-0.943V2.67
		C4.965,2.15,4.541,1.727,4.022,1.727z M18.752,9.779v4.519c1.352,0.688,2.803,1.243,4.521,1.407v-4.519
		C21.555,11.025,20.104,10.467,18.752,9.779z M7,16.537c0.98-0.244,1.876-0.36,2.712-0.383v-5.389c-0.836,0-1.731,0.104-2.712,0.347
		V16.537z M18.752,5.259c-1.549-0.786-2.971-1.74-4.52-2.46V7.32c1.549,0.723,2.971,1.674,4.52,2.459V5.259z M7,2.072v4.519
		c0.98-0.242,1.876-0.347,2.712-0.347V1.727C8.876,1.727,7.98,1.828,7,2.072z M25.984,11.112V6.591
		c-0.982,0.142-1.877,0.153-2.711,0.074v4.521C24.107,11.263,25.002,11.253,25.984,11.112z M9.712,6.244v4.521
		c1.715,0,3.167,0.447,4.52,1.076V7.32C12.878,6.692,11.427,6.244,9.712,6.244z"/>
	<path fill="#FFFFFF" d="M14.232,16.997c1.549,0.604,2.971,1.418,4.52,2.092v-4.791c-1.549-0.787-2.971-1.737-4.52-2.456V16.997z
		 M25.984,20.151v-4.519c-0.982,0.142-1.877,0.151-2.711,0.072v4.557C24.107,20.316,25.002,20.292,25.984,20.151z M4.022,1.727
		h-0.04C3.464,1.727,3,2.15,3,2.67v24.659c0,0.52,0.464,0.943,0.982,0.943h0.04c0.519,0,0.942-0.424,0.942-0.943V2.67
		C4.965,2.15,4.541,1.727,4.022,1.727z M18.752,9.779v4.519c1.352,0.688,2.803,1.243,4.521,1.407v-4.519
		C21.555,11.025,20.104,10.467,18.752,9.779z M7,16.537c0.98-0.244,1.876-0.36,2.712-0.383v-5.389c-0.836,0-1.731,0.104-2.712,0.347
		V16.537z M18.752,5.259c-1.549-0.786-2.971-1.74-4.52-2.46V7.32c1.549,0.723,2.971,1.674,4.52,2.459V5.259z M7,2.072v4.519
		c0.98-0.242,1.876-0.347,2.712-0.347V1.727C8.876,1.727,7.98,1.828,7,2.072z M25.984,11.112V6.591
		c-0.982,0.142-1.877,0.153-2.711,0.074v4.521C24.107,11.263,25.002,11.253,25.984,11.112z M9.712,6.244v4.521
		c1.715,0,3.167,0.447,4.52,1.076V7.32C12.878,6.692,11.427,6.244,9.712,6.244z"/>
</g>
</svg>
