<?xml version="1.0" encoding="utf-8"?>
<!-- Generator: Adobe Illustrator 15.0.0, SVG Export Plug-In . SVG Version: 6.00 Build 0)  -->
<!DOCTYPE svg PUBLIC "-//W3C//DTD SVG 1.1//EN" "http://www.w3.org/Graphics/SVG/1.1/DTD/svg11.dtd">
<svg version="1.1" xmlns="http://www.w3.org/2000/svg" xmlns:xlink="http://www.w3.org/1999/xlink" x="0px" y="0px" width="30px"
	 height="30px" viewBox="0 0 30 30" enable-background="new 0 0 30 30" xml:space="preserve">
<g id="DO_NOT_EDIT_-_BOUNDING_BOX">
	<rect id="BOUNDING_BOX" fill="none" width="30" height="30"/>
</g>
<g id="PLACE_YOUR_GRAPHIC_HERE">
	<path opacity="0.3" d="M19.025,14.145c-0.836-0.19-7.224-0.194-8.059-0.005c-1.206,0.273-0.754,3.036-0.754,3.036l9.578,0.009
		C19.791,17.185,20.233,14.421,19.025,14.145z M25.794,11.021c-3.582-2.452-8.403-2.613-9.956-2.594l-0.002-0.008L13.548,8.42v0.011
		c-1.974,0.041-6.152,0.405-9.345,2.59c0,0-5.316,3.109-2.25,8.091c0.43,0.699,1.372,0.407,1.372,0.407l3.679-1.675
		c0.928-0.29,0.864-1.071,0.864-1.071l0.139-2.469c0.014,0.212-0.15-2.377,6.779-2.486h0.34l0.002,0.002
		c6.928,0.107,6.764,2.696,6.776,2.486l0.229,2.464c0,0-0.064,0.784,0.863,1.072l3.676,1.677c0,0,0.945,0.292,1.375-0.406
		C31.111,14.128,25.794,11.021,25.794,11.021z"/>
	<path opacity="0.15" d="M27.121,21.579c-0.386,0-0.688-0.088-0.745-0.105c-0.041-0.013-0.081-0.027-0.12-0.045l-3.624-1.652
		c-1.196-0.404-1.502-1.403-1.501-1.973c0,0-0.219-2.342-0.22-2.35c-0.001-0.003-0.099-0.291-0.632-0.625
		c0.825,1.078,0.574,3.037,0.498,3.514c-0.078,0.485-0.496,0.842-0.986,0.842l-9.579-0.009c-0.49,0-0.907-0.355-0.986-0.839
		c-0.08-0.488-0.349-2.539,0.552-3.595C9.166,15.085,9.02,15.405,9,15.458l-0.131,2.326c0.009,0.563-0.289,1.584-1.501,1.995
		l-3.628,1.65c-0.039,0.018-0.078,0.032-0.119,0.045c-0.057,0.018-0.359,0.105-0.744,0.105c-0.771,0-1.401-0.335-1.775-0.944
		c-1.023-1.661-1.336-3.329-0.93-4.954c0.712-2.849,3.412-4.456,3.527-4.523c3.225-2.209,7.393-2.661,9.681-2.723
		c0.055-0.01,0.111-0.015,0.168-0.015l2.289-0.001c0.04,0,0.08,0.002,0.119,0.007l0.102-0.001c1.881,0,6.649,0.27,10.301,2.77
		c0.055,0.029,2.756,1.634,3.468,4.483c0.407,1.626,0.095,3.294-0.929,4.957C28.523,21.244,27.893,21.579,27.121,21.579z
		 M14.786,13.818c-1.153,0.018-2.078,0.106-2.82,0.234c1-0.046,2.29-0.053,2.967-0.053c0.683,0,1.971,0.007,2.99,0.051
		c-0.741-0.125-1.664-0.213-2.811-0.23C15.096,13.82,14.786,13.818,14.786,13.818z"/>
	<path opacity="0.15" d="M19.025,15.145c-0.836-0.19-7.224-0.194-8.059-0.005c-1.206,0.273-0.754,3.036-0.754,3.036l9.578,0.009
		C19.791,18.185,20.233,15.421,19.025,15.145z M25.794,12.021c-3.582-2.452-8.403-2.613-9.956-2.594l-0.002-0.008L13.548,9.42v0.011
		c-1.974,0.041-6.152,0.405-9.345,2.59c0,0-5.316,3.109-2.25,8.09c0.43,0.699,1.372,0.407,1.372,0.407l3.679-1.674
		c0.928-0.29,0.864-1.071,0.864-1.071l0.139-2.469c0.014,0.212-0.15-2.378,6.779-2.486h0.34l0.002,0.002
		c6.928,0.107,6.764,2.696,6.776,2.486l0.229,2.464c0,0-0.064,0.784,0.863,1.072l3.676,1.676c0,0,0.945,0.292,1.375-0.406
		C31.111,15.128,25.794,12.021,25.794,12.021z"/>
	<path fill="#FFFFFF" d="M19.025,15.145c-0.836-0.19-7.224-0.194-8.059-0.005c-1.206,0.273-0.754,3.036-0.754,3.036l9.578,0.009
		C19.791,18.185,20.233,15.421,19.025,15.145z M25.794,12.021c-3.582-2.452-8.403-2.613-9.956-2.594l-0.002-0.008L13.548,9.42v0.011
		c-1.974,0.041-6.152,0.405-9.345,2.59c0,0-5.316,3.109-2.25,8.09c0.43,0.699,1.372,0.407,1.372,0.407l3.679-1.674
		c0.928-0.29,0.864-1.071,0.864-1.071l0.139-2.469c0.014,0.212-0.15-2.378,6.779-2.486h0.34l0.002,0.002
		c6.928,0.107,6.764,2.696,6.776,2.486l0.229,2.464c0,0-0.064,0.784,0.863,1.072l3.676,1.676c0,0,0.945,0.292,1.375-0.406
		C31.111,15.128,25.794,12.021,25.794,12.021z"/>
</g>
</svg>
