<?xml version="1.0" encoding="utf-8"?>
<!-- Generator: Adobe Illustrator 15.0.0, SVG Export Plug-In . SVG Version: 6.00 Build 0)  -->
<!DOCTYPE svg PUBLIC "-//W3C//DTD SVG 1.1//EN" "http://www.w3.org/Graphics/SVG/1.1/DTD/svg11.dtd">
<svg version="1.1" xmlns="http://www.w3.org/2000/svg" xmlns:xlink="http://www.w3.org/1999/xlink" x="0px" y="0px" width="30px"
	 height="30px" viewBox="0 0 30 30" enable-background="new 0 0 30 30" xml:space="preserve">
<g id="DO_NOT_EDIT_-_BOUNDING_BOX">
	<rect id="BOUNDING_BOX" fill="none" width="30" height="30"/>
</g>
<g id="PLACE_YOUR_GRAPHIC_HERE">
	<path opacity="0.3" d="M27.727,8.176H2.271C1.568,8.176,1,8.746,1,9.449v16.545c0,0.703,0.568,1.273,1.271,1.273h25.455
		c0.703,0,1.273-0.57,1.273-1.273V9.449C29,8.746,28.43,8.176,27.727,8.176z M9.908,15.813h-5.09c-0.703,0-1.273-0.568-1.273-1.273
		v-2.545c0-0.701,0.57-1.271,1.273-1.271h5.09V15.813z M26.455,14.539c0,0.705-0.572,1.273-1.273,1.273H12.455v-5.09h12.727
		c0.701,0,1.273,0.57,1.273,1.271V14.539z M3.51,1.973l12.006,4.203h3.85L3.93,0.771C3.6,0.652,3.236,0.83,3.119,1.162
		C3.004,1.492,3.178,1.855,3.51,1.973z"/>
	<path opacity="0.15" d="M2.271,29.268C1.019,29.268,0,28.248,0,26.994V10.449c0-1.253,1.019-2.273,2.271-2.273h13.244
		c-0.112,0-0.224-0.019-0.331-0.056L3.179,3.917c-0.851-0.3-1.301-1.235-1.004-2.084c0.232-0.658,0.853-1.098,1.544-1.098
		c0.188,0,0.373,0.032,0.55,0.097l15.426,5.401c0.461,0.161,0.737,0.631,0.656,1.111c-0.082,0.481-0.499,0.833-0.986,0.833h8.361
		c1.254,0,2.273,1.02,2.273,2.273v16.545c0,1.254-1.02,2.273-2.273,2.273H2.271z"/>
	<path opacity="0.15" d="M27.727,9.176H2.271C1.568,9.176,1,9.746,1,10.449v16.545c0,0.703,0.568,1.273,1.271,1.273h25.455
		c0.703,0,1.273-0.57,1.273-1.273V10.449C29,9.746,28.43,9.176,27.727,9.176z M9.908,16.813h-5.09c-0.703,0-1.273-0.568-1.273-1.273
		v-2.545c0-0.701,0.57-1.271,1.273-1.271h5.09V16.813z M26.455,15.539c0,0.705-0.572,1.273-1.273,1.273H12.455v-5.09h12.727
		c0.701,0,1.273,0.57,1.273,1.271V15.539z M3.51,2.973l12.006,4.203h3.85L3.93,1.771C3.6,1.652,3.236,1.83,3.119,2.162
		C3.004,2.492,3.178,2.855,3.51,2.973z"/>
	<path fill="#FFFFFF" d="M27.727,9.176H2.271C1.568,9.176,1,9.746,1,10.449v16.545c0,0.703,0.568,1.273,1.271,1.273h25.455
		c0.703,0,1.273-0.57,1.273-1.273V10.449C29,9.746,28.43,9.176,27.727,9.176z M9.908,16.813h-5.09c-0.703,0-1.273-0.568-1.273-1.273
		v-2.545c0-0.701,0.57-1.271,1.273-1.271h5.09V16.813z M26.455,15.539c0,0.705-0.572,1.273-1.273,1.273H12.455v-5.09h12.727
		c0.701,0,1.273,0.57,1.273,1.271V15.539z M3.51,2.973l12.006,4.203h3.85L3.93,1.771C3.6,1.652,3.236,1.83,3.119,2.162
		C3.004,2.492,3.178,2.855,3.51,2.973z"/>
</g>
</svg>
