<?xml version="1.0" encoding="utf-8"?>
<!-- Generator: Adobe Illustrator 15.0.0, SVG Export Plug-In . SVG Version: 6.00 Build 0)  -->
<!DOCTYPE svg PUBLIC "-//W3C//DTD SVG 1.1//EN" "http://www.w3.org/Graphics/SVG/1.1/DTD/svg11.dtd">
<svg version="1.1" xmlns="http://www.w3.org/2000/svg" xmlns:xlink="http://www.w3.org/1999/xlink" x="0px" y="0px" width="30px"
	 height="30px" viewBox="0 0 30 30" enable-background="new 0 0 30 30" xml:space="preserve">
<g id="DO_NOT_EDIT_-_BOUNDING_BOX">
	<rect id="BOUNDING_BOX" fill="none" width="30" height="30"/>
</g>
<g id="PLACE_YOUR_GRAPHIC_HERE">
	<g>
		<path opacity="0.3" d="M28,5.999H2l13,10.002L28,5.999z M29,23.001l-9-5v3h-4v4h4v3L29,23.001z M19,20.001v-2
			c0-0.354,0.188-0.684,0.494-0.861c0.154-0.094,0.33-0.139,0.506-0.139c0.168,0,0.336,0.041,0.484,0.125L28,21.302V7.892L15,17.894
			L2,7.892v15.109c0,0.549,0.45,1,1,1h12v-3c0-0.553,0.447-1,1-1H19z"/>
		<rect y="-0.001" fill="none" width="30" height="30.002"/>
		<rect y="-0.001" fill="none" width="30" height="30.002"/>
		<path opacity="0.15" d="M20,30.001c-0.176,0-0.351-0.046-0.507-0.138C19.188,29.684,19,29.355,19,29.001v-2h-3
			c-0.552,0-1-0.447-1-1H3c-1.103,0-2-0.897-2-2V8.892c0-0.381-0.084-1.809,0.053-2.215C1.191,6.271,1.572,5.999,2,5.999h26
			c0.428,0,0.809,0.272,0.946,0.678C29.085,7.083,29,8.511,29,8.892v13.41c0,0.173-0.045,0.339-0.126,0.485l0.611,0.34
			C29.803,23.303,30,23.638,30,24.001s-0.197,0.698-0.515,0.874l-9,5C20.335,29.959,20.167,30.001,20,30.001z"/>
		<path opacity="0.15" d="M28,6.999H2l13,10.002L28,6.999z M29,24.001l-9-5v3h-4v4h4v3L29,24.001z M19,21.001v-2
			c0-0.354,0.188-0.684,0.494-0.861c0.154-0.094,0.33-0.139,0.506-0.139c0.168,0,0.336,0.041,0.484,0.125L28,22.302V8.892L15,18.894
			L2,8.892v15.109c0,0.549,0.45,1,1,1h12v-3c0-0.553,0.447-1,1-1H19z"/>
		<path fill="#FFFFFF" d="M28,6.999H2l13,10.002L28,6.999z M29,24.001l-9-5v3h-4v4h4v3L29,24.001z M19,21.001v-2
			c0-0.354,0.188-0.684,0.494-0.861c0.154-0.094,0.33-0.139,0.506-0.139c0.168,0,0.336,0.041,0.484,0.125L28,22.302V8.892L15,18.894
			L2,8.892v15.109c0,0.549,0.45,1,1,1h12v-3c0-0.553,0.447-1,1-1H19z"/>
	</g>
</g>
</svg>
