<?xml version="1.0" encoding="utf-8"?>
<!-- Generator: Adobe Illustrator 15.0.0, SVG Export Plug-In . SVG Version: 6.00 Build 0)  -->
<!DOCTYPE svg PUBLIC "-//W3C//DTD SVG 1.1//EN" "http://www.w3.org/Graphics/SVG/1.1/DTD/svg11.dtd">
<svg version="1.1" xmlns="http://www.w3.org/2000/svg" xmlns:xlink="http://www.w3.org/1999/xlink" x="0px" y="0px" width="30px"
	 height="30px" viewBox="0 0 30 30" enable-background="new 0 0 30 30" xml:space="preserve">
<g id="DO_NOT_EDIT_-_BOUNDING_BOX">
	<rect id="BOUNDING_BOX" fill="none" width="30" height="30"/>
</g>
<g id="PLACE_YOUR_GRAPHIC_HERE">
	<path opacity="0.3" d="M28,11H10c-0.551,0-1,0.451-1,1v14c0,0.551,0.449,1,1,1h18c0.549,0,1-0.449,1-1V12
		C29,11.451,28.549,11,28,11z M27,25H11V13h16V25z M2.5,5H10v5h2V5h7.5v5H21V2c0-0.549-0.451-1-1-1H2C1.449,1,1,1.451,1,2v14
		c0,0.551,0.449,1,1,1h6v-4H2.5V5z M17.5,2h2v2h-2V2z M14.5,2h2v2h-2V2z M11.5,2h2v2h-2V2z M8.5,2h2v2h-2V2z M5.5,2h2v2h-2V2z
		 M2.5,2h2v2h-2V2z M5.5,14h2v2h-2V14z M4.5,14v2h-2v-2H4.5z M26,19.162l-2.691-2.979c-0.203-0.225-0.557-0.246-0.781-0.047
		l-3.965,3.508l-2.254-2.494c-0.203-0.225-0.537-0.225-0.742,0L12,21.098V24h14V19.162z"/>
	<path opacity="0.15" d="M10,29c-1.103,0-2-0.897-2-2v-8H2c-1.103,0-2-0.897-2-2V3c0-1.103,0.897-2,2-2h18c1.103,0,2,0.897,2,2v8h6
		c1.103,0,2,0.897,2,2v14c0,1.103-0.897,2-2,2H10z"/>
	<path opacity="0.15" d="M28,12H10c-0.551,0-1,0.451-1,1v14c0,0.551,0.449,1,1,1h18c0.549,0,1-0.449,1-1V13
		C29,12.451,28.549,12,28,12z M27,26H11V14h16V26z M2.5,6H10v5h2V6h7.5v5H21V3c0-0.549-0.451-1-1-1H2C1.449,2,1,2.451,1,3v14
		c0,0.551,0.449,1,1,1h6v-4H2.5V6z M17.5,3h2v2h-2V3z M14.5,3h2v2h-2V3z M11.5,3h2v2h-2V3z M8.5,3h2v2h-2V3z M5.5,3h2v2h-2V3z
		 M2.5,3h2v2h-2V3z M5.5,15h2v2h-2V15z M4.5,15v2h-2v-2H4.5z M26,20.162l-2.691-2.979c-0.203-0.225-0.557-0.246-0.781-0.047
		l-3.965,3.508l-2.254-2.494c-0.203-0.225-0.537-0.225-0.742,0L12,22.098V25h14V20.162z"/>
	<path fill="#FFFFFF" d="M28,12H10c-0.551,0-1,0.451-1,1v14c0,0.551,0.449,1,1,1h18c0.549,0,1-0.449,1-1V13
		C29,12.451,28.549,12,28,12z M27,26H11V14h16V26z M2.5,6H10v5h2V6h7.5v5H21V3c0-0.549-0.451-1-1-1H2C1.449,2,1,2.451,1,3v14
		c0,0.551,0.449,1,1,1h6v-4H2.5V6z M17.5,3h2v2h-2V3z M14.5,3h2v2h-2V3z M11.5,3h2v2h-2V3z M8.5,3h2v2h-2V3z M5.5,3h2v2h-2V3z
		 M2.5,3h2v2h-2V3z M5.5,15h2v2h-2V15z M4.5,15v2h-2v-2H4.5z M26,20.162l-2.691-2.979c-0.203-0.225-0.557-0.246-0.781-0.047
		l-3.965,3.508l-2.254-2.494c-0.203-0.225-0.537-0.225-0.742,0L12,22.098V25h14V20.162z"/>
</g>
</svg>
