<?xml version="1.0" encoding="utf-8"?>
<!-- Generator: Adobe Illustrator 15.0.0, SVG Export Plug-In . SVG Version: 6.00 Build 0)  -->
<!DOCTYPE svg PUBLIC "-//W3C//DTD SVG 1.1//EN" "http://www.w3.org/Graphics/SVG/1.1/DTD/svg11.dtd">
<svg version="1.1" xmlns="http://www.w3.org/2000/svg" xmlns:xlink="http://www.w3.org/1999/xlink" x="0px" y="0px" width="30px"
	 height="30px" viewBox="0 0 30 30" enable-background="new 0 0 30 30" xml:space="preserve">
<g id="DO_NOT_EDIT_-_BOUNDING_BOX">
	<rect id="BOUNDING_BOX" fill="none" width="30" height="30"/>
</g>
<g id="PLACE_YOUR_GRAPHIC_HERE">
	<path opacity="0.3" d="M24.8,2.983h-3.074c-0.771,0-1.4,0.631-1.4,1.4V7.46c0,0.77,0.63,1.398,1.4,1.398H24.8
		c0.77,0,1.4-0.629,1.4-1.398V4.384C26.2,3.614,25.569,2.983,24.8,2.983z M8.275,11.062H5.2c-0.771,0-1.4,0.629-1.4,1.4v3.074
		c0,0.77,0.63,1.4,1.4,1.4h3.075c0.771,0,1.4-0.631,1.4-1.4v-3.074C9.676,11.69,9.046,11.062,8.275,11.062z M8.275,19.14H5.2
		c-0.771,0-1.4,0.631-1.4,1.4v3.076c0,0.77,0.63,1.4,1.4,1.4h3.075c0.771,0,1.4-0.631,1.4-1.4V20.54
		C9.676,19.771,9.046,19.14,8.275,19.14z M16.354,19.14h-3.075c-0.77,0-1.399,0.631-1.399,1.4v3.076c0,0.77,0.63,1.4,1.399,1.4
		h3.075c0.771,0,1.4-0.631,1.4-1.4V20.54C17.754,19.771,17.124,19.14,16.354,19.14z M8.275,2.983H5.2c-0.771,0-1.4,0.631-1.4,1.4
		V7.46c0,0.77,0.63,1.398,1.4,1.398h3.075c0.771,0,1.4-0.629,1.4-1.398V4.384C9.676,3.614,9.046,2.983,8.275,2.983z M24.8,19.14
		h-3.074c-0.771,0-1.4,0.631-1.4,1.4v3.076c0,0.77,0.63,1.4,1.4,1.4H24.8c0.77,0,1.4-0.631,1.4-1.4V20.54
		C26.2,19.771,25.569,19.14,24.8,19.14z M24.8,11.062h-3.074c-0.771,0-1.4,0.629-1.4,1.4v3.074c0,0.77,0.63,1.4,1.4,1.4H24.8
		c0.77,0,1.4-0.631,1.4-1.4v-3.074C26.2,11.69,25.569,11.062,24.8,11.062z M16.354,2.983h-3.075c-0.77,0-1.399,0.631-1.399,1.4V7.46
		c0,0.77,0.63,1.398,1.399,1.398h3.075c0.771,0,1.4-0.629,1.4-1.398V4.384C17.754,3.614,17.124,2.983,16.354,2.983z M16.354,11.062
		h-3.075c-0.77,0-1.399,0.629-1.399,1.4v3.074c0,0.77,0.63,1.4,1.399,1.4h3.075c0.771,0,1.4-0.631,1.4-1.4v-3.074
		C17.754,11.69,17.124,11.062,16.354,11.062z"/>
	<rect x="3.8" y="3.8" fill="none" width="22.4" height="22.4"/>
	<path opacity="0.15" d="M21.726,27.017c-1.323,0-2.4-1.077-2.4-2.4V21.54c0-1.323,1.077-2.4,2.4-2.4H24.8
		c1.323,0,2.4,1.077,2.4,2.4v3.076c0,1.323-1.077,2.4-2.4,2.4H21.726z M13.278,27.017c-1.323,0-2.399-1.077-2.399-2.4V21.54
		c0-1.323,1.076-2.4,2.399-2.4h3.075c1.323,0,2.4,1.077,2.4,2.4v3.076c0,1.323-1.077,2.4-2.4,2.4H13.278z M5.2,27.017
		c-1.324,0-2.4-1.077-2.4-2.4V21.54c0-1.323,1.077-2.4,2.4-2.4h3.075c1.324,0,2.4,1.077,2.4,2.4v3.076c0,1.323-1.077,2.4-2.4,2.4
		H5.2z M21.726,18.937c-1.323,0-2.4-1.077-2.4-2.4v-3.074c0-1.324,1.077-2.4,2.4-2.4H24.8c1.323,0,2.4,1.077,2.4,2.4v3.074
		c0,1.323-1.077,2.4-2.4,2.4H21.726z M13.278,18.937c-1.323,0-2.399-1.077-2.399-2.4v-3.074c0-1.324,1.076-2.4,2.399-2.4h3.075
		c1.323,0,2.4,1.077,2.4,2.4v3.074c0,1.323-1.077,2.4-2.4,2.4H13.278z M5.2,18.937c-1.324,0-2.4-1.077-2.4-2.4v-3.074
		c0-1.324,1.077-2.4,2.4-2.4h3.075c1.324,0,2.4,1.077,2.4,2.4v3.074c0,1.323-1.077,2.4-2.4,2.4H5.2z M21.726,10.858
		c-1.323,0-2.4-1.076-2.4-2.398V5.384c0-1.324,1.077-2.4,2.4-2.4H24.8c1.323,0,2.4,1.077,2.4,2.4V8.46
		c0,1.322-1.077,2.398-2.4,2.398H21.726z M13.278,10.858c-1.323,0-2.399-1.076-2.399-2.398V5.384c0-1.324,1.076-2.4,2.399-2.4h3.075
		c1.323,0,2.4,1.077,2.4,2.4V8.46c0,1.322-1.077,2.398-2.4,2.398H13.278z M5.2,10.858c-1.324,0-2.4-1.076-2.4-2.398V5.384
		c0-1.324,1.077-2.4,2.4-2.4h3.075c1.324,0,2.4,1.077,2.4,2.4V8.46c0,1.322-1.077,2.398-2.4,2.398H5.2z"/>
	<path opacity="0.15" d="M24.8,3.983h-3.074c-0.771,0-1.4,0.631-1.4,1.4V8.46c0,0.77,0.63,1.398,1.4,1.398H24.8
		c0.77,0,1.4-0.629,1.4-1.398V5.384C26.2,4.614,25.569,3.983,24.8,3.983z M8.275,12.062H5.2c-0.771,0-1.4,0.629-1.4,1.4v3.074
		c0,0.77,0.63,1.4,1.4,1.4h3.075c0.771,0,1.4-0.631,1.4-1.4v-3.074C9.676,12.69,9.046,12.062,8.275,12.062z M8.275,20.14H5.2
		c-0.771,0-1.4,0.631-1.4,1.4v3.076c0,0.77,0.63,1.4,1.4,1.4h3.075c0.771,0,1.4-0.631,1.4-1.4V21.54
		C9.676,20.771,9.046,20.14,8.275,20.14z M16.354,20.14h-3.075c-0.77,0-1.399,0.631-1.399,1.4v3.076c0,0.77,0.63,1.4,1.399,1.4
		h3.075c0.771,0,1.4-0.631,1.4-1.4V21.54C17.754,20.771,17.124,20.14,16.354,20.14z M8.275,3.983H5.2c-0.771,0-1.4,0.631-1.4,1.4
		V8.46c0,0.77,0.63,1.398,1.4,1.398h3.075c0.771,0,1.4-0.629,1.4-1.398V5.384C9.676,4.614,9.046,3.983,8.275,3.983z M24.8,20.14
		h-3.074c-0.771,0-1.4,0.631-1.4,1.4v3.076c0,0.77,0.63,1.4,1.4,1.4H24.8c0.77,0,1.4-0.631,1.4-1.4V21.54
		C26.2,20.771,25.569,20.14,24.8,20.14z M24.8,12.062h-3.074c-0.771,0-1.4,0.629-1.4,1.4v3.074c0,0.77,0.63,1.4,1.4,1.4H24.8
		c0.77,0,1.4-0.631,1.4-1.4v-3.074C26.2,12.69,25.569,12.062,24.8,12.062z M16.354,3.983h-3.075c-0.77,0-1.399,0.631-1.399,1.4V8.46
		c0,0.77,0.63,1.398,1.399,1.398h3.075c0.771,0,1.4-0.629,1.4-1.398V5.384C17.754,4.614,17.124,3.983,16.354,3.983z M16.354,12.062
		h-3.075c-0.77,0-1.399,0.629-1.399,1.4v3.074c0,0.77,0.63,1.4,1.399,1.4h3.075c0.771,0,1.4-0.631,1.4-1.4v-3.074
		C17.754,12.69,17.124,12.062,16.354,12.062z"/>
	<path fill="#FFFFFF" d="M24.8,3.983h-3.074c-0.771,0-1.4,0.631-1.4,1.4V8.46c0,0.77,0.63,1.398,1.4,1.398H24.8
		c0.77,0,1.4-0.629,1.4-1.398V5.384C26.2,4.614,25.569,3.983,24.8,3.983z M8.275,12.062H5.2c-0.771,0-1.4,0.629-1.4,1.4v3.074
		c0,0.77,0.63,1.4,1.4,1.4h3.075c0.771,0,1.4-0.631,1.4-1.4v-3.074C9.676,12.69,9.046,12.062,8.275,12.062z M8.275,20.14H5.2
		c-0.771,0-1.4,0.631-1.4,1.4v3.076c0,0.77,0.63,1.4,1.4,1.4h3.075c0.771,0,1.4-0.631,1.4-1.4V21.54
		C9.676,20.771,9.046,20.14,8.275,20.14z M16.354,20.14h-3.075c-0.77,0-1.399,0.631-1.399,1.4v3.076c0,0.77,0.63,1.4,1.399,1.4
		h3.075c0.771,0,1.4-0.631,1.4-1.4V21.54C17.754,20.771,17.124,20.14,16.354,20.14z M8.275,3.983H5.2c-0.771,0-1.4,0.631-1.4,1.4
		V8.46c0,0.77,0.63,1.398,1.4,1.398h3.075c0.771,0,1.4-0.629,1.4-1.398V5.384C9.676,4.614,9.046,3.983,8.275,3.983z M24.8,20.14
		h-3.074c-0.771,0-1.4,0.631-1.4,1.4v3.076c0,0.77,0.63,1.4,1.4,1.4H24.8c0.77,0,1.4-0.631,1.4-1.4V21.54
		C26.2,20.771,25.569,20.14,24.8,20.14z M24.8,12.062h-3.074c-0.771,0-1.4,0.629-1.4,1.4v3.074c0,0.77,0.63,1.4,1.4,1.4H24.8
		c0.77,0,1.4-0.631,1.4-1.4v-3.074C26.2,12.69,25.569,12.062,24.8,12.062z M16.354,3.983h-3.075c-0.77,0-1.399,0.631-1.399,1.4V8.46
		c0,0.77,0.63,1.398,1.399,1.398h3.075c0.771,0,1.4-0.629,1.4-1.398V5.384C17.754,4.614,17.124,3.983,16.354,3.983z M16.354,12.062
		h-3.075c-0.77,0-1.399,0.629-1.399,1.4v3.074c0,0.77,0.63,1.4,1.399,1.4h3.075c0.771,0,1.4-0.631,1.4-1.4v-3.074
		C17.754,12.69,17.124,12.062,16.354,12.062z"/>
	<rect fill="none" width="30" height="30"/>
</g>
</svg>
