<?xml version="1.0" encoding="utf-8"?>
<!-- Generator: Adobe Illustrator 15.0.0, SVG Export Plug-In . SVG Version: 6.00 Build 0)  -->
<!DOCTYPE svg PUBLIC "-//W3C//DTD SVG 1.1//EN" "http://www.w3.org/Graphics/SVG/1.1/DTD/svg11.dtd">
<svg version="1.1" xmlns="http://www.w3.org/2000/svg" xmlns:xlink="http://www.w3.org/1999/xlink" x="0px" y="0px" width="30px"
	 height="30px" viewBox="0 0 30 30" enable-background="new 0 0 30 30" xml:space="preserve">
<g id="DO_NOT_EDIT_-_BOUNDING_BOX">
	<rect id="BOUNDING_BOX" fill="none" width="30" height="30"/>
</g>
<g id="PLACE_YOUR_GRAPHIC_HERE">
	<path opacity="0.3" d="M3.737,11.083c-0.01-0.038-0.016-0.077-0.021-0.117c-0.004-0.029,0-0.065-0.002-0.097l-0.695,0.267
		c-1.508,0.576-2.287,1.986-1.934,3.399l1.004,4.011c0.357,1.436,1.723,2.262,3.352,2.048l0.604-0.125
		c-0.008-0.024-0.029-0.043-0.035-0.068L3.737,11.083z M26.853,11.009l-0.563-0.226l-2.436,9.492
		c-0.01,0.042-0.043,0.072-0.059,0.111c0,0,0.617,0.135,0.619,0.135c0,0,0.795,0.063,1.164-0.002
		c0.002-0.001,0.004-0.002,0.006-0.002c0.156-0.028,0.318-0.045,0.463-0.094l-0.424,1.651l0.006,0.001l-2.646,1.411
		c-0.578-0.53-1.447-0.671-2.18-0.28l-2.246,1.198c-0.93,0.498-1.283,1.655-0.787,2.587c0.496,0.931,1.654,1.282,2.584,0.786
		l2.244-1.198c0.732-0.392,1.1-1.191,0.984-1.97l3.133-1.671l0.141-0.548l1.258-4.906l0.787-2.923
		c0.051-0.189,0.082-0.379,0.092-0.567C29.083,12.712,28.274,11.49,26.853,11.009z M22.979,10.143
		c-0.012,0.615-0.049,1.008-0.242,1.733c-0.051,0.188-0.195,0.823-0.238,0.989l-1.078,3.99c-0.332,1.226,0.313,2.461,1.465,3.172
		l2.523-9.835c-0.01-0.028-0.016-0.063-0.02-0.093c0-0.049-0.006-0.097,0-0.146l-0.025-0.006c-0.982-5.65-4.619-9.951-10.278-9.951
		c-5.527,0-9.119,4.106-10.209,9.57H4.866c0,0.032,0,0.072-0.006,0.121C4.821,9.88,4.782,10.071,4.75,10.269h0.021
		c-0.045,0.231-0.078,0.455-0.063,0.577l2.209,9.074l0.061,0.239c1.188-0.684,1.879-1.933,1.566-3.177l-1.002-4.017
		c-0.041-0.159-0.178-0.798-0.223-0.988c-0.146-0.585-0.156-1.164-0.146-1.744c0.68-4.439,3.523-7.777,7.912-7.777
		C19.44,2.456,22.276,5.749,22.979,10.143z"/>
	<rect fill="none" width="30" height="30"/>
	<path opacity="0.15" d="M19.458,30.003c-1.079,0-2.063-0.59-2.57-1.54c-0.753-1.415-0.216-3.182,1.197-3.939l2.248-1.198
		c0.418-0.224,0.888-0.341,1.359-0.341c0.478,0,0.941,0.116,1.356,0.335l1.479-0.788c-0.117-0.007-0.199-0.012-0.203-0.012
		c-0.03,0-0.108-0.018-0.741-0.156c-0.224-0.048-0.421-0.171-0.563-0.345c-0.045,0.006-0.09,0.009-0.135,0.009
		c-0.183,0-0.365-0.05-0.525-0.149c-1.596-0.984-2.343-2.666-1.904-4.284l1.077-3.989c0,0,0.209-0.878,0.239-0.99
		c0.154-0.581,0.192-0.891,0.205-1.401c-0.552-3.284-2.645-6.758-6.891-6.758c-4.294,0-6.383,3.532-6.913,6.862
		c-0.008,0.557,0.011,0.992,0.118,1.417c0,0,0.198,0.894,0.221,0.981l1.004,4.024c0.408,1.626-0.41,3.349-2.038,4.285
		c-0.154,0.089-0.326,0.134-0.499,0.134c-0.065,0-0.13-0.006-0.194-0.02c-0.141,0.156-0.329,0.265-0.539,0.309l-0.604,0.125
		c-0.288,0.04-0.5,0.054-0.707,0.054l0,0c-1.89,0-3.389-1.114-3.818-2.84l-1.004-4.01c-0.477-1.906,0.594-3.83,2.547-4.576
		l0.694-0.266c0.116-0.044,0.237-0.066,0.358-0.066c0.03,0,0.061,0.001,0.091,0.004c0.022-0.121,0.047-0.241,0.071-0.361
		c0-0.126,0.022-0.244,0.064-0.351C5.268,3.885,9.522-0.003,15.086-0.003c5.738,0,10.027,4.055,11.23,10.597
		c0.025,0.063,0.045,0.127,0.058,0.194c0.098,0.008,0.195,0.031,0.288,0.068l0.563,0.226c1.759,0.593,2.891,2.201,2.766,3.983
		c-0.012,0.237-0.054,0.498-0.123,0.756l-0.787,2.924l-1.396,5.443c-0.07,0.271-0.251,0.501-0.498,0.634l-2.6,1.386
		c-0.104,0.942-0.66,1.796-1.517,2.254l-2.245,1.198C20.405,29.885,19.932,30.003,19.458,30.003z"/>
	<path opacity="0.15" d="M3.737,12.083c-0.01-0.038-0.016-0.077-0.021-0.117c-0.004-0.029,0-0.065-0.002-0.097l-0.695,0.267
		c-1.508,0.576-2.287,1.986-1.934,3.399l1.004,4.011c0.357,1.436,1.723,2.262,3.352,2.048l0.604-0.125
		c-0.008-0.024-0.029-0.043-0.035-0.068L3.737,12.083z M26.853,12.009l-0.563-0.226l-2.436,9.492
		c-0.01,0.042-0.043,0.072-0.059,0.111c0,0,0.617,0.135,0.619,0.135c0,0,0.795,0.063,1.164-0.002
		c0.002-0.001,0.004-0.002,0.006-0.002c0.156-0.028,0.318-0.045,0.463-0.094l-0.424,1.651l0.006,0.001l-2.646,1.411
		c-0.578-0.53-1.447-0.671-2.18-0.28l-2.246,1.198c-0.93,0.498-1.283,1.655-0.787,2.587c0.496,0.931,1.654,1.282,2.584,0.786
		l2.244-1.198c0.732-0.392,1.1-1.191,0.984-1.97l3.133-1.671l0.141-0.548l1.258-4.906l0.787-2.923
		c0.051-0.189,0.082-0.379,0.092-0.567C29.083,13.712,28.274,12.49,26.853,12.009z M22.979,11.143
		c-0.012,0.615-0.049,1.008-0.242,1.733c-0.051,0.188-0.195,0.823-0.238,0.989l-1.078,3.99c-0.332,1.226,0.313,2.461,1.465,3.172
		l2.523-9.835c-0.01-0.028-0.016-0.063-0.02-0.093c0-0.049-0.006-0.097,0-0.146l-0.025-0.006c-0.982-5.65-4.619-9.951-10.278-9.951
		c-5.527,0-9.119,4.106-10.209,9.57H4.866c0,0.032,0,0.072-0.006,0.121c-0.039,0.192-0.078,0.383-0.109,0.581h0.021
		c-0.045,0.231-0.078,0.455-0.063,0.577l2.209,9.074l0.061,0.239c1.188-0.684,1.879-1.933,1.566-3.177l-1.002-4.017
		c-0.041-0.159-0.178-0.798-0.223-0.988c-0.146-0.585-0.156-1.164-0.146-1.744c0.68-4.439,3.523-7.777,7.912-7.777
		C19.44,3.456,22.276,6.749,22.979,11.143z"/>
	<path fill="#FFFFFF" d="M3.737,12.083c-0.01-0.038-0.016-0.077-0.021-0.117c-0.004-0.029,0-0.065-0.002-0.097l-0.695,0.267
		c-1.508,0.576-2.287,1.986-1.934,3.399l1.004,4.011c0.357,1.436,1.723,2.262,3.352,2.048l0.604-0.125
		c-0.008-0.024-0.029-0.043-0.035-0.068L3.737,12.083z M26.853,12.009l-0.563-0.226l-2.436,9.492
		c-0.01,0.042-0.043,0.072-0.059,0.111c0,0,0.617,0.135,0.619,0.135c0,0,0.795,0.063,1.164-0.002
		c0.002-0.001,0.004-0.002,0.006-0.002c0.156-0.028,0.318-0.045,0.463-0.094l-0.424,1.651l0.006,0.001l-2.646,1.411
		c-0.578-0.53-1.447-0.671-2.18-0.28l-2.246,1.198c-0.93,0.498-1.283,1.655-0.787,2.587c0.496,0.931,1.654,1.282,2.584,0.786
		l2.244-1.198c0.732-0.392,1.1-1.191,0.984-1.97l3.133-1.671l0.141-0.548l1.258-4.906l0.787-2.923
		c0.051-0.189,0.082-0.379,0.092-0.567C29.083,13.712,28.274,12.49,26.853,12.009z M22.979,11.143
		c-0.012,0.615-0.049,1.008-0.242,1.733c-0.051,0.188-0.195,0.823-0.238,0.989l-1.078,3.99c-0.332,1.226,0.313,2.461,1.465,3.172
		l2.523-9.835c-0.01-0.028-0.016-0.063-0.02-0.093c0-0.049-0.006-0.097,0-0.146l-0.025-0.006c-0.982-5.65-4.619-9.951-10.278-9.951
		c-5.527,0-9.119,4.106-10.209,9.57H4.866c0,0.032,0,0.072-0.006,0.121c-0.039,0.192-0.078,0.383-0.109,0.581h0.021
		c-0.045,0.231-0.078,0.455-0.063,0.577l2.209,9.074l0.061,0.239c1.188-0.684,1.879-1.933,1.566-3.177l-1.002-4.017
		c-0.041-0.159-0.178-0.798-0.223-0.988c-0.146-0.585-0.156-1.164-0.146-1.744c0.68-4.439,3.523-7.777,7.912-7.777
		C19.44,3.456,22.276,6.749,22.979,11.143z"/>
</g>
</svg>
