<?xml version="1.0" encoding="utf-8"?>
<!-- Generator: Adobe Illustrator 15.0.0, SVG Export Plug-In . SVG Version: 6.00 Build 0)  -->
<!DOCTYPE svg PUBLIC "-//W3C//DTD SVG 1.1//EN" "http://www.w3.org/Graphics/SVG/1.1/DTD/svg11.dtd">
<svg version="1.1" xmlns="http://www.w3.org/2000/svg" xmlns:xlink="http://www.w3.org/1999/xlink" x="0px" y="0px" width="30px"
	 height="30px" viewBox="0 0 30 30" enable-background="new 0 0 30 30" xml:space="preserve">
<g id="DO_NOT_EDIT_-_BOUNDING_BOX">
	<rect id="BOUNDING_BOX" fill="none" width="30" height="30"/>
</g>
<g id="PLACE_YOUR_GRAPHIC_HERE">
	<path opacity="0.3" d="M3.736,14.77c-0.01-0.038-0.016-0.077-0.021-0.117c-0.004-0.029,0-0.065-0.002-0.097l-0.695,0.267
		c-1.508,0.576-2.287,1.986-1.934,3.399l1.004,4.012c0.357,1.436,1.723,2.262,3.352,2.048l0.604-0.125
		c-0.008-0.024-0.029-0.043-0.035-0.068L3.736,14.77z M25.389,13.786c0-0.049-0.006-0.097,0-0.146l-0.025-0.006
		c-0.982-5.65-4.619-9.951-10.277-9.951c-5.527,0-9.119,4.106-10.209,9.57H4.865c0,0.032,0,0.072-0.006,0.121
		c-0.039,0.192-0.078,0.383-0.109,0.581h0.021c-0.045,0.231-0.078,0.455-0.063,0.577l2.209,9.074l0.061,0.239
		c1.188-0.684,1.879-1.933,1.566-3.177l-1.002-4.018c-0.041-0.159-0.178-0.798-0.223-0.988C7.174,15.079,7.164,14.5,7.174,13.92
		c0.68-4.439,3.523-7.777,7.912-7.777c4.354,0,7.189,3.293,7.893,7.688c-0.012,0.615-0.049,1.008-0.242,1.733
		c-0.051,0.188-0.195,0.823-0.238,0.989l-1.078,3.99c-0.332,1.226,0.313,2.461,1.465,3.172l2.523-9.836
		C25.398,13.851,25.393,13.816,25.389,13.786z M26.852,14.696l-0.563-0.226l-2.436,9.492c-0.01,0.042-0.043,0.072-0.059,0.111
		l0.613,0.135c1.641,0.253,3.031-0.557,3.416-1.986l1.076-3.994C29.299,16.761,28.477,15.245,26.852,14.696z"/>
	<path opacity="0.15" d="M4.936,26.314c-1.89,0-3.389-1.114-3.818-2.84l-1.004-4.01c-0.477-1.906,0.594-3.831,2.547-4.577
		l0.694-0.266c0.116-0.044,0.237-0.066,0.358-0.066c0.03,0,0.061,0.001,0.091,0.004c0.022-0.121,0.046-0.241,0.071-0.361
		c0-0.126,0.023-0.244,0.065-0.351C5.267,7.572,9.522,3.684,15.086,3.684c5.737,0,10.026,4.055,11.229,10.597
		c0.025,0.063,0.045,0.127,0.058,0.194c0.098,0.008,0.195,0.031,0.288,0.068l0.563,0.226c2.027,0.683,3.185,2.721,2.642,4.722
		l-1.075,3.992c-0.453,1.685-1.942,2.772-3.793,2.772l0,0c-0.241,0-0.489-0.019-0.741-0.058l-0.676-0.146
		c-0.222-0.049-0.419-0.172-0.561-0.345c-0.045,0.006-0.09,0.009-0.135,0.009c-0.183,0-0.365-0.05-0.525-0.149
		c-1.596-0.984-2.343-2.666-1.904-4.284l1.077-3.989c0,0,0.209-0.878,0.239-0.99c0.154-0.581,0.192-0.89,0.205-1.401
		c-0.552-3.284-2.645-6.758-6.891-6.758c-4.294,0-6.383,3.532-6.913,6.862c-0.008,0.557,0.011,0.992,0.118,1.416
		c0,0,0.198,0.894,0.221,0.981l1.004,4.025c0.408,1.626-0.41,3.349-2.038,4.285c-0.154,0.089-0.326,0.134-0.499,0.134
		c-0.065,0-0.13-0.006-0.194-0.02c-0.141,0.156-0.329,0.265-0.539,0.309l-0.604,0.125C5.354,26.301,5.143,26.314,4.936,26.314
		L4.936,26.314z"/>
	<path opacity="0.15" d="M3.736,15.77c-0.01-0.038-0.016-0.077-0.021-0.117c-0.004-0.029,0-0.065-0.002-0.097l-0.695,0.267
		c-1.508,0.576-2.287,1.986-1.934,3.399l1.004,4.012c0.357,1.436,1.723,2.262,3.352,2.048l0.604-0.125
		c-0.008-0.024-0.029-0.043-0.035-0.068L3.736,15.77z M25.389,14.786c0-0.049-0.006-0.097,0-0.146l-0.025-0.006
		c-0.982-5.65-4.619-9.951-10.277-9.951c-5.527,0-9.119,4.106-10.209,9.57H4.865c0,0.032,0,0.072-0.006,0.121
		c-0.039,0.192-0.078,0.383-0.109,0.581h0.021c-0.045,0.231-0.078,0.455-0.063,0.577l2.209,9.074l0.061,0.239
		c1.188-0.684,1.879-1.933,1.566-3.177l-1.002-4.018c-0.041-0.159-0.178-0.798-0.223-0.988C7.174,16.079,7.164,15.5,7.174,14.92
		c0.68-4.439,3.523-7.777,7.912-7.777c4.354,0,7.189,3.293,7.893,7.688c-0.012,0.615-0.049,1.008-0.242,1.733
		c-0.051,0.188-0.195,0.823-0.238,0.989l-1.078,3.99c-0.332,1.226,0.313,2.461,1.465,3.172l2.523-9.836
		C25.398,14.851,25.393,14.816,25.389,14.786z M26.852,15.696l-0.563-0.226l-2.436,9.492c-0.01,0.042-0.043,0.072-0.059,0.111
		l0.613,0.135c1.641,0.253,3.031-0.557,3.416-1.986l1.076-3.994C29.299,17.761,28.477,16.245,26.852,15.696z"/>
	<path fill="#FFFFFF" d="M3.736,15.77c-0.01-0.038-0.016-0.077-0.021-0.117c-0.004-0.029,0-0.065-0.002-0.097l-0.695,0.267
		c-1.508,0.576-2.287,1.986-1.934,3.399l1.004,4.012c0.357,1.436,1.723,2.262,3.352,2.048l0.604-0.125
		c-0.008-0.024-0.029-0.043-0.035-0.068L3.736,15.77z M25.389,14.786c0-0.049-0.006-0.097,0-0.146l-0.025-0.006
		c-0.982-5.65-4.619-9.951-10.277-9.951c-5.527,0-9.119,4.106-10.209,9.57H4.865c0,0.032,0,0.072-0.006,0.121
		c-0.039,0.192-0.078,0.383-0.109,0.581h0.021c-0.045,0.231-0.078,0.455-0.063,0.577l2.209,9.074l0.061,0.239
		c1.188-0.684,1.879-1.933,1.566-3.177l-1.002-4.018c-0.041-0.159-0.178-0.798-0.223-0.988C7.174,16.079,7.164,15.5,7.174,14.92
		c0.68-4.439,3.523-7.777,7.912-7.777c4.354,0,7.189,3.293,7.893,7.688c-0.012,0.615-0.049,1.008-0.242,1.733
		c-0.051,0.188-0.195,0.823-0.238,0.989l-1.078,3.99c-0.332,1.226,0.313,2.461,1.465,3.172l2.523-9.836
		C25.398,14.851,25.393,14.816,25.389,14.786z M26.852,15.696l-0.563-0.226l-2.436,9.492c-0.01,0.042-0.043,0.072-0.059,0.111
		l0.613,0.135c1.641,0.253,3.031-0.557,3.416-1.986l1.076-3.994C29.299,17.761,28.477,16.245,26.852,15.696z"/>
</g>
</svg>
