<?xml version="1.0" encoding="utf-8"?>
<!-- Generator: Adobe Illustrator 15.0.0, SVG Export Plug-In . SVG Version: 6.00 Build 0)  -->
<!DOCTYPE svg PUBLIC "-//W3C//DTD SVG 1.1//EN" "http://www.w3.org/Graphics/SVG/1.1/DTD/svg11.dtd">
<svg version="1.1" xmlns="http://www.w3.org/2000/svg" xmlns:xlink="http://www.w3.org/1999/xlink" x="0px" y="0px" width="30px"
	 height="30px" viewBox="0 0 30 30" enable-background="new 0 0 30 30" xml:space="preserve">
<g id="DO_NOT_EDIT_-_BOUNDING_BOX">
	<rect id="BOUNDING_BOX" fill="none" width="30" height="30"/>
</g>
<g id="PLACE_YOUR_GRAPHIC_HERE">
	<path opacity="0.3" d="M27.834,5.25H2.168C1.521,5.25,1,5.771,1,6.417v15.166c0,0.645,0.521,1.166,1.168,1.166h25.666
		c0.645,0,1.166-0.521,1.166-1.166V6.417C29,5.771,28.479,5.25,27.834,5.25z M20.834,7.583h2.332v2.333h-2.332V7.583z M18.5,13.416
		v-2.333h2.334v2.333H18.5z M19.666,14.583v2.333h-2.332v-2.333H19.666z M17.334,7.583h2.332v2.333h-2.332V7.583z M17.334,13.416H15
		v-2.333h2.334V13.416z M16.166,14.583v2.333h-2.332v-2.333H16.166z M13.834,7.583h2.332v2.333h-2.332V7.583z M13.834,13.416H11.5
		v-2.333h2.334V13.416z M12.666,14.583v2.333h-2.332v-2.333H12.666z M10.334,7.583h2.332v2.333h-2.332V7.583z M10.334,13.416H8
		v-2.333h2.334V13.416z M6.834,7.583h2.332v2.333H6.834V7.583z M3.334,7.583h2.334v2.333H3.334V7.583z M3.334,11.083h3.5v2.333h-3.5
		V11.083z M5.668,16.916H3.334v-2.333h2.334V16.916z M6.834,14.583h2.332v2.333H6.834V14.583z M22,20.416H8v-2.333h14V20.416z
		 M23.166,16.916h-2.332v-2.333h2.332V16.916z M26.668,16.916h-2.334v-3.5H22v-2.333h4.668V16.916z M26.668,9.916h-2.334V7.583
		h2.334V9.916z"/>
	<path opacity="0.15" d="M2.168,24.749C0.973,24.749,0,23.777,0,22.583V7.417C0,6.222,0.973,5.25,2.168,5.25h25.666
		C29.028,5.25,30,6.222,30,7.417v15.166c0,1.194-0.972,2.166-2.166,2.166H2.168z"/>
	<path opacity="0.15" d="M27.834,6.25H2.168C1.521,6.25,1,6.771,1,7.417v15.166c0,0.645,0.521,1.166,1.168,1.166h25.666
		c0.645,0,1.166-0.521,1.166-1.166V7.417C29,6.771,28.479,6.25,27.834,6.25z M20.834,8.583h2.332v2.333h-2.332V8.583z M18.5,14.416
		v-2.333h2.334v2.333H18.5z M19.666,15.583v2.333h-2.332v-2.333H19.666z M17.334,8.583h2.332v2.333h-2.332V8.583z M17.334,14.416H15
		v-2.333h2.334V14.416z M16.166,15.583v2.333h-2.332v-2.333H16.166z M13.834,8.583h2.332v2.333h-2.332V8.583z M13.834,14.416H11.5
		v-2.333h2.334V14.416z M12.666,15.583v2.333h-2.332v-2.333H12.666z M10.334,8.583h2.332v2.333h-2.332V8.583z M10.334,14.416H8
		v-2.333h2.334V14.416z M6.834,8.583h2.332v2.333H6.834V8.583z M3.334,8.583h2.334v2.333H3.334V8.583z M3.334,12.083h3.5v2.333h-3.5
		V12.083z M5.668,17.916H3.334v-2.333h2.334V17.916z M6.834,15.583h2.332v2.333H6.834V15.583z M22,21.416H8v-2.333h14V21.416z
		 M23.166,17.916h-2.332v-2.333h2.332V17.916z M26.668,17.916h-2.334v-3.5H22v-2.333h4.668V17.916z M26.668,10.916h-2.334V8.583
		h2.334V10.916z"/>
	<path fill="#FFFFFF" d="M27.834,6.25H2.168C1.521,6.25,1,6.771,1,7.417v15.166c0,0.645,0.521,1.166,1.168,1.166h25.666
		c0.645,0,1.166-0.521,1.166-1.166V7.417C29,6.771,28.479,6.25,27.834,6.25z M20.834,8.583h2.332v2.333h-2.332V8.583z M18.5,14.416
		v-2.333h2.334v2.333H18.5z M19.666,15.583v2.333h-2.332v-2.333H19.666z M17.334,8.583h2.332v2.333h-2.332V8.583z M17.334,14.416H15
		v-2.333h2.334V14.416z M16.166,15.583v2.333h-2.332v-2.333H16.166z M13.834,8.583h2.332v2.333h-2.332V8.583z M13.834,14.416H11.5
		v-2.333h2.334V14.416z M12.666,15.583v2.333h-2.332v-2.333H12.666z M10.334,8.583h2.332v2.333h-2.332V8.583z M10.334,14.416H8
		v-2.333h2.334V14.416z M6.834,8.583h2.332v2.333H6.834V8.583z M3.334,8.583h2.334v2.333H3.334V8.583z M3.334,12.083h3.5v2.333h-3.5
		V12.083z M5.668,17.916H3.334v-2.333h2.334V17.916z M6.834,15.583h2.332v2.333H6.834V15.583z M22,21.416H8v-2.333h14V21.416z
		 M23.166,17.916h-2.332v-2.333h2.332V17.916z M26.668,17.916h-2.334v-3.5H22v-2.333h4.668V17.916z M26.668,10.916h-2.334V8.583
		h2.334V10.916z"/>
</g>
</svg>
