<?xml version="1.0" encoding="utf-8"?>
<!-- Generator: Adobe Illustrator 15.0.0, SVG Export Plug-In . SVG Version: 6.00 Build 0)  -->
<!DOCTYPE svg PUBLIC "-//W3C//DTD SVG 1.1//EN" "http://www.w3.org/Graphics/SVG/1.1/DTD/svg11.dtd">
<svg version="1.1" xmlns="http://www.w3.org/2000/svg" xmlns:xlink="http://www.w3.org/1999/xlink" x="0px" y="0px" width="30px"
	 height="30px" viewBox="0 0 30 30" enable-background="new 0 0 30 30" xml:space="preserve">
<g id="DO_NOT_EDIT_-_BOUNDING_BOX">
	<rect id="BOUNDING_BOX" fill="none" width="30" height="30"/>
</g>
<g id="PLACE_YOUR_GRAPHIC_HERE">
	<path opacity="0.3" d="M28.178,21h-0.824V4.529c0-0.455-0.369-0.824-0.824-0.824H3.471c-0.453,0-0.822,0.369-0.822,0.824V21H1.824
		C1.371,21,1,21.367,1,21.822v1.646c0,0.457,0.371,0.824,0.824,0.824h26.354c0.453,0,0.822-0.367,0.822-0.824v-1.646
		C29,21.367,28.631,21,28.178,21z M18.295,22.646h-6.588V21h6.588V22.646z M25.707,19.352H4.295V5.354h21.412V19.352z"/>
	<path opacity="0.15" d="M1.824,26.293C0.818,26.293,0,25.475,0,24.469v-1.646c0-0.945,0.725-1.726,1.648-1.813V5.529
		c0-1.006,0.817-1.824,1.822-1.824h23.059c1.006,0,1.824,0.818,1.824,1.824v15.479C29.276,21.097,30,21.877,30,22.822v1.646
		c0,1.006-0.817,1.824-1.822,1.824H1.824z"/>
	<path opacity="0.15" d="M28.178,22h-0.824V5.529c0-0.455-0.369-0.824-0.824-0.824H3.471c-0.453,0-0.822,0.369-0.822,0.824V22H1.824
		C1.371,22,1,22.367,1,22.822v1.646c0,0.457,0.371,0.824,0.824,0.824h26.354c0.453,0,0.822-0.367,0.822-0.824v-1.646
		C29,22.367,28.631,22,28.178,22z M18.295,23.646h-6.588V22h6.588V23.646z M25.707,20.352H4.295V6.354h21.412V20.352z"/>
	<path fill="#FFFFFF" d="M28.178,22h-0.824V5.529c0-0.455-0.369-0.824-0.824-0.824H3.471c-0.453,0-0.822,0.369-0.822,0.824V22H1.824
		C1.371,22,1,22.367,1,22.822v1.646c0,0.457,0.371,0.824,0.824,0.824h26.354c0.453,0,0.822-0.367,0.822-0.824v-1.646
		C29,22.367,28.631,22,28.178,22z M18.295,23.646h-6.588V22h6.588V23.646z M25.707,20.352H4.295V6.354h21.412V20.352z"/>
</g>
</svg>
