<?xml version="1.0" encoding="utf-8"?>
<!-- Generator: Adobe Illustrator 15.0.0, SVG Export Plug-In . SVG Version: 6.00 Build 0)  -->
<!DOCTYPE svg PUBLIC "-//W3C//DTD SVG 1.1//EN" "http://www.w3.org/Graphics/SVG/1.1/DTD/svg11.dtd">
<svg version="1.1" xmlns="http://www.w3.org/2000/svg" xmlns:xlink="http://www.w3.org/1999/xlink" x="0px" y="0px" width="30px"
	 height="30px" viewBox="0 0 30 30" enable-background="new 0 0 30 30" xml:space="preserve">
<g id="DO_NOT_EDIT_-_BOUNDING_BOX">
	<rect id="BOUNDING_BOX" fill="none" width="30" height="30"/>
</g>
<g id="PLACE_YOUR_GRAPHIC_HERE">
	<path opacity="0.3" d="M15.876,13.124C16.448,13.697,17.875,14,20,14c2.127,0,3.553-0.303,4.125-0.875
		C24.697,12.552,25,11.126,25,9s-0.303-3.553-0.875-4.125S22.127,4,20,4c-2.125,0-3.552,0.303-4.124,0.875
		C15.304,5.448,15,6.874,15,9C15,11.125,15.304,12.552,15.876,13.124z M9.633,11.421C7.924,4.502,10.375-0.188,14.855,3.56
		c0.298-0.21,0.634-0.362,0.991-0.465C9.213-2.535,3.91,3.993,5.192,13.037C6.42,12.063,7.957,11.468,9.633,11.421z M15,19
		c0-2.962-2.368-5-4.996-5C7.375,14,5,16.164,5,19c0,2.835,2.404,5,4.952,5C12.504,24,15,21.962,15,19z M22.468,16.618h-2.603
		c1.825,8.706-1.63,11.36-6,7.195c-0.259,0.203-0.532,0.385-0.816,0.545c6.2,5.916,11.914,1.315,11.422-8.213
		C23.861,16.439,23.187,16.618,22.468,16.618z"/>
	<path opacity="0.15" d="M18.443,28.995c-1.983,0-4.087-1.007-6.085-2.913c-0.139-0.133-0.234-0.3-0.28-0.48
		C11.389,25.862,10.664,26,9.952,26C6.726,26,4,23.252,4,20c0-3.309,2.693-6,6.004-6C13.366,14,16,16.636,16,20
		c0,1.636-0.611,2.996-1.545,4.006c0.035,0.025,0.068,0.054,0.1,0.084c1.119,1.066,2.181,1.654,2.989,1.654
		c0.417,0,0.74-0.16,1.018-0.502c0.936-1.152,1.058-3.926,0.325-7.419c-0.062-0.295,0.013-0.602,0.202-0.836
		c0.19-0.233,0.476-0.369,0.776-0.369h2.603c0.527,0,1.055-0.126,1.568-0.373c0.138-0.066,0.286-0.1,0.435-0.1
		c0.177,0,0.354,0.047,0.51,0.14c0.288,0.171,0.472,0.475,0.489,0.809c0.224,4.339-0.758,7.891-2.764,10.003
		C21.526,28.339,20.053,28.995,18.443,28.995z M20,16c-2.466,0-4.046-0.382-4.832-1.169C14.382,14.044,14,12.464,14,10
		c0-2.108,0.28-3.569,0.853-4.44c-0.228,0-0.455-0.079-0.639-0.233c-1.081-0.904-1.817-1.094-2.245-1.094
		c-0.412,0-0.741,0.175-1.035,0.549c-0.757,0.967-1.298,3.484-0.331,7.399c0.073,0.293,0.008,0.604-0.175,0.845
		s-0.465,0.386-0.768,0.394c-1.412,0.04-2.742,0.524-3.847,1.4c-0.18,0.142-0.399,0.216-0.622,0.216
		c-0.125,0-0.251-0.023-0.371-0.071c-0.333-0.133-0.569-0.434-0.62-0.789C3.569,9.711,4.45,5.595,6.56,3.165
		C7.79,1.748,9.349,1,11.07,1c1.775,0,3.6,0.785,5.424,2.333c0.28,0.238,0.408,0.612,0.33,0.973
		c-0.001,0.006-0.003,0.012-0.004,0.018C17.642,4.106,18.697,4,20,4c2.466,0,4.046,0.382,4.832,1.168C25.618,5.954,26,7.534,26,10
		c0,2.464-0.382,4.045-1.167,4.832C24.046,15.618,22.466,16,20,16z"/>
	<path opacity="0.15" d="M15.876,14.124C16.448,14.697,17.875,15,20,15c2.127,0,3.553-0.303,4.125-0.875
		C24.697,13.552,25,12.126,25,10s-0.303-3.553-0.875-4.125S22.127,5,20,5c-2.125,0-3.552,0.303-4.124,0.875
		C15.304,6.448,15,7.874,15,10C15,12.125,15.304,13.552,15.876,14.124z M9.633,12.421C7.924,5.502,10.375,0.812,14.855,4.56
		c0.298-0.21,0.634-0.362,0.991-0.465C9.213-1.535,3.91,4.993,5.192,14.037C6.42,13.063,7.957,12.468,9.633,12.421z M15,20
		c0-2.962-2.368-5-4.996-5C7.375,15,5,17.164,5,20c0,2.835,2.404,5,4.952,5C12.504,25,15,22.962,15,20z M22.468,17.618h-2.603
		c1.825,8.706-1.63,11.36-6,7.195c-0.259,0.203-0.532,0.385-0.816,0.545c6.2,5.916,11.914,1.315,11.422-8.213
		C23.861,17.439,23.187,17.618,22.468,17.618z"/>
	<path fill="#FFFFFF" d="M15.876,14.124C16.448,14.697,17.875,15,20,15c2.127,0,3.553-0.303,4.125-0.875
		C24.697,13.552,25,12.126,25,10s-0.303-3.553-0.875-4.125S22.127,5,20,5c-2.125,0-3.552,0.303-4.124,0.875
		C15.304,6.448,15,7.874,15,10C15,12.125,15.304,13.552,15.876,14.124z M9.633,12.421C7.924,5.502,10.375,0.812,14.855,4.56
		c0.298-0.21,0.634-0.362,0.991-0.465C9.213-1.535,3.91,4.993,5.192,14.037C6.42,13.063,7.957,12.468,9.633,12.421z M15,20
		c0-2.962-2.368-5-4.996-5C7.375,15,5,17.164,5,20c0,2.835,2.404,5,4.952,5C12.504,25,15,22.962,15,20z M22.468,17.618h-2.603
		c1.825,8.706-1.63,11.36-6,7.195c-0.259,0.203-0.532,0.385-0.816,0.545c6.2,5.916,11.914,1.315,11.422-8.213
		C23.861,17.439,23.187,17.618,22.468,17.618z"/>
</g>
</svg>
