<?xml version="1.0" encoding="utf-8"?>
<!-- Generator: Adobe Illustrator 15.0.0, SVG Export Plug-In . SVG Version: 6.00 Build 0)  -->
<!DOCTYPE svg PUBLIC "-//W3C//DTD SVG 1.1//EN" "http://www.w3.org/Graphics/SVG/1.1/DTD/svg11.dtd">
<svg version="1.1" xmlns="http://www.w3.org/2000/svg" xmlns:xlink="http://www.w3.org/1999/xlink" x="0px" y="0px" width="30px"
	 height="30px" viewBox="0 0 30 30" enable-background="new 0 0 30 30" xml:space="preserve">
<g id="DO_NOT_EDIT_-_BOUNDING_BOX">
	<rect id="BOUNDING_BOX" fill="none" width="30" height="30"/>
</g>
<g id="PLACE_YOUR_GRAPHIC_HERE">
	<path opacity="0.3" d="M22.6,20.979v-3.439c-0.484,0.969-1.121,1.882-1.93,2.691c-2.068,2.066-4.79,3.075-7.499,3.038v-1.93
		c2.217,0.038,4.448-0.782,6.137-2.471c1.576-1.575,2.391-3.623,2.463-5.692h1.586c0.281-0.188,0.631-0.296,1.018-0.296
		c0.039,0,0.127,0.005,0.164,0.008c0.363,0.052,0.729,0.106,1.096,0.164c0.002-0.058,0.006-0.114,0.006-0.172
		c0-6.804-5.516-12.32-12.321-12.32S1,6.076,1,12.88S6.515,25.2,13.32,25.2c1.65,0,3.223-0.327,4.663-0.915
		c0.484-1.266,1.896-2.187,3.648-2.313C21.975,21.66,22.295,21.327,22.6,20.979z M19.852,13.176
		c-0.072,1.573-0.701,3.13-1.904,4.331c-1.314,1.316-3.053,1.949-4.776,1.911V17.49c1.23,0.041,2.477-0.406,3.417-1.342
		c0.824-0.827,1.268-1.89,1.336-2.973H19.852z M2.938,12.584c0.072-2.562,1.078-5.101,3.03-7.055
		c2.068-2.067,4.79-3.075,7.499-3.036V4.42C11.25,4.382,9.018,5.201,7.328,6.891c-1.576,1.575-2.389,3.624-2.461,5.693H2.938z
		 M6.788,12.584c0.071-1.575,0.7-3.131,1.901-4.332c1.316-1.315,3.052-1.948,4.777-1.909v1.926c-1.23-0.039-2.477,0.405-3.414,1.345
		c-0.826,0.824-1.268,1.888-1.337,2.971H6.788z M10.046,12.88c0-1.804,1.467-3.272,3.273-3.272c1.803,0,3.272,1.469,3.272,3.272
		c0,1.805-1.469,3.272-3.272,3.272C11.513,16.152,10.046,14.685,10.046,12.88z M14.439,12.88c0-0.617-0.502-1.12-1.119-1.12
		c-0.619,0-1.121,0.503-1.121,1.12S12.701,14,13.32,14C13.937,14,14.439,13.497,14.439,12.88z M24.426,14.002
		c0,0-0.705-0.072-0.705,0.667v8.761c-0.488-0.22-1.061-0.353-1.678-0.353c-1.727,0-3.123,0.976-3.123,2.182
		c0,1.205,1.396,2.182,3.123,2.182c1.723,0,3.117-0.977,3.117-2.182v-7.561c1.436,0.219,2.75,0.519,3.84,0.822v-3.654
		C27.342,14.437,25.693,14.184,24.426,14.002z"/>
	<path opacity="0.15" d="M22.043,29.44c-2.259,0-4.04-1.334-4.12-3.06C16.446,26.925,14.9,27.2,13.32,27.2
		C5.975,27.2,0,21.225,0,13.88S5.975,0.56,13.32,0.56c7.345,0,13.321,5.976,13.321,13.32l-0.005,0.16
		c-0.004,0.097-0.022,0.195-0.054,0.289c0.872,0.153,1.763,0.335,2.669,0.57C29.692,15.013,30,15.411,30,15.866v3.654
		c0,0.313-0.146,0.607-0.396,0.796c-0.176,0.134-0.389,0.204-0.604,0.204c-0.09,0-0.18-0.012-0.269-0.037
		c-0.826-0.229-1.698-0.433-2.571-0.6v6.375C26.16,28.043,24.352,29.44,22.043,29.44z"/>
	<path opacity="0.15" d="M22.6,21.979v-3.439c-0.484,0.969-1.121,1.882-1.93,2.691c-2.068,2.066-4.79,3.075-7.499,3.038v-1.93
		c2.217,0.038,4.448-0.782,6.137-2.471c1.576-1.575,2.391-3.623,2.463-5.692h1.586c0.281-0.188,0.631-0.296,1.018-0.296
		c0.039,0,0.127,0.005,0.164,0.008c0.363,0.052,0.729,0.106,1.096,0.164c0.002-0.058,0.006-0.114,0.006-0.172
		c0-6.804-5.516-12.32-12.321-12.32S1,7.076,1,13.88S6.515,26.2,13.32,26.2c1.65,0,3.223-0.327,4.663-0.915
		c0.484-1.266,1.896-2.187,3.648-2.313C21.975,22.66,22.295,22.327,22.6,21.979z M19.852,14.176
		c-0.072,1.573-0.701,3.13-1.904,4.331c-1.314,1.316-3.053,1.949-4.776,1.911V18.49c1.23,0.041,2.477-0.406,3.417-1.342
		c0.824-0.827,1.268-1.89,1.336-2.973H19.852z M2.938,13.584c0.072-2.562,1.078-5.101,3.03-7.055
		c2.068-2.067,4.79-3.075,7.499-3.036V5.42C11.25,5.382,9.018,6.201,7.328,7.891c-1.576,1.575-2.389,3.624-2.461,5.693H2.938z
		 M6.788,13.584c0.071-1.575,0.7-3.131,1.901-4.332c1.316-1.315,3.052-1.948,4.777-1.909v1.926c-1.23-0.039-2.477,0.405-3.414,1.345
		c-0.826,0.824-1.268,1.888-1.337,2.971H6.788z M10.046,13.88c0-1.804,1.467-3.272,3.273-3.272c1.803,0,3.272,1.469,3.272,3.272
		c0,1.805-1.469,3.272-3.272,3.272C11.513,17.152,10.046,15.685,10.046,13.88z M14.439,13.88c0-0.617-0.502-1.12-1.119-1.12
		c-0.619,0-1.121,0.503-1.121,1.12S12.701,15,13.32,15C13.937,15,14.439,14.497,14.439,13.88z M24.426,15.002
		c0,0-0.705-0.072-0.705,0.667v8.761c-0.488-0.22-1.061-0.353-1.678-0.353c-1.727,0-3.123,0.976-3.123,2.182
		c0,1.205,1.396,2.182,3.123,2.182c1.723,0,3.117-0.977,3.117-2.182v-7.561c1.436,0.219,2.75,0.519,3.84,0.822v-3.654
		C27.342,15.437,25.693,15.184,24.426,15.002z"/>
	<path fill="#FFFFFF" d="M22.6,21.979v-3.439c-0.484,0.969-1.121,1.882-1.93,2.691c-2.068,2.066-4.79,3.075-7.499,3.038v-1.93
		c2.217,0.038,4.448-0.782,6.137-2.471c1.576-1.575,2.391-3.623,2.463-5.692h1.586c0.281-0.188,0.631-0.296,1.018-0.296
		c0.039,0,0.127,0.005,0.164,0.008c0.363,0.052,0.729,0.106,1.096,0.164c0.002-0.058,0.006-0.114,0.006-0.172
		c0-6.804-5.516-12.32-12.321-12.32S1,7.076,1,13.88S6.515,26.2,13.32,26.2c1.65,0,3.223-0.327,4.663-0.915
		c0.484-1.266,1.896-2.187,3.648-2.313C21.975,22.66,22.295,22.327,22.6,21.979z M19.852,14.176
		c-0.072,1.573-0.701,3.13-1.904,4.331c-1.314,1.316-3.053,1.949-4.776,1.911V18.49c1.23,0.041,2.477-0.406,3.417-1.342
		c0.824-0.827,1.268-1.89,1.336-2.973H19.852z M2.938,13.584c0.072-2.562,1.078-5.101,3.03-7.055
		c2.068-2.067,4.79-3.075,7.499-3.036V5.42C11.25,5.382,9.018,6.201,7.328,7.891c-1.576,1.575-2.389,3.624-2.461,5.693H2.938z
		 M6.788,13.584c0.071-1.575,0.7-3.131,1.901-4.332c1.316-1.315,3.052-1.948,4.777-1.909v1.926c-1.23-0.039-2.477,0.405-3.414,1.345
		c-0.826,0.824-1.268,1.888-1.337,2.971H6.788z M10.046,13.88c0-1.804,1.467-3.272,3.273-3.272c1.803,0,3.272,1.469,3.272,3.272
		c0,1.805-1.469,3.272-3.272,3.272C11.513,17.152,10.046,15.685,10.046,13.88z M14.439,13.88c0-0.617-0.502-1.12-1.119-1.12
		c-0.619,0-1.121,0.503-1.121,1.12S12.701,15,13.32,15C13.937,15,14.439,14.497,14.439,13.88z M24.426,15.002
		c0,0-0.705-0.072-0.705,0.667v8.761c-0.488-0.22-1.061-0.353-1.678-0.353c-1.727,0-3.123,0.976-3.123,2.182
		c0,1.205,1.396,2.182,3.123,2.182c1.723,0,3.117-0.977,3.117-2.182v-7.561c1.436,0.219,2.75,0.519,3.84,0.822v-3.654
		C27.342,15.437,25.693,15.184,24.426,15.002z"/>
</g>
</svg>
