<?xml version="1.0" encoding="utf-8"?>
<!-- Generator: Adobe Illustrator 15.0.0, SVG Export Plug-In . SVG Version: 6.00 Build 0)  -->
<!DOCTYPE svg PUBLIC "-//W3C//DTD SVG 1.1//EN" "http://www.w3.org/Graphics/SVG/1.1/DTD/svg11.dtd">
<svg version="1.1" xmlns="http://www.w3.org/2000/svg" xmlns:xlink="http://www.w3.org/1999/xlink" x="0px" y="0px" width="30px"
	 height="30px" viewBox="0 0 30 30" enable-background="new 0 0 30 30" xml:space="preserve">
<g id="DO_NOT_EDIT_-_BOUNDING_BOX">
	<rect id="BOUNDING_BOX" fill="none" width="30" height="30"/>
</g>
<g id="PLACE_YOUR_GRAPHIC_HERE">
	<path opacity="0.3" d="M1.999,4v20c0,0.549,0.45,1,1.001,1h1V3H3C2.449,3,1.999,3.449,1.999,4z M27,3H6v22h21c0.549,0,1-0.451,1-1
		V4C28,3.449,27.549,3,27,3z M22.033,11.805c-1.09-0.303-2.402-0.602-3.834-0.82v7.549c0,1.203-1.393,2.176-3.114,2.176
		c-1.725,0-3.117-0.973-3.117-2.176c0-1.205,1.393-2.18,3.117-2.18c0.617,0,1.188,0.133,1.676,0.354V7.959
		c0-0.738,0.705-0.666,0.705-0.666c1.266,0.182,2.91,0.434,4.566,0.863V11.805z"/>
	<path opacity="0.15" d="M6,27c-0.552,0-1-0.447-1-1c0,0.553-0.448,1-1,1H3c-1.104,0-2.001-0.897-2.001-2V5c0-1.103,0.897-2,2.001-2
		h1c0.552,0,1,0.448,1,1c0-0.552,0.448-1,1-1h21c1.103,0,2,0.897,2,2v20c0,1.103-0.897,2-2,2H6z"/>
	<path opacity="0.15" d="M1.999,5v20c0,0.549,0.45,1,1.001,1h1V4H3C2.449,4,1.999,4.449,1.999,5z M27,4H6v22h21c0.549,0,1-0.451,1-1
		V5C28,4.449,27.549,4,27,4z M22.033,12.805c-1.09-0.303-2.402-0.602-3.834-0.82v7.549c0,1.203-1.393,2.176-3.114,2.176
		c-1.725,0-3.117-0.973-3.117-2.176c0-1.205,1.393-2.18,3.117-2.18c0.617,0,1.188,0.133,1.676,0.354V8.959
		c0-0.738,0.705-0.666,0.705-0.666c1.266,0.182,2.91,0.434,4.566,0.863V12.805z"/>
	<path fill="#FFFFFF" d="M1.999,5v20c0,0.549,0.45,1,1.001,1h1V4H3C2.449,4,1.999,4.449,1.999,5z M27,4H6v22h21c0.549,0,1-0.451,1-1
		V5C28,4.449,27.549,4,27,4z M22.033,12.805c-1.09-0.303-2.402-0.602-3.834-0.82v7.549c0,1.203-1.393,2.176-3.114,2.176
		c-1.725,0-3.117-0.973-3.117-2.176c0-1.205,1.393-2.18,3.117-2.18c0.617,0,1.188,0.133,1.676,0.354V8.959
		c0-0.738,0.705-0.666,0.705-0.666c1.266,0.182,2.91,0.434,4.566,0.863V12.805z"/>
</g>
</svg>
