<?xml version="1.0" encoding="utf-8"?>
<!-- Generator: Adobe Illustrator 15.0.0, SVG Export Plug-In . SVG Version: 6.00 Build 0)  -->
<!DOCTYPE svg PUBLIC "-//W3C//DTD SVG 1.1//EN" "http://www.w3.org/Graphics/SVG/1.1/DTD/svg11.dtd">
<svg version="1.1" xmlns="http://www.w3.org/2000/svg" xmlns:xlink="http://www.w3.org/1999/xlink" x="0px" y="0px" width="30px"
	 height="30px" viewBox="0 0 30 30" enable-background="new 0 0 30 30" xml:space="preserve">
<g id="DO_NOT_EDIT_-_BOUNDING_BOX">
	<rect id="BOUNDING_BOX" fill="none" width="30" height="30"/>
</g>
<g id="PLACE_YOUR_GRAPHIC_HERE">
	<path opacity="0.3" d="M19,6.465V5.5c0-1.1-0.678-1.407-1.504-0.684L12.715,9H8c-1.1,0-2,0.9-2,2v7
		c0,0.414,0.128,0.799,0.346,1.119L19,6.465z"/>
	<path opacity="0.3" d="M28.707,0.293c-0.391-0.391-1.023-0.391-1.414,0l-26,26c-0.392,0.391-0.392,1.023,0,1.414
		C1.487,27.902,1.744,28,2,28s0.512-0.098,0.707-0.293l26-26C29.098,1.316,29.098,0.684,28.707,0.293z"/>
	<path opacity="0.3" d="M12.715,20l4.781,4.184C18.322,24.906,19,24.6,19,23.5v-9.964L12.535,20H12.715z"/>
	<path opacity="0.15" d="M29.414,0.586C29.036,0.208,28.534,0,28,0s-1.036,0.208-1.414,0.586L20,7.172V6.5
		c0-1.434-0.845-2.076-1.682-2.076c-0.498,0-0.997,0.215-1.48,0.64L12.339,9H8c-1.654,0-3,1.346-3,3v7
		c0,0.601,0.179,1.183,0.519,1.682c0.136,0.199,0.338,0.342,0.568,0.403l-5.5,5.5C0.208,26.963,0,27.466,0,28
		s0.208,1.037,0.584,1.412C0.961,29.791,1.464,30,2,30c0.534,0,1.036-0.208,1.414-0.586l8.155-8.155
		c0.011,0.042,0.025,0.083,0.042,0.124c0.125,0.303,0.388,0.52,0.698,0.592l4.528,3.962c0.484,0.424,0.982,0.639,1.48,0.639
		c0.542,0,1.027-0.266,1.331-0.728C19.882,25.492,20,25.039,20,24.5V12.828l9.414-9.414C30.194,2.634,30.194,1.366,29.414,0.586z"/>
	<path opacity="0.15" d="M12.715,21l4.781,4.184C18.322,25.906,19,25.6,19,24.5v-9.964L12.535,21H12.715z M19,7.465V6.5
		c0-1.1-0.678-1.407-1.504-0.684L12.715,10H8c-1.1,0-2,0.9-2,2v7c0,0.414,0.128,0.799,0.346,1.119L19,7.465z M28.707,1.293
		c-0.391-0.391-1.023-0.391-1.414,0l-26,26c-0.392,0.391-0.392,1.023,0,1.414C1.487,28.902,1.744,29,2,29s0.512-0.098,0.707-0.293
		l26-26C29.098,2.316,29.098,1.684,28.707,1.293z"/>
	<path fill="#FFFFFF" d="M12.715,21l4.781,4.184C18.322,25.906,19,25.6,19,24.5v-9.964L12.535,21H12.715z M19,7.465V6.5
		c0-1.1-0.678-1.407-1.504-0.684L12.715,10H8c-1.1,0-2,0.9-2,2v7c0,0.414,0.128,0.799,0.346,1.119L19,7.465z"/>
	<path fill="#EA2227" d="M2,29c-0.256,0-0.513-0.098-0.707-0.293c-0.392-0.391-0.392-1.023,0-1.414l26-26
		c0.391-0.391,1.023-0.391,1.414,0s0.391,1.023,0,1.414l-26,26C2.512,28.902,2.256,29,2,29L2,29z"/>
</g>
</svg>
