<?xml version="1.0" encoding="utf-8"?>
<!-- Generator: Adobe Illustrator 15.0.0, SVG Export Plug-In . SVG Version: 6.00 Build 0)  -->
<!DOCTYPE svg PUBLIC "-//W3C//DTD SVG 1.1//EN" "http://www.w3.org/Graphics/SVG/1.1/DTD/svg11.dtd">
<svg version="1.1" xmlns="http://www.w3.org/2000/svg" xmlns:xlink="http://www.w3.org/1999/xlink" x="0px" y="0px" width="30px"
	 height="30px" viewBox="0 0 30 30" enable-background="new 0 0 30 30" xml:space="preserve">
<g id="DO_NOT_EDIT_-_BOUNDING_BOX">
	<rect id="BOUNDING_BOX" fill="none" width="30" height="30"/>
</g>
<g id="PLACE_YOUR_GRAPHIC_HERE">
	<path opacity="0.3" d="M25,19H5c-1.1,0-2,0.9-2,2s0.9,2,2,2h20c1.1,0,2-0.9,2-2S26.1,19,25,19z M5,9h20c1.1,0,2-0.9,2-2
		c0-1.101-0.9-2-2-2H5C3.9,5,3,5.899,3,7C3,8.1,3.9,9,5,9z M25,12H5c-1.1,0-2,0.899-2,2c0,1.099,0.9,2,2,2h20c1.1,0,2-0.9,2-2
		C27,12.899,26.1,12,25,12z"/>
	<path opacity="0.15" d="M5,25c-1.654,0-3-1.346-3-3s1.346-3,3-3h20c1.654,0,3,1.346,3,3s-1.346,3-3,3H5z M5,18
		c-1.654,0-3-1.346-3-3c0-1.654,1.346-3,3-3h20c1.654,0,3,1.346,3,3c0,1.654-1.346,3-3,3H5z M5,11c-1.654,0-3-1.346-3-3s1.346-3,3-3
		h20c1.654,0,3,1.346,3,3s-1.346,3-3,3H5z"/>
	<path opacity="0.15" d="M25,20H5c-1.1,0-2,0.9-2,2s0.9,2,2,2h20c1.1,0,2-0.9,2-2S26.1,20,25,20z M5,10h20c1.1,0,2-0.9,2-2
		c0-1.101-0.9-2-2-2H5C3.9,6,3,6.899,3,8C3,9.1,3.9,10,5,10z M25,13H5c-1.1,0-2,0.899-2,2c0,1.099,0.9,2,2,2h20c1.1,0,2-0.9,2-2
		C27,13.899,26.1,13,25,13z"/>
	<path fill="#FFFFFF" d="M25,20H5c-1.1,0-2,0.9-2,2s0.9,2,2,2h20c1.1,0,2-0.9,2-2S26.1,20,25,20z M5,10h20c1.1,0,2-0.9,2-2
		c0-1.101-0.9-2-2-2H5C3.9,6,3,6.899,3,8C3,9.1,3.9,10,5,10z M25,13H5c-1.1,0-2,0.899-2,2c0,1.099,0.9,2,2,2h20c1.1,0,2-0.9,2-2
		C27,13.899,26.1,13,25,13z"/>
	<rect fill="none" width="30" height="30"/>
</g>
</svg>
