<?xml version="1.0" encoding="utf-8"?>
<!-- Generator: Adobe Illustrator 15.0.0, SVG Export Plug-In . SVG Version: 6.00 Build 0)  -->
<!DOCTYPE svg PUBLIC "-//W3C//DTD SVG 1.1//EN" "http://www.w3.org/Graphics/SVG/1.1/DTD/svg11.dtd">
<svg version="1.1" xmlns="http://www.w3.org/2000/svg" xmlns:xlink="http://www.w3.org/1999/xlink" x="0px" y="0px" width="30px"
	 height="30px" viewBox="0 0 30 30" enable-background="new 0 0 30 30" xml:space="preserve">
<g id="DO_NOT_EDIT_-_BOUNDING_BOX">
	<rect id="BOUNDING_BOX" fill="none" width="30" height="30"/>
</g>
<g id="PLACE_YOUR_GRAPHIC_HERE">
	<path opacity="0.3" d="M15.229,4.705C11.212,4.614,0.939,5.697,1.001,10.098c0,0-0.062,1.929,2.924,2.848
		c2.665,0.819,5.395,1.673,2.696,3.941c-1.952,1.641-1.726,3.52,0.953,5.044c2.661,1.241,5.998,1.369,8.376,1.369
		c7.226,0,13.05-4.017,13.05-9.264C29,8.791,25.153,4.93,15.229,4.705z M7.546,9.53C7.382,8.531,8.337,7.544,9.677,7.326
		c1.339-0.219,2.559,0.414,2.721,1.411c0.164,0.997-0.789,1.984-2.13,2.203C8.927,11.158,7.71,10.527,7.546,9.53z M10.344,21.19
		c-1.198,0-2.17-0.973-2.17-2.171c0-1.199,0.973-2.17,2.17-2.17c1.198,0,2.171,0.972,2.171,2.17S11.542,21.19,10.344,21.19z
		 M17.018,10.517c-1.356-0.092-2.397-0.986-2.327-1.994c0.068-1.008,1.223-1.753,2.576-1.66s2.396,0.985,2.326,1.995
		C19.526,9.867,18.373,10.609,17.018,10.517z M26.011,12.056c-0.441,0.911-1.787,1.167-3.01,0.574
		c-1.221-0.591-1.854-1.81-1.412-2.719c0.441-0.91,1.789-1.169,3.01-0.574C25.821,9.929,26.452,11.147,26.011,12.056z"/>
	<path opacity="0.15" d="M15.95,25.3c-2.636,0-6.019-0.166-8.799-1.463c-2.185-1.239-2.725-2.556-2.806-3.448
		c-0.073-0.803,0.151-2.022,1.632-3.268c0.715-0.601,0.755-0.891,0.756-0.894c-0.183-0.429-2.155-1.035-3.103-1.326
		c-3.673-1.131-3.633-3.726-3.629-3.835c-0.015-1.004,0.393-1.958,1.213-2.789C4.004,5.448,11.29,4.7,14.752,4.7
		c0.174,0,0.341,0.002,0.499,0.006C28.084,4.996,30,11.303,30,15.036C30,20.791,23.828,25.3,15.95,25.3z"/>
	<path opacity="0.15" d="M15.229,5.705C11.212,5.614,0.939,6.697,1.001,11.098c0,0-0.062,1.929,2.924,2.848
		c2.665,0.819,5.395,1.673,2.696,3.941c-1.952,1.641-1.726,3.52,0.953,5.044c2.661,1.241,5.998,1.369,8.376,1.369
		c7.226,0,13.05-4.017,13.05-9.264C29,9.791,25.153,5.93,15.229,5.705z M7.546,10.53C7.382,9.531,8.337,8.544,9.677,8.326
		c1.339-0.219,2.559,0.414,2.721,1.411c0.164,0.997-0.789,1.984-2.13,2.203C8.927,12.158,7.71,11.527,7.546,10.53z M10.344,22.19
		c-1.198,0-2.17-0.973-2.17-2.171c0-1.199,0.973-2.17,2.17-2.17c1.198,0,2.171,0.972,2.171,2.17S11.542,22.19,10.344,22.19z
		 M17.018,11.517c-1.356-0.092-2.397-0.986-2.327-1.994c0.068-1.008,1.223-1.753,2.576-1.66s2.396,0.985,2.326,1.995
		C19.526,10.867,18.373,11.609,17.018,11.517z M26.011,13.056c-0.441,0.911-1.787,1.167-3.01,0.574
		c-1.221-0.591-1.854-1.81-1.412-2.719c0.441-0.91,1.789-1.169,3.01-0.574C25.821,10.929,26.452,12.147,26.011,13.056z"/>
	<path fill="#FFFFFF" d="M15.229,5.705C11.212,5.614,0.939,6.697,1.001,11.098c0,0-0.062,1.929,2.924,2.848
		c2.665,0.819,5.395,1.673,2.696,3.941c-1.952,1.641-1.726,3.52,0.953,5.044c2.661,1.241,5.998,1.369,8.376,1.369
		c7.226,0,13.05-4.017,13.05-9.264C29,9.791,25.153,5.93,15.229,5.705z M7.546,10.53C7.382,9.531,8.337,8.544,9.677,8.326
		c1.339-0.219,2.559,0.414,2.721,1.411c0.164,0.997-0.789,1.984-2.13,2.203C8.927,12.158,7.71,11.527,7.546,10.53z M10.344,22.19
		c-1.198,0-2.17-0.973-2.17-2.171c0-1.199,0.973-2.17,2.17-2.17c1.198,0,2.171,0.972,2.171,2.17S11.542,22.19,10.344,22.19z
		 M17.018,11.517c-1.356-0.092-2.397-0.986-2.327-1.994c0.068-1.008,1.223-1.753,2.576-1.66s2.396,0.985,2.326,1.995
		C19.526,10.867,18.373,11.609,17.018,11.517z M26.011,13.056c-0.441,0.911-1.787,1.167-3.01,0.574
		c-1.221-0.591-1.854-1.81-1.412-2.719c0.441-0.91,1.789-1.169,3.01-0.574C25.821,10.929,26.452,12.147,26.011,13.056z"/>
</g>
</svg>
