<?xml version="1.0" encoding="utf-8"?>
<!-- Generator: Adobe Illustrator 15.0.0, SVG Export Plug-In . SVG Version: 6.00 Build 0)  -->
<!DOCTYPE svg PUBLIC "-//W3C//DTD SVG 1.1//EN" "http://www.w3.org/Graphics/SVG/1.1/DTD/svg11.dtd">
<svg version="1.1" xmlns="http://www.w3.org/2000/svg" xmlns:xlink="http://www.w3.org/1999/xlink" x="0px" y="0px" width="30px"
	 height="30px" viewBox="0 0 30 30" enable-background="new 0 0 30 30" xml:space="preserve">
<g id="DO_NOT_EDIT_-_BOUNDING_BOX">
	<rect id="BOUNDING_BOX" fill="none" width="30" height="30"/>
</g>
<g id="PLACE_YOUR_GRAPHIC_HERE">
	<path opacity="0.3" d="M5.75,4v20h22.252V4H5.75z M25.752,20c0,0.553-0.446,1-1,1H9c-0.554,0-1-0.447-1-1V8c0-0.553,0.446-1,1-1
		h15.752c0.554,0,1,0.447,1,1V20z M2,5v18c0,0.553,0.446,1,1,1h1.25V4H3C2.446,4,2,4.447,2,5z M20.711,11.504
		c-0.248,0-0.441,0.193-0.441,0.193l-4.436,4.789l-2.333-2.518c0,0-0.193-0.193-0.441-0.193c-0.246,0-0.443,0.193-0.443,0.193
		L10,16.484V19h14v-3.771l-2.848-3.531C21.152,11.697,20.957,11.504,20.711,11.504z"/>
	<path fill="#FFFFFF" d="M15.834,17.486l4.436-4.789c0,0,0.193-0.193,0.441-0.193c0.246,0,0.441,0.193,0.441,0.193L24,16.229V20H10
		v-2.516l2.616-2.516c0,0,0.197-0.193,0.443-0.193c0.248,0,0.441,0.193,0.441,0.193L15.834,17.486L15.834,17.486z"/>
	<path opacity="0.15" d="M5.75,26C5.451,26,5.183,25.869,5,25.661C4.817,25.869,4.549,26,4.25,26H3c-1.103,0-2-0.897-2-2V6
		c0-1.103,0.897-2,2-2h1.25C4.549,4,4.817,4.131,5,4.338C5.183,4.131,5.451,4,5.75,4h22.252c0.553,0,1,0.448,1,1v20
		c0,0.553-0.447,1-1,1H5.75z"/>
	<path opacity="0.15" d="M20.711,12.504c-0.248,0-0.441,0.193-0.441,0.193l-4.436,4.789l-2.333-2.516c0,0-0.193-0.193-0.441-0.193
		c-0.246,0-0.443,0.193-0.443,0.193L10,17.484V20h14v-3.771l-2.848-3.531C21.152,12.697,20.957,12.504,20.711,12.504z M2,6v18
		c0,0.553,0.446,1,1,1h1.25V5H3C2.446,5,2,5.447,2,6z M5.75,5v20h22.252V5H5.75z M25.752,21c0,0.553-0.446,1-1,1H9
		c-0.554,0-1-0.447-1-1V9c0-0.553,0.446-1,1-1h15.752c0.554,0,1,0.447,1,1V21z"/>
	<path fill="#FFFFFF" d="M20.711,12.504c-0.248,0-0.441,0.193-0.441,0.193l-4.436,4.789l-2.333-2.516c0,0-0.193-0.193-0.441-0.193
		c-0.246,0-0.443,0.193-0.443,0.193L10,17.484V20h14v-3.771l-2.848-3.531C21.152,12.697,20.957,12.504,20.711,12.504z M2,6v18
		c0,0.553,0.446,1,1,1h1.25V5H3C2.446,5,2,5.447,2,6z M5.75,5v20h22.252V5H5.75z M25.752,21c0,0.553-0.446,1-1,1H9
		c-0.554,0-1-0.447-1-1V9c0-0.553,0.446-1,1-1h15.752c0.554,0,1,0.447,1,1V21z"/>
</g>
</svg>
