<?xml version="1.0" encoding="utf-8"?>
<!-- Generator: Adobe Illustrator 15.0.0, SVG Export Plug-In . SVG Version: 6.00 Build 0)  -->
<!DOCTYPE svg PUBLIC "-//W3C//DTD SVG 1.1//EN" "http://www.w3.org/Graphics/SVG/1.1/DTD/svg11.dtd">
<svg version="1.1" xmlns="http://www.w3.org/2000/svg" xmlns:xlink="http://www.w3.org/1999/xlink" x="0px" y="0px" width="30px"
	 height="30px" viewBox="0 0 30 30" enable-background="new 0 0 30 30" xml:space="preserve">
<g id="DO_NOT_EDIT_-_BOUNDING_BOX">
	<rect id="BOUNDING_BOX" fill="none" width="30" height="30"/>
</g>
<g id="PLACE_YOUR_GRAPHIC_HERE">
	<path opacity="0.3" d="M6,28h18v-7H6V28z M24,1H6v9h18V1z M28,12H2c-0.551,0-1,0.45-1,1v11c0,0.55,0.449,1,1,1h2v-6h22v6h2
		c0.549,0,1-0.45,1-1V13C29,12.45,28.549,12,28,12z"/>
	<path opacity="0.15" d="M28,12h-3V2c0-0.552-0.447-1-1-1H6C5.448,1,5,1.448,5,2v10H2c-1.103,0-2,0.897-2,2v11c0,1.103,0.897,2,2,2
		h3v2c0,0.553,0.448,1,1,1h18c0.553,0,1-0.447,1-1v-2h3c1.103,0,2-0.897,2-2V14C30,12.897,29.103,12,28,12z"/>
	<path opacity="0.15" d="M6,29h18v-7H6V29z M24,2H6v9h18V2z M28,13H2c-0.551,0-1,0.45-1,1v11c0,0.55,0.449,1,1,1h2v-6h22v6h2
		c0.549,0,1-0.45,1-1V14C29,13.45,28.549,13,28,13z"/>
	<path fill="#FFFFFF" d="M6,29h18v-7H6V29z M24,2H6v9h18V2z M28,13H2c-0.551,0-1,0.45-1,1v11c0,0.55,0.449,1,1,1h2v-6h22v6h2
		c0.549,0,1-0.45,1-1V14C29,13.45,28.549,13,28,13z"/>
</g>
</svg>
