<?xml version="1.0" encoding="utf-8"?>
<!-- Generator: Adobe Illustrator 15.0.0, SVG Export Plug-In . SVG Version: 6.00 Build 0)  -->
<!DOCTYPE svg PUBLIC "-//W3C//DTD SVG 1.1//EN" "http://www.w3.org/Graphics/SVG/1.1/DTD/svg11.dtd">
<svg version="1.1" xmlns="http://www.w3.org/2000/svg" xmlns:xlink="http://www.w3.org/1999/xlink" x="0px" y="0px" width="30px"
	 height="30px" viewBox="0 0 30 30" enable-background="new 0 0 30 30" xml:space="preserve">
<g id="DO_NOT_EDIT_-_BOUNDING_BOX">
	<rect id="BOUNDING_BOX" fill="none" width="30" height="30"/>
</g>
<g id="PLACE_YOUR_GRAPHIC_HERE">
	<path opacity="0.3" d="M12.95,5.75c0-0.902,0.402-1.65,1.05-2.096V1.002c-1.199,0.012-2.784,0.124-4.876,0.665
		C5.495,2.604,3.815,4.576,2.842,7.279c0,0-0.718,2.238-0.827,5.721H12.95V5.75z M22.636,5.971v3.855c0,0.596-0.266,1.16-0.725,1.54
		c-0.361,0.3-0.813,0.46-1.275,0.46c-0.124,0-0.249-0.012-0.373-0.035c-0.784-0.149-1.637-0.309-2.489-0.447L17.772,13h10.194
		c-0.155-3.342-0.875-5.721-0.875-5.721c-0.975-2.703-2.655-4.676-6.284-5.612C18.757,1.137,17.188,1.018,16,1.002v2.254
		c1.604,0.174,3.265,0.363,5.067,0.762C21.983,4.219,22.636,5.031,22.636,5.971z M17.771,15l-0.002,4.723
		c-0.006,0.293-0.047,0.592-0.124,0.889c-0.187,0.922-0.714,1.77-1.499,2.407C16.102,23.061,16.046,23.09,16,23.13v3.868
		c1.188-0.014,2.757-0.133,4.808-0.661c3.629-0.938,5.449-2.864,6.284-5.612c0.598-1.969,0.84-3.929,0.893-5.725H17.771z
		 M11.614,24.79c-1.999,0-3.606-0.978-4.197-2.554c-0.37-0.994-0.277-2.111,0.261-3.151c0.628-1.212,1.828-2.225,3.289-2.778
		c0.654-0.25,1.32-0.397,1.983-0.439V15H2.026c0.068,1.729,0.298,3.661,0.815,5.725c0.7,2.787,2.653,4.674,6.282,5.612
		c2.092,0.538,3.677,0.651,4.876,0.661v-2.66l-0.003,0.002C13.223,24.635,12.398,24.79,11.614,24.79z M20.636,9.826V5.971
		c-1.81-0.4-3.472-0.578-5.16-0.76c-0.349,0-0.525,0.182-0.525,0.539v12.509c-0.79-0.488-2.033-0.556-3.271-0.084
		c-1.044,0.396-1.841,1.087-2.227,1.831c-0.266,0.512-0.342,1.048-0.162,1.531c0.444,1.187,2.235,1.604,3.994,0.934
		c0.62-0.237,1.144-0.578,1.555-0.968c0.46-0.357,0.767-0.823,0.854-1.341c0.046-0.159,0.072-0.318,0.075-0.477l0.006-10.645
		l0.253,0.036C17.501,9.244,19.089,9.532,20.636,9.826z"/>
	<path opacity="0.15" d="M13.992,28.998c-1.075-0.009-2.774-0.09-5.117-0.692c-3.895-1.008-6.185-3.08-7.003-6.338
		c-0.481-1.916-0.765-3.911-0.845-5.929c-0.011-0.271,0.089-0.536,0.278-0.732C1.494,15.111,1.754,15,2.026,15H2.015
		c-0.271,0-0.53-0.11-0.718-0.304c-0.188-0.194-0.29-0.457-0.281-0.727c0.112-3.582,0.843-5.898,0.875-5.995
		c1.231-3.42,3.382-5.346,6.984-6.275c2.33-0.603,4.036-0.686,5.116-0.697c0.003,0,0.006,0,0.01,0c0.263,0,0.516,0.104,0.704,0.29
		C14.893,1.479,15,1.735,15,2.002c0-0.268,0.107-0.524,0.297-0.712c0.188-0.185,0.44-0.288,0.703-0.288c0.004,0,0.009,0,0.013,0
		c1.063,0.014,2.743,0.102,5.045,0.697c3.603,0.93,5.754,2.854,6.975,6.241c0.048,0.152,0.774,2.587,0.934,6.014
		c0.013,0.273-0.087,0.539-0.275,0.737C28.501,14.888,28.24,15,27.967,15h0.018c0.271,0,0.529,0.109,0.718,0.303
		c0.188,0.194,0.29,0.456,0.282,0.726c-0.063,2.134-0.378,4.147-0.936,5.985c-0.995,3.273-3.281,5.331-6.991,6.29
		c-1.76,0.454-3.363,0.674-5.046,0.693c-0.004,0-0.008,0-0.012,0c-0.263,0-0.516-0.104-0.703-0.289
		C15.107,28.521,15,28.266,15,27.998c0,0.267-0.106,0.522-0.296,0.71c-0.187,0.186-0.44,0.29-0.704,0.29
		C13.997,28.998,13.995,28.998,13.992,28.998z M16.77,20.687c-0.003,0.137-0.015,0.271-0.036,0.403
		c0.022-0.136,0.034-0.262,0.036-0.387l0.001-1.173L16.77,20.687z"/>
	<path opacity="0.15" d="M12.95,6.75c0-0.902,0.402-1.65,1.05-2.096V2.002c-1.199,0.012-2.784,0.124-4.876,0.665
		C5.495,3.604,3.815,5.576,2.842,8.279c0,0-0.718,2.238-0.827,5.721H12.95V6.75z M22.636,6.971v3.855c0,0.596-0.266,1.16-0.725,1.54
		c-0.361,0.3-0.813,0.46-1.275,0.46c-0.124,0-0.249-0.012-0.373-0.035c-0.784-0.149-1.637-0.309-2.489-0.447L17.772,14h10.194
		c-0.155-3.342-0.875-5.721-0.875-5.721c-0.975-2.703-2.655-4.676-6.284-5.612C18.757,2.137,17.188,2.018,16,2.002v2.254
		c1.604,0.174,3.265,0.363,5.067,0.762C21.983,5.219,22.636,6.031,22.636,6.971z M17.771,16l-0.002,4.723
		c-0.006,0.293-0.047,0.592-0.124,0.889c-0.187,0.922-0.714,1.77-1.499,2.407C16.102,24.061,16.046,24.09,16,24.13v3.868
		c1.188-0.014,2.757-0.133,4.808-0.661c3.629-0.938,5.449-2.864,6.284-5.612c0.598-1.969,0.84-3.929,0.893-5.725H17.771z
		 M11.614,25.79c-1.999,0-3.606-0.978-4.197-2.554c-0.37-0.994-0.277-2.111,0.261-3.151c0.628-1.212,1.828-2.225,3.289-2.778
		c0.654-0.25,1.32-0.397,1.983-0.439V16H2.026c0.068,1.729,0.298,3.661,0.815,5.725c0.7,2.787,2.653,4.674,6.282,5.612
		c2.092,0.538,3.677,0.651,4.876,0.661v-2.66l-0.003,0.002C13.223,25.635,12.398,25.79,11.614,25.79z M20.636,10.826V6.971
		c-1.81-0.4-3.472-0.578-5.16-0.76c-0.349,0-0.525,0.182-0.525,0.539v12.509c-0.79-0.488-2.033-0.556-3.271-0.084
		c-1.044,0.396-1.841,1.087-2.227,1.831c-0.266,0.512-0.342,1.048-0.162,1.531c0.444,1.187,2.235,1.604,3.994,0.934
		c0.62-0.237,1.144-0.578,1.555-0.968c0.46-0.357,0.767-0.823,0.854-1.341c0.046-0.159,0.072-0.318,0.075-0.477l0.006-10.645
		l0.253,0.036C17.501,10.244,19.089,10.532,20.636,10.826z"/>
	<path fill="#FFFFFF" d="M12.95,6.75c0-0.902,0.402-1.65,1.05-2.096V2.002c-1.199,0.012-2.784,0.124-4.876,0.665
		C5.495,3.604,3.815,5.576,2.842,8.279c0,0-0.718,2.238-0.827,5.721H12.95V6.75z M22.636,6.971v3.855c0,0.596-0.266,1.16-0.725,1.54
		c-0.361,0.3-0.813,0.46-1.275,0.46c-0.124,0-0.249-0.012-0.373-0.035c-0.784-0.149-1.637-0.309-2.489-0.447L17.772,14h10.194
		c-0.155-3.342-0.875-5.721-0.875-5.721c-0.975-2.703-2.655-4.676-6.284-5.612C18.757,2.137,17.188,2.018,16,2.002v2.254
		c1.604,0.174,3.265,0.363,5.067,0.762C21.983,5.219,22.636,6.031,22.636,6.971z M17.771,16l-0.002,4.723
		c-0.006,0.293-0.047,0.592-0.124,0.889c-0.187,0.922-0.714,1.77-1.499,2.407C16.102,24.061,16.046,24.09,16,24.13v3.868
		c1.188-0.014,2.757-0.133,4.808-0.661c3.629-0.938,5.449-2.864,6.284-5.612c0.598-1.969,0.84-3.929,0.893-5.725H17.771z
		 M11.614,25.79c-1.999,0-3.606-0.978-4.197-2.554c-0.37-0.994-0.277-2.111,0.261-3.151c0.628-1.212,1.828-2.225,3.289-2.778
		c0.654-0.25,1.32-0.397,1.983-0.439V16H2.026c0.068,1.729,0.298,3.661,0.815,5.725c0.7,2.787,2.653,4.674,6.282,5.612
		c2.092,0.538,3.677,0.651,4.876,0.661v-2.66l-0.003,0.002C13.223,25.635,12.398,25.79,11.614,25.79z M20.636,10.826V6.971
		c-1.81-0.4-3.472-0.578-5.16-0.76c-0.349,0-0.525,0.182-0.525,0.539v12.509c-0.79-0.488-2.033-0.556-3.271-0.084
		c-1.044,0.396-1.841,1.087-2.227,1.831c-0.266,0.512-0.342,1.048-0.162,1.531c0.444,1.187,2.235,1.604,3.994,0.934
		c0.62-0.237,1.144-0.578,1.555-0.968c0.46-0.357,0.767-0.823,0.854-1.341c0.046-0.159,0.072-0.318,0.075-0.477l0.006-10.645
		l0.253,0.036C17.501,10.244,19.089,10.532,20.636,10.826z"/>
</g>
</svg>
