<?xml version="1.0" encoding="utf-8"?>
<!-- Generator: Adobe Illustrator 15.0.0, SVG Export Plug-In . SVG Version: 6.00 Build 0)  -->
<!DOCTYPE svg PUBLIC "-//W3C//DTD SVG 1.1//EN" "http://www.w3.org/Graphics/SVG/1.1/DTD/svg11.dtd">
<svg version="1.1" xmlns="http://www.w3.org/2000/svg" xmlns:xlink="http://www.w3.org/1999/xlink" x="0px" y="0px" width="30px"
	 height="30px" viewBox="0 0 30 30" enable-background="new 0 0 30 30" xml:space="preserve">
<g id="DO_NOT_EDIT_-_BOUNDING_BOX">
	<rect id="BOUNDING_BOX" fill="none" width="30" height="30"/>
</g>
<g id="PLACE_YOUR_GRAPHIC_HERE">
	<g>
		<path opacity="0.3" d="M28,10L15-0.001L2,10l13,10L28,10z M2,11.892V27c0,0.551,0.45,1,1,1h24c0.55,0,1-0.449,1-1V11.892l-13,10
			L2,11.892z"/>
		<rect y="0" fill="none" width="30" height="30"/>
		<path opacity="0.15" d="M3,30c-1.103,0-2-0.897-2-2V12.892C1,12.511,1,11.31,1,11s0.144-0.604,0.39-0.792l13-10.001
			c0.18-0.138,0.395-0.208,0.61-0.208s0.43,0.069,0.61,0.208l13,10.001C28.855,10.396,29,10.689,29,11s0,1.512,0,1.893V28
			c0,1.103-0.897,2-2,2H3z"/>
		<path opacity="0.15" d="M28,11L15,0.999L2,11l13,10L28,11z M2,12.892V28c0,0.551,0.45,1,1,1h24c0.55,0,1-0.449,1-1V12.892l-13,10
			L2,12.892z"/>
		<path fill="#FFFFFF" d="M28,11L15,0.999L2,11l13,10L28,11z M2,12.892V28c0,0.551,0.45,1,1,1h24c0.55,0,1-0.449,1-1V12.892l-13,10
			L2,12.892z"/>
	</g>
</g>
</svg>
