<?xml version="1.0" encoding="utf-8"?>
<!-- Generator: Adobe Illustrator 15.0.0, SVG Export Plug-In . SVG Version: 6.00 Build 0)  -->
<!DOCTYPE svg PUBLIC "-//W3C//DTD SVG 1.1//EN" "http://www.w3.org/Graphics/SVG/1.1/DTD/svg11.dtd">
<svg version="1.1" xmlns="http://www.w3.org/2000/svg" xmlns:xlink="http://www.w3.org/1999/xlink" x="0px" y="0px" width="30px"
	 height="30px" viewBox="0 0 30 30" enable-background="new 0 0 30 30" xml:space="preserve">
<g id="DO_NOT_EDIT_-_BOUNDING_BOX">
	<rect id="BOUNDING_BOX" fill="none" width="30" height="30"/>
</g>
<g id="PLACE_YOUR_GRAPHIC_HERE">
	<g>
		<path opacity="0.3" d="M5,2v6l8.5,6.801V26h3V14.801L25,8V2H5z M13.5,10.959L8,6.559V5h5.5V10.959z M22,6.559l-5.5,4.4V5H22V6.559
			z"/>
		<path opacity="0.15" d="M13.5,28c-0.552,0-1-0.447-1-1V16.281l-8.125-6.5C4.138,9.591,4,9.304,4,9V3c0-0.552,0.448-1,1-1h20
			c0.553,0,1,0.448,1,1v6c0,0.304-0.138,0.591-0.375,0.781l-8.125,6.5V27c0,0.553-0.447,1-1,1H13.5z M17.5,9.878l3.5-2.8V7h-3.5
			V9.878z M12.5,9.878V7H9v0.078L12.5,9.878z"/>
		<path opacity="0.15" d="M5,3v6l8.5,6.801V27h3V15.801L25,9V3H5z M13.5,11.959L8,7.559V6h5.5V11.959z M22,7.559l-5.5,4.4V6H22
			V7.559z"/>
		<path fill="#FFFFFF" d="M5,3v6l8.5,6.801V27h3V15.801L25,9V3H5z M13.5,11.959L8,7.559V6h5.5V11.959z M22,7.559l-5.5,4.4V6H22
			V7.559z"/>
		<rect fill="none" width="30" height="30"/>
	</g>
</g>
</svg>
