<?xml version="1.0" encoding="utf-8"?>
<!-- Generator: Adobe Illustrator 15.0.0, SVG Export Plug-In . SVG Version: 6.00 Build 0)  -->
<!DOCTYPE svg PUBLIC "-//W3C//DTD SVG 1.1//EN" "http://www.w3.org/Graphics/SVG/1.1/DTD/svg11.dtd">
<svg version="1.1" xmlns="http://www.w3.org/2000/svg" xmlns:xlink="http://www.w3.org/1999/xlink" x="0px" y="0px" width="30px"
	 height="30px" viewBox="0 0 30 30" enable-background="new 0 0 30 30" xml:space="preserve">
<g id="DO_NOT_EDIT_-_BOUNDING_BOX">
	<rect id="BOUNDING_BOX" fill="none" width="30" height="30"/>
</g>
<g id="PLACE_YOUR_GRAPHIC_HERE">
	<g>
		<path opacity="0.3" d="M15,23c0-0.363,0.197-0.697,0.516-0.874l9-5C24.666,17.042,24.834,17,25,17
			c0.176,0,0.352,0.046,0.508,0.139C25.813,17.316,26,17.646,26,18v2h2V7.893l-13,10l-13-10V23c0,0.55,0.45,1,1,1h12.742
			l-0.229-0.126C15.197,23.697,15,23.363,15,23z M28,6H2l13,10L28,6z M25,21v-3l-9,5l9,5v-3h4v-4H25z"/>
		<rect fill="none" width="30" height="30"/>
		<rect fill="none" width="30" height="30"/>
		<path opacity="0.15" d="M25,30c-0.167,0-0.335-0.042-0.485-0.126l-7.899-4.388C16.442,25.798,16.111,26,15.742,26H3
			c-1.103,0-2-0.897-2-2V8.893c0-0.381-0.084-1.809,0.053-2.214C1.191,6.272,1.572,6,2,6h26c0.428,0,0.809,0.272,0.946,0.678
			C29.085,7.083,29,8.512,29,8.893V21c0.553,0,1,0.447,1,1v4c0,0.553-0.447,1-1,1h-3v2c0,0.354-0.188,0.683-0.493,0.862
			C25.351,29.954,25.176,30,25,30z"/>
		<path opacity="0.15" d="M15,24c0-0.363,0.197-0.697,0.516-0.874l9-5C24.666,18.042,24.834,18,25,18
			c0.176,0,0.352,0.046,0.508,0.139C25.813,18.316,26,18.646,26,19v2h2V8.893l-13,10l-13-10V24c0,0.55,0.45,1,1,1h12.742
			l-0.229-0.126C15.197,24.697,15,24.363,15,24z M28,7H2l13,10L28,7z M25,22v-3l-9,5l9,5v-3h4v-4H25z"/>
		<path fill="#FFFFFF" d="M15,24c0-0.363,0.197-0.697,0.516-0.874l9-5C24.666,18.042,24.834,18,25,18
			c0.176,0,0.352,0.046,0.508,0.139C25.813,18.316,26,18.646,26,19v2h2V8.893l-13,10l-13-10V24c0,0.55,0.45,1,1,1h12.742
			l-0.229-0.126C15.197,24.697,15,24.363,15,24z M28,7H2l13,10L28,7z M25,22v-3l-9,5l9,5v-3h4v-4H25z"/>
	</g>
</g>
</svg>
