<?xml version="1.0" encoding="utf-8"?>
<!-- Generator: Adobe Illustrator 15.0.0, SVG Export Plug-In . SVG Version: 6.00 Build 0)  -->
<!DOCTYPE svg PUBLIC "-//W3C//DTD SVG 1.1//EN" "http://www.w3.org/Graphics/SVG/1.1/DTD/svg11.dtd">
<svg version="1.1" xmlns="http://www.w3.org/2000/svg" xmlns:xlink="http://www.w3.org/1999/xlink" x="0px" y="0px" width="30px"
	 height="30px" viewBox="0 0 30 30" enable-background="new 0 0 30 30" xml:space="preserve">
<g id="DO_NOT_EDIT_-_BOUNDING_BOX">
	<rect id="BOUNDING_BOX" fill="none" width="30" height="30"/>
</g>
<g id="PLACE_YOUR_GRAPHIC_HERE">
	<g>
		<path opacity="0.3" d="M25,17c0.176,0,0.352,0.047,0.508,0.139C25.813,17.318,26,17.646,26,18v2h3v-3H25z M15,23
			c0-0.363,0.197-0.697,0.516-0.873L17.541,21l-2.027-1.125C15.197,19.699,15,19.363,15,19s0.197-0.697,0.515-0.873l9-5
			C24.666,13.043,24.834,13,25,13c0.176,0,0.352,0.047,0.508,0.139C25.813,13.318,26,13.646,26,14v2h2V7.893l-13,10l-13-10V23
			c0,0.551,0.45,1,1,1h12.742l-0.229-0.125C15.197,23.697,15,23.363,15,23z M28,6H2l13,10L28,6z M16,19l2.571,1.428l5.943-3.301
			C24.666,17.043,24.834,17,25,17v-3L16,19z M25,18l-9,5l9,5v-3h4v-4h-4V18z"/>
		<rect fill="none" width="30" height="30"/>
		<path opacity="0.15" d="M25,30c-0.167,0-0.335-0.042-0.485-0.126l-7.899-4.388C16.442,25.798,16.111,26,15.742,26H3
			c-1.103,0-2-0.897-2-2V8.893c0-0.381-0.084-1.809,0.053-2.214C1.191,6.272,1.572,6,2,6h26c0.428,0,0.809,0.272,0.946,0.678
			C29.085,7.083,29,8.512,29,8.893V17c0.553,0,1,0.447,1,1v3c0,0.182-0.049,0.353-0.134,0.5C29.951,21.647,30,21.818,30,22v4
			c0,0.553-0.447,1-1,1h-3v2c0,0.354-0.188,0.683-0.493,0.862C25.351,29.954,25.176,30,25,30z"/>
		<path opacity="0.15" d="M25,18c0.176,0,0.352,0.047,0.508,0.139C25.813,18.318,26,18.646,26,19v2h3v-3H25z M15,24
			c0-0.363,0.197-0.697,0.516-0.873L17.541,22l-2.027-1.125C15.197,20.699,15,20.363,15,20s0.197-0.697,0.515-0.873l9-5
			C24.666,14.043,24.834,14,25,14c0.176,0,0.352,0.047,0.508,0.139C25.813,14.318,26,14.646,26,15v2h2V8.893l-13,10l-13-10V24
			c0,0.551,0.45,1,1,1h12.742l-0.229-0.125C15.197,24.697,15,24.363,15,24z M28,7H2l13,10L28,7z M16,20l2.571,1.428l5.943-3.301
			C24.666,18.043,24.834,18,25,18v-3L16,20z M25,19l-9,5l9,5v-3h4v-4h-4V19z"/>
		<path fill="#FFFFFF" d="M25,18c0.176,0,0.352,0.047,0.508,0.139C25.813,18.318,26,18.646,26,19v2h3v-3H25z M15,24
			c0-0.363,0.197-0.697,0.516-0.873L17.541,22l-2.027-1.125C15.197,20.699,15,20.363,15,20s0.197-0.697,0.515-0.873l9-5
			C24.666,14.043,24.834,14,25,14c0.176,0,0.352,0.047,0.508,0.139C25.813,14.318,26,14.646,26,15v2h2V8.893l-13,10l-13-10V24
			c0,0.551,0.45,1,1,1h12.742l-0.229-0.125C15.197,24.697,15,24.363,15,24z M28,7H2l13,10L28,7z M16,20l2.571,1.428l5.943-3.301
			C24.666,18.043,24.834,18,25,18v-3L16,20z M25,19l-9,5l9,5v-3h4v-4h-4V19z"/>
	</g>
</g>
</svg>
