<?xml version="1.0" encoding="utf-8"?>
<!-- Generator: Adobe Illustrator 15.0.0, SVG Export Plug-In . SVG Version: 6.00 Build 0)  -->
<!DOCTYPE svg PUBLIC "-//W3C//DTD SVG 1.1//EN" "http://www.w3.org/Graphics/SVG/1.1/DTD/svg11.dtd">
<svg version="1.1" xmlns="http://www.w3.org/2000/svg" xmlns:xlink="http://www.w3.org/1999/xlink" x="0px" y="0px" width="30px"
	 height="30px" viewBox="0 0 30 30" enable-background="new 0 0 30 30" xml:space="preserve">
<g id="DO_NOT_EDIT_-_BOUNDING_BOX">
	<rect id="BOUNDING_BOX" fill="none" width="30" height="30"/>
</g>
<g id="PLACE_YOUR_GRAPHIC_HERE">
	<path opacity="0.3" d="M13.434,5.1C13.295,5.033,13.146,5,13,5c-0.223,0-0.443,0.074-0.625,0.219l-10,8C2.139,13.408,2,13.695,2,14
		s0.139,0.592,0.375,0.781l10,8C12.557,22.926,12.777,23,13,23c0.146,0,0.297-0.033,0.434-0.1C13.779,22.734,14,22.385,14,22v-8V6
		C14,5.615,13.779,5.266,13.434,5.1z M25.434,5.1C25.295,5.033,25.146,5,25,5c-0.223,0-0.443,0.074-0.625,0.219l-10,8
		C14.139,13.408,14,13.695,14,14s0.139,0.592,0.375,0.781l10,8C24.557,22.926,24.777,23,25,23c0.146,0,0.297-0.033,0.434-0.1
		C25.779,22.734,26,22.385,26,22V6C26,5.615,25.779,5.266,25.434,5.1z"/>
	<path opacity="0.15" d="M25,25c-0.451,0-0.895-0.155-1.248-0.437L15,17.562V23c0,0.764-0.445,1.471-1.133,1.802
		C13.601,24.931,13.3,25,13,25c-0.451,0-0.894-0.155-1.248-0.437L1.75,16.563C1.273,16.18,1,15.61,1,15s0.273-1.18,0.75-1.562
		l10.001-8C12.106,5.155,12.549,5,13,5c0.296,0,0.595,0.068,0.866,0.198C14.555,5.529,15,6.236,15,7v5.438l8.75-7
		C24.105,5.155,24.549,5,25,5c0.296,0,0.596,0.068,0.865,0.198C26.555,5.529,27,6.236,27,7v16c0,0.764-0.445,1.471-1.134,1.802
		C25.601,24.931,25.3,25,25,25z"/>
	<path opacity="0.15" d="M13.434,6.1C13.295,6.033,13.146,6,13,6c-0.223,0-0.443,0.074-0.625,0.219l-10,8
		C2.139,14.408,2,14.695,2,15s0.139,0.592,0.375,0.781l10,8C12.557,23.926,12.777,24,13,24c0.146,0,0.297-0.033,0.434-0.1
		C13.779,23.734,14,23.385,14,23v-8V7C14,6.615,13.779,6.266,13.434,6.1z M25.434,6.1C25.295,6.033,25.146,6,25,6
		c-0.223,0-0.443,0.074-0.625,0.219l-10,8C14.139,14.408,14,14.695,14,15s0.139,0.592,0.375,0.781l10,8
		C24.557,23.926,24.777,24,25,24c0.146,0,0.297-0.033,0.434-0.1C25.779,23.734,26,23.385,26,23V7C26,6.615,25.779,6.266,25.434,6.1z
		"/>
	<path fill="#FFFFFF" d="M13.434,6.1C13.295,6.033,13.146,6,13,6c-0.223,0-0.443,0.074-0.625,0.219l-10,8
		C2.139,14.408,2,14.695,2,15s0.139,0.592,0.375,0.781l10,8C12.557,23.926,12.777,24,13,24c0.146,0,0.297-0.033,0.434-0.1
		C13.779,23.734,14,23.385,14,23v-8V7C14,6.615,13.779,6.266,13.434,6.1z M25.434,6.1C25.295,6.033,25.146,6,25,6
		c-0.223,0-0.443,0.074-0.625,0.219l-10,8C14.139,14.408,14,14.695,14,15s0.139,0.592,0.375,0.781l10,8
		C24.557,23.926,24.777,24,25,24c0.146,0,0.297-0.033,0.434-0.1C25.779,23.734,26,23.385,26,23V7C26,6.615,25.779,6.266,25.434,6.1z
		"/>
</g>
</svg>
