<?xml version="1.0" encoding="utf-8"?>
<!-- Generator: Adobe Illustrator 15.0.0, SVG Export Plug-In . SVG Version: 6.00 Build 0)  -->
<!DOCTYPE svg PUBLIC "-//W3C//DTD SVG 1.1//EN" "http://www.w3.org/Graphics/SVG/1.1/DTD/svg11.dtd">
<svg version="1.1" xmlns="http://www.w3.org/2000/svg" xmlns:xlink="http://www.w3.org/1999/xlink" x="0px" y="0px" width="30px"
	 height="30px" viewBox="0 0 30 30" enable-background="new 0 0 30 30" xml:space="preserve">
<g id="DO_NOT_EDIT_-_BOUNDING_BOX">
	<rect id="BOUNDING_BOX" fill="none" width="30" height="30"/>
</g>
<g id="PLACE_YOUR_GRAPHIC_HERE">
	<path opacity="0.3" d="M27.268,22.732l-4.934-4.934C23.385,16.113,24,14.131,24,12c0-6.075-4.924-11-11-11C6.926,1,2,5.925,2,12
		c0,6.074,4.926,11,11,11c2.131,0,4.113-0.617,5.799-1.666l4.934,4.934c0.979,0.977,2.561,0.977,3.535,0
		C28.244,25.291,28.244,23.709,27.268,22.732z M13,19.5c-4.137,0-7.5-3.363-7.5-7.5S8.863,4.5,13,4.5s7.5,3.363,7.5,7.5
		S17.137,19.5,13,19.5z"/>
	<g opacity="0.15">
		<g>
			<path d="M27.975,23.025l-4.391-4.391C24.513,16.898,25,14.966,25,13c0-6.617-5.383-12-12-12C6.383,1,1,6.383,1,13
				c0,6.617,5.383,12,12,12c1.964,0,3.896-0.487,5.634-1.417l4.393,4.393C23.688,28.636,24.567,29,25.502,29
				s1.813-0.364,2.473-1.025C29.339,26.61,29.339,24.39,27.975,23.025z M13,19.5c-3.584,0-6.5-2.916-6.5-6.5S9.416,6.5,13,6.5
				s6.5,2.916,6.5,6.5S16.584,19.5,13,19.5z"/>
		</g>
	</g>
	<rect fill="none" width="30" height="30"/>
	<path opacity="0.15" d="M27.268,23.732l-4.934-4.934C23.385,17.113,24,15.131,24,13c0-6.075-4.924-11-11-11C6.926,2,2,6.925,2,13
		c0,6.074,4.926,11,11,11c2.131,0,4.113-0.617,5.799-1.666l4.934,4.934c0.979,0.977,2.561,0.977,3.535,0
		C28.244,26.291,28.244,24.709,27.268,23.732z M13,20.5c-4.137,0-7.5-3.363-7.5-7.5S8.863,5.5,13,5.5s7.5,3.363,7.5,7.5
		S17.137,20.5,13,20.5z"/>
	<path fill="#FFFFFF" d="M27.268,23.732l-4.934-4.934C23.385,17.113,24,15.131,24,13c0-6.075-4.924-11-11-11C6.926,2,2,6.925,2,13
		c0,6.074,4.926,11,11,11c2.131,0,4.113-0.617,5.799-1.666l4.934,4.934c0.979,0.977,2.561,0.977,3.535,0
		C28.244,26.291,28.244,24.709,27.268,23.732z M13,20.5c-4.137,0-7.5-3.363-7.5-7.5S8.863,5.5,13,5.5s7.5,3.363,7.5,7.5
		S17.137,20.5,13,20.5z"/>
</g>
</svg>
