<?xml version="1.0" encoding="utf-8"?>
<!-- Generator: Adobe Illustrator 15.0.0, SVG Export Plug-In . SVG Version: 6.00 Build 0)  -->
<!DOCTYPE svg PUBLIC "-//W3C//DTD SVG 1.1//EN" "http://www.w3.org/Graphics/SVG/1.1/DTD/svg11.dtd">
<svg version="1.1" xmlns="http://www.w3.org/2000/svg" xmlns:xlink="http://www.w3.org/1999/xlink" x="0px" y="0px" width="30px"
	 height="30px" viewBox="0 0 30 30" enable-background="new 0 0 30 30" xml:space="preserve">
<g id="DO_NOT_EDIT_-_BOUNDING_BOX">
	<rect id="BOUNDING_BOX" fill="none" width="30" height="30"/>
</g>
<g id="PLACE_YOUR_GRAPHIC_HERE">
	<rect fill="none" width="30" height="30"/>
	<g>
		<path opacity="0.3" d="M9.742,7.339c-0.391-0.391-1.023-0.391-1.414,0s-0.391,1.023,0,1.414l13.434,13.434
			c0.195,0.195,0.451,0.293,0.707,0.293s0.512-0.098,0.707-0.293c0.391-0.391,0.391-1.023,0-1.414L9.742,7.339z M14.572,18.84
			c-0.873-0.393-1.893-0.631-2.996-0.631C8.492,18.209,6,19.951,6,22.105S8.492,26,11.576,26c3.076,0,5.566-1.74,5.566-3.895v-2.417
			l-2.57-2.57V18.84z M15.832,2.004c0,0-1.26-0.129-1.26,1.191v6.853l2.57,2.57V8.605c2.563,0.393,4.91,0.926,6.857,1.469V3.549
			C21.037,2.781,18.096,2.33,15.832,2.004z"/>
		<path opacity="0.15" d="M24.251,3.581c-2.86-0.741-5.668-1.19-8.317-1.571C15.9,2.006,15.776,2,15.742,2
			c-1.08,0-2.17,0.679-2.17,2.195v6.56l-3.123-3.123c-0.378-0.378-0.88-0.586-1.414-0.586S7.999,7.254,7.621,7.632
			s-0.586,0.88-0.586,1.414s0.208,1.036,0.586,1.414l5.951,5.951v2.036c-0.648-0.157-1.321-0.238-1.996-0.238
			C7.889,18.209,5,20.359,5,23.105C5,25.85,7.889,28,11.576,28c3.682,0,6.566-2.15,6.566-4.895v-2.124l2.912,2.912
			c0.378,0.378,0.88,0.586,1.414,0.586s1.036-0.208,1.414-0.586s0.586-0.88,0.586-1.414s-0.208-1.036-0.586-1.414l-5.74-5.74v-4.543
			c1.898,0.331,3.81,0.759,5.589,1.255c0.089,0.024,0.179,0.037,0.269,0.037c0.216,0,0.429-0.07,0.604-0.204
			C24.854,11.682,25,11.387,25,11.074V4.549C25,4.093,24.692,3.695,24.251,3.581z"/>
		<path opacity="0.15" d="M9.742,8.339c-0.391-0.391-1.023-0.391-1.414,0s-0.391,1.023,0,1.414l13.434,13.434
			c0.195,0.195,0.451,0.293,0.707,0.293s0.512-0.098,0.707-0.293c0.391-0.391,0.391-1.023,0-1.414L9.742,8.339z M14.572,19.84
			c-0.873-0.393-1.893-0.631-2.996-0.631C8.492,19.209,6,20.951,6,23.105S8.492,27,11.576,27c3.076,0,5.566-1.74,5.566-3.895v-2.417
			l-2.57-2.57V19.84z M15.832,3.004c0,0-1.26-0.129-1.26,1.191v6.853l2.57,2.57V9.605c2.563,0.393,4.91,0.926,6.857,1.469V4.549
			C21.037,3.781,18.096,3.33,15.832,3.004z"/>
		<path fill="#FFFFFF" d="M14.572,19.84c-0.873-0.393-1.893-0.631-2.996-0.631C8.492,19.209,6,20.951,6,23.105S8.492,27,11.576,27
			c3.076,0,5.566-1.74,5.566-3.895v-2.417l-2.57-2.57V19.84z M15.832,3.004c0,0-1.26-0.129-1.26,1.191v6.853l2.57,2.57V9.605
			c2.563,0.393,4.91,0.926,6.857,1.469V4.549C21.037,3.781,18.096,3.33,15.832,3.004z"/>
		<g>
			<path fill="#EC1C24" d="M22.461,23.479c-0.256,0-0.512-0.098-0.707-0.293L8.321,9.752c-0.391-0.391-0.391-1.023,0-1.414
				s1.023-0.391,1.414,0l13.433,13.433c0.391,0.391,0.391,1.023,0,1.414C22.973,23.381,22.717,23.479,22.461,23.479z"/>
		</g>
	</g>
</g>
</svg>
