<?xml version="1.0" encoding="utf-8"?>
<!-- Generator: Adobe Illustrator 15.0.0, SVG Export Plug-In . SVG Version: 6.00 Build 0)  -->
<!DOCTYPE svg PUBLIC "-//W3C//DTD SVG 1.1//EN" "http://www.w3.org/Graphics/SVG/1.1/DTD/svg11.dtd">
<svg version="1.1" xmlns="http://www.w3.org/2000/svg" xmlns:xlink="http://www.w3.org/1999/xlink" x="0px" y="0px" width="30px"
	 height="30px" viewBox="0 0 30 30" enable-background="new 0 0 30 30" xml:space="preserve">
<g id="DO_NOT_EDIT_-_BOUNDING_BOX">
	<rect id="BOUNDING_BOX" fill="none" width="30" height="30"/>
</g>
<g id="PLACE_YOUR_GRAPHIC_HERE">
	<path opacity="0.3" d="M27,5h-2c-0.553,0-1,0.447-1,1v6.456l-9.658-7.341C14.205,5.038,14.053,5,13.9,5
		c-0.156,0-0.314,0.04-0.455,0.122C13.17,5.286,13,5.579,13,5.898v6.558L3.342,5.115C3.205,5.038,3.053,5,2.9,5
		C2.744,5,2.586,5.04,2.445,5.122C2.17,5.286,2,5.579,2,5.898V22.1c0,0.32,0.17,0.615,0.445,0.777C2.586,22.962,2.744,23,2.9,23
		c0.15,0,0.305-0.038,0.441-0.115L13,15.544v6.558c0,0.319,0.17,0.614,0.445,0.776C13.586,22.962,13.744,23,13.9,23
		c0.15,0,0.305-0.038,0.441-0.115L24,15.544V22c0,0.553,0.447,1,1,1h2c0.553,0,1-0.447,1-1V6C28,5.447,27.553,5,27,5z"/>
	<path opacity="0.15" d="M25,25c-1.103,0-2-0.897-2-2v-4.439l-8.053,6.12c-0.036,0.027-0.074,0.053-0.114,0.075
		C14.55,24.915,14.228,25,13.9,25c-0.344,0-0.679-0.091-0.968-0.264C12.359,24.399,12,23.771,12,23.102v-4.541l-8.053,6.12
		c-0.036,0.027-0.074,0.053-0.114,0.075C3.55,24.915,3.228,25,2.9,25c-0.347,0-0.683-0.093-0.972-0.268
		C1.359,24.398,1,23.771,1,23.1V6.898c0-0.666,0.358-1.292,0.934-1.635C2.231,5.089,2.563,5,2.9,5C3.228,5,3.55,5.084,3.833,5.244
		c0.04,0.022,0.078,0.047,0.114,0.075L12,11.44V6.898c0-0.666,0.358-1.292,0.934-1.635C13.231,5.089,13.563,5,13.9,5
		c0.327,0,0.649,0.084,0.933,0.244c0.04,0.022,0.078,0.047,0.114,0.075L23,11.44V7c0-1.103,0.897-2,2-2h2c1.103,0,2,0.897,2,2v16
		c0,1.103-0.897,2-2,2H25z"/>
	<path opacity="0.15" d="M27,6h-2c-0.553,0-1,0.447-1,1v6.456l-9.658-7.341C14.205,6.038,14.053,6,13.9,6
		c-0.156,0-0.314,0.04-0.455,0.122C13.17,6.286,13,6.579,13,6.898v6.558L3.342,6.115C3.205,6.038,3.053,6,2.9,6
		C2.744,6,2.586,6.04,2.445,6.122C2.17,6.286,2,6.579,2,6.898V23.1c0,0.32,0.17,0.615,0.445,0.777C2.586,23.962,2.744,24,2.9,24
		c0.15,0,0.305-0.038,0.441-0.115L13,16.544v6.558c0,0.319,0.17,0.614,0.445,0.776C13.586,23.962,13.744,24,13.9,24
		c0.15,0,0.305-0.038,0.441-0.115L24,16.544V23c0,0.553,0.447,1,1,1h2c0.553,0,1-0.447,1-1V7C28,6.447,27.553,6,27,6z"/>
	<path fill="#FFFFFF" d="M27,6h-2c-0.553,0-1,0.447-1,1v6.456l-9.658-7.341C14.205,6.038,14.053,6,13.9,6
		c-0.156,0-0.314,0.04-0.455,0.122C13.17,6.286,13,6.579,13,6.898v6.558L3.342,6.115C3.205,6.038,3.053,6,2.9,6
		C2.744,6,2.586,6.04,2.445,6.122C2.17,6.286,2,6.579,2,6.898V23.1c0,0.32,0.17,0.615,0.445,0.777C2.586,23.962,2.744,24,2.9,24
		c0.15,0,0.305-0.038,0.441-0.115L13,16.544v6.558c0,0.319,0.17,0.614,0.445,0.776C13.586,23.962,13.744,24,13.9,24
		c0.15,0,0.305-0.038,0.441-0.115L24,16.544V23c0,0.553,0.447,1,1,1h2c0.553,0,1-0.447,1-1V7C28,6.447,27.553,6,27,6z"/>
</g>
</svg>
