<?xml version="1.0" encoding="utf-8"?>
<!-- Generator: Adobe Illustrator 15.0.0, SVG Export Plug-In . SVG Version: 6.00 Build 0)  -->
<!DOCTYPE svg PUBLIC "-//W3C//DTD SVG 1.1//EN" "http://www.w3.org/Graphics/SVG/1.1/DTD/svg11.dtd">
<svg version="1.1" xmlns="http://www.w3.org/2000/svg" xmlns:xlink="http://www.w3.org/1999/xlink" x="0px" y="0px" width="30px"
	 height="30px" viewBox="0 0 30 30" enable-background="new 0 0 30 30" xml:space="preserve">
<g id="DO_NOT_EDIT_-_BOUNDING_BOX">
	<rect id="BOUNDING_BOX" fill="none" width="30" height="30"/>
</g>
<g id="PLACE_YOUR_GRAPHIC_HERE">
	<path opacity="0.3" d="M4.022,0.727h-0.04C3.464,0.727,3,1.15,3,1.67v24.659c0,0.52,0.464,0.943,0.982,0.943h0.04
		c0.519,0,0.942-0.424,0.942-0.943V1.67C4.965,1.15,4.541,0.727,4.022,0.727z M23.273,5.665c-2.449-0.458-4.521-1.406-4.521-1.406
		c-1.549-0.786-2.971-1.74-4.52-2.46c0,0-1.871-0.95-4.521-1.072C8.876,0.727,7.98,0.828,7,1.072v14.465
		c0.98-0.244,1.665-0.36,2.712-0.383c2.171,0.006,4.521,0.843,4.521,0.843c1.549,0.604,3.6,1.618,4.52,2.092
		c2.213,1.12,4.521,1.173,4.521,1.173c0.834,0.055,1.729,0.03,2.711-0.11V5.591C25.002,5.732,24.107,5.744,23.273,5.665z"/>
	<path opacity="0.15" d="M3.982,29.272C2.908,29.272,2,28.383,2,27.329V2.67c0-1.053,0.908-1.943,1.982-1.943
		c1.111,0,1.982,0.872,1.982,1.943v24.659c0,1.071-0.872,1.943-1.942,1.943H3.982z M24.098,21.289c-0.304,0-0.601-0.011-0.89-0.029
		c-0.061-0.001-2.521-0.07-4.907-1.278c-0.272-0.141-2.653-1.359-4.432-2.053l0,0c-0.001,0-2.197-0.77-4.16-0.774
		c-0.968,0.021-1.593,0.136-2.467,0.354c-0.08,0.02-0.161,0.029-0.242,0.029c-0.221,0-0.438-0.073-0.616-0.212
		C6.142,17.136,6,16.845,6,16.537V2.072c0-0.459,0.313-0.859,0.758-0.97c1.014-0.253,1.98-0.375,2.954-0.375
		c2.878,0.131,4.889,1.138,4.973,1.181c0.876,0.407,1.741,0.904,2.576,1.385c0.639,0.368,1.279,0.737,1.943,1.075l0,0
		c0.002,0,1.974,0.889,4.253,1.315c0.215,0.016,0.527,0.032,0.851,0.032c0.498,0,1.015-0.038,1.534-0.113
		c0.048-0.007,0.095-0.01,0.143-0.01c0.239,0,0.472,0.085,0.654,0.244c0.22,0.19,0.346,0.466,0.346,0.756v13.561
		c0,0.497-0.366,0.919-0.858,0.99C25.442,21.239,24.76,21.289,24.098,21.289z"/>
	<path opacity="0.15" d="M4.022,1.727h-0.04C3.464,1.727,3,2.15,3,2.67v24.659c0,0.52,0.464,0.943,0.982,0.943h0.04
		c0.519,0,0.942-0.424,0.942-0.943V2.67C4.965,2.15,4.541,1.727,4.022,1.727z M23.273,6.665c-2.449-0.458-4.521-1.406-4.521-1.406
		c-1.549-0.786-2.971-1.74-4.52-2.46c0,0-1.871-0.95-4.521-1.072C8.876,1.727,7.98,1.828,7,2.072v14.465
		c0.98-0.244,1.665-0.36,2.712-0.383c2.171,0.006,4.521,0.843,4.521,0.843c1.549,0.604,3.6,1.618,4.52,2.092
		c2.213,1.12,4.521,1.173,4.521,1.173c0.834,0.055,1.729,0.03,2.711-0.11V6.591C25.002,6.732,24.107,6.744,23.273,6.665z"/>
	<path fill="#FFFFFF" d="M4.022,1.727h-0.04C3.464,1.727,3,2.15,3,2.67v24.659c0,0.52,0.464,0.943,0.982,0.943h0.04
		c0.519,0,0.942-0.424,0.942-0.943V2.67C4.965,2.15,4.541,1.727,4.022,1.727z M23.273,6.665c-2.449-0.458-4.521-1.406-4.521-1.406
		c-1.549-0.786-2.971-1.74-4.52-2.46c0,0-1.871-0.95-4.521-1.072C8.876,1.727,7.98,1.828,7,2.072v14.465
		c0.98-0.244,1.665-0.36,2.712-0.383c2.171,0.006,4.521,0.843,4.521,0.843c1.549,0.604,3.6,1.618,4.52,2.092
		c2.213,1.12,4.521,1.173,4.521,1.173c0.834,0.055,1.729,0.03,2.711-0.11V6.591C25.002,6.732,24.107,6.744,23.273,6.665z"/>
</g>
</svg>
