<?xml version="1.0" encoding="utf-8"?>
<!-- Generator: Adobe Illustrator 15.0.0, SVG Export Plug-In . SVG Version: 6.00 Build 0)  -->
<!DOCTYPE svg PUBLIC "-//W3C//DTD SVG 1.1//EN" "http://www.w3.org/Graphics/SVG/1.1/DTD/svg11.dtd">
<svg version="1.1" xmlns="http://www.w3.org/2000/svg" xmlns:xlink="http://www.w3.org/1999/xlink" x="0px" y="0px" width="30px"
	 height="30px" viewBox="0 0 30 30" enable-background="new 0 0 30 30" xml:space="preserve">
<g id="DO_NOT_EDIT_-_BOUNDING_BOX">
	<rect id="BOUNDING_BOX" fill="none" width="30" height="30"/>
</g>
<g id="PLACE_YOUR_GRAPHIC_HERE">
	<g>
		<path opacity="0.3" d="M27.699,5.625l-4.328-4.324c-0.236-0.236-0.574-0.343-0.904-0.285l-5.326,0.939
			c-0.209,0.037-0.398,0.136-0.547,0.283L2.301,16.536c-0.4,0.401-0.4,1.052,0,1.452l8.713,8.711c0.4,0.4,1.051,0.402,1.451,0
			L26.76,12.404c0.15-0.149,0.25-0.342,0.287-0.549l0.938-5.328C28.043,6.2,27.936,5.861,27.699,5.625z M11.74,25.581l-8.322-8.322
			L15.369,5.307l8.322,8.322L11.74,25.581z M24.561,6.561c-0.586,0.584-1.535,0.584-2.121,0c-0.586-0.586-0.586-1.535,0-2.121
			s1.535-0.586,2.119,0C25.146,5.023,25.146,5.975,24.561,6.561z M5.539,17.259l6.201,6.201l9.83-9.831l-6.201-6.201L5.539,17.259z
			 M9.563,18.734c-0.193,0-0.385-0.072-0.531-0.219c-0.293-0.293-0.293-0.769,0-1.062l4.357-4.356c0.293-0.293,0.768-0.293,1.061,0
			s0.293,0.769,0,1.062l-4.357,4.356C9.945,18.662,9.754,18.734,9.563,18.734z M18.805,13.1c0.293,0.293,0.293,0.768,0,1.061
			l-6.533,6.535c-0.146,0.146-0.338,0.221-0.531,0.221c-0.191,0-0.383-0.072-0.529-0.221c-0.293-0.293-0.293-0.768,0-1.061
			l6.535-6.535C18.037,12.807,18.512,12.807,18.805,13.1z"/>
		<path opacity="0.15" d="M11.74,29c-0.542,0-1.051-0.211-1.434-0.594l-8.713-8.711c-0.79-0.789-0.79-2.074-0.001-2.865
			L15.887,2.531c0.297-0.295,0.669-0.488,1.079-0.561l5.327-0.94C22.411,1.01,22.528,1,22.645,1c0.534,0,1.057,0.216,1.434,0.593
			l4.328,4.324c0.469,0.469,0.679,1.137,0.563,1.786l-0.937,5.325c-0.075,0.416-0.271,0.79-0.567,1.085L13.172,28.406
			C12.792,28.789,12.282,29,11.74,29z M23.5,6c-0.077,0-0.226,0.019-0.354,0.146c-0.194,0.195-0.194,0.512,0,0.707
			c0.127,0.126,0.276,0.145,0.354,0.145s0.227-0.019,0.354-0.146C23.981,6.726,24,6.577,24,6.5s-0.02-0.225-0.146-0.351
			C23.725,6.019,23.576,6,23.5,6z"/>
		<path opacity="0.15" d="M27.699,6.625l-4.328-4.324c-0.236-0.236-0.574-0.343-0.904-0.285l-5.326,0.939
			c-0.209,0.037-0.398,0.136-0.547,0.283L2.301,17.536c-0.4,0.401-0.4,1.052,0,1.452l8.713,8.711c0.4,0.4,1.051,0.402,1.451,0
			L26.76,13.404c0.15-0.149,0.25-0.342,0.287-0.549l0.938-5.328C28.043,7.2,27.936,6.861,27.699,6.625z M11.74,26.581l-8.322-8.322
			L15.369,6.307l8.322,8.322L11.74,26.581z M24.561,7.561c-0.586,0.584-1.535,0.584-2.121,0c-0.586-0.586-0.586-1.535,0-2.121
			s1.535-0.586,2.119,0C25.146,6.023,25.146,6.975,24.561,7.561z M5.539,18.259l6.201,6.201l9.83-9.831l-6.201-6.201L5.539,18.259z
			 M9.563,19.734c-0.193,0-0.385-0.072-0.531-0.219c-0.293-0.293-0.293-0.769,0-1.062l4.357-4.356c0.293-0.293,0.768-0.293,1.061,0
			s0.293,0.769,0,1.062l-4.357,4.356C9.945,19.662,9.754,19.734,9.563,19.734z M18.805,14.1c0.293,0.293,0.293,0.768,0,1.061
			l-6.533,6.535c-0.146,0.146-0.338,0.221-0.531,0.221c-0.191,0-0.383-0.072-0.529-0.221c-0.293-0.293-0.293-0.768,0-1.061
			l6.535-6.535C18.037,13.807,18.512,13.807,18.805,14.1z"/>
		<path fill="#FFFFFF" d="M27.699,6.625l-4.328-4.324c-0.236-0.236-0.574-0.343-0.904-0.285l-5.326,0.939
			c-0.209,0.037-0.398,0.136-0.547,0.283L2.301,17.536c-0.4,0.401-0.4,1.052,0,1.452l8.713,8.711c0.4,0.4,1.051,0.402,1.451,0
			L26.76,13.404c0.15-0.149,0.25-0.342,0.287-0.549l0.938-5.328C28.043,7.2,27.936,6.861,27.699,6.625z M11.74,26.581l-8.322-8.322
			L15.369,6.307l8.322,8.322L11.74,26.581z M24.561,7.561c-0.586,0.584-1.535,0.584-2.121,0c-0.586-0.586-0.586-1.535,0-2.121
			s1.535-0.586,2.119,0C25.146,6.023,25.146,6.975,24.561,7.561z M5.539,18.259l6.201,6.201l9.83-9.831l-6.201-6.201L5.539,18.259z
			 M9.563,19.734c-0.193,0-0.385-0.072-0.531-0.219c-0.293-0.293-0.293-0.769,0-1.062l4.357-4.356c0.293-0.293,0.768-0.293,1.061,0
			s0.293,0.769,0,1.062l-4.357,4.356C9.945,19.662,9.754,19.734,9.563,19.734z M18.805,14.1c0.293,0.293,0.293,0.768,0,1.061
			l-6.533,6.535c-0.146,0.146-0.338,0.221-0.531,0.221c-0.191,0-0.383-0.072-0.529-0.221c-0.293-0.293-0.293-0.768,0-1.061
			l6.535-6.535C18.037,13.807,18.512,13.807,18.805,14.1z"/>
		<rect fill="none" width="30" height="30"/>
	</g>
</g>
</svg>
