<?xml version="1.0" encoding="utf-8"?>
<!-- Generator: Adobe Illustrator 15.0.0, SVG Export Plug-In . SVG Version: 6.00 Build 0)  -->
<!DOCTYPE svg PUBLIC "-//W3C//DTD SVG 1.1//EN" "http://www.w3.org/Graphics/SVG/1.1/DTD/svg11.dtd">
<svg version="1.1" xmlns="http://www.w3.org/2000/svg" xmlns:xlink="http://www.w3.org/1999/xlink" x="0px" y="0px" width="30px"
	 height="30px" viewBox="0 0 30 30" enable-background="new 0 0 30 30" xml:space="preserve">
<g id="DO_NOT_EDIT_-_BOUNDING_BOX">
	<rect id="BOUNDING_BOX" fill="none" width="30" height="30"/>
</g>
<g id="PLACE_YOUR_GRAPHIC_HERE">
	<path opacity="0.3" d="M25,1H5C4.45,1,4,1.449,4,2v24c0,0.549,0.45,1,1,1h20c0.551,0,1-0.451,1-1V2C26,1.449,25.551,1,25,1z M8,6h2
		c0.553,0,1,0.447,1,1s-0.447,1-1,1H8C7.446,8,7,7.553,7,7S7.446,6,8,6z M8,10h8c0.553,0,1,0.447,1,1s-0.447,1-1,1H8
		c-0.554,0-1-0.447-1-1S7.446,10,8,10z M8,14h6c0.553,0,1,0.447,1,1s-0.447,1-1,1H8c-0.554,0-1-0.447-1-1S7.446,14,8,14z M10,20H8
		c-0.554,0-1-0.447-1-1s0.446-1,1-1h2c0.553,0,1,0.447,1,1S10.553,20,10,20z M16,20h-2c-0.553,0-1-0.447-1-1s0.446-1,1-1h2
		c0.553,0,1,0.447,1,1S16.553,20,16,20z M22,20h-2c-0.553,0-1-0.447-1-1s0.447-1,1-1h2c0.553,0,1,0.447,1,1S22.553,20,22,20z M22,16
		h-4c-0.553,0-1-0.447-1-1s0.447-1,1-1h4c0.553,0,1,0.447,1,1S22.553,16,22,16z M22,12h-2c-0.553,0-1-0.447-1-1s0.447-1,1-1h2
		c0.553,0,1,0.447,1,1S22.553,12,22,12z M22,8h-8c-0.553,0-1-0.447-1-1s0.446-1,1-1h8c0.553,0,1,0.447,1,1S22.553,8,22,8z"/>
	<path opacity="0.15" d="M5,29c-1.103,0-2-0.897-2-2V3c0-1.103,0.897-2,2-2h20c1.103,0,2,0.897,2,2v24c0,1.103-0.897,2-2,2H5z
		 M7.998,20H10H8H7.998z M13.998,20H16h-2H13.998z M19.998,20H22h-2H19.998z M7.998,16H14H8H7.998z M17.998,16H22h-4H17.998z
		 M7.998,12H16H8H7.998z M19.998,12H22h-2H19.998z M7.998,8H10H8H7.998z M13.998,8H22h-8H13.998z"/>
	<path opacity="0.15" d="M25,2H5C4.45,2,4,2.449,4,3v24c0,0.549,0.45,1,1,1h20c0.551,0,1-0.451,1-1V3C26,2.449,25.551,2,25,2z M8,7
		h2c0.553,0,1,0.447,1,1s-0.447,1-1,1H8C7.446,9,7,8.553,7,8S7.446,7,8,7z M8,11h8c0.553,0,1,0.447,1,1s-0.447,1-1,1H8
		c-0.554,0-1-0.447-1-1S7.446,11,8,11z M8,15h6c0.553,0,1,0.447,1,1s-0.447,1-1,1H8c-0.554,0-1-0.447-1-1S7.446,15,8,15z M10,21H8
		c-0.554,0-1-0.447-1-1s0.446-1,1-1h2c0.553,0,1,0.447,1,1S10.553,21,10,21z M16,21h-2c-0.553,0-1-0.447-1-1s0.446-1,1-1h2
		c0.553,0,1,0.447,1,1S16.553,21,16,21z M22,21h-2c-0.553,0-1-0.447-1-1s0.447-1,1-1h2c0.553,0,1,0.447,1,1S22.553,21,22,21z M22,17
		h-4c-0.553,0-1-0.447-1-1s0.447-1,1-1h4c0.553,0,1,0.447,1,1S22.553,17,22,17z M22,13h-2c-0.553,0-1-0.447-1-1s0.447-1,1-1h2
		c0.553,0,1,0.447,1,1S22.553,13,22,13z M22,9h-8c-0.553,0-1-0.447-1-1s0.446-1,1-1h8c0.553,0,1,0.447,1,1S22.553,9,22,9z"/>
	<path fill="#FFFFFF" d="M25,2H5C4.45,2,4,2.449,4,3v24c0,0.549,0.45,1,1,1h20c0.551,0,1-0.451,1-1V3C26,2.449,25.551,2,25,2z M8,7
		h2c0.553,0,1,0.447,1,1s-0.447,1-1,1H8C7.446,9,7,8.553,7,8S7.446,7,8,7z M8,11h8c0.553,0,1,0.447,1,1s-0.447,1-1,1H8
		c-0.554,0-1-0.447-1-1S7.446,11,8,11z M8,15h6c0.553,0,1,0.447,1,1s-0.447,1-1,1H8c-0.554,0-1-0.447-1-1S7.446,15,8,15z M10,21H8
		c-0.554,0-1-0.447-1-1s0.446-1,1-1h2c0.553,0,1,0.447,1,1S10.553,21,10,21z M16,21h-2c-0.553,0-1-0.447-1-1s0.446-1,1-1h2
		c0.553,0,1,0.447,1,1S16.553,21,16,21z M22,21h-2c-0.553,0-1-0.447-1-1s0.447-1,1-1h2c0.553,0,1,0.447,1,1S22.553,21,22,21z M22,17
		h-4c-0.553,0-1-0.447-1-1s0.447-1,1-1h4c0.553,0,1,0.447,1,1S22.553,17,22,17z M22,13h-2c-0.553,0-1-0.447-1-1s0.447-1,1-1h2
		c0.553,0,1,0.447,1,1S22.553,13,22,13z M22,9h-8c-0.553,0-1-0.447-1-1s0.446-1,1-1h8c0.553,0,1,0.447,1,1S22.553,9,22,9z"/>
</g>
</svg>
