<?xml version="1.0" encoding="utf-8"?>
<!-- Generator: Adobe Illustrator 15.0.0, SVG Export Plug-In . SVG Version: 6.00 Build 0)  -->
<!DOCTYPE svg PUBLIC "-//W3C//DTD SVG 1.1//EN" "http://www.w3.org/Graphics/SVG/1.1/DTD/svg11.dtd">
<svg version="1.1" xmlns="http://www.w3.org/2000/svg" xmlns:xlink="http://www.w3.org/1999/xlink" x="0px" y="0px" width="30px"
	 height="30px" viewBox="0 0 30 30" enable-background="new 0 0 30 30" xml:space="preserve">
<g id="DO_NOT_EDIT_-_BOUNDING_BOX">
	<rect id="BOUNDING_BOX" fill="none" width="30" height="30"/>
</g>
<g id="PLACE_YOUR_GRAPHIC_HERE">
	<path opacity="0.3" d="M10.783,21.006l-2.735,0.025c-0.556,0-1.008-0.451-1.008-1.012c0-0.559,0.452-1.014,1.008-1.014l3.862-0.012
		h0.118l0.204-0.204c0.565-0.57,1.333-0.889,2.149-0.889s1.582,0.317,2.156,0.894l0.201,0.199h0.117l2.102-0.004l3.029-3.016
		L7.973,16.014c-0.556,0-0.976-0.46-0.976-1.02c0-0.559,0.452-1.012,1.008-1.012l14.022-0.008c0.555,0,0.992,0.342,0.992,0.9
		c0,0.009,0-0.001,0,0.009v0.062l1.023-1.02c0.514-0.518,1.197-0.813,1.932-0.865c0.004-0.027,0.012-0.057,0.012-0.084V2.006h-4.051
		l0.885,1.188l-0.002,0.002c0.072,0.09,0.125,0.2,0.125,0.331c0,0.279-0.221,0.505-0.504,0.505h-2.025
		c-0.279,0-0.51-0.226-0.51-0.505c0-0.131,0.051-0.241,0.133-0.331l-0.002-0.002l0.883-1.188H15.35l0.884,1.188l-0.002,0.002
		c0.078,0.09,0.131,0.2,0.131,0.331c0,0.279-0.227,0.505-0.509,0.505h-2.02c-0.283,0-0.514-0.226-0.514-0.505
		c0-0.131,0.053-0.241,0.133-0.331L13.45,3.193l0.887-1.188H8.768l0.884,1.188L9.649,3.195c0.082,0.09,0.133,0.2,0.133,0.331
		c0,0.279-0.23,0.505-0.51,0.505H7.247c-0.281,0-0.504-0.226-0.504-0.505c0-0.131,0.053-0.241,0.125-0.331L6.866,3.193l0.885-1.188
		L4,2v24l9.899-0.019l-2.279-2.278C10.889,22.971,10.611,21.955,10.783,21.006z M8.012,9.008l13.982-0.003
		c0.555,0,1.008,0.444,1.008,0.997c0,0.554-0.453,1-1.008,1L8.012,11.005c-0.557,0-1.009-0.446-1.009-0.999S7.455,9.008,8.012,9.008
		z M25.986,25.981v-4.179l-4.18,4.179H25.986z M27.531,15.953l-0.607-0.609c-0.404-0.404-1.068-0.404-1.471,0l-7.6,7.568
		l-2.736-2.707c-0.402-0.405-1.07-0.405-1.473,0l-0.611,0.611c-0.404,0.405-0.404,1.067,0,1.473l4.083,4.083
		c0.402,0.405,1.068,0.405,1.471,0l8.943-8.942C27.941,17.024,27.941,16.359,27.531,15.953z"/>
	<path opacity="0.15" d="M28.239,16.247l-0.608-0.61c-0.188-0.188-0.407-0.333-0.645-0.434V3.006c0-0.552-0.447-1-1-1h-4.051
		c-0.183,0-0.835,0-1.018,0H15.35c-0.182,0-0.832,0-1.014,0H8.768c-0.182,0-0.833,0-1.015,0C7.752,2.006,4,2,4,2
		C3.735,2,3.481,2.105,3.293,2.292C3.105,2.48,3,2.734,3,3v24c0,0.266,0.105,0.521,0.293,0.708C3.481,27.895,3.735,28,4,28
		c0,0,8.671-0.012,12.314-0.017l0.093,0.093c0.384,0.387,0.897,0.6,1.445,0.6s1.062-0.213,1.442-0.597l0.098-0.098h6.594
		c0.553,0,1-0.447,1-1v-6.593l1.248-1.248c0.39-0.385,0.604-0.898,0.604-1.447C28.839,17.144,28.625,16.629,28.239,16.247z"/>
	<path opacity="0.15" d="M10.783,22.006l-2.735,0.025c-0.556,0-1.008-0.451-1.008-1.012c0-0.559,0.452-1.014,1.008-1.014
		l3.862-0.012h0.118l0.204-0.204c0.565-0.57,1.333-0.889,2.149-0.889s1.582,0.317,2.156,0.894l0.201,0.199h0.117l2.102-0.004
		l3.029-3.016L7.973,17.014c-0.556,0-0.976-0.46-0.976-1.02c0-0.559,0.452-1.012,1.008-1.012l14.022-0.008
		c0.555,0,0.992,0.342,0.992,0.9c0,0.009,0-0.001,0,0.009v0.062l1.023-1.02c0.514-0.518,1.197-0.813,1.932-0.865
		c0.004-0.027,0.012-0.057,0.012-0.084V3.006h-4.051l0.885,1.188l-0.002,0.002c0.072,0.09,0.125,0.2,0.125,0.331
		c0,0.279-0.221,0.505-0.504,0.505h-2.025c-0.279,0-0.51-0.226-0.51-0.505c0-0.131,0.051-0.241,0.133-0.331l-0.002-0.002
		l0.883-1.188H15.35l0.884,1.188l-0.002,0.002c0.078,0.09,0.131,0.2,0.131,0.331c0,0.279-0.227,0.505-0.509,0.505h-2.02
		c-0.283,0-0.514-0.226-0.514-0.505c0-0.131,0.053-0.241,0.133-0.331L13.45,4.193l0.887-1.188H8.768l0.884,1.188L9.649,4.195
		c0.082,0.09,0.133,0.2,0.133,0.331c0,0.279-0.23,0.505-0.51,0.505H7.247c-0.281,0-0.504-0.226-0.504-0.505
		c0-0.131,0.053-0.241,0.125-0.331L6.866,4.193l0.885-1.188L4,3v24l9.899-0.019l-2.279-2.278
		C10.889,23.971,10.611,22.955,10.783,22.006z M8.012,10.008l13.982-0.003c0.555,0,1.008,0.444,1.008,0.997c0,0.554-0.453,1-1.008,1
		L8.012,12.005c-0.557,0-1.009-0.446-1.009-0.999S7.455,10.008,8.012,10.008z M25.986,26.981v-4.179l-4.18,4.179H25.986z
		 M27.531,16.953l-0.607-0.609c-0.404-0.404-1.068-0.404-1.471,0l-7.6,7.568l-2.736-2.707c-0.402-0.405-1.07-0.405-1.473,0
		l-0.611,0.611c-0.404,0.405-0.404,1.067,0,1.473l4.083,4.083c0.402,0.405,1.068,0.405,1.471,0l8.943-8.942
		C27.941,18.024,27.941,17.359,27.531,16.953z"/>
	<path fill="#FFFFFF" d="M10.783,22.006l-2.735,0.025c-0.556,0-1.008-0.451-1.008-1.012c0-0.559,0.452-1.014,1.008-1.014
		l3.862-0.012h0.118l0.204-0.204c0.565-0.57,1.333-0.889,2.149-0.889s1.582,0.317,2.156,0.894l0.201,0.199h0.117l2.102-0.004
		l3.029-3.016L7.973,17.014c-0.556,0-0.976-0.46-0.976-1.02c0-0.559,0.452-1.012,1.008-1.012l14.022-0.008
		c0.555,0,0.992,0.342,0.992,0.9c0,0.009,0-0.001,0,0.009v0.062l1.023-1.02c0.514-0.518,1.197-0.813,1.932-0.865
		c0.004-0.027,0.012-0.057,0.012-0.084V3.006h-4.051l0.885,1.188l-0.002,0.002c0.072,0.09,0.125,0.2,0.125,0.331
		c0,0.279-0.221,0.505-0.504,0.505h-2.025c-0.279,0-0.51-0.226-0.51-0.505c0-0.131,0.051-0.241,0.133-0.331l-0.002-0.002
		l0.883-1.188H15.35l0.884,1.188l-0.002,0.002c0.078,0.09,0.131,0.2,0.131,0.331c0,0.279-0.227,0.505-0.509,0.505h-2.02
		c-0.283,0-0.514-0.226-0.514-0.505c0-0.131,0.053-0.241,0.133-0.331L13.45,4.193l0.887-1.188H8.768l0.884,1.188L9.649,4.195
		c0.082,0.09,0.133,0.2,0.133,0.331c0,0.279-0.23,0.505-0.51,0.505H7.247c-0.281,0-0.504-0.226-0.504-0.505
		c0-0.131,0.053-0.241,0.125-0.331L6.866,4.193l0.885-1.188L4,3v24l9.899-0.019l-2.279-2.278
		C10.889,23.971,10.611,22.955,10.783,22.006z M8.012,10.008l13.982-0.003c0.555,0,1.008,0.444,1.008,0.997c0,0.554-0.453,1-1.008,1
		L8.012,12.005c-0.557,0-1.009-0.446-1.009-0.999S7.455,10.008,8.012,10.008z M25.986,26.981v-4.179l-4.18,4.179H25.986z
		 M27.531,16.953l-0.607-0.609c-0.404-0.404-1.068-0.404-1.471,0l-7.6,7.568l-2.736-2.707c-0.402-0.405-1.07-0.405-1.473,0
		l-0.611,0.611c-0.404,0.405-0.404,1.067,0,1.473l4.083,4.083c0.402,0.405,1.068,0.405,1.471,0l8.943-8.942
		C27.941,18.024,27.941,17.359,27.531,16.953z"/>
</g>
</svg>
