<?xml version="1.0" encoding="utf-8"?>
<!-- Generator: Adobe Illustrator 15.0.0, SVG Export Plug-In . SVG Version: 6.00 Build 0)  -->
<!DOCTYPE svg PUBLIC "-//W3C//DTD SVG 1.1//EN" "http://www.w3.org/Graphics/SVG/1.1/DTD/svg11.dtd">
<svg version="1.1" xmlns="http://www.w3.org/2000/svg" xmlns:xlink="http://www.w3.org/1999/xlink" x="0px" y="0px" width="30px"
	 height="30px" viewBox="0 0 30 30" enable-background="new 0 0 30 30" xml:space="preserve">
<g id="DO_NOT_EDIT_-_BOUNDING_BOX">
	<rect id="BOUNDING_BOX" fill="none" width="30" height="30"/>
</g>
<g id="PLACE_YOUR_GRAPHIC_HERE">
	<g>
		<path opacity="0.3" d="M26,9H4c-1.104,0-2,0.896-2,2v6c0,1.105,0.896,2,2,2h22c1.104,0,2-0.895,2-2v-6C28,9.896,27.104,9,26,9z
			 M10,17H5c-0.553,0-1-0.447-1-1v-4c0-0.553,0.447-1,1-1h5V17z M18,17h-6v-6h6V17z M26,16c0,0.553-0.447,1-1,1h-5v-6h5
			c0.553,0,1,0.447,1,1V16z"/>
		<path opacity="0.15" d="M4,21c-1.654,0-3-1.346-3-3v-6c0-1.654,1.346-3,3-3h22c1.654,0,3,1.346,3,3v6c0,1.654-1.346,3-3,3H4z
			 M25,17v-4h-4v4H25z M17,17v-4h-4v4H17z M5,17h4v-4H5V17z"/>
		<path opacity="0.15" d="M26,10H4c-1.104,0-2,0.896-2,2v6c0,1.105,0.896,2,2,2h22c1.104,0,2-0.895,2-2v-6
			C28,10.896,27.104,10,26,10z M10,18H5c-0.553,0-1-0.447-1-1v-4c0-0.553,0.447-1,1-1h5V18z M18,18h-6v-6h6V18z M26,17
			c0,0.553-0.447,1-1,1h-5v-6h5c0.553,0,1,0.447,1,1V17z"/>
		<path fill="#FFFFFF" d="M26,10H4c-1.104,0-2,0.896-2,2v6c0,1.105,0.896,2,2,2h22c1.104,0,2-0.895,2-2v-6
			C28,10.896,27.104,10,26,10z M10,18H5c-0.553,0-1-0.447-1-1v-4c0-0.553,0.447-1,1-1h5V18z M18,18h-6v-6h6V18z M26,17
			c0,0.553-0.447,1-1,1h-5v-6h5c0.553,0,1,0.447,1,1V17z"/>
		<rect fill="none" width="30" height="30"/>
	</g>
</g>
</svg>
