<?xml version="1.0" encoding="utf-8"?>
<!-- Generator: Adobe Illustrator 15.0.0, SVG Export Plug-In . SVG Version: 6.00 Build 0)  -->
<!DOCTYPE svg PUBLIC "-//W3C//DTD SVG 1.1//EN" "http://www.w3.org/Graphics/SVG/1.1/DTD/svg11.dtd">
<svg version="1.1" xmlns="http://www.w3.org/2000/svg" xmlns:xlink="http://www.w3.org/1999/xlink" x="0px" y="0px" width="30px"
	 height="30px" viewBox="0 0 30 30" enable-background="new 0 0 30 30" xml:space="preserve">
<g id="DO_NOT_EDIT_-_BOUNDING_BOX">
	<rect id="BOUNDING_BOX" fill="none" width="30" height="30"/>
</g>
<g id="PLACE_YOUR_GRAPHIC_HERE">
	<g>
		<path opacity="0.3" d="M23.23,17.121c-1.1,0-2.113,0.396-2.936,1.055l-2.885-3.764l6.371-8.473
			c2.469-3.912-0.273-5.764-0.273-5.764L15,11.271L6.492,0.176c0,0-2.742,1.852-0.273,5.764l6.371,8.473l-2.887,3.764
			c-0.82-0.658-1.834-1.055-2.934-1.055c-2.73,0-4.941,2.396-4.941,5.352s2.211,5.35,4.941,5.35c2.725,0,4.938-2.395,4.938-5.35
			c0-0.15-0.01-0.299-0.021-0.445L15,17.621l3.313,4.406c-0.01,0.146-0.02,0.295-0.02,0.445c0,2.955,2.213,5.35,4.938,5.35
			c2.73,0,4.939-2.395,4.939-5.35S25.961,17.121,23.23,17.121z M9.195,22.971c-0.01,0.066-0.023,0.135-0.037,0.201
			c-0.016,0.078-0.039,0.154-0.061,0.23c-0.059,0.195-0.127,0.385-0.215,0.557c-0.432,0.854-1.213,1.432-2.113,1.432
			c-1.365,0-2.471-1.307-2.471-2.918c0-1.613,1.105-2.918,2.471-2.918c0.777,0,1.463,0.434,1.916,1.098
			c0.08,0.119,0.152,0.246,0.219,0.379c0.008,0.018,0.016,0.037,0.025,0.057c0.055,0.117,0.104,0.238,0.145,0.367
			c0.02,0.063,0.035,0.125,0.051,0.189c0.025,0.094,0.051,0.189,0.066,0.289c0.027,0.174,0.047,0.354,0.047,0.539
			C9.238,22.643,9.219,22.809,9.195,22.971z M23.23,25.391c-0.908,0-1.693-0.586-2.123-1.453c-0.082-0.166-0.148-0.344-0.203-0.527
			c-0.023-0.08-0.047-0.158-0.063-0.24c-0.016-0.064-0.027-0.133-0.037-0.197c-0.023-0.164-0.043-0.33-0.043-0.5
			c0-0.186,0.02-0.365,0.047-0.539c0.016-0.098,0.041-0.191,0.064-0.283c0.018-0.066,0.033-0.133,0.053-0.197
			c0.041-0.127,0.09-0.246,0.143-0.361l0.029-0.064c0.064-0.131,0.137-0.256,0.217-0.375c0.453-0.664,1.139-1.098,1.916-1.098
			c1.365,0,2.471,1.305,2.471,2.918C25.701,24.084,24.596,25.391,23.23,25.391z"/>
		<rect opacity="0.31" fill="none" width="30" height="30"/>
		<path opacity="0.15" d="M23.23,29.822c-3.274,0-5.938-2.849-5.938-6.35c0-0.045,0.001-0.09,0.002-0.135L15,20.285l-2.295,3.051
			c0.001,0.045,0.002,0.091,0.002,0.137c0,3.501-2.664,6.35-5.938,6.35c-3.276,0-5.941-2.849-5.941-6.35
			c0-3.502,2.666-6.352,5.941-6.352c0.953,0,1.874,0.241,2.71,0.703l1.854-2.418L5.419,7.541C3.011,3.73,4.706,1.175,5.933,0.347
			c0.171-0.116,0.366-0.171,0.559-0.171c0.301,0,0.598,0.136,0.794,0.392L15,10.628l7.714-10.061
			c0.196-0.256,0.493-0.392,0.795-0.392c0.192,0,0.388,0.056,0.559,0.171c1.227,0.828,2.922,3.383,0.56,7.126l-5.961,7.933
			l1.854,2.419c0.837-0.463,1.758-0.704,2.711-0.704c3.275,0,5.939,2.85,5.939,6.352C29.17,26.974,26.506,29.822,23.23,29.822z
			 M23.23,21.555c-0.406,0-0.804,0.241-1.09,0.661c-0.052,0.076-0.102,0.163-0.146,0.253c-0.055,0.12-0.089,0.203-0.118,0.292
			c0,0.003-0.036,0.143-0.037,0.146c-0.021,0.078-0.035,0.131-0.044,0.186c-0.019,0.121-0.034,0.249-0.034,0.381
			c0,0.122,0.016,0.241,0.033,0.358l0.019,0.104c0.02,0.093,0.033,0.136,0.046,0.18c0.042,0.139,0.087,0.264,0.145,0.38
			c0.278,0.562,0.736,0.896,1.227,0.896c0.797,0,1.471-0.878,1.471-1.918C24.701,22.415,24.041,21.555,23.23,21.555z M6.77,21.555
			c-0.811,0-1.471,0.86-1.471,1.918c0,1.04,0.673,1.918,1.471,1.918c0.485,0,0.941-0.33,1.221-0.883
			c0.063-0.124,0.109-0.257,0.149-0.393l0.038-0.14l0.028-0.15c0.016-0.113,0.032-0.231,0.032-0.353c0-0.132-0.015-0.26-0.035-0.384
			c-0.01-0.063-0.028-0.124-0.044-0.183l-0.04-0.153c-0.026-0.081-0.059-0.163-0.096-0.242c-0.061-0.126-0.111-0.216-0.168-0.301
			C7.573,21.796,7.175,21.555,6.77,21.555z"/>
		<path opacity="0.15" d="M23.23,18.121c-1.1,0-2.113,0.396-2.936,1.055l-2.885-3.764l6.371-8.473
			c2.469-3.912-0.273-5.764-0.273-5.764L15,12.271L6.492,1.176c0,0-2.742,1.852-0.273,5.764l6.371,8.473l-2.887,3.764
			c-0.82-0.658-1.834-1.055-2.934-1.055c-2.73,0-4.941,2.396-4.941,5.352s2.211,5.35,4.941,5.35c2.725,0,4.938-2.395,4.938-5.35
			c0-0.15-0.01-0.299-0.021-0.445L15,18.621l3.313,4.406c-0.01,0.146-0.02,0.295-0.02,0.445c0,2.955,2.213,5.35,4.938,5.35
			c2.73,0,4.939-2.395,4.939-5.35S25.961,18.121,23.23,18.121z M9.195,23.971c-0.01,0.066-0.023,0.135-0.037,0.201
			c-0.016,0.078-0.039,0.154-0.061,0.23c-0.059,0.195-0.127,0.385-0.215,0.557c-0.432,0.854-1.213,1.432-2.113,1.432
			c-1.365,0-2.471-1.307-2.471-2.918c0-1.613,1.105-2.918,2.471-2.918c0.777,0,1.463,0.434,1.916,1.098
			c0.08,0.119,0.152,0.246,0.219,0.379c0.008,0.018,0.016,0.037,0.025,0.057c0.055,0.117,0.104,0.238,0.145,0.367
			c0.02,0.063,0.035,0.125,0.051,0.189c0.025,0.094,0.051,0.189,0.066,0.289c0.027,0.174,0.047,0.354,0.047,0.539
			C9.238,23.643,9.219,23.809,9.195,23.971z M23.23,26.391c-0.908,0-1.693-0.586-2.123-1.453c-0.082-0.166-0.148-0.344-0.203-0.527
			c-0.023-0.08-0.047-0.158-0.063-0.24c-0.016-0.064-0.027-0.133-0.037-0.197c-0.023-0.164-0.043-0.33-0.043-0.5
			c0-0.186,0.02-0.365,0.047-0.539c0.016-0.098,0.041-0.191,0.064-0.283c0.018-0.066,0.033-0.133,0.053-0.197
			c0.041-0.127,0.09-0.246,0.143-0.361l0.029-0.064c0.064-0.131,0.137-0.256,0.217-0.375c0.453-0.664,1.139-1.098,1.916-1.098
			c1.365,0,2.471,1.305,2.471,2.918C25.701,25.084,24.596,26.391,23.23,26.391z"/>
		<path fill="#FFFFFF" d="M23.23,18.121c-1.1,0-2.113,0.396-2.936,1.055l-2.885-3.764l6.371-8.473
			c2.469-3.912-0.273-5.764-0.273-5.764L15,12.271L6.492,1.176c0,0-2.742,1.852-0.273,5.764l6.371,8.473l-2.887,3.764
			c-0.82-0.658-1.834-1.055-2.934-1.055c-2.73,0-4.941,2.396-4.941,5.352s2.211,5.35,4.941,5.35c2.725,0,4.938-2.395,4.938-5.35
			c0-0.15-0.01-0.299-0.021-0.445L15,18.621l3.313,4.406c-0.01,0.146-0.02,0.295-0.02,0.445c0,2.955,2.213,5.35,4.938,5.35
			c2.73,0,4.939-2.395,4.939-5.35S25.961,18.121,23.23,18.121z M9.195,23.971c-0.01,0.066-0.023,0.135-0.037,0.201
			c-0.016,0.078-0.039,0.154-0.061,0.23c-0.059,0.195-0.127,0.385-0.215,0.557c-0.432,0.854-1.213,1.432-2.113,1.432
			c-1.365,0-2.471-1.307-2.471-2.918c0-1.613,1.105-2.918,2.471-2.918c0.777,0,1.463,0.434,1.916,1.098
			c0.08,0.119,0.152,0.246,0.219,0.379c0.008,0.018,0.016,0.037,0.025,0.057c0.055,0.117,0.104,0.238,0.145,0.367
			c0.02,0.063,0.035,0.125,0.051,0.189c0.025,0.094,0.051,0.189,0.066,0.289c0.027,0.174,0.047,0.354,0.047,0.539
			C9.238,23.643,9.219,23.809,9.195,23.971z M23.23,26.391c-0.908,0-1.693-0.586-2.123-1.453c-0.082-0.166-0.148-0.344-0.203-0.527
			c-0.023-0.08-0.047-0.158-0.063-0.24c-0.016-0.064-0.027-0.133-0.037-0.197c-0.023-0.164-0.043-0.33-0.043-0.5
			c0-0.186,0.02-0.365,0.047-0.539c0.016-0.098,0.041-0.191,0.064-0.283c0.018-0.066,0.033-0.133,0.053-0.197
			c0.041-0.127,0.09-0.246,0.143-0.361l0.029-0.064c0.064-0.131,0.137-0.256,0.217-0.375c0.453-0.664,1.139-1.098,1.916-1.098
			c1.365,0,2.471,1.305,2.471,2.918C25.701,25.084,24.596,26.391,23.23,26.391z"/>
	</g>
</g>
</svg>
