<?xml version="1.0" encoding="utf-8"?>
<!-- Generator: Adobe Illustrator 15.0.0, SVG Export Plug-In . SVG Version: 6.00 Build 0)  -->
<!DOCTYPE svg PUBLIC "-//W3C//DTD SVG 1.1//EN" "http://www.w3.org/Graphics/SVG/1.1/DTD/svg11.dtd">
<svg version="1.1" xmlns="http://www.w3.org/2000/svg" xmlns:xlink="http://www.w3.org/1999/xlink" x="0px" y="0px" width="30px"
	 height="30px" viewBox="0 0 30 30" enable-background="new 0 0 30 30" xml:space="preserve">
<g id="DO_NOT_EDIT_-_BOUNDING_BOX">
	<rect id="BOUNDING_BOX" fill="none" width="30" height="30"/>
</g>
<g id="PLACE_YOUR_GRAPHIC_HERE">
	<path opacity="0.3" d="M28.125,2.751H1.875C1.393,2.751,1,3.143,1,3.626v17.499C1,21.609,1.393,22,1.875,22h26.25
		C28.607,22,29,21.609,29,21.125V3.626C29,3.143,28.607,2.751,28.125,2.751z M26.375,19.375H3.625V4.501h22.75V19.375z M9,25h12v-2
		H9V25z"/>
	<path opacity="0.15" d="M9,27c-0.552,0-1-0.447-1-1v-2H1.875C0.841,24,0,23.159,0,22.125V4.626c0-1.034,0.841-1.875,1.875-1.875
		h26.25C29.159,2.751,30,3.592,30,4.626v17.499C30,23.159,29.159,24,28.125,24H22v2c0,0.553-0.447,1-1,1H9z"/>
	<path opacity="0.15" d="M28.125,3.751H1.875C1.393,3.751,1,4.143,1,4.626v17.499C1,22.609,1.393,23,1.875,23h26.25
		C28.607,23,29,22.609,29,22.125V4.626C29,4.143,28.607,3.751,28.125,3.751z M26.375,20.375H3.625V5.501h22.75V20.375z M9,26h12v-2
		H9V26z"/>
	<path fill="#FFFFFF" d="M28.125,3.751H1.875C1.393,3.751,1,4.143,1,4.626v17.499C1,22.609,1.393,23,1.875,23h26.25
		C28.607,23,29,22.609,29,22.125V4.626C29,4.143,28.607,3.751,28.125,3.751z M26.375,20.375H3.625V5.501h22.75V20.375z M9,26h12v-2
		H9V26z"/>
</g>
</svg>
