<?xml version="1.0" encoding="utf-8"?>
<!-- Generator: Adobe Illustrator 15.0.0, SVG Export Plug-In . SVG Version: 6.00 Build 0)  -->
<!DOCTYPE svg PUBLIC "-//W3C//DTD SVG 1.1//EN" "http://www.w3.org/Graphics/SVG/1.1/DTD/svg11.dtd">
<svg version="1.1" xmlns="http://www.w3.org/2000/svg" xmlns:xlink="http://www.w3.org/1999/xlink" x="0px" y="0px" width="30px"
	 height="30px" viewBox="0 0 30 30" enable-background="new 0 0 30 30" xml:space="preserve">
<g id="DO_NOT_EDIT_-_BOUNDING_BOX">
	<rect id="BOUNDING_BOX" fill="none" width="30" height="30"/>
</g>
<g id="PLACE_YOUR_GRAPHIC_HERE">
	<g>
		<path opacity="0.3" d="M8.571,14H11c0.55,0,1,0.45,1,1v6c0,0.55,0.45,1,1,1h4c0.55,0,1-0.45,1-1v-6c0-0.55,0.45-1,1-1h2.429
			c0.55,0,0.776-0.391,0.504-0.868l-2.724-4.764c-0.272-0.478-0.72-1.259-0.992-1.736l-2.721-4.764
			c-0.273-0.478-0.719-0.478-0.992,0l-2.722,4.764c-0.273,0.478-0.719,1.259-0.992,1.736l-2.723,4.764
			C7.794,13.609,8.021,14,8.571,14z M25.956,23.826H4.043C3.469,23.826,3,24.297,3,24.871v2.086C3,27.531,3.469,28,4.043,28h21.913
			C26.529,28,27,27.531,27,26.957v-2.086C27,24.297,26.529,23.826,25.956,23.826z"/>
		<rect fill="none" width="30" height="30"/>
		<path opacity="0.15" d="M4.043,30C2.917,30,2,29.084,2,27.957v-2.086c0-1.128,0.917-2.045,2.043-2.045h8.142
			C11.487,23.514,11,22.813,11,22v-6H8.571c-0.628,0-1.148-0.274-1.425-0.753c-0.278-0.479-0.258-1.066,0.053-1.611l6.437-11.264
			C13.949,1.824,14.446,1.51,15,1.51l0,0c0.554,0,1.051,0.314,1.364,0.862l6.437,11.263c0.312,0.546,0.331,1.134,0.053,1.612
			C22.576,15.726,22.057,16,21.429,16H19v6c0,0.813-0.487,1.514-1.185,1.826h8.141c1.127,0,2.044,0.917,2.044,2.045v2.086
			C28,29.084,27.083,30,25.956,30H4.043z"/>
		<path opacity="0.15" d="M8.571,15H11c0.55,0,1,0.45,1,1v6c0,0.55,0.45,1,1,1h4c0.55,0,1-0.45,1-1v-6c0-0.55,0.45-1,1-1h2.429
			c0.55,0,0.776-0.391,0.504-0.868l-2.724-4.764c-0.272-0.478-0.72-1.259-0.992-1.736l-2.721-4.764
			c-0.273-0.478-0.719-0.478-0.992,0l-2.722,4.764c-0.273,0.478-0.719,1.259-0.992,1.736l-2.723,4.764
			C7.794,14.609,8.021,15,8.571,15z M25.956,24.826H4.043C3.469,24.826,3,25.297,3,25.871v2.086C3,28.531,3.469,29,4.043,29h21.913
			C26.529,29,27,28.531,27,27.957v-2.086C27,25.297,26.529,24.826,25.956,24.826z"/>
		<path fill="#FFFFFF" d="M8.571,15H11c0.55,0,1,0.45,1,1v6c0,0.55,0.45,1,1,1h4c0.55,0,1-0.45,1-1v-6c0-0.55,0.45-1,1-1h2.429
			c0.55,0,0.776-0.391,0.504-0.868l-2.724-4.764c-0.272-0.478-0.72-1.259-0.992-1.736l-2.721-4.764
			c-0.273-0.478-0.719-0.478-0.992,0l-2.722,4.764c-0.273,0.478-0.719,1.259-0.992,1.736l-2.723,4.764
			C7.794,14.609,8.021,15,8.571,15z M25.956,24.826H4.043C3.469,24.826,3,25.297,3,25.871v2.086C3,28.531,3.469,29,4.043,29h21.913
			C26.529,29,27,28.531,27,27.957v-2.086C27,25.297,26.529,24.826,25.956,24.826z"/>
	</g>
</g>
</svg>
