<?xml version="1.0" encoding="utf-8"?>
<!-- Generator: Adobe Illustrator 15.0.0, SVG Export Plug-In . SVG Version: 6.00 Build 0)  -->
<!DOCTYPE svg PUBLIC "-//W3C//DTD SVG 1.1//EN" "http://www.w3.org/Graphics/SVG/1.1/DTD/svg11.dtd">
<svg version="1.1" xmlns="http://www.w3.org/2000/svg" xmlns:xlink="http://www.w3.org/1999/xlink" x="0px" y="0px" width="30px"
	 height="30px" viewBox="0 0 30 30" enable-background="new 0 0 30 30" xml:space="preserve">
<g id="DO_NOT_EDIT_-_BOUNDING_BOX">
	<rect id="BOUNDING_BOX" fill="none" width="30" height="30"/>
</g>
<g id="PLACE_YOUR_GRAPHIC_HERE">
	<g>
		<path opacity="0.3" d="M23.856,19.079h-2.54c-0.698,0-1.27,0.572-1.27,1.271h-2.413l-3.234-5.08h8.188v2.472L29,13.999
			l-6.413-3.739v2.471H11.812l3.271-5.079h2.777c0.44,0.756,1.25,1.27,2.188,1.27c1.402,0,2.54-1.137,2.54-2.539
			c0-1.403-1.138-2.54-2.54-2.54c-0.938,0-1.747,0.514-2.188,1.27h-3.425c-0.419,0-0.838,0.204-1.079,0.584L8.829,12.73H8.386
			c-0.524-1.477-1.92-2.54-3.576-2.54C2.705,10.19,1,11.896,1,14s1.705,3.81,3.81,3.81c1.656,0,3.052-1.063,3.576-2.54h3.016
			l4.62,7.264c0.013,0.014,0.039,0.038,0.051,0.051c0.216,0.179,0.471,0.292,0.737,0.305h3.237c0,0.698,0.571,1.27,1.27,1.27h2.54
			c0.698,0,1.27-0.571,1.27-1.27V20.35C25.126,19.651,24.555,19.079,23.856,19.079z"/>
		<path opacity="0.15" d="M21.316,26.158c-0.893,0-1.667-0.519-2.037-1.27h-2.47c-0.521-0.023-0.981-0.208-1.375-0.534
			c-0.034-0.028-0.067-0.06-0.097-0.092c-0.041-0.044-0.127-0.143-0.16-0.192l-4.326-6.801H9.034
			c-0.827,1.544-2.446,2.54-4.224,2.54C2.158,19.81,0,17.652,0,15c0-2.652,2.158-4.81,4.81-4.81c1.541,0,2.961,0.748,3.852,1.952
			l3.853-5.988c0.413-0.651,1.132-1.043,1.92-1.043h2.91c0.667-0.794,1.657-1.27,2.702-1.27c1.952,0,3.54,1.588,3.54,3.54
			c0,1.952-1.588,3.539-3.54,3.539c-1.045,0-2.035-0.475-2.702-1.27h-1.717l-1.982,3.079h7.942V11.26
			c0-0.358,0.191-0.689,0.502-0.867c0.154-0.088,0.326-0.133,0.498-0.133c0.174,0,0.348,0.045,0.504,0.136l6.413,3.739
			C29.811,14.314,30,14.643,30,14.999c0,0.355-0.188,0.685-0.496,0.864l-5.519,3.22c1.192,0.067,2.141,1.058,2.141,2.267v2.539
			c0,1.251-1.019,2.27-2.27,2.27H21.316z M19.279,20.35c0.37-0.752,1.145-1.271,2.037-1.271h0.329
			c-0.038-0.106-0.059-0.221-0.059-0.338V17.27h-5.365l1.961,3.08H19.279z"/>
		<path opacity="0.15" d="M23.856,20.079h-2.54c-0.698,0-1.27,0.572-1.27,1.271h-2.413l-3.234-5.08h8.188v2.472L29,14.999
			l-6.413-3.739v2.471H11.812l3.271-5.079h2.777c0.44,0.756,1.25,1.27,2.188,1.27c1.402,0,2.54-1.137,2.54-2.539
			c0-1.403-1.138-2.54-2.54-2.54c-0.938,0-1.747,0.514-2.188,1.27h-3.425c-0.419,0-0.838,0.204-1.079,0.584L8.829,13.73H8.386
			c-0.524-1.477-1.92-2.54-3.576-2.54C2.705,11.19,1,12.896,1,15s1.705,3.81,3.81,3.81c1.656,0,3.052-1.063,3.576-2.54h3.016
			l4.62,7.264c0.013,0.014,0.039,0.038,0.051,0.051c0.216,0.179,0.471,0.292,0.737,0.305h3.237c0,0.698,0.571,1.27,1.27,1.27h2.54
			c0.698,0,1.27-0.571,1.27-1.27V21.35C25.126,20.651,24.555,20.079,23.856,20.079z"/>
		<path fill="#FFFFFF" d="M23.856,20.079h-2.54c-0.698,0-1.27,0.572-1.27,1.271h-2.413l-3.234-5.08h8.188v2.472L29,14.999
			l-6.413-3.739v2.471H11.812l3.271-5.079h2.777c0.44,0.756,1.25,1.27,2.188,1.27c1.402,0,2.54-1.137,2.54-2.539
			c0-1.403-1.138-2.54-2.54-2.54c-0.938,0-1.747,0.514-2.188,1.27h-3.425c-0.419,0-0.838,0.204-1.079,0.584L8.829,13.73H8.386
			c-0.524-1.477-1.92-2.54-3.576-2.54C2.705,11.19,1,12.896,1,15s1.705,3.81,3.81,3.81c1.656,0,3.052-1.063,3.576-2.54h3.016
			l4.62,7.264c0.013,0.014,0.039,0.038,0.051,0.051c0.216,0.179,0.471,0.292,0.737,0.305h3.237c0,0.698,0.571,1.27,1.27,1.27h2.54
			c0.698,0,1.27-0.571,1.27-1.27V21.35C25.126,20.651,24.555,20.079,23.856,20.079z"/>
		<rect fill="none" width="30" height="30"/>
	</g>
</g>
</svg>
