<?xml version="1.0" encoding="utf-8"?>
<!-- Generator: Adobe Illustrator 15.0.0, SVG Export Plug-In . SVG Version: 6.00 Build 0)  -->
<!DOCTYPE svg PUBLIC "-//W3C//DTD SVG 1.1//EN" "http://www.w3.org/Graphics/SVG/1.1/DTD/svg11.dtd">
<svg version="1.1" xmlns="http://www.w3.org/2000/svg" xmlns:xlink="http://www.w3.org/1999/xlink" x="0px" y="0px" width="30px"
	 height="30px" viewBox="0 0 30 30" enable-background="new 0 0 30 30" xml:space="preserve">
<g id="DO_NOT_EDIT_-_BOUNDING_BOX">
	<rect id="BOUNDING_BOX" fill="none" width="30" height="30"/>
</g>
<g id="PLACE_YOUR_GRAPHIC_HERE">
	<path opacity="0.3" d="M22,2c0-0.553-0.447-1-1-1H5C4.447,1,4,1.447,4,2v20c0,0.553,0.447,1,1,1V4c0-1.104,0.896-2,2-2H22z M24,4
		c0-0.553-0.447-1-1-1H7C6.447,3,6,3.447,6,4v20c0,0.553,0.447,1,1,1V6c0-1.104,0.896-2,2-2H24z M25,5H9C8.447,5,8,5.447,8,6v20
		c0,0.553,0.447,1,1,1h16c0.553,0,1-0.447,1-1V6C26,5.447,25.553,5,25,5z"/>
	<path opacity="0.15" d="M9,29c-1.103,0-2-0.897-2-2c-1.103,0-2-0.897-2-2c-1.103,0-2-0.897-2-2V3c0-1.103,0.897-2,2-2h16
		c1.103,0,2,0.897,2,2c1.103,0,2,0.897,2,2c1.103,0,2,0.897,2,2v20c0,1.103-0.897,2-2,2H9z"/>
	<path opacity="0.15" d="M22,3c0-0.553-0.447-1-1-1H5C4.447,2,4,2.447,4,3v20c0,0.553,0.447,1,1,1V5c0-1.104,0.896-2,2-2H22z M24,5
		c0-0.553-0.447-1-1-1H7C6.447,4,6,4.447,6,5v20c0,0.553,0.447,1,1,1V7c0-1.104,0.896-2,2-2H24z M25,6H9C8.447,6,8,6.447,8,7v20
		c0,0.553,0.447,1,1,1h16c0.553,0,1-0.447,1-1V7C26,6.447,25.553,6,25,6z"/>
	<path fill="#FFFFFF" d="M22,3c0-0.553-0.447-1-1-1H5C4.447,2,4,2.447,4,3v20c0,0.553,0.447,1,1,1V5c0-1.104,0.896-2,2-2H22z M24,5
		c0-0.553-0.447-1-1-1H7C6.447,4,6,4.447,6,5v20c0,0.553,0.447,1,1,1V7c0-1.104,0.896-2,2-2H24z M25,6H9C8.447,6,8,6.447,8,7v20
		c0,0.553,0.447,1,1,1h16c0.553,0,1-0.447,1-1V7C26,6.447,25.553,6,25,6z"/>
</g>
</svg>
