<?xml version="1.0" encoding="utf-8"?>
<!-- Generator: Adobe Illustrator 15.0.0, SVG Export Plug-In . SVG Version: 6.00 Build 0)  -->
<!DOCTYPE svg PUBLIC "-//W3C//DTD SVG 1.1//EN" "http://www.w3.org/Graphics/SVG/1.1/DTD/svg11.dtd">
<svg version="1.1" xmlns="http://www.w3.org/2000/svg" xmlns:xlink="http://www.w3.org/1999/xlink" x="0px" y="0px" width="30px"
	 height="30px" viewBox="0 0 30 30" enable-background="new 0 0 30 30" xml:space="preserve">
<g id="DO_NOT_EDIT_-_BOUNDING_BOX">
	<rect id="BOUNDING_BOX" fill="none" width="30" height="30"/>
</g>
<g id="PLACE_YOUR_GRAPHIC_HERE">
	<g>
		<path opacity="0.3" d="M13.912,4.604L8.602,4.428L8.629,4.4L5.229,1L4.307,1.926l0.933,0.93L3.853,4.242L2.918,3.309L2,4.234
			l3.4,3.402l0.009-0.01l0.189,5.287c0.016,0.32,0.235,0.703,0.462,0.928L19,27v-9h9L14.838,5.064
			C14.621,4.844,14.215,4.619,13.912,4.604z M28,4h-3V1c0-0.553-0.447-1-1-1s-1,0.447-1,1v3h-3c-0.553,0-1,0.447-1,1s0.447,1,1,1h3
			v3c0,0.553,0.447,1,1,1s1-0.447,1-1V6h3c0.553,0,1-0.447,1-1S28.553,4,28,4z"/>
		<path opacity="0.15" d="M19,29c-0.263,0-0.521-0.104-0.713-0.299L5.348,15.543c-0.32-0.317-0.716-0.929-0.748-1.58L4.425,9.075
			L1.292,5.941c-0.389-0.39-0.39-1.02-0.002-1.411l0.918-0.926C2.395,3.416,2.65,3.309,2.916,3.309c0.001,0,0.001,0,0.002,0
			c0.198,0,0.39,0.059,0.553,0.167C3.216,3.088,3.258,2.562,3.598,2.22L4.52,1.294C4.708,1.106,4.962,1,5.228,1c0,0,0,0,0.001,0
			c0.265,0,0.52,0.105,0.707,0.293l3.15,3.15l4.859,0.161c0.631,0.032,1.257,0.405,1.606,0.76l13.15,12.923
			c0.289,0.284,0.378,0.716,0.225,1.092C28.771,19.755,28.406,20,28,20h-8v8c0,0.406-0.245,0.771-0.621,0.926
			C19.256,28.976,19.128,29,19,29z M24,12c-1.103,0-2-0.897-2-2V8h-2c-1.103,0-2-0.897-2-2s0.897-2,2-2h2V2c0-1.103,0.897-2,2-2
			s2,0.897,2,2v2h2c1.103,0,2,0.897,2,2s-0.897,2-2,2h-2v2C26,11.103,25.103,12,24,12z"/>
		<path opacity="0.15" d="M13.912,5.604L8.602,5.428L8.629,5.4L5.229,2L4.307,2.926l0.933,0.93L3.853,5.242L2.918,4.309L2,5.234
			l3.4,3.402l0.009-0.01l0.189,5.287c0.016,0.32,0.235,0.703,0.462,0.928L19,28v-9h9L14.838,6.064
			C14.621,5.844,14.215,5.619,13.912,5.604z M28,5h-3V2c0-0.553-0.447-1-1-1s-1,0.447-1,1v3h-3c-0.553,0-1,0.447-1,1s0.447,1,1,1h3
			v3c0,0.553,0.447,1,1,1s1-0.447,1-1V7h3c0.553,0,1-0.447,1-1S28.553,5,28,5z"/>
		<path fill="#FFFFFF" d="M13.912,5.604L8.602,5.428L8.629,5.4L5.229,2L4.307,2.926l0.933,0.93L3.853,5.242L2.918,4.309L2,5.234
			l3.4,3.402l0.009-0.01l0.189,5.287c0.016,0.32,0.235,0.703,0.462,0.928L19,28v-9h9L14.838,6.064
			C14.621,5.844,14.215,5.619,13.912,5.604z M28,5h-3V2c0-0.553-0.447-1-1-1s-1,0.447-1,1v3h-3c-0.553,0-1,0.447-1,1s0.447,1,1,1h3
			v3c0,0.553,0.447,1,1,1s1-0.447,1-1V7h3c0.553,0,1-0.447,1-1S28.553,5,28,5z"/>
		<rect fill="none" width="30" height="30"/>
	</g>
</g>
</svg>
