<?xml version="1.0" encoding="utf-8"?>
<!-- Generator: Adobe Illustrator 15.0.0, SVG Export Plug-In . SVG Version: 6.00 Build 0)  -->
<!DOCTYPE svg PUBLIC "-//W3C//DTD SVG 1.1//EN" "http://www.w3.org/Graphics/SVG/1.1/DTD/svg11.dtd">
<svg version="1.1" xmlns="http://www.w3.org/2000/svg" xmlns:xlink="http://www.w3.org/1999/xlink" x="0px" y="0px" width="30px"
	 height="30px" viewBox="0 0 30 30" enable-background="new 0 0 30 30" xml:space="preserve">
<g id="DO_NOT_EDIT_-_BOUNDING_BOX">
	<rect id="BOUNDING_BOX" fill="none" width="30" height="30"/>
</g>
<g id="PLACE_YOUR_GRAPHIC_HERE">
	<path opacity="0.3" d="M26,9c0,1.104-0.896,2-2,2c-0.332,0-0.64-0.089-0.915-0.232c0.15,0.382,0.236,0.808,0.236,1.283
		c0,1.744-0.925,2.658-2.336,3.854c-1.31,1.107-2.149,1.865-2.336,2.896h4.566c0.053,0,0.103,0.021,0.142,0.059
		c0.037,0.037,0.059,0.088,0.059,0.141l-0.001,1.516c0,0.111-0.09,0.201-0.2,0.201H16c-0.11,0-0.2-0.09-0.2-0.201v-0.998
		c0-2.398,1.561-3.908,3.022-5.137c0.947-0.795,1.521-1.342,1.521-2.236c0-0.658-0.271-1.445-1.563-1.445
		c-0.614,0-1.395,0.178-2.32,0.525c-0.022,0.008-0.047,0.014-0.07,0.014c-0.041,0-0.08-0.012-0.114-0.037
		c-0.054-0.037-0.086-0.098-0.086-0.164V9.49c0-0.09,0.06-0.168,0.146-0.191c1.175-0.33,2.229-0.498,3.139-0.498
		c1.08,0,1.951,0.256,2.599,0.709C22.03,9.346,22,9.178,22,9V7h-2c-1.104,0-2-0.896-2-2c0-1.006,0.748-1.832,1.716-1.972
		C19.665,3.02,19.625,3,19.564,3h-9.131C9.859,3,9.641,3.402,9.945,3.889l0.849,1.369c0.304,0.486,0.085,0.887-0.489,0.887H7.174
		c-0.573,0-0.795-0.4-0.49-0.887l0.85-1.369C7.838,3.402,7.615,3,7.042,3H3.924C3.413,3,3,3.41,3,3.918v20.166
		C3,24.59,3.413,25,3.924,25h22.153C26.588,25,27,24.59,27,24.084V7h-1V9z M14.199,20.516c0,0.111-0.089,0.201-0.199,0.201H7
		c-0.11,0-0.2-0.09-0.2-0.201V19c0-0.109,0.09-0.199,0.2-0.199h2.049v-7.004l-2.002,0.48C7.031,12.281,7.016,12.283,7,12.283
		c-0.045,0-0.088-0.016-0.124-0.043C6.828,12.201,6.8,12.145,6.8,12.082v-1.613c0-0.08,0.048-0.152,0.121-0.184l3.393-1.469
		L12,8.801c0.11,0,0.199,0.09,0.199,0.199v9.801H14c0.11,0,0.199,0.09,0.199,0.199V20.516z M28,4h-3V1c0-0.553-0.447-1-1-1
		s-1,0.447-1,1v3h-3c-0.553,0-1,0.447-1,1s0.447,1,1,1h3v3c0,0.553,0.447,1,1,1s1-0.447,1-1V6h3c0.553,0,1-0.447,1-1S28.553,4,28,4z
		"/>
	<path opacity="0.15" d="M28,4h-2V2c0-1.103-0.897-2-2-2s-2,0.897-2,2v1H10.434C9.787,3,7.69,3,7.042,3H3.924
		C2.863,3,2,3.86,2,4.918v20.166C2,26.141,2.863,27,3.924,27h22.153C27.138,27,28,26.141,28,25.084V8c1.103,0,2-0.897,2-2
		S29.103,4,28,4z"/>
	<path opacity="0.15" d="M26,10c0,1.104-0.896,2-2,2c-0.332,0-0.64-0.089-0.915-0.232c0.15,0.382,0.236,0.808,0.236,1.283
		c0,1.744-0.925,2.658-2.336,3.854c-1.31,1.107-2.149,1.865-2.336,2.896h4.566c0.053,0,0.103,0.021,0.142,0.059
		c0.037,0.037,0.059,0.088,0.059,0.141l-0.001,1.516c0,0.111-0.09,0.201-0.2,0.201H16c-0.11,0-0.2-0.09-0.2-0.201v-0.998
		c0-2.398,1.561-3.908,3.022-5.137c0.947-0.795,1.521-1.342,1.521-2.236c0-0.658-0.271-1.445-1.563-1.445
		c-0.614,0-1.395,0.178-2.32,0.525c-0.022,0.008-0.047,0.014-0.07,0.014c-0.041,0-0.08-0.012-0.114-0.037
		c-0.054-0.037-0.086-0.098-0.086-0.164V10.49c0-0.09,0.06-0.168,0.146-0.191c1.175-0.33,2.229-0.498,3.139-0.498
		c1.08,0,1.951,0.256,2.599,0.709C22.03,10.346,22,10.178,22,10V8h-2c-1.104,0-2-0.896-2-2c0-1.006,0.748-1.832,1.716-1.972
		C19.665,4.02,19.625,4,19.564,4h-9.131C9.859,4,9.641,4.402,9.945,4.889l0.849,1.369c0.304,0.486,0.085,0.887-0.489,0.887H7.174
		c-0.573,0-0.795-0.4-0.49-0.887l0.85-1.369C7.838,4.402,7.615,4,7.042,4H3.924C3.413,4,3,4.41,3,4.918v20.166
		C3,25.59,3.413,26,3.924,26h22.153C26.588,26,27,25.59,27,25.084V8h-1V10z M14.199,21.516c0,0.111-0.089,0.201-0.199,0.201H7
		c-0.11,0-0.2-0.09-0.2-0.201V20c0-0.109,0.09-0.199,0.2-0.199h2.049v-7.004l-2.002,0.48C7.031,13.281,7.016,13.283,7,13.283
		c-0.045,0-0.088-0.016-0.124-0.043C6.828,13.201,6.8,13.145,6.8,13.082v-1.613c0-0.08,0.048-0.152,0.121-0.184l3.393-1.469
		L12,9.801c0.11,0,0.199,0.09,0.199,0.199v9.801H14c0.11,0,0.199,0.09,0.199,0.199V21.516z M28,5h-3V2c0-0.553-0.447-1-1-1
		s-1,0.447-1,1v3h-3c-0.553,0-1,0.447-1,1s0.447,1,1,1h3v3c0,0.553,0.447,1,1,1s1-0.447,1-1V7h3c0.553,0,1-0.447,1-1S28.553,5,28,5z
		"/>
	<path fill="#FFFFFF" d="M26,10c0,1.104-0.896,2-2,2c-0.332,0-0.64-0.089-0.915-0.232c0.15,0.382,0.236,0.808,0.236,1.283
		c0,1.744-0.925,2.658-2.336,3.854c-1.31,1.107-2.149,1.865-2.336,2.896h4.566c0.053,0,0.103,0.021,0.142,0.059
		c0.037,0.037,0.059,0.088,0.059,0.141l-0.001,1.516c0,0.111-0.09,0.201-0.2,0.201H16c-0.11,0-0.2-0.09-0.2-0.201v-0.998
		c0-2.398,1.561-3.908,3.022-5.137c0.947-0.795,1.521-1.342,1.521-2.236c0-0.658-0.271-1.445-1.563-1.445
		c-0.614,0-1.395,0.178-2.32,0.525c-0.022,0.008-0.047,0.014-0.07,0.014c-0.041,0-0.08-0.012-0.114-0.037
		c-0.054-0.037-0.086-0.098-0.086-0.164V10.49c0-0.09,0.06-0.168,0.146-0.191c1.175-0.33,2.229-0.498,3.139-0.498
		c1.08,0,1.951,0.256,2.599,0.709C22.03,10.346,22,10.178,22,10V8h-2c-1.104,0-2-0.896-2-2c0-1.006,0.748-1.832,1.716-1.972
		C19.665,4.02,19.625,4,19.564,4h-9.131C9.859,4,9.641,4.402,9.945,4.889l0.849,1.369c0.304,0.486,0.085,0.887-0.489,0.887H7.174
		c-0.573,0-0.795-0.4-0.49-0.887l0.85-1.369C7.838,4.402,7.615,4,7.042,4H3.924C3.413,4,3,4.41,3,4.918v20.166
		C3,25.59,3.413,26,3.924,26h22.153C26.588,26,27,25.59,27,25.084V8h-1V10z M14.199,21.516c0,0.111-0.089,0.201-0.199,0.201H7
		c-0.11,0-0.2-0.09-0.2-0.201V20c0-0.109,0.09-0.199,0.2-0.199h2.049v-7.004l-2.002,0.48C7.031,13.281,7.016,13.283,7,13.283
		c-0.045,0-0.088-0.016-0.124-0.043C6.828,13.201,6.8,13.145,6.8,13.082v-1.613c0-0.08,0.048-0.152,0.121-0.184l3.393-1.469
		L12,9.801c0.11,0,0.199,0.09,0.199,0.199v9.801H14c0.11,0,0.199,0.09,0.199,0.199V21.516z M28,5h-3V2c0-0.553-0.447-1-1-1
		s-1,0.447-1,1v3h-3c-0.553,0-1,0.447-1,1s0.447,1,1,1h3v3c0,0.553,0.447,1,1,1s1-0.447,1-1V7h3c0.553,0,1-0.447,1-1S28.553,5,28,5z
		"/>
</g>
</svg>
