<?xml version="1.0" encoding="utf-8"?>
<!-- Generator: Adobe Illustrator 15.0.0, SVG Export Plug-In . SVG Version: 6.00 Build 0)  -->
<!DOCTYPE svg PUBLIC "-//W3C//DTD SVG 1.1//EN" "http://www.w3.org/Graphics/SVG/1.1/DTD/svg11.dtd">
<svg version="1.1" xmlns="http://www.w3.org/2000/svg" xmlns:xlink="http://www.w3.org/1999/xlink" x="0px" y="0px" width="30px"
	 height="30px" viewBox="0 0 30 30" enable-background="new 0 0 30 30" xml:space="preserve">
<g id="DO_NOT_EDIT_-_BOUNDING_BOX">
	<rect id="BOUNDING_BOX" fill="none" width="30" height="30"/>
</g>
<g id="PLACE_YOUR_GRAPHIC_HERE">
	<path opacity="0.3" d="M20,1c0-0.553-0.447-1-1-1h-8c-0.554,0-1,0.447-1,1v3h10V1z M8.2,15.8h7.423c0.441-0.487,1.07-0.8,1.775-0.8
		H26V3c0-0.553-0.447-1-1-1h-4v2c0,0.553-0.447,1-1,1H10C9.446,5,9,4.553,9,4V2H5C4.446,2,4,2.447,4,3v23c0,0.553,0.446,1,1,1h10.04
		C15.018,26.869,15,26.737,15,26.601v-4.4H8.2C7.538,22.2,7,21.662,7,21s0.538-1.2,1.2-1.2H15v-1.6H8.2C7.538,18.2,7,17.662,7,17
		S7.538,15.8,8.2,15.8z M8.2,7.8H22c0.662,0,1.199,0.539,1.199,1.2S22.662,10.2,22,10.2H8.2C7.538,10.2,7,9.661,7,9
		S7.538,7.8,8.2,7.8z M8.2,11.8H22c0.662,0,1.199,0.539,1.199,1.2S22.662,14.2,22,14.2H8.2C7.538,14.2,7,13.661,7,13
		S7.538,11.8,8.2,11.8z M26.6,16h-9.201C16.627,16,16,16.628,16,17.4v9.2C16,27.373,16.627,28,17.398,28H26.6
		c0.771,0,1.4-0.627,1.4-1.399v-9.2C28,16.628,27.371,16,26.6,16z"/>
	<path opacity="0.15" d="M17.398,30c-0.831,0-1.564-0.425-1.995-1.068C15.289,28.977,15.166,29,15.04,29H5c-1.103,0-2-0.897-2-2V4
		c0-1.103,0.897-2,2-2h4c0-1.103,0.897-2,2-2h8c1.103,0,2,0.897,2,2h4c1.103,0,2,0.897,2,2c0,0,0,12.022-0.001,12.033
		C28.134,16.225,29,17.213,29,18.4v9.2C29,28.924,27.923,30,26.6,30H17.398z"/>
	<path opacity="0.15" d="M20,2c0-0.553-0.447-1-1-1h-8c-0.554,0-1,0.447-1,1v3h10V2z M8.2,16.8h7.423
		c0.441-0.487,1.07-0.8,1.775-0.8H26V4c0-0.553-0.447-1-1-1h-4v2c0,0.553-0.447,1-1,1H10C9.446,6,9,5.553,9,5V3H5
		C4.446,3,4,3.447,4,4v23c0,0.553,0.446,1,1,1h10.04C15.018,27.869,15,27.737,15,27.601v-4.4H8.2C7.538,23.2,7,22.662,7,22
		s0.538-1.2,1.2-1.2H15v-1.6H8.2C7.538,19.2,7,18.662,7,18S7.538,16.8,8.2,16.8z M8.2,8.8H22c0.662,0,1.199,0.539,1.199,1.2
		S22.662,11.2,22,11.2H8.2C7.538,11.2,7,10.661,7,10S7.538,8.8,8.2,8.8z M8.2,12.8H22c0.662,0,1.199,0.539,1.199,1.2
		S22.662,15.2,22,15.2H8.2C7.538,15.2,7,14.661,7,14S7.538,12.8,8.2,12.8z M26.6,17h-9.201C16.627,17,16,17.628,16,18.4v9.2
		C16,28.373,16.627,29,17.398,29H26.6c0.771,0,1.4-0.627,1.4-1.399v-9.2C28,17.628,27.371,17,26.6,17z"/>
	<path fill="#FFFFFF" d="M20,2c0-0.553-0.447-1-1-1h-8c-0.554,0-1,0.447-1,1v3h10V2z M8.2,16.8h7.423
		c0.441-0.487,1.07-0.8,1.775-0.8H26V4c0-0.553-0.447-1-1-1h-4v2c0,0.553-0.447,1-1,1H10C9.446,6,9,5.553,9,5V3H5
		C4.446,3,4,3.447,4,4v23c0,0.553,0.446,1,1,1h10.04C15.018,27.869,15,27.737,15,27.601v-4.4H8.2C7.538,23.2,7,22.662,7,22
		s0.538-1.2,1.2-1.2H15v-1.6H8.2C7.538,19.2,7,18.662,7,18S7.538,16.8,8.2,16.8z M8.2,8.8H22c0.662,0,1.199,0.539,1.199,1.2
		S22.662,11.2,22,11.2H8.2C7.538,11.2,7,10.661,7,10S7.538,8.8,8.2,8.8z M8.2,12.8H22c0.662,0,1.199,0.539,1.199,1.2
		S22.662,15.2,22,15.2H8.2C7.538,15.2,7,14.661,7,14S7.538,12.8,8.2,12.8z M26.6,17h-9.201C16.627,17,16,17.628,16,18.4v9.2
		C16,28.373,16.627,29,17.398,29H26.6c0.771,0,1.4-0.627,1.4-1.399v-9.2C28,17.628,27.371,17,26.6,17z"/>
</g>
</svg>
