<?xml version="1.0" encoding="utf-8"?>
<!-- Generator: Adobe Illustrator 15.0.0, SVG Export Plug-In . SVG Version: 6.00 Build 0)  -->
<!DOCTYPE svg PUBLIC "-//W3C//DTD SVG 1.1//EN" "http://www.w3.org/Graphics/SVG/1.1/DTD/svg11.dtd">
<svg version="1.1" id="Ebene_1" xmlns="http://www.w3.org/2000/svg" xmlns:xlink="http://www.w3.org/1999/xlink" x="0px" y="0px"
	 width="30px" height="30px" viewBox="0 0 30 30" enable-background="new 0 0 30 30" xml:space="preserve">
<g>
	<path opacity="0.3" d="M25.998,5h-13c-1.1,0-2.637,0.637-3.414,1.414l-6.172,6.171c-0.777,0.776-0.777,2.052,0,2.828l6.172,6.172
		C10.361,22.363,11.898,23,12.998,23h13c1.1,0,2-0.9,2-2V7C27.998,5.9,27.098,5,25.998,5z M25.598,19.6c0,0.551-0.449,1-1,1H12.992
		c-0.549,0-1.318-0.318-1.707-0.707L6.1,14.707c-0.389-0.389-0.389-1.025,0-1.414l5.186-5.186C11.674,7.719,12.443,7.4,12.992,7.4
		h11.605c0.551,0,1,0.449,1,1V19.6z M21.291,9.293l-3.293,3.292l-3.293-3.292l-1.414,1.414L16.582,14l-3.293,3.293l1.414,1.414
		l3.293-3.293l3.293,3.293l1.414-1.414L19.412,14l3.293-3.292L21.291,9.293z"/>
	<g id="DO_NOT_EDIT_-_BOUNDING_BOX">
		<rect id="BOUNDING_BOX" fill="none" width="30" height="30"/>
	</g>
	<path opacity="0.15" d="M12.998,25c-1.355,0-3.166-0.751-4.122-1.709L2.705,17.12c-0.565-0.563-0.876-1.317-0.876-2.121
		s0.311-1.557,0.876-2.122l6.171-6.17C9.833,5.75,11.644,5,12.998,5h13c1.654,0,3,1.346,3,3v14c0,1.654-1.346,3-3,3H12.998z
		 M24.598,20.6V9.4h-2.855c0.094,0.047,0.181,0.11,0.256,0.186l1.414,1.415c0.391,0.391,0.391,1.024,0,1.414L20.826,15l2.584,2.585
		c0.391,0.391,0.391,1.023,0,1.414l-1.414,1.414c-0.077,0.077-0.163,0.139-0.256,0.186H24.598z M20.838,20.6
		c-0.093-0.047-0.179-0.108-0.256-0.186l-2.586-2.586l-2.586,2.586c-0.077,0.077-0.164,0.139-0.255,0.186H20.838z M12.992,9.4
		c-0.285,0-0.798,0.212-0.998,0.413L6.807,15l5.185,5.186c0.201,0.201,0.715,0.414,1,0.414h1.259
		c-0.092-0.047-0.178-0.108-0.255-0.186L12.582,19c-0.391-0.391-0.391-1.023,0-1.414L15.168,15l-2.584-2.586
		c-0.39-0.391-0.39-1.024,0-1.414l1.414-1.414c0.077-0.077,0.164-0.139,0.255-0.186H12.992z M15.157,9.4
		c0.092,0.046,0.178,0.108,0.255,0.186l2.586,2.585l2.586-2.585C20.66,9.51,20.746,9.448,20.84,9.4H15.157z"/>
	<path opacity="0.15" d="M25.998,6h-13c-1.1,0-2.637,0.637-3.414,1.414l-6.172,6.171c-0.777,0.776-0.777,2.052,0,2.828l6.172,6.172
		C10.361,23.363,11.898,24,12.998,24h13c1.1,0,2-0.9,2-2V8C27.998,6.9,27.098,6,25.998,6z M25.598,20.6c0,0.551-0.449,1-1,1H12.992
		c-0.549,0-1.318-0.318-1.707-0.707L6.1,15.707c-0.389-0.389-0.389-1.025,0-1.414l5.186-5.186C11.674,8.719,12.443,8.4,12.992,8.4
		h11.605c0.551,0,1,0.449,1,1V20.6z M21.291,10.293l-3.293,3.292l-3.293-3.292l-1.414,1.414L16.582,15l-3.293,3.293l1.414,1.414
		l3.293-3.293l3.293,3.293l1.414-1.414L19.412,15l3.293-3.292L21.291,10.293z"/>
	<path fill="#FFFFFF" d="M25.998,6h-13c-1.1,0-2.637,0.637-3.414,1.414l-6.172,6.171c-0.777,0.776-0.777,2.052,0,2.828l6.172,6.172
		C10.361,23.363,11.898,24,12.998,24h13c1.1,0,2-0.9,2-2V8C27.998,6.9,27.098,6,25.998,6z M25.598,20.6c0,0.551-0.449,1-1,1H12.992
		c-0.549,0-1.318-0.318-1.707-0.707L6.1,15.707c-0.389-0.389-0.389-1.025,0-1.414l5.186-5.186C11.674,8.719,12.443,8.4,12.992,8.4
		h11.605c0.551,0,1,0.449,1,1V20.6z M21.291,10.293l-3.293,3.292l-3.293-3.292l-1.414,1.414L16.582,15l-3.293,3.293l1.414,1.414
		l3.293-3.293l3.293,3.293l1.414-1.414L19.412,15l3.293-3.292L21.291,10.293z"/>
	<rect fill="none" width="30" height="30"/>
</g>
</svg>
