<?xml version="1.0" encoding="utf-8"?>
<!-- Generator: Adobe Illustrator 15.0.0, SVG Export Plug-In . SVG Version: 6.00 Build 0)  -->
<!DOCTYPE svg PUBLIC "-//W3C//DTD SVG 1.1//EN" "http://www.w3.org/Graphics/SVG/1.1/DTD/svg11.dtd">
<svg version="1.1" xmlns="http://www.w3.org/2000/svg" xmlns:xlink="http://www.w3.org/1999/xlink" x="0px" y="0px" width="30px"
	 height="30px" viewBox="0 0 30 30" enable-background="new 0 0 30 30" xml:space="preserve">
<g id="DO_NOT_EDIT_-_BOUNDING_BOX">
	<rect id="BOUNDING_BOX" fill="none" width="30" height="30"/>
</g>
<g id="PLACE_YOUR_GRAPHIC_HERE">
	<rect x="5.074" y="8.689" opacity="0.3" width="3" height="10"/>
	<path opacity="0.3" d="M27.563,10.051h-1.488V6.477c0-0.984-0.805-1.787-1.787-1.787H2.861c-0.984,0-1.787,0.803-1.787,1.787
		v14.426c0,0.98,0.803,1.787,1.787,1.787h21.426c0.982,0,1.787-0.807,1.787-1.787v-3.574h1.488c0.49,0,0.895-0.404,0.895-0.895
		v-5.49C28.457,10.453,28.053,10.051,27.563,10.051z M24.074,20.689h-21v-14h21V20.689z"/>
	<rect fill="none" width="30" height="30"/>
	<path opacity="0.15" d="M2.861,24.689c-1.537,0-2.787-1.25-2.787-2.787V7.477c0-1.537,1.25-2.787,2.787-2.787h21.426
		c1.537,0,2.787,1.25,2.787,2.787v2.574h0.488c1.045,0,1.895,0.849,1.895,1.893v5.49c0,1.045-0.85,1.895-1.895,1.895h-0.488v2.574
		c0,1.537-1.25,2.787-2.787,2.787H2.861z"/>
	<path opacity="0.15" d="M27.563,11.051h-1.488V7.477c0-0.984-0.805-1.787-1.787-1.787H2.861c-0.984,0-1.787,0.803-1.787,1.787
		v14.426c0,0.98,0.803,1.787,1.787,1.787h21.426c0.982,0,1.787-0.807,1.787-1.787v-3.574h1.488c0.49,0,0.895-0.404,0.895-0.895
		v-5.49C28.457,11.453,28.053,11.051,27.563,11.051z M24.074,21.689h-21v-14h21V21.689z"/>
	<path fill="#FFFFFF" d="M27.563,11.051h-1.488V7.477c0-0.984-0.805-1.787-1.787-1.787H2.861c-0.984,0-1.787,0.803-1.787,1.787
		v14.426c0,0.98,0.803,1.787,1.787,1.787h21.426c0.982,0,1.787-0.807,1.787-1.787v-3.574h1.488c0.49,0,0.895-0.404,0.895-0.895
		v-5.49C28.457,11.453,28.053,11.051,27.563,11.051z M24.074,21.689h-21v-14h21V21.689z"/>
	<rect x="5.074" y="9.689" opacity="0.15" width="3" height="10"/>
	<rect x="5.074" y="9.689" fill="#EC1C24" width="3" height="10"/>
</g>
</svg>
