<?xml version="1.0" encoding="utf-8"?>
<!-- Generator: Adobe Illustrator 15.0.0, SVG Export Plug-In . SVG Version: 6.00 Build 0)  -->
<!DOCTYPE svg PUBLIC "-//W3C//DTD SVG 1.1//EN" "http://www.w3.org/Graphics/SVG/1.1/DTD/svg11.dtd">
<svg version="1.1" xmlns="http://www.w3.org/2000/svg" xmlns:xlink="http://www.w3.org/1999/xlink" x="0px" y="0px" width="30px"
	 height="30px" viewBox="0 0 30 30" enable-background="new 0 0 30 30" xml:space="preserve">
<g id="DO_NOT_EDIT_-_BOUNDING_BOX">
	<rect id="BOUNDING_BOX" fill="none" width="30" height="30"/>
</g>
<g id="PLACE_YOUR_GRAPHIC_HERE">
	<g>
		<path opacity="0.3" d="M27,4.999H3c-0.55,0-1,0.451-1,1v17.002c0,0.549,0.45,1,1,1h24c0.55,0,1-0.451,1-1V5.999
			C28,5.45,27.55,4.999,27,4.999z M12.457,20.608c-1.575,0.412-2.66,0.402-3.395,0.387c-0.734,0.016-1.82,0.025-3.396-0.387
			C5.022,20.44,4.469,20.218,4,19.948l0.013-0.07c0.115-0.465,0.671-0.744,0.671-0.744c0.824-0.488,1.645-0.811,1.645-0.811
			C7.227,17.96,7.373,17.21,7.4,17.101c0.072-0.289,0.137-0.592,0.034-0.689c-0.512-0.447-0.712-1.51-0.712-1.51
			c-0.011-0.029-0.021-0.059-0.029-0.088c-0.257,0.244-0.323-0.527-0.413-0.805c-0.148-0.482-0.112-0.594-0.112-0.594
			c-0.02-0.361,0.242-0.236,0.242-0.236l0.021,0.027c-0.189-0.51-0.25-0.783-0.236-1.152c0.021-0.695-0.226-1.021,0.443-2.105
			c0,0,0.1-0.176,0.326-0.186c0.225-0.01,0.146-0.129,0.225-0.277c0.08-0.15,0.138-0.318,0.547-0.268
			C8.15,9.267,8.328,8.753,9.568,9.157c1.246,0.406,1.545,0.461,1.762,0.791c0.701,1.064,0.534,1.316,0.53,2.014
			c0,0.449-0.144,0.754-0.183,1.254l0.021-0.023c0,0,0.27-0.105,0.226,0.252c0,0-0.046,0.232-0.153,0.586
			c-0.104,0.334-0.232,1.064-0.482,0.752c-0.015,0.039-0.027,0.078-0.041,0.119c0,0-0.201,1.063-0.713,1.51
			c-0.101,0.098-0.037,0.4,0.034,0.689c0.025,0.094,0.281,0.719,0.788,1.066c0.09,0.059,0.191,0.111,0.305,0.156
			c0,0,0.821,0.322,1.647,0.811c0,0,0.554,0.279,0.667,0.744L14,20.003C13.562,20.249,13.054,20.452,12.457,20.608z M25,20.001h-8
			c-0.553,0-1-0.447-1-1s0.447-1,1-1h8c0.553,0,1,0.447,1,1S25.553,20.001,25,20.001z M25,16.001h-8c-0.553,0-1-0.447-1-1
			s0.447-1,1-1h8c0.553,0,1,0.447,1,1S25.553,16.001,25,16.001z M25,12.001h-8c-0.553,0-1-0.447-1-1s0.447-1,1-1h8
			c0.553,0,1,0.447,1,1S25.553,12.001,25,12.001z"/>
		<path opacity="0.15" d="M3,26.001c-1.103,0-2-0.897-2-2V6.999c0-1.103,0.897-2,2-2h24c1.103,0,2,0.897,2,2v17.002
			c0,1.103-0.897,2-2,2H3z"/>
		<path opacity="0.15" d="M27,5.999H3c-0.55,0-1,0.451-1,1v17.002c0,0.549,0.45,1,1,1h24c0.55,0,1-0.451,1-1V6.999
			C28,6.45,27.55,5.999,27,5.999z M12.457,21.608c-1.575,0.412-2.66,0.402-3.395,0.387c-0.734,0.016-1.82,0.025-3.396-0.387
			C5.022,21.44,4.469,21.218,4,20.948l0.013-0.07c0.115-0.465,0.671-0.744,0.671-0.744c0.824-0.488,1.645-0.811,1.645-0.811
			C7.227,18.96,7.373,18.21,7.4,18.101c0.072-0.289,0.137-0.592,0.034-0.689c-0.512-0.447-0.712-1.51-0.712-1.51
			c-0.011-0.029-0.021-0.059-0.029-0.088c-0.257,0.244-0.323-0.527-0.413-0.805c-0.148-0.482-0.112-0.594-0.112-0.594
			c-0.02-0.361,0.242-0.236,0.242-0.236l0.021,0.027c-0.189-0.51-0.25-0.783-0.236-1.152c0.021-0.695-0.226-1.021,0.443-2.105
			c0,0,0.1-0.176,0.326-0.186c0.225-0.01,0.146-0.129,0.225-0.277c0.08-0.15,0.138-0.318,0.547-0.268
			c0.414,0.049,0.592-0.465,1.832-0.061c1.246,0.406,1.545,0.461,1.762,0.791c0.701,1.064,0.534,1.316,0.53,2.014
			c0,0.449-0.144,0.754-0.183,1.254l0.021-0.023c0,0,0.27-0.105,0.226,0.252c0,0-0.046,0.232-0.153,0.586
			c-0.104,0.334-0.232,1.064-0.482,0.752c-0.015,0.039-0.027,0.078-0.041,0.119c0,0-0.201,1.063-0.713,1.51
			c-0.101,0.098-0.037,0.4,0.034,0.689c0.025,0.094,0.281,0.719,0.788,1.066c0.09,0.059,0.191,0.111,0.305,0.156
			c0,0,0.821,0.322,1.647,0.811c0,0,0.554,0.279,0.667,0.744L14,21.003C13.562,21.249,13.054,21.452,12.457,21.608z M25,21.001h-8
			c-0.553,0-1-0.447-1-1s0.447-1,1-1h8c0.553,0,1,0.447,1,1S25.553,21.001,25,21.001z M25,17.001h-8c-0.553,0-1-0.447-1-1
			s0.447-1,1-1h8c0.553,0,1,0.447,1,1S25.553,17.001,25,17.001z M25,13.001h-8c-0.553,0-1-0.447-1-1s0.447-1,1-1h8
			c0.553,0,1,0.447,1,1S25.553,13.001,25,13.001z"/>
		<path fill="#FFFFFF" d="M27,5.999H3c-0.55,0-1,0.451-1,1v17.002c0,0.549,0.45,1,1,1h24c0.55,0,1-0.451,1-1V6.999
			C28,6.45,27.55,5.999,27,5.999z M12.457,21.608c-1.575,0.412-2.66,0.402-3.395,0.387c-0.734,0.016-1.82,0.025-3.396-0.387
			C5.022,21.44,4.469,21.218,4,20.948l0.013-0.07c0.115-0.465,0.671-0.744,0.671-0.744c0.824-0.488,1.645-0.811,1.645-0.811
			C7.227,18.96,7.373,18.21,7.4,18.101c0.072-0.289,0.137-0.592,0.034-0.689c-0.512-0.447-0.712-1.51-0.712-1.51
			c-0.011-0.029-0.021-0.059-0.029-0.088c-0.257,0.244-0.323-0.527-0.413-0.805c-0.148-0.482-0.112-0.594-0.112-0.594
			c-0.02-0.361,0.242-0.236,0.242-0.236l0.021,0.027c-0.189-0.51-0.25-0.783-0.236-1.152c0.021-0.695-0.226-1.021,0.443-2.105
			c0,0,0.1-0.176,0.326-0.186c0.225-0.01,0.146-0.129,0.225-0.277c0.08-0.15,0.138-0.318,0.547-0.268
			c0.414,0.049,0.592-0.465,1.832-0.061c1.246,0.406,1.545,0.461,1.762,0.791c0.701,1.064,0.534,1.316,0.53,2.014
			c0,0.449-0.144,0.754-0.183,1.254l0.021-0.023c0,0,0.27-0.105,0.226,0.252c0,0-0.046,0.232-0.153,0.586
			c-0.104,0.334-0.232,1.064-0.482,0.752c-0.015,0.039-0.027,0.078-0.041,0.119c0,0-0.201,1.063-0.713,1.51
			c-0.101,0.098-0.037,0.4,0.034,0.689c0.025,0.094,0.281,0.719,0.788,1.066c0.09,0.059,0.191,0.111,0.305,0.156
			c0,0,0.821,0.322,1.647,0.811c0,0,0.554,0.279,0.667,0.744L14,21.003C13.562,21.249,13.054,21.452,12.457,21.608z M25,21.001h-8
			c-0.553,0-1-0.447-1-1s0.447-1,1-1h8c0.553,0,1,0.447,1,1S25.553,21.001,25,21.001z M25,17.001h-8c-0.553,0-1-0.447-1-1
			s0.447-1,1-1h8c0.553,0,1,0.447,1,1S25.553,17.001,25,17.001z M25,13.001h-8c-0.553,0-1-0.447-1-1s0.447-1,1-1h8
			c0.553,0,1,0.447,1,1S25.553,13.001,25,13.001z"/>
		<rect y="-0.001" fill="none" width="30" height="30.002"/>
	</g>
</g>
</svg>
