<?xml version="1.0" encoding="utf-8"?>
<!-- Generator: Adobe Illustrator 15.0.0, SVG Export Plug-In . SVG Version: 6.00 Build 0)  -->
<!DOCTYPE svg PUBLIC "-//W3C//DTD SVG 1.1//EN" "http://www.w3.org/Graphics/SVG/1.1/DTD/svg11.dtd">
<svg version="1.1" xmlns="http://www.w3.org/2000/svg" xmlns:xlink="http://www.w3.org/1999/xlink" x="0px" y="0px" width="30px"
	 height="30px" viewBox="0 0 30 30" enable-background="new 0 0 30 30" xml:space="preserve">
<g id="DO_NOT_EDIT_-_BOUNDING_BOX">
	<rect id="BOUNDING_BOX" fill="none" width="30" height="30"/>
</g>
<g id="PLACE_YOUR_GRAPHIC_HERE">
	<g>
		<path opacity="0.3" d="M10,23c-1.104,0-2,0.896-2,2s0.896,2,2,2s2-0.896,2-2S11.104,23,10,23z M22,18.457v-12H2l4,12H22z M20,23
			c-1.104,0-2,0.896-2,2s0.896,2,2,2s2-0.896,2-2S21.104,23,20,23z M28,2.457h-5V20H6c-0.553,0-1,0.447-1,1s0.447,1,1,1h19V4.457h3
			c0.553,0,1-0.447,1-1S28.553,2.457,28,2.457z"/>
		<path opacity="0.15" d="M20,29c-1.654,0-3-1.346-3-3c0-0.768,0.29-1.469,0.766-2h-5.531C12.71,24.531,13,25.232,13,26
			c0,1.654-1.346,3-3,3s-3-1.346-3-3c0-0.768,0.29-1.469,0.766-2H6c-1.103,0-2-0.897-2-2c0-0.845,0.526-1.568,1.268-1.861
			c-0.096-0.103-0.17-0.227-0.217-0.365l-4-12c-0.102-0.305-0.05-0.64,0.138-0.901C1.377,6.611,1.679,6.457,2,6.457h20v-3
			c0-0.552,0.447-1,1-1h5c1.103,0,2,0.897,2,2s-0.897,2-2,2h-2V23c0,0.553-0.447,1-1,1h-2.766C22.71,24.531,23,25.232,23,26
			C23,27.654,21.654,29,20,29z"/>
		<path opacity="0.15" d="M10,24c-1.104,0-2,0.896-2,2s0.896,2,2,2s2-0.896,2-2S11.104,24,10,24z M22,19.457v-12H2l4,12H22z M20,24
			c-1.104,0-2,0.896-2,2s0.896,2,2,2s2-0.896,2-2S21.104,24,20,24z M28,3.457h-5V21H6c-0.553,0-1,0.447-1,1s0.447,1,1,1h19V5.457h3
			c0.553,0,1-0.447,1-1S28.553,3.457,28,3.457z"/>
		<path fill="#FFFFFF" d="M10,24c-1.104,0-2,0.896-2,2s0.896,2,2,2s2-0.896,2-2S11.104,24,10,24z M22,19.457v-12H2l4,12H22z M20,24
			c-1.104,0-2,0.896-2,2s0.896,2,2,2s2-0.896,2-2S21.104,24,20,24z M28,3.457h-5V21H6c-0.553,0-1,0.447-1,1s0.447,1,1,1h19V5.457h3
			c0.553,0,1-0.447,1-1S28.553,3.457,28,3.457z"/>
		<rect fill="none" width="30" height="30"/>
	</g>
</g>
</svg>
