<?xml version="1.0" encoding="utf-8"?>
<!-- Generator: Adobe Illustrator 15.0.0, SVG Export Plug-In . SVG Version: 6.00 Build 0)  -->
<!DOCTYPE svg PUBLIC "-//W3C//DTD SVG 1.1//EN" "http://www.w3.org/Graphics/SVG/1.1/DTD/svg11.dtd">
<svg version="1.1" xmlns="http://www.w3.org/2000/svg" xmlns:xlink="http://www.w3.org/1999/xlink" x="0px" y="0px" width="30px"
	 height="30px" viewBox="0 0 30 30" enable-background="new 0 0 30 30" xml:space="preserve">
<g id="DO_NOT_EDIT_-_BOUNDING_BOX">
	<rect id="BOUNDING_BOX" fill="none" width="30" height="30"/>
</g>
<g id="PLACE_YOUR_GRAPHIC_HERE">
	<path opacity="0.3" d="M26.077,3h-3.121c-0.573,0-0.796,0.4-0.488,0.889l0.847,1.368c0.308,0.486,0.086,0.888-0.487,0.888h-3.132
		c-0.573,0-0.795-0.4-0.489-0.888l0.849-1.368C20.357,3.4,20.139,3,19.564,3h-9.131C9.859,3,9.641,3.4,9.945,3.889l0.849,1.368
		c0.306,0.486,0.085,0.888-0.489,0.888H7.174c-0.572,0-0.795-0.4-0.49-0.888l0.851-1.368C7.838,3.4,7.616,3,7.042,3H3.924
		C3.413,3,3,3.41,3,3.917v20.166C3,24.59,3.413,25,3.924,25h22.153C26.588,25,27,24.59,27,24.083V3.917C27,3.41,26.588,3,26.077,3z
		 M13.247,19.652C12.355,20.52,10.893,20.7,9.82,20.7c-0.909,0-1.896-0.128-2.781-0.36c-0.088-0.023-0.148-0.104-0.148-0.193v-1.502
		c0-0.061,0.027-0.119,0.075-0.156c0.035-0.027,0.079-0.043,0.124-0.043c0.016,0,0.03,0.002,0.047,0.006
		c0.74,0.173,1.572,0.367,2.299,0.367c0.568,0,0.986-0.115,1.278-0.353c0.347-0.28,0.515-0.733,0.515-1.387
		c0-1.358-0.707-1.752-3.146-1.752c-0.109,0-0.2-0.091-0.2-0.2v-1.424c0-0.109,0.091-0.2,0.2-0.2c2.332,0,3.006-0.353,3.006-1.567
		c0-0.455-0.127-0.774-0.39-0.977c-0.237-0.182-0.599-0.273-1.074-0.273c-0.547,0-1.228,0.114-2.14,0.361
		c-0.018,0.004-0.034,0.008-0.053,0.008c-0.043,0-0.086-0.016-0.121-0.041c-0.049-0.039-0.078-0.098-0.078-0.16V9.35
		c0-0.092,0.063-0.172,0.15-0.193C8.313,8.923,9.27,8.8,10.146,8.8c1.16,0,2.092,0.212,2.699,0.609
		c0.822,0.54,1.286,1.687,1.131,2.786c-0.138,0.957-0.707,1.724-1.593,2.166c1.042,0.379,1.485,1.137,1.673,1.752
		C14.462,17.441,13.963,18.956,13.247,19.652z M24.2,20.516c0,0.11-0.091,0.2-0.2,0.2h-7c-0.109,0-0.2-0.09-0.2-0.2V19
		c0-0.109,0.091-0.2,0.2-0.2h1.8v-6.995l-1.748,0.471c-0.017,0.004-0.034,0.008-0.052,0.008c-0.044,0-0.086-0.016-0.122-0.041
		c-0.049-0.038-0.078-0.098-0.078-0.159v-1.612c0-0.08,0.048-0.152,0.121-0.185l3.394-1.47L22,8.8c0.109,0,0.2,0.091,0.2,0.2v9.8H24
		c0.109,0,0.2,0.091,0.2,0.2V20.516z"/>
	<path opacity="0.15" d="M3.924,27C2.863,27,2,26.14,2,25.083V4.917C2,3.86,2.863,3,3.924,3h3.118c0.647,0,2.745,0,3.392,0h9.131
		c0.646,0,2.743,0,3.392,0h3.121C27.138,3,28,3.86,28,4.917v20.166C28,26.14,27.138,27,26.077,27H3.924z"/>
	<path opacity="0.15" d="M26.077,4h-3.121c-0.573,0-0.796,0.4-0.488,0.889l0.847,1.368c0.308,0.486,0.086,0.888-0.487,0.888h-3.132
		c-0.573,0-0.795-0.4-0.489-0.888l0.849-1.368C20.357,4.4,20.139,4,19.564,4h-9.131C9.859,4,9.641,4.4,9.945,4.889l0.849,1.368
		c0.306,0.486,0.085,0.888-0.489,0.888H7.174c-0.572,0-0.795-0.4-0.49-0.888l0.851-1.368C7.838,4.4,7.616,4,7.042,4H3.924
		C3.413,4,3,4.41,3,4.917v20.166C3,25.59,3.413,26,3.924,26h22.153C26.588,26,27,25.59,27,25.083V4.917C27,4.41,26.588,4,26.077,4z
		 M13.247,20.652C12.355,21.52,10.893,21.7,9.82,21.7c-0.909,0-1.896-0.128-2.781-0.36c-0.088-0.023-0.148-0.104-0.148-0.193v-1.502
		c0-0.061,0.027-0.119,0.075-0.156c0.035-0.027,0.079-0.043,0.124-0.043c0.016,0,0.03,0.002,0.047,0.006
		c0.74,0.173,1.572,0.367,2.299,0.367c0.568,0,0.986-0.115,1.278-0.353c0.347-0.28,0.515-0.733,0.515-1.387
		c0-1.358-0.707-1.752-3.146-1.752c-0.109,0-0.2-0.091-0.2-0.2v-1.424c0-0.109,0.091-0.2,0.2-0.2c2.332,0,3.006-0.353,3.006-1.567
		c0-0.455-0.127-0.774-0.39-0.977c-0.237-0.182-0.599-0.273-1.074-0.273c-0.547,0-1.228,0.114-2.14,0.361
		c-0.018,0.004-0.034,0.008-0.053,0.008c-0.043,0-0.086-0.016-0.121-0.041c-0.049-0.039-0.078-0.098-0.078-0.16V10.35
		c0-0.092,0.063-0.172,0.15-0.193C8.313,9.923,9.27,9.8,10.146,9.8c1.16,0,2.092,0.212,2.699,0.609
		c0.822,0.54,1.286,1.687,1.131,2.786c-0.138,0.957-0.707,1.724-1.593,2.166c1.042,0.379,1.485,1.137,1.673,1.752
		C14.462,18.441,13.963,19.956,13.247,20.652z M24.2,21.516c0,0.11-0.091,0.2-0.2,0.2h-7c-0.109,0-0.2-0.09-0.2-0.2V20
		c0-0.109,0.091-0.2,0.2-0.2h1.8v-6.995l-1.748,0.471c-0.017,0.004-0.034,0.008-0.052,0.008c-0.044,0-0.086-0.016-0.122-0.041
		c-0.049-0.038-0.078-0.098-0.078-0.159v-1.612c0-0.08,0.048-0.152,0.121-0.185l3.394-1.47L22,9.8c0.109,0,0.2,0.091,0.2,0.2v9.8H24
		c0.109,0,0.2,0.091,0.2,0.2V21.516z"/>
	<path fill="#FFFFFF" d="M26.077,4h-3.121c-0.573,0-0.796,0.4-0.488,0.889l0.847,1.368c0.308,0.486,0.086,0.888-0.487,0.888h-3.132
		c-0.573,0-0.795-0.4-0.489-0.888l0.849-1.368C20.357,4.4,20.139,4,19.564,4h-9.131C9.859,4,9.641,4.4,9.945,4.889l0.849,1.368
		c0.306,0.486,0.085,0.888-0.489,0.888H7.174c-0.572,0-0.795-0.4-0.49-0.888l0.851-1.368C7.838,4.4,7.616,4,7.042,4H3.924
		C3.413,4,3,4.41,3,4.917v20.166C3,25.59,3.413,26,3.924,26h22.153C26.588,26,27,25.59,27,25.083V4.917C27,4.41,26.588,4,26.077,4z
		 M13.247,20.652C12.355,21.52,10.893,21.7,9.82,21.7c-0.909,0-1.896-0.128-2.781-0.36c-0.088-0.023-0.148-0.104-0.148-0.193v-1.502
		c0-0.061,0.027-0.119,0.075-0.156c0.035-0.027,0.079-0.043,0.124-0.043c0.016,0,0.03,0.002,0.047,0.006
		c0.74,0.173,1.572,0.367,2.299,0.367c0.568,0,0.986-0.115,1.278-0.353c0.347-0.28,0.515-0.733,0.515-1.387
		c0-1.358-0.707-1.752-3.146-1.752c-0.109,0-0.2-0.091-0.2-0.2v-1.424c0-0.109,0.091-0.2,0.2-0.2c2.332,0,3.006-0.353,3.006-1.567
		c0-0.455-0.127-0.774-0.39-0.977c-0.237-0.182-0.599-0.273-1.074-0.273c-0.547,0-1.228,0.114-2.14,0.361
		c-0.018,0.004-0.034,0.008-0.053,0.008c-0.043,0-0.086-0.016-0.121-0.041c-0.049-0.039-0.078-0.098-0.078-0.16V10.35
		c0-0.092,0.063-0.172,0.15-0.193C8.313,9.923,9.27,9.8,10.146,9.8c1.16,0,2.092,0.212,2.699,0.609
		c0.822,0.54,1.286,1.687,1.131,2.786c-0.138,0.957-0.707,1.724-1.593,2.166c1.042,0.379,1.485,1.137,1.673,1.752
		C14.462,18.441,13.963,19.956,13.247,20.652z M24.2,21.516c0,0.11-0.091,0.2-0.2,0.2h-7c-0.109,0-0.2-0.09-0.2-0.2V20
		c0-0.109,0.091-0.2,0.2-0.2h1.8v-6.995l-1.748,0.471c-0.017,0.004-0.034,0.008-0.052,0.008c-0.044,0-0.086-0.016-0.122-0.041
		c-0.049-0.038-0.078-0.098-0.078-0.159v-1.612c0-0.08,0.048-0.152,0.121-0.185l3.394-1.47L22,9.8c0.109,0,0.2,0.091,0.2,0.2v9.8H24
		c0.109,0,0.2,0.091,0.2,0.2V21.516z"/>
</g>
</svg>
