<?xml version="1.0" encoding="utf-8"?>
<!-- Generator: Adobe Illustrator 15.0.0, SVG Export Plug-In . SVG Version: 6.00 Build 0)  -->
<!DOCTYPE svg PUBLIC "-//W3C//DTD SVG 1.1//EN" "http://www.w3.org/Graphics/SVG/1.1/DTD/svg11.dtd">
<svg version="1.1" xmlns="http://www.w3.org/2000/svg" xmlns:xlink="http://www.w3.org/1999/xlink" x="0px" y="0px" width="30px"
	 height="30px" viewBox="0 0 30 30" enable-background="new 0 0 30 30" xml:space="preserve">
<g id="DO_NOT_EDIT_-_BOUNDING_BOX">
	<rect id="BOUNDING_BOX" fill="none" width="30" height="30"/>
</g>
<g id="PLACE_YOUR_GRAPHIC_HERE">
	<path opacity="0.3" d="M18.5,18.5h-3v2h3V18.5z M18.5,12.5h-3v2h3V12.5z M14.5,12.5h-3v2h3V12.5z M22.5,12.5h-3v2h3V12.5z
		 M22.5,18.5h-3v2h3V18.5z M22.5,15.5h-3v2h3V15.5z M10.5,12.5h-3v2h3V12.5z M10.5,18.5h-3v2h3V18.5z M26.077,3h-3.121
		c-0.573,0-0.796,0.401-0.488,0.889l0.847,1.368c0.307,0.486,0.086,0.887-0.488,0.887h-3.131c-0.574,0-0.795-0.4-0.49-0.887
		l0.849-1.368C20.358,3.401,20.139,3,19.564,3h-9.131C9.859,3,9.641,3.401,9.945,3.889l0.849,1.368
		c0.304,0.486,0.085,0.887-0.489,0.887H7.174c-0.573,0-0.795-0.4-0.49-0.887l0.85-1.368C7.838,3.401,7.615,3,7.042,3H3.924
		C3.413,3,3,3.41,3,3.917v20.166C3,24.59,3.413,25,3.924,25h22.153C26.588,25,27,24.59,27,24.083V3.917C27,3.41,26.588,3,26.077,3z
		 M23.5,21.5h-17v-10h17V21.5z M14.5,15.5h-3v2h3V15.5z M10.5,15.5h-3v2h3V15.5z M14.5,18.5h-3v2h3V18.5z"/>
	<path opacity="0.15" d="M3.924,27C2.863,27,2,26.14,2,25.083V4.917C2,3.86,2.863,3,3.924,3h3.118c0.647,0,2.745,0,3.392,0h9.131
		c0.647,0,2.743,0,3.392,0h3.121C27.138,3,28,3.86,28,4.917v20.166C28,26.14,27.138,27,26.077,27H3.924z"/>
	<path opacity="0.15" d="M18.5,19.5h-3v2h3V19.5z M18.5,13.5h-3v2h3V13.5z M14.5,13.5h-3v2h3V13.5z M22.5,13.5h-3v2h3V13.5z
		 M22.5,19.5h-3v2h3V19.5z M22.5,16.5h-3v2h3V16.5z M10.5,13.5h-3v2h3V13.5z M10.5,19.5h-3v2h3V19.5z M26.077,4h-3.121
		c-0.573,0-0.796,0.401-0.488,0.889l0.847,1.368c0.307,0.486,0.086,0.887-0.488,0.887h-3.131c-0.574,0-0.795-0.4-0.49-0.887
		l0.849-1.368C20.358,4.401,20.139,4,19.564,4h-9.131C9.859,4,9.641,4.401,9.945,4.889l0.849,1.368
		c0.304,0.486,0.085,0.887-0.489,0.887H7.174c-0.573,0-0.795-0.4-0.49-0.887l0.85-1.368C7.838,4.401,7.615,4,7.042,4H3.924
		C3.413,4,3,4.41,3,4.917v20.166C3,25.59,3.413,26,3.924,26h22.153C26.588,26,27,25.59,27,25.083V4.917C27,4.41,26.588,4,26.077,4z
		 M23.5,22.5h-17v-10h17V22.5z M14.5,16.5h-3v2h3V16.5z M10.5,16.5h-3v2h3V16.5z M14.5,19.5h-3v2h3V19.5z"/>
	<path fill="#FFFFFF" d="M18.5,19.5h-3v2h3V19.5z M18.5,13.5h-3v2h3V13.5z M14.5,13.5h-3v2h3V13.5z M22.5,13.5h-3v2h3V13.5z
		 M22.5,19.5h-3v2h3V19.5z M22.5,16.5h-3v2h3V16.5z M10.5,13.5h-3v2h3V13.5z M10.5,19.5h-3v2h3V19.5z M26.077,4h-3.121
		c-0.573,0-0.796,0.401-0.488,0.889l0.847,1.368c0.307,0.486,0.086,0.887-0.488,0.887h-3.131c-0.574,0-0.795-0.4-0.49-0.887
		l0.849-1.368C20.358,4.401,20.139,4,19.564,4h-9.131C9.859,4,9.641,4.401,9.945,4.889l0.849,1.368
		c0.304,0.486,0.085,0.887-0.489,0.887H7.174c-0.573,0-0.795-0.4-0.49-0.887l0.85-1.368C7.838,4.401,7.615,4,7.042,4H3.924
		C3.413,4,3,4.41,3,4.917v20.166C3,25.59,3.413,26,3.924,26h22.153C26.588,26,27,25.59,27,25.083V4.917C27,4.41,26.588,4,26.077,4z
		 M23.5,22.5h-17v-10h17V22.5z M14.5,16.5h-3v2h3V16.5z M10.5,16.5h-3v2h3V16.5z M14.5,19.5h-3v2h3V19.5z"/>
</g>
</svg>
