<?xml version="1.0" encoding="utf-8"?>
<!-- Generator: Adobe Illustrator 15.0.0, SVG Export Plug-In . SVG Version: 6.00 Build 0)  -->
<!DOCTYPE svg PUBLIC "-//W3C//DTD SVG 1.1//EN" "http://www.w3.org/Graphics/SVG/1.1/DTD/svg11.dtd">
<svg version="1.1" xmlns="http://www.w3.org/2000/svg" xmlns:xlink="http://www.w3.org/1999/xlink" x="0px" y="0px" width="30px"
	 height="30px" viewBox="0 0 30 30" enable-background="new 0 0 30 30" xml:space="preserve">
<g id="DO_NOT_EDIT_-_BOUNDING_BOX">
	<rect id="BOUNDING_BOX" fill="none" width="30" height="30"/>
</g>
<g id="PLACE_YOUR_GRAPHIC_HERE">
	<g>
		<path opacity="0.3" d="M11,11c0-0.55-0.45-1-1-1H7c-0.55,0-1,0.45-1,1v6H2l6.5,10L15,17h-4V11z M21.5,1L15,11h4v6
			c0,0.551,0.449,1,1,1h3c0.549,0,1-0.449,1-1v-6h4L21.5,1z"/>
		<path opacity="0.15" d="M8.5,29c-0.338,0-0.654-0.171-0.838-0.455l-6.5-10c-0.2-0.308-0.215-0.699-0.041-1.021S1.633,17,2,17h3v-5
			c0-1.103,0.897-2,2-2h3c1.103,0,2,0.897,2,2v5h3c0.367,0,0.704,0.201,0.879,0.523s0.159,0.714-0.041,1.021l-6.5,10
			C9.154,28.829,8.838,29,8.5,29z M20,20c-1.103,0-2-0.897-2-2v-5h-3c-0.367,0-0.704-0.201-0.879-0.523s-0.159-0.714,0.041-1.022
			l6.5-10C20.846,1.171,21.161,1,21.5,1s0.654,0.171,0.839,0.455l6.5,10c0.199,0.308,0.215,0.7,0.04,1.022S28.367,13,28,13h-3v5
			c0,1.103-0.897,2-2,2H20z"/>
		<path opacity="0.15" d="M11,12c0-0.55-0.45-1-1-1H7c-0.55,0-1,0.45-1,1v6H2l6.5,10L15,18h-4V12z M21.5,2L15,12h4v6
			c0,0.551,0.449,1,1,1h3c0.549,0,1-0.449,1-1v-6h4L21.5,2z"/>
		<path fill="#FFFFFF" d="M11,12c0-0.55-0.45-1-1-1H7c-0.55,0-1,0.45-1,1v6H2l6.5,10L15,18h-4V12z M21.5,2L15,12h4v6
			c0,0.551,0.449,1,1,1h3c0.549,0,1-0.449,1-1v-6h4L21.5,2z"/>
		<rect fill="none" width="30" height="30"/>
	</g>
</g>
</svg>
