<?xml version="1.0" encoding="utf-8"?>
<!-- Generator: Adobe Illustrator 15.0.0, SVG Export Plug-In . SVG Version: 6.00 Build 0)  -->
<!DOCTYPE svg PUBLIC "-//W3C//DTD SVG 1.1//EN" "http://www.w3.org/Graphics/SVG/1.1/DTD/svg11.dtd">
<svg version="1.1" xmlns="http://www.w3.org/2000/svg" xmlns:xlink="http://www.w3.org/1999/xlink" x="0px" y="0px" width="30px"
	 height="30px" viewBox="0 0 30 30" enable-background="new 0 0 30 30" xml:space="preserve">
<g id="DO_NOT_EDIT_-_BOUNDING_BOX">
	<rect id="BOUNDING_BOX" fill="none" width="30" height="30"/>
</g>
<g id="PLACE_YOUR_GRAPHIC_HERE">
	<g>
		<path opacity="0.3" d="M27.189,20.633l-4.314-1.615c-0.982-0.514-1.561,0.168-1.561,0.168l-2.102,1.879
			c0.158-0.184-1.797,2.037-7.469-3.462h-0.002l-0.273-0.274l0.001-0.002c-5.501-5.674-3.28-7.627-3.46-7.469l1.802-2.171
			c0,0,0.685-0.579,0.17-1.56L8.37,1.813c0,0-0.528-0.998-1.437-0.781C0.442,2.578,2.225,9.37,2.225,9.37
			c0.91,4.864,4.668,8.882,5.937,10.118l-0.005,0.008l1.845,1.844l0.009-0.009c1.625,1.559,5.288,4.634,9.621,5.446
			c0,0,6.793,1.779,8.338-4.71C28.186,21.157,27.189,20.633,27.189,20.633z"/>
		<path opacity="0.15" d="M21.652,29.001c-1.283-0.001-2.235-0.246-2.274-0.256c-4.36-0.815-8.064-3.8-9.946-5.583
			c-0.049-0.033-0.095-0.072-0.138-0.115l-1.845-1.844c-0.03-0.029-0.058-0.062-0.083-0.094c-1.318-1.303-5.175-5.481-6.125-10.555
			C1.22,10.48,0.351,7.063,2.042,4.242c0.962-1.605,2.53-2.676,4.659-3.184C6.863,1.02,7.027,1,7.189,1
			c1.315,0,1.992,1.207,2.064,1.344c0.02,0.038,0.038,0.078,0.053,0.118l1.591,4.261c0.61,1.228,0.076,2.223-0.357,2.65
			c0,0-1.716,2.07-1.722,2.078c-0.012,0.019-0.948,1.726,3.369,6.179c0.012,0.013,0.263,0.267,0.263,0.267
			c3.105,3.009,4.873,3.46,5.648,3.46c0.33,0,0.488-0.084,0.522-0.104l1.994-1.782c0.189-0.196,0.716-0.644,1.548-0.644
			c0.372,0,0.746,0.092,1.115,0.274l4.262,1.596c0.039,0.015,0.078,0.032,0.115,0.052c0.625,0.329,1.6,1.236,1.286,2.551
			C27.761,28.26,23.868,29.001,21.652,29.001L21.652,29.001z"/>
		<path opacity="0.15" d="M27.189,21.633l-4.314-1.615c-0.982-0.514-1.561,0.168-1.561,0.168l-2.102,1.879
			c0.158-0.184-1.797,2.037-7.469-3.462h-0.002l-0.273-0.274l0.001-0.002c-5.501-5.674-3.28-7.627-3.46-7.469l1.802-2.171
			c0,0,0.685-0.579,0.17-1.56L8.37,2.813c0,0-0.528-0.998-1.437-0.781C0.442,3.578,2.225,10.37,2.225,10.37
			c0.91,4.864,4.668,8.882,5.937,10.118l-0.005,0.008l1.845,1.844l0.009-0.009c1.625,1.559,5.288,4.634,9.621,5.446
			c0,0,6.793,1.779,8.338-4.71C28.186,22.157,27.189,21.633,27.189,21.633z"/>
		<path fill="#FFFFFF" d="M27.189,21.633l-4.314-1.615c-0.982-0.514-1.561,0.168-1.561,0.168l-2.102,1.879
			c0.158-0.184-1.797,2.037-7.469-3.462h-0.002l-0.273-0.274l0.001-0.002c-5.501-5.674-3.28-7.627-3.46-7.469l1.802-2.171
			c0,0,0.685-0.579,0.17-1.56L8.37,2.813c0,0-0.528-0.998-1.437-0.781C0.442,3.578,2.225,10.37,2.225,10.37
			c0.91,4.864,4.668,8.882,5.937,10.118l-0.005,0.008l1.845,1.844l0.009-0.009c1.625,1.559,5.288,4.634,9.621,5.446
			c0,0,6.793,1.779,8.338-4.71C28.186,22.157,27.189,21.633,27.189,21.633z"/>
		<rect fill="none" width="30" height="30"/>
	</g>
</g>
</svg>
