<?xml version="1.0" encoding="utf-8"?>
<!-- Generator: Adobe Illustrator 15.0.0, SVG Export Plug-In . SVG Version: 6.00 Build 0)  -->
<!DOCTYPE svg PUBLIC "-//W3C//DTD SVG 1.1//EN" "http://www.w3.org/Graphics/SVG/1.1/DTD/svg11.dtd">
<svg version="1.1" xmlns="http://www.w3.org/2000/svg" xmlns:xlink="http://www.w3.org/1999/xlink" x="0px" y="0px" width="30px"
	 height="30px" viewBox="0 0 30 30" enable-background="new 0 0 30 30" xml:space="preserve">
<g id="DO_NOT_EDIT_-_BOUNDING_BOX">
	<rect id="BOUNDING_BOX" fill="none" width="30" height="30"/>
</g>
<g id="PLACE_YOUR_GRAPHIC_HERE">
	<g>
		<path opacity="0.3" d="M15.09,4.11v3.883H6.238c-0.698,0-1.264,0.566-1.264,1.265v3.703H29L15.09,4.11z M15.09,23.89v-3.885
			l8.671-0.089c0.698,0,1.264-0.566,1.264-1.265v-3.703H1L15.09,23.89z"/>
		<path opacity="0.15" d="M15.09,25.89c-0.187,0-0.373-0.052-0.536-0.155l-14.09-8.941c-0.376-0.238-0.549-0.696-0.425-1.124
			S0.555,14.948,1,14.948h3.814c-0.477-0.077-0.84-0.489-0.84-0.987v-3.703c0-1.249,1.016-2.265,2.264-2.265h7.852V5.11
			c0-0.365,0.199-0.701,0.519-0.876c0.15-0.083,0.316-0.124,0.481-0.124c0.187,0,0.374,0.052,0.537,0.156l13.91,8.851
			c0.375,0.239,0.547,0.696,0.423,1.124c-0.124,0.427-0.516,0.72-0.96,0.72h-3.814c0.476,0.077,0.84,0.489,0.84,0.987v3.703
			c0,1.249-1.016,2.265-2.264,2.265l-7.672,0.079v2.895c0,0.365-0.198,0.7-0.518,0.876C15.422,25.849,15.256,25.89,15.09,25.89z"/>
		<path opacity="0.15" d="M15.09,5.11v3.883H6.238c-0.698,0-1.264,0.566-1.264,1.265v3.703H29L15.09,5.11z M15.09,24.89v-3.885
			l8.671-0.089c0.698,0,1.264-0.566,1.264-1.265v-3.703H1L15.09,24.89z"/>
		<path fill="#FFFFFF" d="M15.09,5.11v3.883H6.238c-0.698,0-1.264,0.566-1.264,1.265v3.703H29L15.09,5.11z M15.09,24.89v-3.885
			l8.671-0.089c0.698,0,1.264-0.566,1.264-1.265v-3.703H1L15.09,24.89z"/>
		<rect fill="none" width="30" height="30"/>
	</g>
</g>
</svg>
