<?xml version="1.0" encoding="utf-8"?>
<!-- Generator: Adobe Illustrator 15.0.0, SVG Export Plug-In . SVG Version: 6.00 Build 0)  -->
<!DOCTYPE svg PUBLIC "-//W3C//DTD SVG 1.1//EN" "http://www.w3.org/Graphics/SVG/1.1/DTD/svg11.dtd">
<svg version="1.1" xmlns="http://www.w3.org/2000/svg" xmlns:xlink="http://www.w3.org/1999/xlink" x="0px" y="0px" width="30px"
	 height="30px" viewBox="0 0 30 30" enable-background="new 0 0 30 30" xml:space="preserve">
<g id="DO_NOT_EDIT_-_BOUNDING_BOX">
	<rect id="BOUNDING_BOX" fill="none" width="30" height="30"/>
</g>
<g id="PLACE_YOUR_GRAPHIC_HERE">
	<path opacity="0.3" d="M12,26c0,0.552,0.447,1,1,1h4c0.553,0,1-0.448,1-1v-3h-6V26z M12,20h6v-4h-6V20z M4,3v3h6V2H5
		C4.447,2,4,2.448,4,3z M4,19c0,0.553,0.447,1,1,1h5v-4H4V19z M4,13h6V9H4V13z M12,6h6V2h-6V6z M20,13h6V9h-6V13z M25,2h-5v4h6V3
		C26,2.448,25.553,2,25,2z M20,20h5c0.553,0,1-0.447,1-1v-3h-6V20z M12,13h6V9h-6V13z"/>
	<path opacity="0.15" d="M13,29c-1.103,0-2-0.897-2-2v-3c0-0.553,0.448-1,1-1h6c0.553,0,1,0.447,1,1v3c0,1.103-0.897,2-2,2H13z
		 M20,22c-0.553,0-1-0.447-1-1c0,0.553-0.447,1-1,1h-6c-0.552,0-1-0.447-1-1c0,0.553-0.448,1-1,1H5c-1.103,0-2-0.897-2-2v-3
		c0-0.553,0.448-1,1-1h6c0.552,0,1,0.447,1,1c0-0.553,0.448-1,1-1h6c0.553,0,1,0.447,1,1c0-0.553,0.447-1,1-1h6c0.553,0,1,0.447,1,1
		v3c0,1.103-0.897,2-2,2H20z M20,15c-0.553,0-1-0.448-1-1c0,0.552-0.447,1-1,1h-6c-0.552,0-1-0.448-1-1c0,0.552-0.448,1-1,1H4
		c-0.552,0-1-0.448-1-1v-4c0-0.552,0.448-1,1-1h6c0.552,0,1,0.448,1,1c0-0.552,0.448-1,1-1h6c0.553,0,1,0.448,1,1
		c0-0.552,0.447-1,1-1h6c0.553,0,1,0.448,1,1v4c0,0.552-0.447,1-1,1H20z M20,8c-0.553,0-1-0.448-1-1c0,0.552-0.447,1-1,1h-6
		c-0.552,0-1-0.448-1-1c0,0.552-0.448,1-1,1H4C3.448,8,3,7.552,3,7V4c0-1.103,0.897-2,2-2h5c0.552,0,1,0.448,1,1
		c0-0.552,0.448-1,1-1h6c0.553,0,1,0.448,1,1c0-0.552,0.447-1,1-1h5c1.103,0,2,0.897,2,2v3c0,0.552-0.447,1-1,1H20z"/>
	<path opacity="0.15" d="M12,27c0,0.552,0.447,1,1,1h4c0.553,0,1-0.448,1-1v-3h-6V27z M12,21h6v-4h-6V21z M4,4v3h6V3H5
		C4.447,3,4,3.448,4,4z M4,20c0,0.553,0.447,1,1,1h5v-4H4V20z M4,14h6v-4H4V14z M12,7h6V3h-6V7z M20,14h6v-4h-6V14z M25,3h-5v4h6V4
		C26,3.448,25.553,3,25,3z M20,21h5c0.553,0,1-0.447,1-1v-3h-6V21z M12,14h6v-4h-6V14z"/>
	<path fill="#FFFFFF" d="M12,27c0,0.552,0.447,1,1,1h4c0.553,0,1-0.448,1-1v-3h-6V27z M12,21h6v-4h-6V21z M4,4v3h6V3H5
		C4.447,3,4,3.448,4,4z M4,20c0,0.553,0.447,1,1,1h5v-4H4V20z M4,14h6v-4H4V14z M12,7h6V3h-6V7z M20,14h6v-4h-6V14z M25,3h-5v4h6V4
		C26,3.448,25.553,3,25,3z M20,21h5c0.553,0,1-0.447,1-1v-3h-6V21z M12,14h6v-4h-6V14z"/>
</g>
</svg>
