<?xml version="1.0" encoding="utf-8"?>
<!-- Generator: Adobe Illustrator 15.0.0, SVG Export Plug-In . SVG Version: 6.00 Build 0)  -->
<!DOCTYPE svg PUBLIC "-//W3C//DTD SVG 1.1//EN" "http://www.w3.org/Graphics/SVG/1.1/DTD/svg11.dtd">
<svg version="1.1" xmlns="http://www.w3.org/2000/svg" xmlns:xlink="http://www.w3.org/1999/xlink" x="0px" y="0px" width="30px"
	 height="30px" viewBox="0 0 30 30" enable-background="new 0 0 30 30" xml:space="preserve">
<g id="DO_NOT_EDIT_-_BOUNDING_BOX">
	<rect id="BOUNDING_BOX" fill="none" width="30" height="30"/>
</g>
<g id="PLACE_YOUR_GRAPHIC_HERE">
	<g>
		<path opacity="0.3" d="M25.957,0H4.044C3.471,0,3,0.47,3,1.044V3.13c0,0.574,0.471,1.044,1.044,1.044h21.913
			C26.531,4.174,27,3.704,27,3.13V1.044C27,0.47,26.531,0,25.957,0z M21.429,14H19c-0.55,0-1-0.45-1-1V7c0-0.55-0.45-1-1-1h-4
			c-0.55,0-1,0.45-1,1v6c0,0.55-0.45,1-1,1H8.571c-0.55,0-0.777,0.391-0.504,0.868l2.724,4.764c0.273,0.478,0.719,1.259,0.992,1.736
			l2.721,4.764c0.273,0.478,0.719,0.478,0.992,0l2.722-4.764c0.272-0.478,0.72-1.259,0.992-1.736l2.723-4.764
			C22.205,14.391,21.979,14,21.429,14z"/>
		<rect fill="none" width="30" height="30"/>
		<path opacity="0.15" d="M15,28.49c-0.554,0-1.051-0.314-1.364-0.862L7.199,16.364c-0.312-0.545-0.331-1.132-0.053-1.611
			C7.423,14.274,7.943,14,8.571,14H11V8c0-0.813,0.487-1.514,1.185-1.826H4.044C2.917,6.174,2,5.257,2,4.13V2.044
			C2,0.917,2.917,0,4.044,0h21.913C27.084,0,28,0.917,28,2.044V4.13c0,1.127-0.916,2.044-2.043,2.044h-8.142
			C18.513,6.486,19,7.188,19,8v6h2.429c0.628,0,1.147,0.274,1.425,0.752c0.278,0.479,0.259,1.066-0.053,1.611l-6.437,11.265
			C16.051,28.176,15.554,28.49,15,28.49z"/>
		<path opacity="0.15" d="M25.957,1H4.044C3.471,1,3,1.47,3,2.044V4.13c0,0.574,0.471,1.044,1.044,1.044h21.913
			C26.531,5.174,27,4.704,27,4.13V2.044C27,1.47,26.531,1,25.957,1z M21.429,15H19c-0.55,0-1-0.45-1-1V8c0-0.55-0.45-1-1-1h-4
			c-0.55,0-1,0.45-1,1v6c0,0.55-0.45,1-1,1H8.571c-0.55,0-0.777,0.391-0.504,0.868l2.724,4.764c0.273,0.478,0.719,1.259,0.992,1.736
			l2.721,4.764c0.273,0.478,0.719,0.478,0.992,0l2.722-4.764c0.272-0.478,0.72-1.259,0.992-1.736l2.723-4.764
			C22.205,15.391,21.979,15,21.429,15z"/>
		<path fill="#FFFFFF" d="M25.957,1H4.044C3.471,1,3,1.47,3,2.044V4.13c0,0.574,0.471,1.044,1.044,1.044h21.913
			C26.531,5.174,27,4.704,27,4.13V2.044C27,1.47,26.531,1,25.957,1z M21.429,15H19c-0.55,0-1-0.45-1-1V8c0-0.55-0.45-1-1-1h-4
			c-0.55,0-1,0.45-1,1v6c0,0.55-0.45,1-1,1H8.571c-0.55,0-0.777,0.391-0.504,0.868l2.724,4.764c0.273,0.478,0.719,1.259,0.992,1.736
			l2.721,4.764c0.273,0.478,0.719,0.478,0.992,0l2.722-4.764c0.272-0.478,0.72-1.259,0.992-1.736l2.723-4.764
			C22.205,15.391,21.979,15,21.429,15z"/>
	</g>
</g>
</svg>
