<?xml version="1.0" encoding="utf-8"?>
<!-- Generator: Adobe Illustrator 15.0.0, SVG Export Plug-In . SVG Version: 6.00 Build 0)  -->
<!DOCTYPE svg PUBLIC "-//W3C//DTD SVG 1.1//EN" "http://www.w3.org/Graphics/SVG/1.1/DTD/svg11.dtd">
<svg version="1.1" xmlns="http://www.w3.org/2000/svg" xmlns:xlink="http://www.w3.org/1999/xlink" x="0px" y="0px" width="30px"
	 height="30px" viewBox="0 0 30 30" enable-background="new 0 0 30 30" xml:space="preserve">
<g id="DO_NOT_EDIT_-_BOUNDING_BOX">
	<rect id="BOUNDING_BOX" fill="none" width="30" height="30"/>
</g>
<g id="PLACE_YOUR_GRAPHIC_HERE">
	<path opacity="0.3" d="M25,1H5C4.451,1,4,1.45,4,2v24c0,0.55,0.451,1,1,1h20c0.551,0,1-0.45,1-1V2C26,1.45,25.551,1,25,1z
		 M10.191,21H7.904c-0.553,0-1-0.447-1-1s0.447-1,1-1h2.287c0.553,0,1,0.447,1,1S10.744,21,10.191,21z M10.191,17H7.904
		c-0.553,0-1-0.447-1-1s0.447-1,1-1h2.287c0.553,0,1,0.447,1,1S10.744,17,10.191,17z M10.191,13H7.904c-0.553,0-1-0.447-1-1
		s0.447-1,1-1h2.287c0.553,0,1,0.447,1,1S10.744,13,10.191,13z M10.191,9H7.904c-0.553,0-1-0.447-1-1s0.447-1,1-1h2.287
		c0.553,0,1,0.447,1,1S10.744,9,10.191,9z M16.191,21h-2.288c-0.553,0-1-0.447-1-1s0.447-1,1-1h2.288c0.553,0,1,0.447,1,1
		S16.744,21,16.191,21z M16.191,17h-2.288c-0.553,0-1-0.447-1-1s0.447-1,1-1h2.288c0.553,0,1,0.447,1,1S16.744,17,16.191,17z
		 M16.191,13h-2.288c-0.553,0-1-0.447-1-1s0.447-1,1-1h2.288c0.553,0,1,0.447,1,1S16.744,13,16.191,13z M16.191,9h-2.288
		c-0.553,0-1-0.447-1-1s0.447-1,1-1h2.288c0.553,0,1,0.447,1,1S16.744,9,16.191,9z M22.191,21h-2.287c-0.553,0-1-0.447-1-1
		s0.447-1,1-1h2.287c0.553,0,1,0.447,1,1S22.744,21,22.191,21z M22.191,17h-2.287c-0.553,0-1-0.447-1-1s0.447-1,1-1h2.287
		c0.553,0,1,0.447,1,1S22.744,17,22.191,17z M22.191,13h-2.287c-0.553,0-1-0.447-1-1s0.447-1,1-1h2.287c0.553,0,1,0.447,1,1
		S22.744,13,22.191,13z M22.191,9h-2.287c-0.553,0-1-0.447-1-1s0.447-1,1-1h2.287c0.553,0,1,0.447,1,1S22.744,9,22.191,9z"/>
	<path opacity="0.15" d="M5,29c-1.103,0-2-0.897-2-2V3c0-1.103,0.897-2,2-2h20c1.103,0,2,0.897,2,2v24c0,1.103-0.897,2-2,2H5z
		 M19.902,21h2.289h-2.287H19.902z M13.902,21h2.289h-2.288H13.902z M7.902,21h2.289H7.904H7.902z M19.902,17h2.289h-2.287H19.902z
		 M13.902,17h2.289h-2.288H13.902z M7.902,17h2.289H7.904H7.902z M19.902,13h2.289h-2.287H19.902z M13.902,13h2.289h-2.288H13.902z
		 M7.902,13h2.289H7.904H7.902z M19.902,9h2.289h-2.287H19.902z M13.902,9h2.289h-2.288H13.902z M7.902,9h2.289H7.904H7.902z"/>
	<path opacity="0.15" d="M25,2H5C4.451,2,4,2.45,4,3v24c0,0.55,0.451,1,1,1h20c0.551,0,1-0.45,1-1V3C26,2.45,25.551,2,25,2z
		 M10.191,22H7.904c-0.553,0-1-0.447-1-1s0.447-1,1-1h2.287c0.553,0,1,0.447,1,1S10.744,22,10.191,22z M10.191,18H7.904
		c-0.553,0-1-0.447-1-1s0.447-1,1-1h2.287c0.553,0,1,0.447,1,1S10.744,18,10.191,18z M10.191,14H7.904c-0.553,0-1-0.447-1-1
		s0.447-1,1-1h2.287c0.553,0,1,0.447,1,1S10.744,14,10.191,14z M10.191,10H7.904c-0.553,0-1-0.447-1-1s0.447-1,1-1h2.287
		c0.553,0,1,0.447,1,1S10.744,10,10.191,10z M16.191,22h-2.288c-0.553,0-1-0.447-1-1s0.447-1,1-1h2.288c0.553,0,1,0.447,1,1
		S16.744,22,16.191,22z M16.191,18h-2.288c-0.553,0-1-0.447-1-1s0.447-1,1-1h2.288c0.553,0,1,0.447,1,1S16.744,18,16.191,18z
		 M16.191,14h-2.288c-0.553,0-1-0.447-1-1s0.447-1,1-1h2.288c0.553,0,1,0.447,1,1S16.744,14,16.191,14z M16.191,10h-2.288
		c-0.553,0-1-0.447-1-1s0.447-1,1-1h2.288c0.553,0,1,0.447,1,1S16.744,10,16.191,10z M22.191,22h-2.287c-0.553,0-1-0.447-1-1
		s0.447-1,1-1h2.287c0.553,0,1,0.447,1,1S22.744,22,22.191,22z M22.191,18h-2.287c-0.553,0-1-0.447-1-1s0.447-1,1-1h2.287
		c0.553,0,1,0.447,1,1S22.744,18,22.191,18z M22.191,14h-2.287c-0.553,0-1-0.447-1-1s0.447-1,1-1h2.287c0.553,0,1,0.447,1,1
		S22.744,14,22.191,14z M22.191,10h-2.287c-0.553,0-1-0.447-1-1s0.447-1,1-1h2.287c0.553,0,1,0.447,1,1S22.744,10,22.191,10z"/>
	<path fill="#FFFFFF" d="M25,2H5C4.451,2,4,2.45,4,3v24c0,0.55,0.451,1,1,1h20c0.551,0,1-0.45,1-1V3C26,2.45,25.551,2,25,2z
		 M10.191,22H7.904c-0.553,0-1-0.447-1-1s0.447-1,1-1h2.287c0.553,0,1,0.447,1,1S10.744,22,10.191,22z M10.191,18H7.904
		c-0.553,0-1-0.447-1-1s0.447-1,1-1h2.287c0.553,0,1,0.447,1,1S10.744,18,10.191,18z M10.191,14H7.904c-0.553,0-1-0.447-1-1
		s0.447-1,1-1h2.287c0.553,0,1,0.447,1,1S10.744,14,10.191,14z M10.191,10H7.904c-0.553,0-1-0.447-1-1s0.447-1,1-1h2.287
		c0.553,0,1,0.447,1,1S10.744,10,10.191,10z M16.191,22h-2.288c-0.553,0-1-0.447-1-1s0.447-1,1-1h2.288c0.553,0,1,0.447,1,1
		S16.744,22,16.191,22z M16.191,18h-2.288c-0.553,0-1-0.447-1-1s0.447-1,1-1h2.288c0.553,0,1,0.447,1,1S16.744,18,16.191,18z
		 M16.191,14h-2.288c-0.553,0-1-0.447-1-1s0.447-1,1-1h2.288c0.553,0,1,0.447,1,1S16.744,14,16.191,14z M16.191,10h-2.288
		c-0.553,0-1-0.447-1-1s0.447-1,1-1h2.288c0.553,0,1,0.447,1,1S16.744,10,16.191,10z M22.191,22h-2.287c-0.553,0-1-0.447-1-1
		s0.447-1,1-1h2.287c0.553,0,1,0.447,1,1S22.744,22,22.191,22z M22.191,18h-2.287c-0.553,0-1-0.447-1-1s0.447-1,1-1h2.287
		c0.553,0,1,0.447,1,1S22.744,18,22.191,18z M22.191,14h-2.287c-0.553,0-1-0.447-1-1s0.447-1,1-1h2.287c0.553,0,1,0.447,1,1
		S22.744,14,22.191,14z M22.191,10h-2.287c-0.553,0-1-0.447-1-1s0.447-1,1-1h2.287c0.553,0,1,0.447,1,1S22.744,10,22.191,10z"/>
</g>
</svg>
