<?xml version="1.0" encoding="utf-8"?>
<!-- Generator: Adobe Illustrator 15.0.0, SVG Export Plug-In . SVG Version: 6.00 Build 0)  -->
<!DOCTYPE svg PUBLIC "-//W3C//DTD SVG 1.1//EN" "http://www.w3.org/Graphics/SVG/1.1/DTD/svg11.dtd">
<svg version="1.1" xmlns="http://www.w3.org/2000/svg" xmlns:xlink="http://www.w3.org/1999/xlink" x="0px" y="0px" width="30px"
	 height="30px" viewBox="0 0 30 30" enable-background="new 0 0 30 30" xml:space="preserve">
<g id="DO_NOT_EDIT_-_BOUNDING_BOX">
	<rect id="BOUNDING_BOX" fill="none" width="30" height="30"/>
</g>
<g id="PLACE_YOUR_GRAPHIC_HERE">
	<path opacity="0.3" d="M24,2v2h3v14h-3v2h5V2H24z M6,18H3V4h3V2H1v18h5V18z M22.757,22.577c-1.485-0.896-2.963-1.485-2.963-1.485
		c-0.206-0.083-0.39-0.18-0.552-0.285c-0.91-0.643-1.371-1.783-1.422-1.957c-0.127-0.527-0.239-1.086-0.055-1.266
		c0.918-0.816,1.279-2.766,1.279-2.766c0.023-0.076,0.046-0.146,0.075-0.217c0.448,0.569,0.683-0.769,0.866-1.381
		c0.191-0.65,0.275-1.072,0.275-1.072c0.08-0.656-0.404-0.463-0.404-0.463l-0.039,0.043c0.07-0.916,0.326-1.476,0.326-2.299
		c0.008-1.277,0.31-1.74-0.955-3.693c-0.387-0.604-0.928-0.703-3.168-1.448c-2.23-0.744-2.552,0.2-3.296,0.108
		c-0.738-0.09-0.842,0.219-0.982,0.492c-0.146,0.271,0,0.489-0.408,0.506c-0.404,0.021-0.586,0.342-0.586,0.342
		C9.546,7.727,9.992,8.325,9.953,9.6c-0.022,0.676,0.083,1.18,0.426,2.111l-0.041-0.049c0,0-0.471-0.23-0.435,0.432
		c0,0-0.067,0.205,0.203,1.088c0.158,0.51,0.281,1.922,0.74,1.475c0.016,0.054,0.035,0.109,0.053,0.162c0,0,0.363,1.949,1.281,2.767
		c0.187,0.181,0.068,0.737-0.061,1.267c-0.053,0.198-0.313,1.578-1.932,2.242c0,0-1.475,0.59-2.961,1.484
		c0,0-0.998,0.514-1.207,1.365L6,24.068c0.847,0.498,1.845,0.902,3.002,1.211c2.834,0.757,4.79,0.74,6.11,0.711
		c1.321,0.029,3.274,0.046,6.105-0.711c1.078-0.284,1.994-0.658,2.781-1.107l-0.041-0.229
		C23.752,23.091,22.757,22.577,22.757,22.577z"/>
	<path opacity="0.15" d="M15.89,28c-0.289,0-0.555-0.005-0.799-0.01C14.89,27.995,14.624,28,14.335,28
		c-1.187,0-3.057-0.078-5.591-0.755c-1.232-0.328-2.326-0.771-3.251-1.314c-0.356-0.21-0.547-0.616-0.48-1.024l0.021-0.125
		c0.324-1.334,1.593-2.019,1.736-2.092c1.48-0.894,2.984-1.499,3.047-1.524c0.699-0.286,1.147-0.797,1.322-1.512
		c0.063-0.257,0.103-0.444,0.123-0.572c-0.661-0.733-1.037-1.845-1.216-2.519c-0.527-0.35-0.69-1.136-0.808-1.703
		c-0.031-0.148-0.057-0.285-0.087-0.381c-0.233-0.76-0.275-1.178-0.25-1.446c-0.001-0.345,0.081-0.638,0.244-0.875
		c-0.159-0.579-0.21-1.045-0.192-1.591c0.008-0.259-0.008-0.488-0.023-0.708c-0.072-1.08-0.045-1.973,0.962-3.639
		c0.149-0.264,0.475-0.587,0.936-0.739c0.011-0.022,0.022-0.044,0.034-0.066c0.15-0.301,0.518-1.034,1.622-1.034
		c0.108,0,0.228,0.007,0.361,0.023c-0.003-0.006,0.102-0.049,0.179-0.081C13.338,4.194,13.811,4,14.519,4
		c0.54,0,1.135,0.111,1.819,0.339l0.837,0.275c1.648,0.54,2.331,0.763,2.856,1.582c1.141,1.762,1.189,2.571,1.132,3.693
		c-0.008,0.167-0.018,0.346-0.019,0.546c0,0.544-0.09,0.982-0.177,1.406c-0.015,0.072-0.029,0.142-0.043,0.213
		c0.005,0.006,0.01,0.012,0.016,0.018c0.269,0.303,0.374,0.706,0.313,1.197c-0.012,0.074-0.102,0.53-0.309,1.233
		c-0.028,0.096-0.057,0.204-0.087,0.319c-0.167,0.639-0.384,1.463-0.972,1.783c-0.183,0.672-0.555,1.74-1.205,2.474
		c0.016,0.106,0.048,0.274,0.111,0.537c0.044,0.122,0.42,0.947,1.026,1.374c0.08,0.052,0.206,0.118,0.349,0.175
		c0.061,0.024,1.567,0.63,3.105,1.557c0.086,0.042,1.352,0.728,1.656,1.987l0.054,0.287c0.074,0.417-0.121,0.835-0.488,1.045
		c-0.885,0.505-1.901,0.911-3.022,1.206C18.944,27.922,17.075,28,15.89,28z M24,22c-0.553,0-1-0.447-1-1v-2c0-0.553,0.447-1,1-1h2V6
		h-2c-0.553,0-1-0.448-1-1V3c0-0.552,0.447-1,1-1h5c0.553,0,1,0.448,1,1v18c0,0.553-0.447,1-1,1H24z M1,22c-0.552,0-1-0.447-1-1V3
		c0-0.552,0.448-1,1-1h5c0.552,0,1,0.448,1,1v2c0,0.552-0.448,1-1,1H4v12h2c0.552,0,1,0.447,1,1v2c0,0.553-0.448,1-1,1H1z"/>
	<path opacity="0.15" d="M24,3v2h3v14h-3v2h5V3H24z M6,19H3V5h3V3H1v18h5V19z M22.757,23.577c-1.485-0.896-2.963-1.485-2.963-1.485
		c-0.206-0.083-0.39-0.18-0.552-0.285c-0.91-0.643-1.371-1.783-1.422-1.957c-0.127-0.527-0.239-1.086-0.055-1.266
		c0.918-0.816,1.279-2.766,1.279-2.766c0.023-0.076,0.046-0.146,0.075-0.217c0.448,0.569,0.683-0.769,0.866-1.381
		c0.191-0.65,0.275-1.072,0.275-1.072c0.08-0.656-0.404-0.463-0.404-0.463l-0.039,0.043c0.07-0.916,0.326-1.476,0.326-2.299
		c0.008-1.277,0.31-1.74-0.955-3.693c-0.387-0.604-0.928-0.703-3.168-1.448c-2.23-0.744-2.552,0.2-3.296,0.108
		c-0.738-0.09-0.842,0.219-0.982,0.492c-0.146,0.271,0,0.489-0.408,0.506c-0.404,0.021-0.586,0.342-0.586,0.342
		C9.546,8.727,9.992,9.325,9.953,10.6c-0.022,0.676,0.083,1.18,0.426,2.111l-0.041-0.049c0,0-0.471-0.23-0.435,0.432
		c0,0-0.067,0.205,0.203,1.088c0.158,0.51,0.281,1.922,0.74,1.475c0.016,0.054,0.035,0.109,0.053,0.162c0,0,0.363,1.949,1.281,2.767
		c0.187,0.181,0.068,0.737-0.061,1.267c-0.053,0.198-0.313,1.578-1.932,2.242c0,0-1.475,0.59-2.961,1.484
		c0,0-0.998,0.514-1.207,1.365L6,25.068c0.847,0.498,1.845,0.902,3.002,1.211c2.834,0.757,4.79,0.74,6.11,0.711
		c1.321,0.029,3.274,0.046,6.105-0.711c1.078-0.284,1.994-0.658,2.781-1.107l-0.041-0.229
		C23.752,24.091,22.757,23.577,22.757,23.577z"/>
	<path fill="#FFFFFF" d="M24,3v2h3v14h-3v2h5V3H24z M6,19H3V5h3V3H1v18h5V19z M22.757,23.577c-1.485-0.896-2.963-1.485-2.963-1.485
		c-0.206-0.083-0.39-0.18-0.552-0.285c-0.91-0.643-1.371-1.783-1.422-1.957c-0.127-0.527-0.239-1.086-0.055-1.266
		c0.918-0.816,1.279-2.766,1.279-2.766c0.023-0.076,0.046-0.146,0.075-0.217c0.448,0.569,0.683-0.769,0.866-1.381
		c0.191-0.65,0.275-1.072,0.275-1.072c0.08-0.656-0.404-0.463-0.404-0.463l-0.039,0.043c0.07-0.916,0.326-1.476,0.326-2.299
		c0.008-1.277,0.31-1.74-0.955-3.693c-0.387-0.604-0.928-0.703-3.168-1.448c-2.23-0.744-2.552,0.2-3.296,0.108
		c-0.738-0.09-0.842,0.219-0.982,0.492c-0.146,0.271,0,0.489-0.408,0.506c-0.404,0.021-0.586,0.342-0.586,0.342
		C9.546,8.727,9.992,9.325,9.953,10.6c-0.022,0.676,0.083,1.18,0.426,2.111l-0.041-0.049c0,0-0.471-0.23-0.435,0.432
		c0,0-0.067,0.205,0.203,1.088c0.158,0.51,0.281,1.922,0.74,1.475c0.016,0.054,0.035,0.109,0.053,0.162c0,0,0.363,1.949,1.281,2.767
		c0.187,0.181,0.068,0.737-0.061,1.267c-0.053,0.198-0.313,1.578-1.932,2.242c0,0-1.475,0.59-2.961,1.484
		c0,0-0.998,0.514-1.207,1.365L6,25.068c0.847,0.498,1.845,0.902,3.002,1.211c2.834,0.757,4.79,0.74,6.11,0.711
		c1.321,0.029,3.274,0.046,6.105-0.711c1.078-0.284,1.994-0.658,2.781-1.107l-0.041-0.229
		C23.752,24.091,22.757,23.577,22.757,23.577z"/>
</g>
</svg>
