<?xml version="1.0" encoding="utf-8"?>
<!-- Generator: Adobe Illustrator 15.0.0, SVG Export Plug-In . SVG Version: 6.00 Build 0)  -->
<!DOCTYPE svg PUBLIC "-//W3C//DTD SVG 1.1//EN" "http://www.w3.org/Graphics/SVG/1.1/DTD/svg11.dtd">
<svg version="1.1" xmlns="http://www.w3.org/2000/svg" xmlns:xlink="http://www.w3.org/1999/xlink" x="0px" y="0px" width="30px"
	 height="30px" viewBox="0 0 30 30" enable-background="new 0 0 30 30" xml:space="preserve">
<g id="DO_NOT_EDIT_-_BOUNDING_BOX">
	<rect id="BOUNDING_BOX" fill="none" width="30" height="30"/>
</g>
<g id="PLACE_YOUR_GRAPHIC_HERE">
	<path opacity="0.3" d="M5.625,5.219C5.443,5.074,5.223,5,5,5C4.854,5,4.705,5.033,4.566,5.1C4.221,5.266,4,5.615,4,6v16
		c0,0.385,0.221,0.734,0.566,0.9C4.705,22.967,4.854,23,5,23c0.223,0,0.443-0.074,0.625-0.219l10-8C15.861,14.592,16,14.305,16,14
		s-0.139-0.592-0.375-0.781L5.625,5.219z M27.625,13.219l-10-8C17.443,5.074,17.223,5,17,5c-0.146,0-0.295,0.033-0.434,0.1
		C16.221,5.266,16,5.615,16,6v8v8c0,0.385,0.221,0.734,0.566,0.9C16.705,22.967,16.854,23,17,23c0.223,0,0.443-0.074,0.625-0.219
		l10-8C27.861,14.592,28,14.305,28,14S27.861,13.408,27.625,13.219z"/>
	<path opacity="0.15" d="M17,25c-0.296,0-0.596-0.068-0.865-0.197C15.445,24.471,15,23.764,15,23v-5.438l-8.75,7.001
		C5.894,24.845,5.451,25,5,25c-0.296,0-0.595-0.068-0.866-0.197C3.445,24.471,3,23.764,3,23V7c0-0.764,0.445-1.471,1.133-1.802
		C4.405,5.068,4.704,5,5,5c0.451,0,0.894,0.155,1.248,0.436L15,12.438V7c0-0.764,0.445-1.471,1.134-1.802
		C16.404,5.068,16.704,5,17,5c0.451,0,0.895,0.155,1.248,0.436l10.002,8.002C28.727,13.82,29,14.39,29,15s-0.273,1.18-0.75,1.562
		l-10,8.001C17.895,24.845,17.451,25,17,25z"/>
	<path opacity="0.15" d="M5.625,6.219C5.443,6.074,5.223,6,5,6C4.854,6,4.705,6.033,4.566,6.1C4.221,6.266,4,6.615,4,7v16
		c0,0.385,0.221,0.734,0.566,0.9C4.705,23.967,4.854,24,5,24c0.223,0,0.443-0.074,0.625-0.219l10-8C15.861,15.592,16,15.305,16,15
		s-0.139-0.592-0.375-0.781L5.625,6.219z M27.625,14.219l-10-8C17.443,6.074,17.223,6,17,6c-0.146,0-0.295,0.033-0.434,0.1
		C16.221,6.266,16,6.615,16,7v8v8c0,0.385,0.221,0.734,0.566,0.9C16.705,23.967,16.854,24,17,24c0.223,0,0.443-0.074,0.625-0.219
		l10-8C27.861,15.592,28,15.305,28,15S27.861,14.408,27.625,14.219z"/>
	<path fill="#FFFFFF" d="M5.625,6.219C5.443,6.074,5.223,6,5,6C4.854,6,4.705,6.033,4.566,6.1C4.221,6.266,4,6.615,4,7v16
		c0,0.385,0.221,0.734,0.566,0.9C4.705,23.967,4.854,24,5,24c0.223,0,0.443-0.074,0.625-0.219l10-8C15.861,15.592,16,15.305,16,15
		s-0.139-0.592-0.375-0.781L5.625,6.219z M27.625,14.219l-10-8C17.443,6.074,17.223,6,17,6c-0.146,0-0.295,0.033-0.434,0.1
		C16.221,6.266,16,6.615,16,7v8v8c0,0.385,0.221,0.734,0.566,0.9C16.705,23.967,16.854,24,17,24c0.223,0,0.443-0.074,0.625-0.219
		l10-8C27.861,15.592,28,15.305,28,15S27.861,14.408,27.625,14.219z"/>
</g>
</svg>
