<?xml version="1.0" encoding="utf-8"?>
<!-- Generator: Adobe Illustrator 15.0.0, SVG Export Plug-In . SVG Version: 6.00 Build 0)  -->
<!DOCTYPE svg PUBLIC "-//W3C//DTD SVG 1.1//EN" "http://www.w3.org/Graphics/SVG/1.1/DTD/svg11.dtd">
<svg version="1.1" xmlns="http://www.w3.org/2000/svg" xmlns:xlink="http://www.w3.org/1999/xlink" x="0px" y="0px" width="30px"
	 height="30px" viewBox="0 0 30 30" enable-background="new 0 0 30 30" xml:space="preserve">
<g id="DO_NOT_EDIT_-_BOUNDING_BOX">
	<rect id="BOUNDING_BOX" fill="none" width="30" height="30"/>
</g>
<g id="PLACE_YOUR_GRAPHIC_HERE">
	<g>
		<path opacity="0.3" d="M25.392,4.773H4.608c-0.264,0-0.328,0.152-0.141,0.34l8.869,10.16v5.959l3.326,1.994v-7.953l8.869-10.16
			C25.72,4.926,25.655,4.773,25.392,4.773z"/>
		<path opacity="0.15" d="M16.663,25.227c-0.178,0-0.356-0.048-0.515-0.143l-3.326-1.994c-0.301-0.181-0.486-0.506-0.486-0.857
			v-5.584L3.714,6.771c-0.337-0.334-0.456-0.832-0.27-1.28c0.186-0.449,0.621-0.717,1.164-0.717h20.783
			c0.543,0,0.978,0.268,1.163,0.717c0.187,0.449,0.068,0.946-0.315,1.33l-8.576,9.828v7.578c0,0.36-0.193,0.692-0.507,0.87
			C17.003,25.184,16.833,25.227,16.663,25.227z"/>
		<path opacity="0.15" d="M25.392,5.773H4.608c-0.264,0-0.328,0.152-0.141,0.34l8.869,10.16v5.959l3.326,1.994v-7.953l8.869-10.16
			C25.72,5.926,25.655,5.773,25.392,5.773z"/>
		<path fill="#FFFFFF" d="M25.392,5.773H4.608c-0.264,0-0.328,0.152-0.141,0.34l8.869,10.16v5.959l3.326,1.994v-7.953l8.869-10.16
			C25.72,5.926,25.655,5.773,25.392,5.773z"/>
		<rect x="0" fill="none" width="30" height="30"/>
	</g>
</g>
</svg>
