<?xml version="1.0" encoding="utf-8"?>
<!-- Generator: Adobe Illustrator 15.0.0, SVG Export Plug-In . SVG Version: 6.00 Build 0)  -->
<!DOCTYPE svg PUBLIC "-//W3C//DTD SVG 1.1//EN" "http://www.w3.org/Graphics/SVG/1.1/DTD/svg11.dtd">
<svg version="1.1" xmlns="http://www.w3.org/2000/svg" xmlns:xlink="http://www.w3.org/1999/xlink" x="0px" y="0px" width="30px"
	 height="30px" viewBox="0 0 30 30" enable-background="new 0 0 30 30" xml:space="preserve">
<g id="DO_NOT_EDIT_-_BOUNDING_BOX">
	<rect id="BOUNDING_BOX" fill="none" width="30" height="30"/>
</g>
<g id="PLACE_YOUR_GRAPHIC_HERE">
	<path opacity="0.3" d="M27,6H11.5L9.64,3.768C9.289,3.346,8.55,3,8,3H3C2.45,3,2,3.45,2,4v20c0,0.55,0.45,1,1,1h24
		c0.551,0,1-0.45,1-1V7C28,6.45,27.551,6,27,6z"/>
	<path opacity="0.15" d="M3,27c-1.103,0-2-0.897-2-2V5c0-1.103,0.897-2,2-2h5c0.852,0,1.864,0.474,2.409,1.127L11.968,6H27
		c1.103,0,2,0.897,2,2v17c0,1.103-0.897,2-2,2H3z"/>
	<path opacity="0.15" d="M27,7H11.5L9.64,4.768C9.289,4.346,8.55,4,8,4H3C2.45,4,2,4.45,2,5v20c0,0.55,0.45,1,1,1h24
		c0.551,0,1-0.45,1-1V8C28,7.45,27.551,7,27,7z"/>
	<path fill="#FFFFFF" d="M27,7H11.5L9.64,4.768C9.289,4.346,8.55,4,8,4H3C2.45,4,2,4.45,2,5v20c0,0.55,0.45,1,1,1h24
		c0.551,0,1-0.45,1-1V8C28,7.45,27.551,7,27,7z"/>
</g>
</svg>
