<?xml version="1.0" encoding="utf-8"?>
<!-- Generator: Adobe Illustrator 15.0.0, SVG Export Plug-In . SVG Version: 6.00 Build 0)  -->
<!DOCTYPE svg PUBLIC "-//W3C//DTD SVG 1.1//EN" "http://www.w3.org/Graphics/SVG/1.1/DTD/svg11.dtd">
<svg version="1.1" xmlns="http://www.w3.org/2000/svg" xmlns:xlink="http://www.w3.org/1999/xlink" x="0px" y="0px" width="30px"
	 height="30px" viewBox="0 0 30 30" enable-background="new 0 0 30 30" xml:space="preserve">
<g id="DO_NOT_EDIT_-_BOUNDING_BOX">
	<rect id="BOUNDING_BOX" fill="none" width="30" height="30"/>
</g>
<g id="PLACE_YOUR_GRAPHIC_HERE">
	<g>
		<path opacity="0.3" d="M16,23H4V13h3v-2H3c-0.549,0-1,0.45-1,1v12c0,0.55,0.451,1,1,1h14c0.551,0,1-0.45,1-1v-4h-2V23z M27,3H9
			C8.451,3,8,3.45,8,4v14c0,0.55,0.451,1,1,1h18c0.551,0,1-0.45,1-1V4C28,3.45,27.551,3,27,3z M26,12l-2.439-2.439l-3.5,3.5
			l-2.121-2.121l3.5-3.5L19,5h7V12z"/>
		<path opacity="0.15" d="M3,27c-1.103,0-2-0.897-2-2V13c0-1.103,0.897-2,2-2h4V5c0-1.103,0.897-2,2-2h18c1.103,0,2,0.897,2,2v14
			c0,1.103-0.897,2-2,2h-8v4c0,1.103-0.897,2-2,2H3z"/>
		<path opacity="0.15" d="M16,24H4V14h3v-2H3c-0.549,0-1,0.45-1,1v12c0,0.55,0.451,1,1,1h14c0.551,0,1-0.45,1-1v-4h-2V24z M27,4H9
			C8.451,4,8,4.45,8,5v14c0,0.55,0.451,1,1,1h18c0.551,0,1-0.45,1-1V5C28,4.45,27.551,4,27,4z M26,13l-2.439-2.439l-3.5,3.5
			l-2.121-2.121l3.5-3.5L19,6h7V13z"/>
		<path fill="#FFFFFF" d="M16,24H4V14h3v-2H3c-0.549,0-1,0.45-1,1v12c0,0.55,0.451,1,1,1h14c0.551,0,1-0.45,1-1v-4h-2V24z M27,4H9
			C8.451,4,8,4.45,8,5v14c0,0.55,0.451,1,1,1h18c0.551,0,1-0.45,1-1V5C28,4.45,27.551,4,27,4z M26,13l-2.439-2.439l-3.5,3.5
			l-2.121-2.121l3.5-3.5L19,6h7V13z"/>
		<rect fill="none" width="30" height="30"/>
	</g>
</g>
</svg>
