<?xml version="1.0" encoding="utf-8"?>
<!-- Generator: Adobe Illustrator 15.0.0, SVG Export Plug-In . SVG Version: 6.00 Build 0)  -->
<!DOCTYPE svg PUBLIC "-//W3C//DTD SVG 1.1//EN" "http://www.w3.org/Graphics/SVG/1.1/DTD/svg11.dtd">
<svg version="1.1" xmlns="http://www.w3.org/2000/svg" xmlns:xlink="http://www.w3.org/1999/xlink" x="0px" y="0px" width="30px"
	 height="30px" viewBox="0 0 30 30" enable-background="new 0 0 30 30" xml:space="preserve">
<g id="DO_NOT_EDIT_-_BOUNDING_BOX">
	<rect id="BOUNDING_BOX" fill="none" width="30" height="30"/>
</g>
<g id="PLACE_YOUR_GRAPHIC_HERE">
	<path opacity="0.3" d="M21.906,9.047c-1.113,0.005-2.018,0.914-2.016,2.026c0.004,1.111,0.91,2.017,2.021,2.017h0.006
		c1.115-0.005,2.02-0.915,2.016-2.029C23.932,9.95,23.023,9.047,21.906,9.047z M27.516,8.327v0.002
		c-0.938-2.331-3.213-3.979-5.875-3.989H21.59c-0.254,0.002-0.506,0.018-0.752,0.048c-0.668,0.109-1.166,0.229-2.094,0.637
		c-0.186,0.082-0.389,0.176-0.617,0.284c-1.24,0.59-2.273,0.688-2.788,0.692c-0.002,0-0.004,0.001-0.005,0.001h-0.669
		c-0.002,0-0.004-0.001-0.005-0.001c-0.516-0.005-1.55-0.103-2.789-0.692c-0.226-0.108-0.43-0.202-0.617-0.284
		C10.327,4.616,9.83,4.497,9.161,4.388C8.915,4.357,8.664,4.342,8.41,4.34H8.359C5.697,4.351,3.421,5.998,2.484,8.329V8.327
		c-2.421,5.636-1.152,12.652-1.152,12.652l-0.001-0.001c0.171,1.505,1.443,2.674,2.994,2.681c0.963,0.003,1.822-0.447,2.378-1.148
		v-0.002c0,0,1.647-2.12,3.407-5.104l0.001-0.001c0,0,0.353-0.544,0.983-0.956c0.143-0.094,0.301-0.179,0.475-0.249
		c0.276-0.113,0.588-0.187,0.938-0.187h4.987c0.348,0,0.66,0.073,0.936,0.187c0.174,0.07,0.332,0.155,0.475,0.249
		c0.631,0.412,0.982,0.956,0.982,0.956l0.002,0.001c1.76,2.983,3.406,5.104,3.406,5.104l0.002,0.002
		c0.555,0.701,1.414,1.151,2.377,1.148c1.551-0.007,2.822-1.176,2.994-2.681v0.001C28.668,20.979,29.936,13.963,27.516,8.327z
		 M10.566,12.087h-1.25v1.25c0,0.55-0.45,1-1,1s-1-0.45-1-1v-1.25h-1.25c-0.55,0-1-0.45-1-1s0.45-1,1-1h1.25v-1.25
		c0-0.55,0.45-1,1-1s1,0.45,1,1v1.25h1.25c0.55,0,1,0.45,1,1S11.116,12.087,10.566,12.087z M15,11.832
		c-0.414,0-0.75-0.335-0.75-0.751c0-0.413,0.336-0.75,0.75-0.75s0.75,0.337,0.75,0.75C15.75,11.497,15.414,11.832,15,11.832z
		 M21.924,14.59c-1.943,0.007-3.525-1.566-3.533-3.512c-0.004-1.945,1.568-3.523,3.51-3.531c1.945-0.005,3.527,1.563,3.533,3.509
		S23.867,14.582,21.924,14.59z"/>
	<path opacity="0.15" d="M25.664,25.659c-1.227,0-2.369-0.55-3.138-1.511c-0.007-0.009-0.015-0.018-0.021-0.026
		c-0.068-0.088-1.691-2.186-3.453-5.168c-0.002-0.002-0.005-0.007-0.005-0.007s-0.258-0.38-0.689-0.662
		c-0.093-0.061-0.192-0.114-0.303-0.159c-0.188-0.077-0.369-0.113-0.561-0.113h-4.987c-0.192,0-0.375,0.036-0.558,0.111
		c-0.115,0.047-0.216,0.101-0.307,0.16c-0.434,0.284-0.693,0.667-0.696,0.671c-1.747,2.962-3.384,5.078-3.453,5.167
		c-0.775,0.979-1.924,1.537-3.159,1.537c-2.054-0.009-3.767-1.543-3.997-3.567c-0.124-0.703-1.204-7.5,1.228-13.159
		c1.114-2.77,3.783-4.581,6.79-4.593C8.71,4.342,8.999,4.36,9.283,4.395c0.805,0.131,1.377,0.275,2.374,0.714
		c0.195,0.085,0.409,0.184,0.646,0.297c1.066,0.507,1.94,0.59,2.366,0.594c0.012,0,0.655,0,0.669,0
		c0.416-0.004,1.289-0.087,2.358-0.595c0.238-0.113,0.45-0.211,0.643-0.296c0.999-0.439,1.57-0.583,2.337-0.709
		c0.322-0.041,0.613-0.059,0.905-0.061c3.069,0.012,5.738,1.824,6.861,4.616c2.501,5.821,1.263,12.902,1.209,13.201
		c-0.222,1.96-1.935,3.493-3.974,3.502C25.677,25.659,25.666,25.659,25.664,25.659z"/>
	<path opacity="0.15" d="M21.906,10.047c-1.113,0.005-2.018,0.914-2.016,2.026c0.004,1.111,0.91,2.017,2.021,2.017h0.006
		c1.115-0.005,2.02-0.915,2.016-2.029C23.932,10.95,23.023,10.047,21.906,10.047z M27.516,9.327v0.002
		c-0.938-2.331-3.213-3.979-5.875-3.989H21.59c-0.254,0.002-0.506,0.018-0.752,0.048c-0.668,0.109-1.166,0.229-2.094,0.637
		c-0.186,0.082-0.389,0.176-0.617,0.284c-1.24,0.59-2.273,0.688-2.788,0.692c-0.002,0-0.004,0.001-0.005,0.001h-0.669
		c-0.002,0-0.004-0.001-0.005-0.001c-0.516-0.005-1.55-0.103-2.789-0.692c-0.226-0.108-0.43-0.202-0.617-0.284
		C10.327,5.616,9.83,5.497,9.161,5.388C8.915,5.357,8.664,5.342,8.41,5.34H8.359C5.697,5.351,3.421,6.998,2.484,9.329V9.327
		c-2.421,5.636-1.152,12.652-1.152,12.652l-0.001-0.001c0.171,1.505,1.443,2.674,2.994,2.681c0.963,0.003,1.822-0.447,2.378-1.148
		v-0.002c0,0,1.647-2.12,3.407-5.104l0.001-0.001c0,0,0.353-0.544,0.983-0.956c0.143-0.094,0.301-0.179,0.475-0.249
		c0.276-0.113,0.588-0.187,0.938-0.187h4.987c0.348,0,0.66,0.073,0.936,0.187c0.174,0.07,0.332,0.155,0.475,0.249
		c0.631,0.412,0.982,0.956,0.982,0.956l0.002,0.001c1.76,2.983,3.406,5.104,3.406,5.104l0.002,0.002
		c0.555,0.701,1.414,1.151,2.377,1.148c1.551-0.007,2.822-1.176,2.994-2.681v0.001C28.668,21.979,29.936,14.963,27.516,9.327z
		 M10.566,13.087h-1.25v1.25c0,0.55-0.45,1-1,1s-1-0.45-1-1v-1.25h-1.25c-0.55,0-1-0.45-1-1s0.45-1,1-1h1.25v-1.25
		c0-0.55,0.45-1,1-1s1,0.45,1,1v1.25h1.25c0.55,0,1,0.45,1,1S11.116,13.087,10.566,13.087z M15,12.832
		c-0.414,0-0.75-0.335-0.75-0.751c0-0.413,0.336-0.75,0.75-0.75s0.75,0.337,0.75,0.75C15.75,12.497,15.414,12.832,15,12.832z
		 M21.924,15.59c-1.943,0.007-3.525-1.566-3.533-3.512c-0.004-1.945,1.568-3.523,3.51-3.531c1.945-0.005,3.527,1.563,3.533,3.509
		S23.867,15.582,21.924,15.59z"/>
	<path fill="#FFFFFF" d="M21.906,10.047c-1.113,0.005-2.018,0.914-2.016,2.026c0.004,1.111,0.91,2.017,2.021,2.017h0.006
		c1.115-0.005,2.02-0.915,2.016-2.029C23.932,10.95,23.023,10.047,21.906,10.047z M27.516,9.327v0.002
		c-0.938-2.331-3.213-3.979-5.875-3.989H21.59c-0.254,0.002-0.506,0.018-0.752,0.048c-0.668,0.109-1.166,0.229-2.094,0.637
		c-0.186,0.082-0.389,0.176-0.617,0.284c-1.24,0.59-2.273,0.688-2.788,0.692c-0.002,0-0.004,0.001-0.005,0.001h-0.669
		c-0.002,0-0.004-0.001-0.005-0.001c-0.516-0.005-1.55-0.103-2.789-0.692c-0.226-0.108-0.43-0.202-0.617-0.284
		C10.327,5.616,9.83,5.497,9.161,5.388C8.915,5.357,8.664,5.342,8.41,5.34H8.359C5.697,5.351,3.421,6.998,2.484,9.329V9.327
		c-2.421,5.636-1.152,12.652-1.152,12.652l-0.001-0.001c0.171,1.505,1.443,2.674,2.994,2.681c0.963,0.003,1.822-0.447,2.378-1.148
		v-0.002c0,0,1.647-2.12,3.407-5.104l0.001-0.001c0,0,0.353-0.544,0.983-0.956c0.143-0.094,0.301-0.179,0.475-0.249
		c0.276-0.113,0.588-0.187,0.938-0.187h4.987c0.348,0,0.66,0.073,0.936,0.187c0.174,0.07,0.332,0.155,0.475,0.249
		c0.631,0.412,0.982,0.956,0.982,0.956l0.002,0.001c1.76,2.983,3.406,5.104,3.406,5.104l0.002,0.002
		c0.555,0.701,1.414,1.151,2.377,1.148c1.551-0.007,2.822-1.176,2.994-2.681v0.001C28.668,21.979,29.936,14.963,27.516,9.327z
		 M10.566,13.087h-1.25v1.25c0,0.55-0.45,1-1,1s-1-0.45-1-1v-1.25h-1.25c-0.55,0-1-0.45-1-1s0.45-1,1-1h1.25v-1.25
		c0-0.55,0.45-1,1-1s1,0.45,1,1v1.25h1.25c0.55,0,1,0.45,1,1S11.116,13.087,10.566,13.087z M15,12.832
		c-0.414,0-0.75-0.335-0.75-0.751c0-0.413,0.336-0.75,0.75-0.75s0.75,0.337,0.75,0.75C15.75,12.497,15.414,12.832,15,12.832z
		 M21.924,15.59c-1.943,0.007-3.525-1.566-3.533-3.512c-0.004-1.945,1.568-3.523,3.51-3.531c1.945-0.005,3.527,1.563,3.533,3.509
		S23.867,15.582,21.924,15.59z"/>
</g>
</svg>
