<?xml version="1.0" encoding="utf-8"?>
<!-- Generator: Adobe Illustrator 15.0.0, SVG Export Plug-In . SVG Version: 6.00 Build 0)  -->
<!DOCTYPE svg PUBLIC "-//W3C//DTD SVG 1.1//EN" "http://www.w3.org/Graphics/SVG/1.1/DTD/svg11.dtd">
<svg version="1.1" xmlns="http://www.w3.org/2000/svg" xmlns:xlink="http://www.w3.org/1999/xlink" x="0px" y="0px" width="30px"
	 height="30px" viewBox="0 0 30 30" enable-background="new 0 0 30 30" xml:space="preserve">
<g id="DO_NOT_EDIT_-_BOUNDING_BOX">
	<rect id="BOUNDING_BOX" fill="none" width="30" height="30"/>
</g>
<g id="PLACE_YOUR_GRAPHIC_HERE">
	<g>
		<path opacity="0.3" d="M15,1C7.82,1,2,6.82,2,14s5.82,13,13,13s13-5.82,13-13S22.18,1,15,1z M15.705,23.299
			c-1.77,0-3.416-0.488-4.832-1.332c1.104,0.471,2.307,0.733,3.576,0.733c5.521,0,8.701-3.942,8.701-8.675
			c0-3.18-2.734-6.488-6.225-6.488c-3.406,0-5.816,2.338-5.951,5.713h-0.004v0.764h2.703L8.641,20.85l-5.123-6.834h2.717
			c-0.002-0.065-0.008-0.131-0.008-0.199c0-5.235,4.24-9.48,9.479-9.48c5.236,0,9.48,4.245,9.48,9.48
			C25.186,19.053,20.941,23.299,15.705,23.299z"/>
		<rect fill="none" width="30" height="30"/>
		<path opacity="0.15" d="M15,29C7.28,29,1,22.72,1,15S7.28,1,15,1s14,6.28,14,14S22.72,29,15,29z"/>
		<path opacity="0.15" d="M15,2C7.82,2,2,7.82,2,15s5.82,13,13,13s13-5.82,13-13S22.18,2,15,2z M15.705,24.299
			c-1.77,0-3.416-0.488-4.832-1.332c1.104,0.471,2.307,0.733,3.576,0.733c5.521,0,8.701-3.942,8.701-8.675
			c0-3.18-2.734-6.488-6.225-6.488c-3.406,0-5.816,2.338-5.951,5.713h-0.004v0.764h2.703L8.641,21.85l-5.123-6.834h2.717
			c-0.002-0.065-0.008-0.131-0.008-0.199c0-5.235,4.24-9.48,9.479-9.48c5.236,0,9.48,4.245,9.48,9.48
			C25.186,20.053,20.941,24.299,15.705,24.299z"/>
		<path fill="#FFFFFF" d="M15,2C7.82,2,2,7.82,2,15s5.82,13,13,13s13-5.82,13-13S22.18,2,15,2z M15.705,24.299
			c-1.77,0-3.416-0.488-4.832-1.332c1.104,0.471,2.307,0.733,3.576,0.733c5.521,0,8.701-3.942,8.701-8.675
			c0-3.18-2.734-6.488-6.225-6.488c-3.406,0-5.816,2.338-5.951,5.713h-0.004v0.764h2.703L8.641,21.85l-5.123-6.834h2.717
			c-0.002-0.065-0.008-0.131-0.008-0.199c0-5.235,4.24-9.48,9.479-9.48c5.236,0,9.48,4.245,9.48,9.48
			C25.186,20.053,20.941,24.299,15.705,24.299z"/>
	</g>
</g>
</svg>
