<?xml version="1.0" encoding="utf-8"?>
<!-- Generator: Adobe Illustrator 15.0.0, SVG Export Plug-In . SVG Version: 6.00 Build 0)  -->
<!DOCTYPE svg PUBLIC "-//W3C//DTD SVG 1.1//EN" "http://www.w3.org/Graphics/SVG/1.1/DTD/svg11.dtd">
<svg version="1.1" xmlns="http://www.w3.org/2000/svg" xmlns:xlink="http://www.w3.org/1999/xlink" x="0px" y="0px" width="30px"
	 height="30px" viewBox="0 0 30 30" enable-background="new 0 0 30 30" xml:space="preserve">
<g id="DO_NOT_EDIT_-_BOUNDING_BOX">
	<rect id="BOUNDING_BOX" fill="none" width="30" height="30"/>
</g>
<g id="PLACE_YOUR_GRAPHIC_HERE">
	<path opacity="0.3" d="M18.5,12V2c0-0.549-0.451-1-1-1h-5c-0.55,0-1,0.451-1,1v10H6l9,15l9-15H18.5z"/>
	<path opacity="0.15" d="M15,29c-0.351,0-0.677-0.185-0.857-0.485l-9-15c-0.186-0.309-0.19-0.694-0.013-1.007
		C5.307,12.194,5.64,12,6,12h4.5V3c0-1.103,0.897-2,2-2h5c1.103,0,2,0.897,2,2v9H24c0.36,0,0.692,0.194,0.87,0.507
		s0.173,0.698-0.013,1.007l-9,15C15.677,28.815,15.351,29,15,29z"/>
	<path opacity="0.15" d="M18.5,13V3c0-0.549-0.451-1-1-1h-5c-0.55,0-1,0.451-1,1v10H6l9,15l9-15H18.5z"/>
	<path fill="#FFFFFF" d="M18.5,13V3c0-0.549-0.451-1-1-1h-5c-0.55,0-1,0.451-1,1v10H6l9,15l9-15H18.5z"/>
</g>
</svg>
