<?xml version="1.0" encoding="utf-8"?>
<!-- Generator: Adobe Illustrator 15.0.0, SVG Export Plug-In . SVG Version: 6.00 Build 0)  -->
<!DOCTYPE svg PUBLIC "-//W3C//DTD SVG 1.1//EN" "http://www.w3.org/Graphics/SVG/1.1/DTD/svg11.dtd">
<svg version="1.1" xmlns="http://www.w3.org/2000/svg" xmlns:xlink="http://www.w3.org/1999/xlink" x="0px" y="0px" width="30px"
	 height="30px" viewBox="0 0 30 30" enable-background="new 0 0 30 30" xml:space="preserve">
<g id="DO_NOT_EDIT_-_BOUNDING_BOX">
	<rect id="BOUNDING_BOX" fill="none" width="30" height="30"/>
</g>
<g id="PLACE_YOUR_GRAPHIC_HERE">
	<path opacity="0.3" d="M27.189,20.633l-4.314-1.615c-0.982-0.514-1.561,0.168-1.561,0.168l-2.102,1.879
		c0.158-0.184-1.797,2.037-7.469-3.462h-0.002l-0.273-0.274l0.001-0.002c-5.501-5.674-3.28-7.627-3.46-7.469l1.802-2.171
		c0,0,0.685-0.579,0.17-1.56L8.37,1.813c0,0-0.528-0.998-1.437-0.781C0.442,2.578,2.225,9.37,2.225,9.37
		c0.91,4.864,4.668,8.882,5.937,10.118l-0.005,0.008l1.845,1.844l0.009-0.009c1.625,1.559,5.287,4.634,9.621,5.446
		c0,0,6.793,1.779,8.338-4.71C28.186,21.157,27.189,20.633,27.189,20.633z M21.5,15c4.143,0,7.5-3.357,7.5-7.502
		C29,3.359,25.643,0,21.5,0C17.359,0,14,3.359,14,7.498C14,11.643,17.359,15,21.5,15z M21.846,7.187
		c0.121-0.679,0.195-1.08,0.768-1.22c0.32-0.078,1.285-0.203,1.957,0.064c0.314,0.125,0.822,0.074,0.896-0.344
		c0.084-0.446-0.213-0.477-0.934-0.678c-0.645-0.183-1.258,0.364-1.783,0.363c-0.234,0-0.223-0.198-0.219-0.478
		c0.004-0.276,1.018-0.991,1.125-1.073c0.207-0.157,0.809-0.092,0.82-0.092c0.664,0.021,0.518-0.43,0.07-0.451
		c-0.787-0.037-0.729-0.451-0.736-0.574c-0.012-0.125,0.113-0.439,0.719-0.456c0.125-0.003,0.477-0.015,0.774-0.009
		c1.623,1.177,2.686,3.079,2.695,5.23c-0.12,0.131-0.291,0.243-0.497,0.204C27.086,7.6,26.814,6.52,26.367,6.857
		c-0.746,0.564,1.148,1.504,1.148,1.8c0,0.297-0.4,0.731-0.574,0.871c-0.26,0.21-0.213,1.012-0.213,1.012
		c0,0.54-0.343,1.169-0.543,1.452c-0.289,0.302-0.607,0.576-0.949,0.818c-0.222,0.083-0.444,0.074-0.621-0.14
		c-0.369-0.443-0.057-1.357-0.166-2.332c-0.037-0.352,0.029-1.348-1.471-1.528C21.645,8.649,21.76,7.678,21.846,7.187z
		 M15.104,6.377c0.5-2.856,2.865-5.076,5.793-5.347c0.008,0.02,0.019,0.038,0.014,0.064c-0.066,0.343-1.23,1.473-1.574,1.594
		c-0.342,0.124-0.477,0.102-0.713-0.055c-0.33-0.22-1.049,0.368-0.604,0.575c0.15,0.07,0.424,0.093,0.855,0.242
		c0.688,0.236,0.887,0.646,0.488,0.752c-1.99,0.539-1.059,1.161-1.814,1.916c-0.387,0.389-0.361,0.543-0.635,0.637
		c-0.336,0.111-0.391-0.378-0.707-0.392C16.112,6.36,15.455,6.373,15.104,6.377z M17.977,8.103c0.334,0.36,0.277,0.887,1.244,1.292
		c0.273,0.113,0.783,0.438,0.637,0.73s-0.469,0.399-0.439,0.935c0.047,0.856-0.643,0.788-0.801,1.374
		c-0.093,0.338-0.191,0.593-0.259,0.753c-0.475-0.264-0.91-0.588-1.304-0.958c0.03-0.627-0.134-1.671-0.328-1.803
		c-0.643-0.437-0.619-0.312-0.674-2.021C16.021,7.453,17.631,7.725,17.977,8.103z"/>
	<path opacity="0.15" d="M21.652,29.001c-1.283-0.001-2.235-0.246-2.274-0.256c-4.362-0.815-8.067-3.803-9.948-5.586
		c-0.048-0.032-0.094-0.07-0.136-0.112l-1.845-1.844c-0.03-0.029-0.058-0.062-0.083-0.094c-1.318-1.303-5.175-5.481-6.125-10.555
		C1.22,10.48,0.351,7.063,2.042,4.242c0.962-1.605,2.53-2.676,4.659-3.184C6.863,1.02,7.027,1,7.189,1
		c1.315,0,1.992,1.207,2.064,1.344c0.02,0.038,0.038,0.078,0.053,0.118l1.591,4.261c0.61,1.228,0.076,2.223-0.357,2.65
		c0,0-1.716,2.07-1.722,2.078c-0.012,0.019-0.948,1.726,3.369,6.179c0.012,0.013,0.263,0.267,0.263,0.267
		c3.105,3.009,4.873,3.46,5.648,3.46c0.33,0,0.488-0.084,0.522-0.104l1.994-1.782c0.19-0.196,0.716-0.644,1.548-0.644
		c0.372,0,0.746,0.092,1.115,0.274l4.262,1.596c0.039,0.015,0.078,0.032,0.115,0.052c0.625,0.329,1.6,1.236,1.286,2.551
		C27.761,28.26,23.868,29.001,21.652,29.001L21.652,29.001z M21.5,17c-4.687,0-8.5-3.814-8.5-8.502C13,3.812,16.813,0,21.5,0
		S30,3.812,30,8.498C30,13.186,26.187,17,21.5,17z"/>
	<path opacity="0.15" d="M27.189,21.633l-4.314-1.615c-0.982-0.514-1.561,0.168-1.561,0.168l-2.102,1.879
		c0.158-0.184-1.797,2.037-7.469-3.462h-0.002l-0.273-0.274l0.001-0.002c-5.501-5.674-3.28-7.627-3.46-7.469l1.802-2.171
		c0,0,0.685-0.579,0.17-1.56L8.37,2.813c0,0-0.528-0.998-1.437-0.781C0.442,3.578,2.225,10.37,2.225,10.37
		c0.91,4.864,4.668,8.882,5.937,10.118l-0.005,0.008l1.845,1.844l0.009-0.009c1.625,1.559,5.287,4.634,9.621,5.446
		c0,0,6.793,1.779,8.338-4.71C28.186,22.157,27.189,21.633,27.189,21.633z M21.5,16c4.143,0,7.5-3.357,7.5-7.502
		C29,4.359,25.643,1,21.5,1C17.359,1,14,4.359,14,8.498C14,12.643,17.359,16,21.5,16z M21.846,8.187
		c0.121-0.679,0.195-1.08,0.768-1.22c0.32-0.078,1.285-0.203,1.957,0.064c0.314,0.125,0.822,0.074,0.896-0.344
		c0.084-0.446-0.213-0.477-0.934-0.678c-0.645-0.183-1.258,0.364-1.783,0.363c-0.234,0-0.223-0.198-0.219-0.478
		c0.004-0.276,1.018-0.991,1.125-1.073c0.207-0.157,0.809-0.092,0.82-0.092c0.664,0.021,0.518-0.43,0.07-0.451
		c-0.787-0.037-0.729-0.451-0.736-0.574c-0.012-0.125,0.113-0.439,0.719-0.456c0.125-0.003,0.477-0.015,0.774-0.009
		c1.623,1.177,2.686,3.079,2.695,5.23c-0.12,0.131-0.291,0.243-0.497,0.204C27.086,8.6,26.814,7.52,26.367,7.857
		c-0.746,0.564,1.148,1.504,1.148,1.8c0,0.297-0.4,0.731-0.574,0.871c-0.26,0.21-0.213,1.012-0.213,1.012
		c0,0.54-0.343,1.169-0.543,1.452c-0.289,0.302-0.607,0.576-0.949,0.818c-0.222,0.083-0.444,0.074-0.621-0.14
		c-0.369-0.443-0.057-1.357-0.166-2.332c-0.037-0.352,0.029-1.348-1.471-1.528C21.645,9.649,21.76,8.678,21.846,8.187z
		 M15.104,7.377c0.5-2.856,2.865-5.076,5.793-5.347c0.008,0.02,0.019,0.038,0.014,0.064c-0.066,0.343-1.23,1.473-1.574,1.594
		c-0.342,0.124-0.477,0.102-0.713-0.055c-0.33-0.22-1.049,0.368-0.604,0.575c0.15,0.07,0.424,0.093,0.855,0.242
		c0.688,0.236,0.887,0.646,0.488,0.752c-1.99,0.539-1.059,1.161-1.814,1.916c-0.387,0.389-0.361,0.543-0.635,0.637
		c-0.336,0.111-0.391-0.378-0.707-0.392C16.112,7.36,15.455,7.373,15.104,7.377z M17.977,9.103c0.334,0.36,0.277,0.887,1.244,1.292
		c0.273,0.113,0.783,0.438,0.637,0.73s-0.469,0.399-0.439,0.935c0.047,0.856-0.643,0.788-0.801,1.374
		c-0.093,0.338-0.191,0.593-0.259,0.753c-0.475-0.264-0.91-0.588-1.304-0.958c0.03-0.627-0.134-1.671-0.328-1.803
		c-0.643-0.437-0.619-0.312-0.674-2.021C16.021,8.453,17.631,8.725,17.977,9.103z"/>
	<path fill="#FFFFFF" d="M27.189,21.633l-4.314-1.615c-0.982-0.514-1.561,0.168-1.561,0.168l-2.102,1.879
		c0.158-0.184-1.797,2.037-7.469-3.462h-0.002l-0.273-0.274l0.001-0.002c-5.501-5.674-3.28-7.627-3.46-7.469l1.802-2.171
		c0,0,0.685-0.579,0.17-1.56L8.37,2.813c0,0-0.528-0.998-1.437-0.781C0.442,3.578,2.225,10.37,2.225,10.37
		c0.91,4.864,4.668,8.882,5.937,10.118l-0.005,0.008l1.845,1.844l0.009-0.009c1.625,1.559,5.287,4.634,9.621,5.446
		c0,0,6.793,1.779,8.338-4.71C28.186,22.157,27.189,21.633,27.189,21.633z M21.5,16c4.143,0,7.5-3.357,7.5-7.502
		C29,4.359,25.643,1,21.5,1C17.359,1,14,4.359,14,8.498C14,12.643,17.359,16,21.5,16z M21.846,8.187
		c0.121-0.679,0.195-1.08,0.768-1.22c0.32-0.078,1.285-0.203,1.957,0.064c0.314,0.125,0.822,0.074,0.896-0.344
		c0.084-0.446-0.213-0.477-0.934-0.678c-0.645-0.183-1.258,0.364-1.783,0.363c-0.234,0-0.223-0.198-0.219-0.478
		c0.004-0.276,1.018-0.991,1.125-1.073c0.207-0.157,0.809-0.092,0.82-0.092c0.664,0.021,0.518-0.43,0.07-0.451
		c-0.787-0.037-0.729-0.451-0.736-0.574c-0.012-0.125,0.113-0.439,0.719-0.456c0.125-0.003,0.477-0.015,0.774-0.009
		c1.623,1.177,2.686,3.079,2.695,5.23c-0.12,0.131-0.291,0.243-0.497,0.204C27.086,8.6,26.814,7.52,26.367,7.857
		c-0.746,0.564,1.148,1.504,1.148,1.8c0,0.297-0.4,0.731-0.574,0.871c-0.26,0.21-0.213,1.012-0.213,1.012
		c0,0.54-0.343,1.169-0.543,1.452c-0.289,0.302-0.607,0.576-0.949,0.818c-0.222,0.083-0.444,0.074-0.621-0.14
		c-0.369-0.443-0.057-1.357-0.166-2.332c-0.037-0.352,0.029-1.348-1.471-1.528C21.645,9.649,21.76,8.678,21.846,8.187z
		 M15.104,7.377c0.5-2.856,2.865-5.076,5.793-5.347c0.008,0.02,0.019,0.038,0.014,0.064c-0.066,0.343-1.23,1.473-1.574,1.594
		c-0.342,0.124-0.477,0.102-0.713-0.055c-0.33-0.22-1.049,0.368-0.604,0.575c0.15,0.07,0.424,0.093,0.855,0.242
		c0.688,0.236,0.887,0.646,0.488,0.752c-1.99,0.539-1.059,1.161-1.814,1.916c-0.387,0.389-0.361,0.543-0.635,0.637
		c-0.336,0.111-0.391-0.378-0.707-0.392C16.112,7.36,15.455,7.373,15.104,7.377z M17.977,9.103c0.334,0.36,0.277,0.887,1.244,1.292
		c0.273,0.113,0.783,0.438,0.637,0.73s-0.469,0.399-0.439,0.935c0.047,0.856-0.643,0.788-0.801,1.374
		c-0.093,0.338-0.191,0.593-0.259,0.753c-0.475-0.264-0.91-0.588-1.304-0.958c0.03-0.627-0.134-1.671-0.328-1.803
		c-0.643-0.437-0.619-0.312-0.674-2.021C16.021,8.453,17.631,8.725,17.977,9.103z"/>
</g>
</svg>
