<?xml version="1.0" encoding="utf-8"?>
<!-- Generator: Adobe Illustrator 15.0.0, SVG Export Plug-In . SVG Version: 6.00 Build 0)  -->
<!DOCTYPE svg PUBLIC "-//W3C//DTD SVG 1.1//EN" "http://www.w3.org/Graphics/SVG/1.1/DTD/svg11.dtd">
<svg version="1.1" xmlns="http://www.w3.org/2000/svg" xmlns:xlink="http://www.w3.org/1999/xlink" x="0px" y="0px" width="30px"
	 height="30px" viewBox="0 0 30 30" enable-background="new 0 0 30 30" xml:space="preserve">
<g id="DO_NOT_EDIT_-_BOUNDING_BOX">
	<rect id="BOUNDING_BOX" fill="none" width="30" height="30"/>
</g>
<g id="PLACE_YOUR_GRAPHIC_HERE">
	<path opacity="0.3" d="M27.783,4.262H7.088c-0.67,0-1.605,0.387-2.078,0.859L1.861,8.27C1.389,8.744,1,9.68,1,10.348v12.174
		c0,0.67,0.549,1.219,1.219,1.219h25.564c0.67,0,1.217-0.549,1.217-1.219V5.479C29,4.809,28.453,4.262,27.783,4.262z M8.305,21.305
		H2.219v-2.436h6.086V21.305z M8.305,17.652H2.219v-2.436h6.086V17.652z M8.305,14H2.219v-2.434h6.086V14z"/>
	<path opacity="0.15" d="M2.219,25.74C0.995,25.74,0,24.745,0,23.521V11.348c0-0.927,0.496-2.124,1.153-2.784l3.15-3.15
		c0.657-0.657,1.854-1.152,2.785-1.152h20.695C29.006,4.262,30,5.256,30,6.479v17.043c0,1.224-0.994,2.219-2.217,2.219H2.219z"/>
	<path opacity="0.15" d="M27.783,5.262H7.088c-0.67,0-1.605,0.387-2.078,0.859L1.861,9.27C1.389,9.744,1,10.68,1,11.348v12.174
		c0,0.67,0.549,1.219,1.219,1.219h25.564c0.67,0,1.217-0.549,1.217-1.219V6.479C29,5.809,28.453,5.262,27.783,5.262z M8.305,22.305
		H2.219v-2.436h6.086V22.305z M8.305,18.652H2.219v-2.436h6.086V18.652z M8.305,15H2.219v-2.434h6.086V15z"/>
	<path fill="#FFFFFF" d="M27.783,5.262H7.088c-0.67,0-1.605,0.387-2.078,0.859L1.861,9.27C1.389,9.744,1,10.68,1,11.348v12.174
		c0,0.67,0.549,1.219,1.219,1.219h25.564c0.67,0,1.217-0.549,1.217-1.219V6.479C29,5.809,28.453,5.262,27.783,5.262z M8.305,22.305
		H2.219v-2.436h6.086V22.305z M8.305,18.652H2.219v-2.436h6.086V18.652z M8.305,15H2.219v-2.434h6.086V15z"/>
</g>
</svg>
