<?xml version="1.0" encoding="utf-8"?>
<!-- Generator: Adobe Illustrator 15.0.0, SVG Export Plug-In . SVG Version: 6.00 Build 0)  -->
<!DOCTYPE svg PUBLIC "-//W3C//DTD SVG 1.1//EN" "http://www.w3.org/Graphics/SVG/1.1/DTD/svg11.dtd">
<svg version="1.1" xmlns="http://www.w3.org/2000/svg" xmlns:xlink="http://www.w3.org/1999/xlink" x="0px" y="0px" width="30px"
	 height="30px" viewBox="0 0 30 30" enable-background="new 0 0 30 30" xml:space="preserve">
<g id="DO_NOT_EDIT_-_BOUNDING_BOX">
	<rect id="BOUNDING_BOX" fill="none" width="30" height="30"/>
</g>
<g id="PLACE_YOUR_GRAPHIC_HERE">
	<path opacity="0.3" d="M20.762,2.236l-6.49,11.643l4.367-0.002v1.699c0,3.209-2.613,5.822-5.822,5.822
		c-3.211,0-5.822-2.613-5.822-5.822v-2.592c0-0.576-0.471-1.047-1.047-1.047H3.674c-0.574,0-1.045,0.471-1.045,1.047v2.68
		c0,0.029,0.006,0.057,0.008,0.086c0.096,5.545,4.611,10.014,10.18,10.014c5.625,0,10.189-4.563,10.189-10.188v-1.699l4.363-0.002
		L20.762,2.236z"/>
	<path opacity="0.15" d="M12.817,27.764c-6.06,0-11.075-4.933-11.18-10.996c-0.005-0.041-0.008-0.063-0.008-0.104v-2.68
		c0-1.128,0.917-2.047,2.045-2.047h2.273c1.128,0,2.047,0.918,2.047,2.047v2.592c0,2.659,2.163,4.822,4.822,4.822
		c2.659,0,4.822-2.163,4.822-4.822v-0.699l-3.367,0.001c-0.354,0-0.683-0.188-0.862-0.493s-0.184-0.684-0.011-0.994l6.49-11.643
		c0.176-0.315,0.508-0.512,0.869-0.513c0.001,0,0.003,0,0.004,0c0.359,0,0.692,0.193,0.87,0.506l6.607,11.639
		c0.175,0.31,0.173,0.689-0.006,0.997s-0.508,0.497-0.864,0.497l-3.363,0.001v0.7C24.006,22.745,18.986,27.764,12.817,27.764z"/>
	<path opacity="0.15" d="M20.762,3.236l-6.49,11.643l4.367-0.002v1.699c0,3.209-2.613,5.822-5.822,5.822
		c-3.211,0-5.822-2.613-5.822-5.822v-2.592c0-0.576-0.471-1.047-1.047-1.047H3.674c-0.574,0-1.045,0.471-1.045,1.047v2.68
		c0,0.029,0.006,0.057,0.008,0.086c0.096,5.545,4.611,10.014,10.18,10.014c5.625,0,10.189-4.563,10.189-10.188v-1.699l4.363-0.002
		L20.762,3.236z"/>
	<path fill="#FFFFFF" d="M20.762,3.236l-6.49,11.643l4.367-0.002v1.699c0,3.209-2.613,5.822-5.822,5.822
		c-3.211,0-5.822-2.613-5.822-5.822v-2.592c0-0.576-0.471-1.047-1.047-1.047H3.674c-0.574,0-1.045,0.471-1.045,1.047v2.68
		c0,0.029,0.006,0.057,0.008,0.086c0.096,5.545,4.611,10.014,10.18,10.014c5.625,0,10.189-4.563,10.189-10.188v-1.699l4.363-0.002
		L20.762,3.236z"/>
</g>
</svg>
