<?xml version="1.0" encoding="utf-8"?>
<!-- Generator: Adobe Illustrator 15.0.0, SVG Export Plug-In . SVG Version: 6.00 Build 0)  -->
<!DOCTYPE svg PUBLIC "-//W3C//DTD SVG 1.1//EN" "http://www.w3.org/Graphics/SVG/1.1/DTD/svg11.dtd">
<svg version="1.1" xmlns="http://www.w3.org/2000/svg" xmlns:xlink="http://www.w3.org/1999/xlink" x="0px" y="0px" width="30px"
	 height="30px" viewBox="0 0 30 30" enable-background="new 0 0 30 30" xml:space="preserve">
<g id="DO_NOT_EDIT_-_BOUNDING_BOX">
	<rect id="BOUNDING_BOX" fill="none" width="30" height="30"/>
</g>
<g id="PLACE_YOUR_GRAPHIC_HERE">
	<path opacity="0.3" d="M17,8.5c0.275,0,0.5-0.225,0.5-0.5S17.275,7.5,17,7.5c-3.584,0-6.5,2.916-6.5,6.5c0,0.275,0.225,0.5,0.5,0.5
		s0.5-0.225,0.5-0.5C11.5,10.969,13.966,8.5,17,8.5z M16.5,18c0,0.275,0.225,0.5,0.5,0.5c2.48,0,4.5-2.02,4.5-4.5
		c0-0.275-0.225-0.5-0.5-0.5s-0.5,0.225-0.5,0.5c0,1.93-1.57,3.5-3.5,3.5C16.725,17.5,16.5,17.725,16.5,18z M2,4v20
		c0,0.549,0.449,1,1,1h1V3H3C2.449,3,2,3.449,2,4z M19,14c0-1.104-0.896-2-2-2c-1.104,0-2,0.896-2,2s0.896,2,2,2
		C18.104,16,19,15.104,19,14z M17.5,10c0-0.275-0.225-0.5-0.5-0.5c-2.481,0-4.5,2.02-4.5,4.5c0,0.275,0.225,0.5,0.5,0.5
		s0.5-0.225,0.5-0.5c0-1.93,1.57-3.5,3.5-3.5C17.275,10.5,17.5,10.275,17.5,10z M27,3H6v22h21c0.549,0,1-0.451,1-1V4
		C28,3.449,27.549,3,27,3z M17,22c-4.42,0-8-3.582-8-8s3.58-8,8-8c4.418,0,8,3.582,8,8S21.418,22,17,22z M22.5,14
		c0,3.031-2.469,5.5-5.5,5.5c-0.275,0-0.5,0.225-0.5,0.5s0.225,0.5,0.5,0.5c3.584,0,6.5-2.916,6.5-6.5c0-0.275-0.225-0.5-0.5-0.5
		S22.5,13.725,22.5,14z"/>
	<path opacity="0.15" d="M6,27c-0.552,0-1-0.447-1-1c0,0.553-0.448,1-1,1H3c-1.103,0-2-0.897-2-2V5c0-1.103,0.897-2,2-2h1
		c0.552,0,1,0.448,1,1c0-0.552,0.448-1,1-1h21c1.103,0,2,0.897,2,2v20c0,1.103-0.897,2-2,2H6z"/>
	<path opacity="0.15" d="M17,9.5c0.275,0,0.5-0.225,0.5-0.5S17.275,8.5,17,8.5c-3.584,0-6.5,2.916-6.5,6.5
		c0,0.275,0.225,0.5,0.5,0.5s0.5-0.225,0.5-0.5C11.5,11.969,13.966,9.5,17,9.5z M16.5,19c0,0.275,0.225,0.5,0.5,0.5
		c2.48,0,4.5-2.02,4.5-4.5c0-0.275-0.225-0.5-0.5-0.5s-0.5,0.225-0.5,0.5c0,1.93-1.57,3.5-3.5,3.5C16.725,18.5,16.5,18.725,16.5,19z
		 M2,5v20c0,0.549,0.449,1,1,1h1V4H3C2.449,4,2,4.449,2,5z M19,15c0-1.104-0.896-2-2-2c-1.104,0-2,0.896-2,2s0.896,2,2,2
		C18.104,17,19,16.104,19,15z M17.5,11c0-0.275-0.225-0.5-0.5-0.5c-2.481,0-4.5,2.02-4.5,4.5c0,0.275,0.225,0.5,0.5,0.5
		s0.5-0.225,0.5-0.5c0-1.93,1.57-3.5,3.5-3.5C17.275,11.5,17.5,11.275,17.5,11z M27,4H6v22h21c0.549,0,1-0.451,1-1V5
		C28,4.449,27.549,4,27,4z M17,23c-4.42,0-8-3.582-8-8s3.58-8,8-8c4.418,0,8,3.582,8,8S21.418,23,17,23z M22.5,15
		c0,3.031-2.469,5.5-5.5,5.5c-0.275,0-0.5,0.225-0.5,0.5s0.225,0.5,0.5,0.5c3.584,0,6.5-2.916,6.5-6.5c0-0.275-0.225-0.5-0.5-0.5
		S22.5,14.725,22.5,15z"/>
	<path fill="#FFFFFF" d="M17,9.5c0.275,0,0.5-0.225,0.5-0.5S17.275,8.5,17,8.5c-3.584,0-6.5,2.916-6.5,6.5
		c0,0.275,0.225,0.5,0.5,0.5s0.5-0.225,0.5-0.5C11.5,11.969,13.966,9.5,17,9.5z M16.5,19c0,0.275,0.225,0.5,0.5,0.5
		c2.48,0,4.5-2.02,4.5-4.5c0-0.275-0.225-0.5-0.5-0.5s-0.5,0.225-0.5,0.5c0,1.93-1.57,3.5-3.5,3.5C16.725,18.5,16.5,18.725,16.5,19z
		 M2,5v20c0,0.549,0.449,1,1,1h1V4H3C2.449,4,2,4.449,2,5z M19,15c0-1.104-0.896-2-2-2c-1.104,0-2,0.896-2,2s0.896,2,2,2
		C18.104,17,19,16.104,19,15z M17.5,11c0-0.275-0.225-0.5-0.5-0.5c-2.481,0-4.5,2.02-4.5,4.5c0,0.275,0.225,0.5,0.5,0.5
		s0.5-0.225,0.5-0.5c0-1.93,1.57-3.5,3.5-3.5C17.275,11.5,17.5,11.275,17.5,11z M27,4H6v22h21c0.549,0,1-0.451,1-1V5
		C28,4.449,27.549,4,27,4z M17,23c-4.42,0-8-3.582-8-8s3.58-8,8-8c4.418,0,8,3.582,8,8S21.418,23,17,23z M22.5,15
		c0,3.031-2.469,5.5-5.5,5.5c-0.275,0-0.5,0.225-0.5,0.5s0.225,0.5,0.5,0.5c3.584,0,6.5-2.916,6.5-6.5c0-0.275-0.225-0.5-0.5-0.5
		S22.5,14.725,22.5,15z"/>
</g>
</svg>
