<?xml version="1.0" encoding="utf-8"?>
<!-- Generator: Adobe Illustrator 15.0.0, SVG Export Plug-In . SVG Version: 6.00 Build 0)  -->
<!DOCTYPE svg PUBLIC "-//W3C//DTD SVG 1.1//EN" "http://www.w3.org/Graphics/SVG/1.1/DTD/svg11.dtd">
<svg version="1.1" xmlns="http://www.w3.org/2000/svg" xmlns:xlink="http://www.w3.org/1999/xlink" x="0px" y="0px" width="30px"
	 height="30px" viewBox="0 0 30 30" enable-background="new 0 0 30 30" xml:space="preserve">
<g id="DO_NOT_EDIT_-_BOUNDING_BOX">
	<rect id="BOUNDING_BOX" fill="none" width="30" height="30"/>
</g>
<g id="PLACE_YOUR_GRAPHIC_HERE">
	<path opacity="0.3" d="M22.123,22.637c0.227,0,0.453,0.015,0.678,0.044v-7.452c0-1.096,0.832-1.669,1.654-1.669
		c0.035,0,0.119,0.004,0.152,0.007c0.129,0.019,0.262,0.039,0.393,0.059V2c0-0.551-0.449-1-1-1H4C3.45,1,3,1.449,3,2v24
		c0,0.55,0.45,1,1,1h14.293C18.107,26.636,18,26.239,18,25.818C18,24.034,19.811,22.637,22.123,22.637z M6.903,6.971h14.192
		c0.553,0,1,0.447,1,1s-0.447,1-1,1H6.903c-0.553,0-1-0.447-1-1S6.351,6.971,6.903,6.971z M6.903,10.971h14.192c0.553,0,1,0.447,1,1
		s-0.447,1-1,1H6.903c-0.553,0-1-0.447-1-1S6.351,10.971,6.903,10.971z M6.903,14.971h14.192c0.553,0,1,0.447,1,1s-0.447,1-1,1
		H6.903c-0.553,0-1-0.447-1-1S6.351,14.971,6.903,14.971z M6.903,20.971c-0.553,0-1-0.447-1-1s0.447-1,1-1h14.192
		c0.553,0,1,0.447,1,1s-0.447,1-1,1H6.903z M24.506,14.562c0,0-0.705-0.072-0.705,0.667v8.761c-0.488-0.22-1.061-0.353-1.678-0.353
		c-1.727,0-3.123,0.976-3.123,2.182C19,27.023,20.396,28,22.123,28c1.723,0,3.117-0.977,3.117-2.182v-7.561
		c1.436,0.219,2.75,0.519,3.84,0.822v-3.654C27.422,14.996,25.773,14.743,24.506,14.562z"/>
	<path opacity="0.15" d="M29.331,15.458c-1.141-0.295-2.258-0.508-3.343-0.683c0.008-0.049,0.012-0.1,0.012-0.15V3
		c0-1.103-0.897-2-2-2H4C2.897,1,2,1.897,2,3v24c0,1.103,0.897,2,2,2h15.13c0.747,0.611,1.794,1,2.993,1
		c2.309,0,4.117-1.397,4.117-3.182v-6.375c0.873,0.167,1.745,0.37,2.571,0.6c0.089,0.025,0.179,0.037,0.269,0.037
		c0.216,0,0.429-0.07,0.604-0.204c0.249-0.188,0.396-0.483,0.396-0.796v-3.654C30.08,15.97,29.772,15.572,29.331,15.458z"/>
	<path opacity="0.15" d="M22.123,23.637c0.227,0,0.453,0.015,0.678,0.044v-7.452c0-1.096,0.832-1.669,1.654-1.669
		c0.035,0,0.119,0.004,0.152,0.007c0.129,0.019,0.262,0.039,0.393,0.059V3c0-0.551-0.449-1-1-1H4C3.45,2,3,2.449,3,3v24
		c0,0.55,0.45,1,1,1h14.293C18.107,27.636,18,27.239,18,26.818C18,25.034,19.811,23.637,22.123,23.637z M6.903,7.971h14.192
		c0.553,0,1,0.447,1,1s-0.447,1-1,1H6.903c-0.553,0-1-0.447-1-1S6.351,7.971,6.903,7.971z M6.903,11.971h14.192c0.553,0,1,0.447,1,1
		s-0.447,1-1,1H6.903c-0.553,0-1-0.447-1-1S6.351,11.971,6.903,11.971z M6.903,15.971h14.192c0.553,0,1,0.447,1,1s-0.447,1-1,1
		H6.903c-0.553,0-1-0.447-1-1S6.351,15.971,6.903,15.971z M6.903,21.971c-0.553,0-1-0.447-1-1s0.447-1,1-1h14.192
		c0.553,0,1,0.447,1,1s-0.447,1-1,1H6.903z M24.506,15.562c0,0-0.705-0.072-0.705,0.667v8.761c-0.488-0.22-1.061-0.353-1.678-0.353
		c-1.727,0-3.123,0.976-3.123,2.182C19,28.023,20.396,29,22.123,29c1.723,0,3.117-0.977,3.117-2.182v-7.561
		c1.436,0.219,2.75,0.519,3.84,0.822v-3.654C27.422,15.996,25.773,15.743,24.506,15.562z"/>
	<path fill="#FFFFFF" d="M22.123,23.637c0.227,0,0.453,0.015,0.678,0.044v-7.452c0-1.096,0.832-1.669,1.654-1.669
		c0.035,0,0.119,0.004,0.152,0.007c0.129,0.019,0.262,0.039,0.393,0.059V3c0-0.551-0.449-1-1-1H4C3.45,2,3,2.449,3,3v24
		c0,0.55,0.45,1,1,1h14.293C18.107,27.636,18,27.239,18,26.818C18,25.034,19.811,23.637,22.123,23.637z M6.903,7.971h14.192
		c0.553,0,1,0.447,1,1s-0.447,1-1,1H6.903c-0.553,0-1-0.447-1-1S6.351,7.971,6.903,7.971z M6.903,11.971h14.192c0.553,0,1,0.447,1,1
		s-0.447,1-1,1H6.903c-0.553,0-1-0.447-1-1S6.351,11.971,6.903,11.971z M6.903,15.971h14.192c0.553,0,1,0.447,1,1s-0.447,1-1,1
		H6.903c-0.553,0-1-0.447-1-1S6.351,15.971,6.903,15.971z M6.903,21.971c-0.553,0-1-0.447-1-1s0.447-1,1-1h14.192
		c0.553,0,1,0.447,1,1s-0.447,1-1,1H6.903z M24.506,15.562c0,0-0.705-0.072-0.705,0.667v8.761c-0.488-0.22-1.061-0.353-1.678-0.353
		c-1.727,0-3.123,0.976-3.123,2.182C19,28.023,20.396,29,22.123,29c1.723,0,3.117-0.977,3.117-2.182v-7.561
		c1.436,0.219,2.75,0.519,3.84,0.822v-3.654C27.422,15.996,25.773,15.743,24.506,15.562z"/>
</g>
</svg>
