<?xml version="1.0" encoding="utf-8"?>
<!-- Generator: Adobe Illustrator 15.0.0, SVG Export Plug-In . SVG Version: 6.00 Build 0)  -->
<!DOCTYPE svg PUBLIC "-//W3C//DTD SVG 1.1//EN" "http://www.w3.org/Graphics/SVG/1.1/DTD/svg11.dtd">
<svg version="1.1" xmlns="http://www.w3.org/2000/svg" xmlns:xlink="http://www.w3.org/1999/xlink" x="0px" y="0px" width="30px"
	 height="30px" viewBox="0 0 30 30" enable-background="new 0 0 30 30" xml:space="preserve">
<g id="DO_NOT_EDIT_-_BOUNDING_BOX">
	<rect id="BOUNDING_BOX" fill="none" width="30" height="30"/>
</g>
<g id="PLACE_YOUR_GRAPHIC_HERE">
	<path opacity="0.3" d="M21.314,18.186l-2.102,1.879c0.158-0.184-1.797,2.037-7.469-3.463h-0.002l-0.273-0.273l0.001-0.002
		c-5.501-5.674-3.28-7.627-3.46-7.469l1.802-2.171c0,0,0.685-0.579,0.17-1.56L8.37,0.812c0,0-0.528-0.998-1.437-0.781
		C0.442,1.578,2.225,8.37,2.225,8.37c0.91,4.864,4.668,8.882,5.937,10.119l-0.005,0.008l1.845,1.844l0.009-0.01
		c1.133,1.088,3.269,2.902,5.921,4.182l6.624-6.623C21.77,17.654,21.314,18.186,21.314,18.186z"/>
	<path opacity="0.3" d="M27.582,19.932l-6.064,6.063c2.129,0.033,5.43-0.641,6.451-4.928C28.09,20.559,27.832,20.174,27.582,19.932z
		"/>
	<path opacity="0.3" d="M26.678,17.301c-0.391-0.391-1.023-0.391-1.414,0L16.9,25.664c-0.391,0.391-0.391,1.023,0,1.414
		c0.195,0.195,0.451,0.293,0.707,0.293s0.512-0.098,0.707-0.293l8.363-8.363C27.068,18.324,27.068,17.691,26.678,17.301z"/>
	<path opacity="0.15" d="M17.607,29.371c-0.534,0-1.036-0.209-1.414-0.586c-0.378-0.379-0.586-0.881-0.586-1.414
		c0-0.305,0.068-0.6,0.196-0.867c-0.104-0.014-0.208-0.043-0.307-0.092c-2.759-1.33-4.943-3.189-6.064-4.25
		c-0.049-0.033-0.095-0.072-0.139-0.115l-1.845-1.844c-0.03-0.029-0.058-0.063-0.083-0.094c-1.318-1.303-5.175-5.481-6.125-10.556
		C1.22,9.479,0.351,6.063,2.042,3.242c0.962-1.605,2.53-2.676,4.659-3.184C6.863,0.02,7.027,0,7.189,0
		c1.315,0,1.992,1.207,2.064,1.344c0.02,0.038,0.038,0.078,0.053,0.118l1.591,4.261c0.61,1.228,0.076,2.223-0.357,2.65
		c0,0-1.716,2.07-1.722,2.078c-0.012,0.019-0.948,1.726,3.369,6.178c0.012,0.014,0.263,0.268,0.263,0.268
		c3.105,3.008,4.873,3.459,5.648,3.459c0.33,0,0.488-0.084,0.522-0.104l1.995-1.785c0.188-0.191,0.715-0.639,1.547-0.639
		c0.224,0,0.451,0.035,0.677,0.102c0.333,0.1,0.591,0.363,0.681,0.699l1.036-1.035c0.378-0.379,0.88-0.586,1.414-0.586
		s1.036,0.207,1.414,0.586c0.378,0.377,0.586,0.879,0.586,1.414c0,0.332-0.08,0.65-0.231,0.936c0.197,0.031,0.387,0.121,0.54,0.271
		c0.606,0.59,0.842,1.33,0.662,2.084c-1.181,4.957-5.066,5.697-7.278,5.697l-0.161-0.002c-0.401-0.006-0.761-0.252-0.911-0.625
		c-0.016-0.037-0.028-0.076-0.039-0.115l-1.53,1.531C18.644,29.162,18.142,29.371,17.607,29.371z"/>
	<path opacity="0.15" d="M27.582,20.932l-6.064,6.063c2.129,0.033,5.43-0.641,6.451-4.928C28.09,21.559,27.832,21.174,27.582,20.932
		z M21.314,19.186l-2.102,1.879c0.158-0.184-1.797,2.037-7.469-3.463h-0.002l-0.273-0.273l0.001-0.002
		c-5.501-5.674-3.28-7.627-3.46-7.469l1.802-2.171c0,0,0.685-0.579,0.17-1.56L8.37,1.812c0,0-0.528-0.998-1.437-0.781
		C0.442,2.578,2.225,9.37,2.225,9.37c0.91,4.864,4.668,8.882,5.937,10.119l-0.005,0.008l1.845,1.844l0.009-0.01
		c1.133,1.088,3.269,2.902,5.921,4.182l6.624-6.623C21.77,18.654,21.314,19.186,21.314,19.186z M26.678,18.301
		c-0.391-0.391-1.023-0.391-1.414,0L16.9,26.664c-0.391,0.391-0.391,1.023,0,1.414c0.195,0.195,0.451,0.293,0.707,0.293
		s0.512-0.098,0.707-0.293l8.363-8.363C27.068,19.324,27.068,18.691,26.678,18.301z"/>
	<path fill="#FFFFFF" d="M27.582,20.932l-6.064,6.063c2.129,0.033,5.43-0.641,6.451-4.928C28.09,21.559,27.832,21.174,27.582,20.932
		z"/>
	<path fill="#FFFFFF" d="M21.314,19.186l-2.102,1.879c0.158-0.184-1.797,2.037-7.469-3.463h-0.002l-0.273-0.273l0.001-0.002
		c-5.501-5.674-3.28-7.627-3.46-7.469l1.802-2.171c0,0,0.685-0.579,0.17-1.56L8.37,1.812c0,0-0.528-0.998-1.437-0.781
		C0.442,2.578,2.225,9.37,2.225,9.37c0.91,4.864,4.668,8.882,5.937,10.119l-0.005,0.008l1.845,1.844l0.009-0.01
		c1.133,1.088,3.269,2.902,5.921,4.182l6.624-6.623C21.77,18.654,21.314,19.186,21.314,19.186z"/>
	<path fill="#EC1C24" d="M17.607,28.371c-0.256,0-0.512-0.098-0.707-0.293c-0.391-0.391-0.391-1.023,0-1.414l8.363-8.363
		c0.391-0.391,1.023-0.391,1.414,0s0.391,1.023,0,1.414l-8.363,8.363C18.119,28.273,17.863,28.371,17.607,28.371z"/>
</g>
</svg>
