<?xml version="1.0" encoding="utf-8"?>
<!-- Generator: Adobe Illustrator 15.0.0, SVG Export Plug-In . SVG Version: 6.00 Build 0)  -->
<!DOCTYPE svg PUBLIC "-//W3C//DTD SVG 1.1//EN" "http://www.w3.org/Graphics/SVG/1.1/DTD/svg11.dtd">
<svg version="1.1" xmlns="http://www.w3.org/2000/svg" xmlns:xlink="http://www.w3.org/1999/xlink" x="0px" y="0px" width="30px"
	 height="30px" viewBox="0 0 30 30" enable-background="new 0 0 30 30" xml:space="preserve">
<g id="DO_NOT_EDIT_-_BOUNDING_BOX">
	<rect id="BOUNDING_BOX" fill="none" width="30" height="30"/>
</g>
<g id="PLACE_YOUR_GRAPHIC_HERE">
	<path opacity="0.3" d="M8.233,17.23C7.461,16.001,7,14.557,7,13c0-0.553-0.447-1-1-1c-0.554,0-1,0.447-1,1
		c0,2.109,0.669,4.061,1.789,5.676L8.233,17.23z"/>
	<path opacity="0.3" d="M9.709,15.756L20.818,4.646C20.201,1.988,17.846,0,15,0c-3.314,0-6,2.688-6,6v7.5h0.024
		C9.092,14.314,9.345,15.068,9.709,15.756z"/>
	<path opacity="0.3" d="M28.707,0.293c-0.391-0.391-1.023-0.391-1.414,0l-26,26c-0.392,0.391-0.392,1.023,0,1.414
		C1.487,27.902,1.744,28,2,28s0.512-0.098,0.707-0.293l26-26C29.098,1.316,29.098,0.684,28.707,0.293z"/>
	<path opacity="0.3" d="M20,26c0-0.553-0.447-1-1-1h-2v-2.201c4.559-0.93,8-4.97,8-9.799c0-0.553-0.447-1-1-1s-1,0.447-1,1
		c0,4.411-3.588,8-8,8c-1.025,0-2.002-0.207-2.904-0.561l-1.506,1.506c0.758,0.377,1.559,0.68,2.41,0.854V25h-2
		c-0.554,0-1,0.447-1,1s0.446,1,1,1h8C19.553,27,20,26.553,20,26z"/>
	<path opacity="0.3" d="M20.975,13.5H21v-1.965l-7.292,7.291C14.126,18.925,14.552,19,15,19C18.146,19,20.721,16.58,20.975,13.5z"/>
	<path opacity="0.15" d="M2,30c-0.536,0-1.039-0.209-1.416-0.588C0.208,29.037,0,28.534,0,28s0.208-1.037,0.587-1.415l5.943-5.943
		c-0.227-0.061-0.427-0.2-0.563-0.396C4.68,18.39,4,16.23,4,14c0-1.103,0.897-2,2-2s2,0.897,2,2V7c0-3.86,3.14-7,7-7
		c3.248,0,6.033,2.213,6.785,5.387l4.802-4.801C26.964,0.208,27.466,0,28,0s1.036,0.208,1.414,0.586c0.78,0.78,0.78,2.048,0,2.828
		l-8.155,8.155c0.042,0.011,0.083,0.025,0.124,0.042C21.757,11.766,22,12.131,22,12.535V14c0-1.103,0.897-2,2-2s2,0.897,2,2
		c0,4.93-3.318,9.256-8,10.584V25h1c1.103,0,2,0.897,2,2s-0.897,2-2,2h-8c-1.103,0-2-0.897-2-2s0.897-2,2-2h1v-0.421
		c-0.61-0.18-1.223-0.424-1.855-0.738c-0.258-0.129-0.447-0.361-0.521-0.637l-6.21,6.21C3.036,29.792,2.534,30,2,30z"/>
	<path opacity="0.15" d="M8.233,18.23C7.461,17.001,7,15.557,7,14c0-0.553-0.447-1-1-1c-0.554,0-1,0.447-1,1
		c0,2.109,0.669,4.061,1.789,5.676L8.233,18.23z M9.709,16.756L20.818,5.646C20.201,2.988,17.846,1,15,1c-3.314,0-6,2.688-6,6v7.5
		h0.024C9.092,15.314,9.345,16.068,9.709,16.756z M24,13c-0.553,0-1,0.447-1,1c0,4.411-3.588,8-8,8
		c-1.025,0-2.002-0.207-2.904-0.561l-1.506,1.506c0.758,0.377,1.559,0.68,2.41,0.854V26h-2c-0.554,0-1,0.447-1,1s0.446,1,1,1h8
		c0.553,0,1-0.447,1-1s-0.447-1-1-1h-2v-2.201c4.559-0.93,8-4.97,8-9.799C25,13.447,24.553,13,24,13z M28.707,1.293
		c-0.391-0.391-1.023-0.391-1.414,0l-26,26c-0.392,0.391-0.392,1.023,0,1.414C1.487,28.902,1.744,29,2,29s0.512-0.098,0.707-0.293
		l26-26C29.098,2.316,29.098,1.684,28.707,1.293z M20.975,14.5H21v-1.965l-7.292,7.291C14.126,19.925,14.552,20,15,20
		C18.146,20,20.721,17.58,20.975,14.5z"/>
	<path fill="#FFFFFF" d="M8.233,18.23C7.461,17.001,7,15.557,7,14c0-0.553-0.447-1-1-1c-0.554,0-1,0.447-1,1
		c0,2.109,0.669,4.061,1.789,5.676L8.233,18.23z"/>
	<path fill="#FFFFFF" d="M9.709,16.756L20.818,5.646C20.201,2.988,17.846,1,15,1c-3.314,0-6,2.688-6,6v7.5h0.024
		C9.092,15.314,9.345,16.068,9.709,16.756z"/>
	<path fill="#FFFFFF" d="M24,13c-0.553,0-1,0.447-1,1c0,4.411-3.588,8-8,8c-1.025,0-2.002-0.207-2.904-0.561l-1.506,1.506
		c0.758,0.377,1.559,0.68,2.41,0.854V26h-2c-0.554,0-1,0.447-1,1s0.446,1,1,1h8c0.553,0,1-0.447,1-1s-0.447-1-1-1h-2v-2.201
		c4.559-0.93,8-4.97,8-9.799C25,13.447,24.553,13,24,13z"/>
	<path fill="#FFFFFF" d="M20.975,14.5H21v-1.965l-7.292,7.291C14.126,19.925,14.552,20,15,20C18.146,20,20.721,17.58,20.975,14.5z"
		/>
	<path fill="#EA2227" d="M2,29c-0.256,0-0.513-0.098-0.707-0.293c-0.392-0.391-0.392-1.023,0-1.414l26-26
		c0.391-0.391,1.023-0.391,1.414,0s0.391,1.023,0,1.414l-26,26C2.512,28.902,2.256,29,2,29L2,29z"/>
</g>
</svg>
