<?xml version="1.0" encoding="utf-8"?>
<!-- Generator: Adobe Illustrator 15.0.0, SVG Export Plug-In . SVG Version: 6.00 Build 0)  -->
<!DOCTYPE svg PUBLIC "-//W3C//DTD SVG 1.1//EN" "http://www.w3.org/Graphics/SVG/1.1/DTD/svg11.dtd">
<svg version="1.1" xmlns="http://www.w3.org/2000/svg" xmlns:xlink="http://www.w3.org/1999/xlink" x="0px" y="0px" width="30px"
	 height="30px" viewBox="0 0 30 30" enable-background="new 0 0 30 30" xml:space="preserve">
<g id="DO_NOT_EDIT_-_BOUNDING_BOX">
	<rect id="BOUNDING_BOX" fill="none" width="30" height="30"/>
</g>
<g id="PLACE_YOUR_GRAPHIC_HERE">
	<path opacity="0.3" d="M26.293,13.293l-9.586-9.586c-0.389-0.389-1.025-0.389-1.414,0l-1.586,1.586
		c-0.389,0.389-0.389,1.025,0,1.414L19,12H4c-0.55,0-1,0.451-1,1v2c0,0.551,0.45,1,1,1h15l-5.293,5.293
		c-0.389,0.389-0.389,1.025,0,1.414l1.586,1.586c0.389,0.389,1.025,0.389,1.414,0l9.586-9.586
		C26.682,14.318,26.682,13.682,26.293,13.293z"/>
	<path opacity="0.15" d="M16,26.584c-0.535,0-1.037-0.207-1.414-0.584L13,24.414c-0.78-0.779-0.78-2.049,0-2.828L16.586,18H4
		c-1.103,0-2-0.897-2-2v-2c0-1.103,0.897-2,2-2h12.586L13,8.414c-0.78-0.78-0.78-2.048,0-2.828L14.586,4
		C14.963,3.623,15.465,3.416,16,3.416S17.037,3.623,17.414,4L27,13.586c0.78,0.78,0.78,2.048,0,2.828L17.414,26
		C17.037,26.377,16.535,26.584,16,26.584z"/>
	<path opacity="0.15" d="M26.293,14.293l-9.586-9.586c-0.389-0.389-1.025-0.389-1.414,0l-1.586,1.586
		c-0.389,0.389-0.389,1.025,0,1.414L19,13H4c-0.55,0-1,0.451-1,1v2c0,0.551,0.45,1,1,1h15l-5.293,5.293
		c-0.389,0.389-0.389,1.025,0,1.414l1.586,1.586c0.389,0.389,1.025,0.389,1.414,0l9.586-9.586
		C26.682,15.318,26.682,14.682,26.293,14.293z"/>
	<path fill="#FFFFFF" d="M26.293,14.293l-9.586-9.586c-0.389-0.389-1.025-0.389-1.414,0l-1.586,1.586
		c-0.389,0.389-0.389,1.025,0,1.414L19,13H4c-0.55,0-1,0.451-1,1v2c0,0.551,0.45,1,1,1h15l-5.293,5.293
		c-0.389,0.389-0.389,1.025,0,1.414l1.586,1.586c0.389,0.389,1.025,0.389,1.414,0l9.586-9.586
		C26.682,15.318,26.682,14.682,26.293,14.293z"/>
	<rect fill="none" width="30" height="30"/>
</g>
</svg>
