<?xml version="1.0" encoding="utf-8"?>
<!-- Generator: Adobe Illustrator 15.0.0, SVG Export Plug-In . SVG Version: 6.00 Build 0)  -->
<!DOCTYPE svg PUBLIC "-//W3C//DTD SVG 1.1//EN" "http://www.w3.org/Graphics/SVG/1.1/DTD/svg11.dtd">
<svg version="1.1" xmlns="http://www.w3.org/2000/svg" xmlns:xlink="http://www.w3.org/1999/xlink" x="0px" y="0px" width="30px"
	 height="30px" viewBox="0 0 30 30" enable-background="new 0 0 30 30" xml:space="preserve">
<g id="DO_NOT_EDIT_-_BOUNDING_BOX">
	<rect id="BOUNDING_BOX" fill="none" width="30" height="30"/>
</g>
<g id="PLACE_YOUR_GRAPHIC_HERE">
	<g>
		<path opacity="0.3" d="M26.546,19.462l-1.008-1.008l-2.763,2.767l-2.768-2.767L19,19.462l2.768,2.765L19,24.997L20.008,26
			l2.768-2.768L25.538,26l1.008-1.003l-2.768-2.771L26.546,19.462z M25,2H5v6l8.5,6.8V26h3V14.8L25,8V2z M13.5,10.958L8,6.559V5h5.5
			V10.958z M22,6.559l-5.5,4.399V5H22V6.559z"/>
		<rect fill="none" width="30" height="30"/>
		<path opacity="0.15" d="M20.008,28c-0.255,0-0.511-0.097-0.705-0.291l-1.008-1.003C18.106,26.519,18,26.264,18,25.999
			c0-0.266,0.104-0.521,0.293-0.709l2.061-2.063l-2.061-2.059C18.105,20.981,18,20.728,18,20.462c0-0.265,0.105-0.52,0.293-0.707
			l1.008-1.008c0.195-0.195,0.451-0.293,0.707-0.293s0.512,0.098,0.707,0.293l2.06,2.059l2.056-2.059
			c0.188-0.188,0.442-0.293,0.708-0.293l0,0c0.266,0,0.52,0.105,0.707,0.293l1.008,1.008c0.188,0.188,0.293,0.442,0.293,0.707
			c0,0.266-0.105,0.52-0.293,0.707l-2.061,2.059l2.061,2.063c0.188,0.188,0.293,0.443,0.293,0.709c0,0.265-0.106,0.52-0.295,0.707
			l-1.008,1.003C26.049,27.903,25.793,28,25.538,28c-0.256,0-0.513-0.098-0.708-0.294l-2.056-2.059l-2.06,2.06
			C20.52,27.902,20.264,28,20.008,28z M13.5,28c-0.552,0-1-0.447-1-1V16.28l-8.125-6.5C4.138,9.591,4,9.304,4,9V3
			c0-0.552,0.448-1,1-1h20c0.553,0,1,0.448,1,1v6c0,0.304-0.138,0.591-0.375,0.781l-8.125,6.5V27c0,0.553-0.447,1-1,1H13.5z
			 M17.5,9.877L21,7.078V7h-3.5V9.877z M12.5,9.877V7H9v0.078L12.5,9.877z"/>
		<path opacity="0.15" d="M26.546,20.462l-1.008-1.008l-2.763,2.767l-2.768-2.767L19,20.462l2.768,2.765L19,25.997L20.008,27
			l2.768-2.768L25.538,27l1.008-1.003l-2.768-2.771L26.546,20.462z M25,3H5v6l8.5,6.8V27h3V15.8L25,9V3z M13.5,11.958L8,7.559V6h5.5
			V11.958z M22,7.559l-5.5,4.399V6H22V7.559z"/>
		<path fill="#FFFFFF" d="M26.546,20.462l-1.008-1.008l-2.763,2.767l-2.768-2.767L19,20.462l2.768,2.765L19,25.997L20.008,27
			l2.768-2.768L25.538,27l1.008-1.003l-2.768-2.771L26.546,20.462z M25,3H5v6l8.5,6.8V27h3V15.8L25,9V3z M13.5,11.958L8,7.559V6h5.5
			V11.958z M22,7.559l-5.5,4.399V6H22V7.559z"/>
	</g>
</g>
</svg>
