<?xml version="1.0" encoding="utf-8"?>
<!-- Generator: Adobe Illustrator 15.0.0, SVG Export Plug-In . SVG Version: 6.00 Build 0)  -->
<!DOCTYPE svg PUBLIC "-//W3C//DTD SVG 1.1//EN" "http://www.w3.org/Graphics/SVG/1.1/DTD/svg11.dtd">
<svg version="1.1" xmlns="http://www.w3.org/2000/svg" xmlns:xlink="http://www.w3.org/1999/xlink" x="0px" y="0px" width="30px"
	 height="30px" viewBox="0 0 30 30" enable-background="new 0 0 30 30" xml:space="preserve">
<g id="DO_NOT_EDIT_-_BOUNDING_BOX">
	<rect id="BOUNDING_BOX" fill="none" width="30" height="30"/>
</g>
<g id="PLACE_YOUR_GRAPHIC_HERE">
	<path opacity="0.3" d="M25,3H5C4.45,3,4,3.381,4,3.846v20.309C4,24.619,4.45,25,5,25h20c0.55,0,1-0.381,1-0.846V3.846
		C26,3.381,25.55,3,25,3z M22,18H8c-0.553,0-1-0.447-1-1s0.447-1,1-1h14c0.553,0,1,0.447,1,1S22.553,18,22,18z M22,14H8
		c-0.553,0-1-0.447-1-1s0.447-1,1-1h14c0.553,0,1,0.447,1,1S22.553,14,22,14z M22,10H8c-0.553,0-1-0.447-1-1s0.447-1,1-1h14
		c0.553,0,1,0.447,1,1S22.553,10,22,10z"/>
	<path opacity="0.15" d="M5,27c-1.103,0-2-0.828-2-1.846V4.846C3,3.828,3.897,3,5,3h20c1.103,0,2,0.828,2,1.846v20.309
		C27,26.172,26.103,27,25,27H5z M7.999,18H22H8H7.999z M7.999,14H22H8H7.999z M7.999,10H22H8H7.999z"/>
	<path opacity="0.15" d="M25,4H5C4.45,4,4,4.381,4,4.846v20.309C4,25.619,4.45,26,5,26h20c0.55,0,1-0.381,1-0.846V4.846
		C26,4.381,25.55,4,25,4z M22,19H8c-0.553,0-1-0.447-1-1s0.447-1,1-1h14c0.553,0,1,0.447,1,1S22.553,19,22,19z M22,15H8
		c-0.553,0-1-0.447-1-1s0.447-1,1-1h14c0.553,0,1,0.447,1,1S22.553,15,22,15z M22,11H8c-0.553,0-1-0.447-1-1s0.447-1,1-1h14
		c0.553,0,1,0.447,1,1S22.553,11,22,11z"/>
	<path fill="#FFFFFF" d="M25,4H5C4.45,4,4,4.381,4,4.846v20.309C4,25.619,4.45,26,5,26h20c0.55,0,1-0.381,1-0.846V4.846
		C26,4.381,25.55,4,25,4z M22,19H8c-0.553,0-1-0.447-1-1s0.447-1,1-1h14c0.553,0,1,0.447,1,1S22.553,19,22,19z M22,15H8
		c-0.553,0-1-0.447-1-1s0.447-1,1-1h14c0.553,0,1,0.447,1,1S22.553,15,22,15z M22,11H8c-0.553,0-1-0.447-1-1s0.447-1,1-1h14
		c0.553,0,1,0.447,1,1S22.553,11,22,11z"/>
</g>
</svg>
