<?xml version="1.0" encoding="utf-8"?>
<!-- Generator: Adobe Illustrator 15.0.0, SVG Export Plug-In . SVG Version: 6.00 Build 0)  -->
<!DOCTYPE svg PUBLIC "-//W3C//DTD SVG 1.1//EN" "http://www.w3.org/Graphics/SVG/1.1/DTD/svg11.dtd">
<svg version="1.1" xmlns="http://www.w3.org/2000/svg" xmlns:xlink="http://www.w3.org/1999/xlink" x="0px" y="0px" width="30px"
	 height="30px" viewBox="0 0 30 30" enable-background="new 0 0 30 30" xml:space="preserve">
<g id="DO_NOT_EDIT_-_BOUNDING_BOX">
	<rect id="BOUNDING_BOX" fill="none" width="30" height="30"/>
</g>
<g id="PLACE_YOUR_GRAPHIC_HERE">
	<path opacity="0.3" d="M6.296,10.19c0.101,0,0.2-0.008,0.296-0.026c0.701-0.115,1.273-0.705,1.376-1.432
		c0.06-0.453-0.056-0.892-0.33-1.25C7.364,7.125,6.963,6.895,6.514,6.836L4.615,6.591C4.544,6.582,4.473,6.578,4.401,6.578
		c-0.842,0-1.559,0.633-1.667,1.47C2.678,8.495,2.797,8.935,3.072,9.292c0.275,0.354,0.672,0.583,1.117,0.641l1.899,0.245
		C6.173,10.187,6.236,10.19,6.296,10.19z M16.456,7.428c0.091,0,0.177-0.007,0.267-0.021c0.298-0.051,0.56-0.168,0.77-0.339
		l1.509-1.165c0.36-0.281,0.589-0.684,0.641-1.134c0.052-0.446-0.074-0.886-0.353-1.234c-0.3-0.397-0.802-0.646-1.323-0.646
		c-0.369,0-0.737,0.126-1.028,0.354l-1.52,1.17c-0.729,0.569-0.859,1.626-0.302,2.357C15.431,7.182,15.932,7.428,16.456,7.428z
		 M12.456,5.248c0.071,0.012,0.145,0.017,0.22,0.017c0.09,0,0.181-0.008,0.275-0.024c0.722-0.115,1.298-0.712,1.387-1.449
		l0.243-1.894c0.06-0.439-0.057-0.884-0.332-1.242c-0.275-0.357-0.676-0.587-1.126-0.642c-0.068-0.009-0.141-0.015-0.215-0.015
		c-0.84,0-1.557,0.629-1.666,1.464L11,3.362C10.886,4.285,11.54,5.13,12.456,5.248z M27.1,24.958l-4.964-6.459l3.449-1.997
		c0.273-0.157,0.438-0.448,0.438-0.764c-0.002-0.314-0.17-0.604-0.444-0.759L11.459,6.983c-0.137-0.077-0.286-0.115-0.433-0.115
		c-0.19,0-0.381,0.062-0.537,0.185c-0.28,0.214-0.403,0.579-0.312,0.919L14.34,23.65c0.081,0.304,0.32,0.54,0.624,0.621
		c0.073,0.021,0.151,0.031,0.226,0.031c0.232,0,0.458-0.091,0.624-0.26l2.816-2.844l4.966,6.457c0.141,0.187,0.35,0.305,0.582,0.335
		c0.037,0.004,0.075,0.008,0.112,0.008c0.195,0,0.383-0.063,0.538-0.183l2.109-1.628C27.322,25.893,27.394,25.345,27.1,24.958z
		 M8.626,2.183C8.298,1.764,7.813,1.529,7.291,1.529c-0.37,0-0.724,0.119-1.02,0.341C5.526,2.458,5.395,3.517,5.96,4.242
		l1.174,1.517c0.321,0.413,0.804,0.648,1.329,0.648c0.091,0,0.184-0.009,0.275-0.024c0.254-0.036,0.509-0.143,0.743-0.314
		c0.744-0.575,0.88-1.63,0.323-2.366L8.626,2.183z M7.439,11.025c-0.372,0-0.728,0.123-1.024,0.351l-1.516,1.177
		c-0.728,0.558-0.868,1.615-0.312,2.354c0.344,0.428,0.828,0.661,1.347,0.661c0.089,0,0.176-0.008,0.265-0.021
		c0.296-0.053,0.562-0.171,0.777-0.35l1.496-1.152c0.359-0.281,0.586-0.678,0.643-1.125c0.055-0.446-0.065-0.888-0.342-1.242
		C8.444,11.263,7.959,11.025,7.439,11.025z"/>
	<path opacity="0.15" d="M24.29,29.999c-0.071,0-0.146-0.006-0.217-0.014c-0.529-0.068-0.974-0.325-1.276-0.728l-4.262-5.542
		l-2.011,2.031c-0.346,0.352-0.833,0.556-1.334,0.556c-0.175,0-0.346-0.024-0.508-0.071c-0.625-0.167-1.136-0.677-1.309-1.323
		L9.211,9.229c-0.083-0.31-0.084-0.627-0.012-0.925c-0.106,0.03-0.214,0.053-0.322,0.068C8.835,8.38,8.79,8.386,8.743,8.391
		c0.208,0.455,0.284,0.961,0.217,1.472c-0.07,0.5-0.277,0.957-0.58,1.332c0.456,0.17,0.863,0.465,1.178,0.863
		c0.444,0.569,0.638,1.271,0.551,1.984c-0.09,0.712-0.452,1.348-1.02,1.792l-1.502,1.156c-0.316,0.264-0.745,0.459-1.212,0.542
		c-0.17,0.025-0.304,0.036-0.44,0.036c-0.823,0-1.598-0.377-2.126-1.035c-0.905-1.2-0.68-2.882,0.482-3.773l0.89-0.691l-1.12-0.145
		c-0.709-0.093-1.34-0.455-1.779-1.019c-0.438-0.569-0.629-1.272-0.54-1.983c0.173-1.337,1.315-2.344,2.659-2.344
		c0.115,0,0.23,0.007,0.344,0.021l1.114,0.144L5.17,5.854c-0.901-1.156-0.686-2.848,0.481-3.77c0.491-0.369,1.051-0.556,1.64-0.556
		c0.832,0,1.606,0.378,2.123,1.037l0.693,0.895l0.143-1.124c0.175-1.334,1.317-2.337,2.658-2.337c0.12,0,0.24,0.009,0.35,0.024
		c0.704,0.085,1.343,0.449,1.784,1.023c0.439,0.572,0.627,1.277,0.53,1.986L15.43,4.142l0.897-0.691
		c0.459-0.36,1.044-0.562,1.639-0.562c0.836,0,1.629,0.39,2.122,1.044c0.43,0.538,0.63,1.238,0.547,1.952
		c-0.082,0.717-0.444,1.36-1.02,1.808L18.104,8.86c-0.322,0.264-0.748,0.454-1.211,0.533c-0.163,0.024-0.296,0.035-0.437,0.035
		c-0.169,0-0.336-0.016-0.5-0.047l10.116,5.729c0.581,0.327,0.947,0.949,0.951,1.623c0.002,0.676-0.357,1.302-0.939,1.637
		l-2.46,1.424l4.27,5.556c0.627,0.825,0.471,2.005-0.346,2.633l-2.107,1.627C25.108,29.863,24.711,29.999,24.29,29.999z
		 M14.441,8.523C14.4,8.477,14.36,8.429,14.323,8.379c-0.311-0.408-0.487-0.878-0.536-1.356c-0.212,0.097-0.44,0.167-0.679,0.205
		c-0.137,0.024-0.284,0.037-0.432,0.037c-0.13,0-0.259-0.01-0.382-0.03c-0.061-0.008-0.121-0.018-0.18-0.03L14.441,8.523z
		 M11.026,6.869c0.091,0,0.182,0.007,0.272,0.02c-0.114-0.068-0.223-0.146-0.325-0.23c-0.027,0.073-0.057,0.145-0.09,0.215
		C10.93,6.871,10.978,6.869,11.026,6.869z"/>
	<path opacity="0.15" d="M6.296,11.19c0.101,0,0.2-0.008,0.296-0.026c0.701-0.115,1.273-0.705,1.376-1.432
		c0.06-0.453-0.056-0.892-0.33-1.25C7.364,8.125,6.963,7.895,6.514,7.836L4.615,7.591C4.544,7.582,4.473,7.578,4.401,7.578
		c-0.842,0-1.559,0.633-1.667,1.47c-0.057,0.447,0.063,0.887,0.337,1.244c0.275,0.354,0.672,0.583,1.117,0.641l1.899,0.245
		C6.173,11.187,6.236,11.19,6.296,11.19z M16.456,8.428c0.091,0,0.177-0.007,0.267-0.021c0.298-0.051,0.56-0.168,0.77-0.339
		l1.509-1.165c0.36-0.281,0.589-0.684,0.641-1.134c0.052-0.446-0.074-0.886-0.353-1.234c-0.3-0.397-0.802-0.646-1.323-0.646
		c-0.369,0-0.737,0.126-1.028,0.354l-1.52,1.17c-0.729,0.569-0.859,1.626-0.302,2.357C15.431,8.182,15.932,8.428,16.456,8.428z
		 M12.456,6.248c0.071,0.012,0.145,0.017,0.22,0.017c0.09,0,0.181-0.008,0.275-0.024c0.722-0.115,1.298-0.712,1.387-1.449
		l0.243-1.894c0.06-0.439-0.057-0.884-0.332-1.242c-0.275-0.357-0.676-0.587-1.126-0.642c-0.068-0.009-0.141-0.015-0.215-0.015
		c-0.84,0-1.557,0.629-1.666,1.464L11,4.362C10.886,5.285,11.54,6.13,12.456,6.248z M27.1,25.958l-4.964-6.459l3.449-1.997
		c0.273-0.157,0.438-0.448,0.438-0.764c-0.002-0.314-0.17-0.604-0.444-0.759L11.459,7.983c-0.137-0.077-0.286-0.115-0.433-0.115
		c-0.19,0-0.381,0.062-0.537,0.185c-0.28,0.214-0.403,0.579-0.312,0.919L14.34,24.65c0.081,0.304,0.32,0.54,0.624,0.621
		c0.073,0.021,0.151,0.031,0.226,0.031c0.232,0,0.458-0.091,0.624-0.26l2.816-2.844l4.966,6.457c0.141,0.187,0.35,0.305,0.582,0.335
		c0.037,0.004,0.075,0.008,0.112,0.008c0.195,0,0.383-0.063,0.538-0.183l2.109-1.628C27.322,26.893,27.394,26.345,27.1,25.958z
		 M8.626,3.183C8.298,2.764,7.813,2.529,7.291,2.529c-0.37,0-0.724,0.119-1.02,0.341C5.526,3.458,5.395,4.517,5.96,5.242
		l1.174,1.517c0.321,0.413,0.804,0.648,1.329,0.648c0.091,0,0.184-0.009,0.275-0.024c0.254-0.036,0.509-0.143,0.743-0.314
		c0.744-0.575,0.88-1.63,0.323-2.366L8.626,3.183z M7.439,12.025c-0.372,0-0.728,0.123-1.024,0.351l-1.516,1.177
		c-0.728,0.558-0.868,1.615-0.312,2.354c0.344,0.428,0.828,0.661,1.347,0.661c0.089,0,0.176-0.008,0.265-0.021
		c0.296-0.053,0.562-0.171,0.777-0.35l1.496-1.152c0.359-0.281,0.586-0.678,0.643-1.125c0.055-0.446-0.065-0.888-0.342-1.242
		C8.444,12.263,7.959,12.025,7.439,12.025z"/>
	<path fill="#FFFFFF" d="M6.296,11.19c0.101,0,0.2-0.008,0.296-0.026c0.701-0.115,1.273-0.705,1.376-1.432
		c0.06-0.453-0.056-0.892-0.33-1.25C7.364,8.125,6.963,7.895,6.514,7.836L4.615,7.591C4.544,7.582,4.473,7.578,4.401,7.578
		c-0.842,0-1.559,0.633-1.667,1.47c-0.057,0.447,0.063,0.887,0.337,1.244c0.275,0.354,0.672,0.583,1.117,0.641l1.899,0.245
		C6.173,11.187,6.236,11.19,6.296,11.19z M16.456,8.428c0.091,0,0.177-0.007,0.267-0.021c0.298-0.051,0.56-0.168,0.77-0.339
		l1.509-1.165c0.36-0.281,0.589-0.684,0.641-1.134c0.052-0.446-0.074-0.886-0.353-1.234c-0.3-0.397-0.802-0.646-1.323-0.646
		c-0.369,0-0.737,0.126-1.028,0.354l-1.52,1.17c-0.729,0.569-0.859,1.626-0.302,2.357C15.431,8.182,15.932,8.428,16.456,8.428z
		 M12.456,6.248c0.071,0.012,0.145,0.017,0.22,0.017c0.09,0,0.181-0.008,0.275-0.024c0.722-0.115,1.298-0.712,1.387-1.449
		l0.243-1.894c0.06-0.439-0.057-0.884-0.332-1.242c-0.275-0.357-0.676-0.587-1.126-0.642c-0.068-0.009-0.141-0.015-0.215-0.015
		c-0.84,0-1.557,0.629-1.666,1.464L11,4.362C10.886,5.285,11.54,6.13,12.456,6.248z M27.1,25.958l-4.964-6.459l3.449-1.997
		c0.273-0.157,0.438-0.448,0.438-0.764c-0.002-0.314-0.17-0.604-0.444-0.759L11.459,7.983c-0.137-0.077-0.286-0.115-0.433-0.115
		c-0.19,0-0.381,0.062-0.537,0.185c-0.28,0.214-0.403,0.579-0.312,0.919L14.34,24.65c0.081,0.304,0.32,0.54,0.624,0.621
		c0.073,0.021,0.151,0.031,0.226,0.031c0.232,0,0.458-0.091,0.624-0.26l2.816-2.844l4.966,6.457c0.141,0.187,0.35,0.305,0.582,0.335
		c0.037,0.004,0.075,0.008,0.112,0.008c0.195,0,0.383-0.063,0.538-0.183l2.109-1.628C27.322,26.893,27.394,26.345,27.1,25.958z
		 M8.626,3.183C8.298,2.764,7.813,2.529,7.291,2.529c-0.37,0-0.724,0.119-1.02,0.341C5.526,3.458,5.395,4.517,5.96,5.242
		l1.174,1.517c0.321,0.413,0.804,0.648,1.329,0.648c0.091,0,0.184-0.009,0.275-0.024c0.254-0.036,0.509-0.143,0.743-0.314
		c0.744-0.575,0.88-1.63,0.323-2.366L8.626,3.183z M7.439,12.025c-0.372,0-0.728,0.123-1.024,0.351l-1.516,1.177
		c-0.728,0.558-0.868,1.615-0.312,2.354c0.344,0.428,0.828,0.661,1.347,0.661c0.089,0,0.176-0.008,0.265-0.021
		c0.296-0.053,0.562-0.171,0.777-0.35l1.496-1.152c0.359-0.281,0.586-0.678,0.643-1.125c0.055-0.446-0.065-0.888-0.342-1.242
		C8.444,12.263,7.959,12.025,7.439,12.025z"/>
</g>
</svg>
