<?xml version="1.0" encoding="utf-8"?>
<!-- Generator: Adobe Illustrator 15.0.0, SVG Export Plug-In . SVG Version: 6.00 Build 0)  -->
<!DOCTYPE svg PUBLIC "-//W3C//DTD SVG 1.1//EN" "http://www.w3.org/Graphics/SVG/1.1/DTD/svg11.dtd">
<svg version="1.1" xmlns="http://www.w3.org/2000/svg" xmlns:xlink="http://www.w3.org/1999/xlink" x="0px" y="0px" width="30px"
	 height="30px" viewBox="0 0 30 30" enable-background="new 0 0 30 30" xml:space="preserve">
<g id="DO_NOT_EDIT_-_BOUNDING_BOX">
	<rect id="BOUNDING_BOX" fill="none" width="30" height="30"/>
</g>
<g id="PLACE_YOUR_GRAPHIC_HERE">
	<g>
		<path opacity="0.3" d="M12.2,18.801c0,0.278,0.421,0.699,0.7,0.699h4.2c0.281,0,0.701-0.421,0.701-0.699v-7.7h3.5L15,2l-6.3,9.101
			h3.5V18.801z M27.6,19H25.4c-0.773,0-1.4,0.628-1.4,1.4V23H6v-2.6C6,19.628,5.373,19,4.6,19H2.4C1.627,19,1,19.628,1,20.4V26.6
			C1,27.372,1.627,28,2.4,28h25.2c0.773,0,1.4-0.628,1.4-1.4V20.4C29,19.628,28.373,19,27.6,19z"/>
		<rect fill="none" width="30" height="30"/>
		<path opacity="0.15" d="M2.4,30C1.077,30,0,28.923,0,27.6V21.4C0,20.077,1.077,19,2.4,19h2.2C5.923,19,7,20.077,7,21.4V23h16v-1.6
			c0-1.323,1.077-2.4,2.4-2.4H27.6c1.323,0,2.4,1.077,2.4,2.4V27.6c0,1.323-1.077,2.4-2.4,2.4H2.4z M12.9,21.5
			c-0.826,0-1.7-0.873-1.7-1.699v-6.7H8.7c-0.372,0-0.713-0.207-0.886-0.536c-0.173-0.33-0.148-0.728,0.063-1.034l6.3-9.101
			C14.364,2.161,14.671,2,15,2s0.635,0.161,0.822,0.431l6.301,9.101c0.212,0.306,0.236,0.704,0.063,1.033
			c-0.173,0.33-0.514,0.536-0.886,0.536h-2.5v6.7c0,0.826-0.874,1.699-1.701,1.699H12.9z"/>
		<path opacity="0.15" d="M12.2,19.801c0,0.278,0.421,0.699,0.7,0.699h4.2c0.281,0,0.701-0.421,0.701-0.699v-7.7h3.5L15,3
			l-6.3,9.101h3.5V19.801z M27.6,20H25.4c-0.773,0-1.4,0.628-1.4,1.4V24H6v-2.6C6,20.628,5.373,20,4.6,20H2.4
			C1.627,20,1,20.628,1,21.4V27.6C1,28.372,1.627,29,2.4,29h25.2c0.773,0,1.4-0.628,1.4-1.4V21.4C29,20.628,28.373,20,27.6,20z"/>
		<path fill="#FFFFFF" d="M12.2,19.801c0,0.278,0.421,0.699,0.7,0.699h4.2c0.281,0,0.701-0.421,0.701-0.699v-7.7h3.5L15,3
			l-6.3,9.101h3.5V19.801z M27.6,20H25.4c-0.773,0-1.4,0.628-1.4,1.4V24H6v-2.6C6,20.628,5.373,20,4.6,20H2.4
			C1.627,20,1,20.628,1,21.4V27.6C1,28.372,1.627,29,2.4,29h25.2c0.773,0,1.4-0.628,1.4-1.4V21.4C29,20.628,28.373,20,27.6,20z"/>
	</g>
</g>
</svg>
