<?xml version="1.0" encoding="utf-8"?>
<!-- Generator: Adobe Illustrator 15.0.0, SVG Export Plug-In . SVG Version: 6.00 Build 0)  -->
<!DOCTYPE svg PUBLIC "-//W3C//DTD SVG 1.1//EN" "http://www.w3.org/Graphics/SVG/1.1/DTD/svg11.dtd">
<svg version="1.1" xmlns="http://www.w3.org/2000/svg" xmlns:xlink="http://www.w3.org/1999/xlink" x="0px" y="0px" width="30px"
	 height="30px" viewBox="0 0 30 30" enable-background="new 0 0 30 30" xml:space="preserve">
<g id="DO_NOT_EDIT_-_BOUNDING_BOX">
	<rect id="BOUNDING_BOX" fill="none" width="30" height="30"/>
</g>
<g id="PLACE_YOUR_GRAPHIC_HERE">
	<path opacity="0.3" d="M8.729,9.676c0.289,0,0.523-0.182,0.597-0.461L9.34,9.158c0.147-0.57,0.595-2.305,1.501-3.887
		C11.777,3.639,13.099,1.765,15,1.747c1.907,0.022,3.225,1.895,4.161,3.523c0.9,1.573,1.35,3.308,1.498,3.877l0.018,0.065
		c0.07,0.279,0.303,0.458,0.594,0.458c0.203,0,0.395-0.092,0.514-0.243c0.113-0.146,0.148-0.334,0.098-0.527
		C20.262,2.707,17.266,0.5,15,0.5c-0.781,0-4.791,0.404-6.878,8.398C8.068,9.094,8.104,9.283,8.217,9.432
		C8.334,9.584,8.524,9.676,8.729,9.676z M24.811,6.36h-2.33c0.244,0.671,0.473,1.403,0.684,2.205
		c0.152,0.592,0.031,1.202-0.332,1.673c-0.369,0.475-0.953,0.759-1.564,0.759c-0.9,0-1.654-0.585-1.877-1.455l-0.016-0.06
		C19.252,9.006,18.9,7.661,18.24,6.36h-6.479c-0.665,1.308-1.016,2.653-1.137,3.128L10.61,9.546
		c-0.229,0.872-0.985,1.455-1.882,1.455c-0.613,0-1.198-0.284-1.563-0.763C6.801,9.766,6.682,9.153,6.838,8.56
		c0.211-0.8,0.439-1.528,0.686-2.199H5.189L4.658,27.5h20.684L24.811,6.36z M19.18,21.54c0,0.653-0.553,1.391-1.434,1.816
		c-1.104,0.534-2.303,0.371-2.679-0.362s0.216-1.763,1.32-2.296c0.648-0.313,1.326-0.381,1.854-0.238v-5.072l-4.695,1.24v5.853
		c0,0.653-0.554,1.39-1.432,1.814c-1.105,0.533-2.305,0.371-2.68-0.362c-0.376-0.732,0.215-1.762,1.319-2.297
		c0.649-0.312,1.326-0.379,1.854-0.237V14.61c0-0.259,0.203-0.523,0.453-0.59l5.665-1.498c0.25-0.064,0.455,0.092,0.455,0.35V21.54z
		"/>
	<path opacity="0.15" d="M4.658,29.5c-0.27,0-0.528-0.108-0.716-0.302c-0.188-0.193-0.291-0.454-0.284-0.724L4.19,7.335
		c0.014-0.542,0.457-0.975,1-0.975h2.334c0.24,0,0.468,0.086,0.646,0.237C10.596,0.832,14.209,0.5,15,0.5
		c2.195,0,4.949,1.663,6.828,6.103c0.18-0.155,0.411-0.243,0.653-0.243h2.33c0.543,0,0.986,0.433,1,0.975l0.531,21.139
		c0.007,0.27-0.096,0.53-0.284,0.724S25.611,29.5,25.342,29.5H4.658z M18.053,6.36c-0.777-1.284-1.799-2.599-3.065-2.613
		c-1.243,0.012-2.262,1.327-3.039,2.613H18.053z"/>
	<path opacity="0.15" d="M8.729,10.676c0.289,0,0.523-0.182,0.597-0.461l0.015-0.057c0.147-0.57,0.595-2.305,1.501-3.887
		C11.777,4.639,13.099,2.765,15,2.747c1.907,0.022,3.225,1.895,4.161,3.523c0.9,1.573,1.35,3.308,1.498,3.877l0.018,0.065
		c0.07,0.279,0.303,0.458,0.594,0.458c0.203,0,0.395-0.092,0.514-0.243c0.113-0.146,0.148-0.334,0.098-0.527
		C20.262,3.707,17.266,1.5,15,1.5c-0.781,0-4.791,0.404-6.878,8.398c-0.053,0.195-0.018,0.385,0.096,0.533
		C8.334,10.584,8.524,10.676,8.729,10.676z M24.811,7.36h-2.33c0.244,0.671,0.473,1.403,0.684,2.205
		c0.152,0.592,0.031,1.202-0.332,1.673c-0.369,0.475-0.953,0.759-1.564,0.759c-0.9,0-1.654-0.585-1.877-1.455l-0.016-0.06
		C19.252,10.006,18.9,8.661,18.24,7.36h-6.479c-0.665,1.308-1.016,2.653-1.137,3.128l-0.015,0.058
		c-0.229,0.872-0.985,1.455-1.882,1.455c-0.613,0-1.198-0.284-1.563-0.763c-0.364-0.473-0.483-1.085-0.327-1.679
		c0.211-0.8,0.439-1.528,0.686-2.199H5.189L4.658,28.5h20.684L24.811,7.36z M19.18,22.54c0,0.653-0.553,1.391-1.434,1.816
		c-1.104,0.534-2.303,0.371-2.679-0.362s0.216-1.763,1.32-2.296c0.648-0.313,1.326-0.381,1.854-0.238v-5.072l-4.695,1.24v5.853
		c0,0.653-0.554,1.39-1.432,1.814c-1.105,0.533-2.305,0.371-2.68-0.362c-0.376-0.732,0.215-1.762,1.319-2.297
		c0.649-0.312,1.326-0.379,1.854-0.237V15.61c0-0.259,0.203-0.523,0.453-0.59l5.665-1.498c0.25-0.064,0.455,0.092,0.455,0.35V22.54z
		"/>
	<path fill="#FFFFFF" d="M8.729,10.676c0.289,0,0.523-0.182,0.597-0.461l0.015-0.057c0.147-0.57,0.595-2.305,1.501-3.887
		C11.777,4.639,13.099,2.765,15,2.747c1.907,0.022,3.225,1.895,4.161,3.523c0.9,1.573,1.35,3.308,1.498,3.877l0.018,0.065
		c0.07,0.279,0.303,0.458,0.594,0.458c0.203,0,0.395-0.092,0.514-0.243c0.113-0.146,0.148-0.334,0.098-0.527
		C20.262,3.707,17.266,1.5,15,1.5c-0.781,0-4.791,0.404-6.878,8.398c-0.053,0.195-0.018,0.385,0.096,0.533
		C8.334,10.584,8.524,10.676,8.729,10.676z M24.811,7.36h-2.33c0.244,0.671,0.473,1.403,0.684,2.205
		c0.152,0.592,0.031,1.202-0.332,1.673c-0.369,0.475-0.953,0.759-1.564,0.759c-0.9,0-1.654-0.585-1.877-1.455l-0.016-0.06
		C19.252,10.006,18.9,8.661,18.24,7.36h-6.479c-0.665,1.308-1.016,2.653-1.137,3.128l-0.015,0.058
		c-0.229,0.872-0.985,1.455-1.882,1.455c-0.613,0-1.198-0.284-1.563-0.763c-0.364-0.473-0.483-1.085-0.327-1.679
		c0.211-0.8,0.439-1.528,0.686-2.199H5.189L4.658,28.5h20.684L24.811,7.36z M19.18,22.54c0,0.653-0.553,1.391-1.434,1.816
		c-1.104,0.534-2.303,0.371-2.679-0.362s0.216-1.763,1.32-2.296c0.648-0.313,1.326-0.381,1.854-0.238v-5.072l-4.695,1.24v5.853
		c0,0.653-0.554,1.39-1.432,1.814c-1.105,0.533-2.305,0.371-2.68-0.362c-0.376-0.732,0.215-1.762,1.319-2.297
		c0.649-0.312,1.326-0.379,1.854-0.237V15.61c0-0.259,0.203-0.523,0.453-0.59l5.665-1.498c0.25-0.064,0.455,0.092,0.455,0.35V22.54z
		"/>
</g>
</svg>
