<?xml version="1.0" encoding="utf-8"?>
<!-- Generator: Adobe Illustrator 15.0.0, SVG Export Plug-In . SVG Version: 6.00 Build 0)  -->
<!DOCTYPE svg PUBLIC "-//W3C//DTD SVG 1.1//EN" "http://www.w3.org/Graphics/SVG/1.1/DTD/svg11.dtd">
<svg version="1.1" xmlns="http://www.w3.org/2000/svg" xmlns:xlink="http://www.w3.org/1999/xlink" x="0px" y="0px" width="30px"
	 height="30px" viewBox="0 0 30 30" enable-background="new 0 0 30 30" xml:space="preserve">
<g id="DO_NOT_EDIT_-_BOUNDING_BOX">
	<rect id="BOUNDING_BOX" fill="none" width="30" height="30"/>
</g>
<g id="PLACE_YOUR_GRAPHIC_HERE">
	<path opacity="0.3" d="M8.729,9.676c0.289,0,0.523-0.182,0.597-0.461L9.34,9.158c0.147-0.57,0.595-2.305,1.501-3.887
		C11.777,3.639,13.099,1.766,15,1.748c1.907,0.021,3.225,1.895,4.161,3.523c0.9,1.572,1.35,3.307,1.498,3.877l0.018,0.064
		c0.07,0.279,0.303,0.459,0.594,0.459c0.203,0,0.395-0.092,0.514-0.244c0.113-0.146,0.148-0.334,0.098-0.527
		C20.262,2.707,17.266,0.5,15,0.5c-0.781,0-4.791,0.404-6.878,8.398C8.068,9.094,8.104,9.283,8.217,9.432
		C8.334,9.584,8.524,9.676,8.729,9.676z M24.811,6.361h-2.33c0.244,0.67,0.473,1.402,0.684,2.205
		c0.152,0.592,0.031,1.201-0.332,1.672c-0.369,0.475-0.953,0.76-1.564,0.76c-0.9,0-1.654-0.586-1.877-1.455l-0.016-0.061
		c-0.123-0.477-0.475-1.82-1.135-3.121h-6.479c-0.665,1.307-1.016,2.652-1.137,3.127L10.61,9.547
		c-0.229,0.871-0.985,1.455-1.882,1.455c-0.613,0-1.198-0.285-1.563-0.764C6.801,9.766,6.682,9.154,6.838,8.561
		C7.049,7.76,7.277,7.031,7.523,6.361H5.189L4.658,27.5h20.684L24.811,6.361z"/>
	<path opacity="0.15" d="M4.658,29.5c-0.27,0-0.528-0.108-0.716-0.302c-0.188-0.193-0.291-0.454-0.284-0.724L4.19,7.336
		c0.014-0.542,0.457-0.975,1-0.975h2.334c0.239,0,0.468,0.086,0.646,0.237C10.596,0.832,14.209,0.5,15,0.5
		c2.195,0,4.949,1.663,6.829,6.104c0.179-0.155,0.41-0.243,0.652-0.243h2.33c0.543,0,0.986,0.433,1,0.975l0.531,21.138
		c0.007,0.27-0.096,0.53-0.284,0.724S25.611,29.5,25.342,29.5H4.658z M18.053,6.361c-0.777-1.285-1.799-2.599-3.064-2.613
		c-1.244,0.012-2.263,1.327-3.041,2.613H18.053z"/>
	<path opacity="0.15" d="M8.729,10.676c0.289,0,0.523-0.182,0.597-0.461l0.015-0.057c0.147-0.57,0.595-2.305,1.501-3.887
		C11.777,4.639,13.099,2.766,15,2.748c1.907,0.021,3.225,1.895,4.161,3.523c0.9,1.572,1.35,3.307,1.498,3.877l0.018,0.064
		c0.07,0.279,0.303,0.459,0.594,0.459c0.203,0,0.395-0.092,0.514-0.244c0.113-0.146,0.148-0.334,0.098-0.527
		C20.262,3.707,17.266,1.5,15,1.5c-0.781,0-4.791,0.404-6.878,8.398c-0.053,0.195-0.018,0.385,0.096,0.533
		C8.334,10.584,8.524,10.676,8.729,10.676z M24.811,7.361h-2.33c0.244,0.67,0.473,1.402,0.684,2.205
		c0.152,0.592,0.031,1.201-0.332,1.672c-0.369,0.475-0.953,0.76-1.564,0.76c-0.9,0-1.654-0.586-1.877-1.455l-0.016-0.061
		c-0.123-0.477-0.475-1.82-1.135-3.121h-6.479c-0.665,1.307-1.016,2.652-1.137,3.127l-0.015,0.059
		c-0.229,0.871-0.985,1.455-1.882,1.455c-0.613,0-1.198-0.285-1.563-0.764c-0.364-0.473-0.483-1.084-0.327-1.678
		C7.049,8.76,7.277,8.031,7.523,7.361H5.189L4.658,28.5h20.684L24.811,7.361z"/>
	<path fill="#FFFFFF" d="M8.729,10.676c0.289,0,0.523-0.182,0.597-0.461l0.015-0.057c0.147-0.57,0.595-2.305,1.501-3.887
		C11.777,4.639,13.099,2.766,15,2.748c1.907,0.021,3.225,1.895,4.161,3.523c0.9,1.572,1.35,3.307,1.498,3.877l0.018,0.064
		c0.07,0.279,0.303,0.459,0.594,0.459c0.203,0,0.395-0.092,0.514-0.244c0.113-0.146,0.148-0.334,0.098-0.527
		C20.262,3.707,17.266,1.5,15,1.5c-0.781,0-4.791,0.404-6.878,8.398c-0.053,0.195-0.018,0.385,0.096,0.533
		C8.334,10.584,8.524,10.676,8.729,10.676z M24.811,7.361h-2.33c0.244,0.67,0.473,1.402,0.684,2.205
		c0.152,0.592,0.031,1.201-0.332,1.672c-0.369,0.475-0.953,0.76-1.564,0.76c-0.9,0-1.654-0.586-1.877-1.455l-0.016-0.061
		c-0.123-0.477-0.475-1.82-1.135-3.121h-6.479c-0.665,1.307-1.016,2.652-1.137,3.127l-0.015,0.059
		c-0.229,0.871-0.985,1.455-1.882,1.455c-0.613,0-1.198-0.285-1.563-0.764c-0.364-0.473-0.483-1.084-0.327-1.678
		C7.049,8.76,7.277,8.031,7.523,7.361H5.189L4.658,28.5h20.684L24.811,7.361z"/>
</g>
</svg>
