<?xml version="1.0" encoding="utf-8"?>
<!-- Generator: Adobe Illustrator 15.0.0, SVG Export Plug-In . SVG Version: 6.00 Build 0)  -->
<!DOCTYPE svg PUBLIC "-//W3C//DTD SVG 1.1//EN" "http://www.w3.org/Graphics/SVG/1.1/DTD/svg11.dtd">
<svg version="1.1" xmlns="http://www.w3.org/2000/svg" xmlns:xlink="http://www.w3.org/1999/xlink" x="0px" y="0px" width="30px"
	 height="30px" viewBox="0 0 30 30" enable-background="new 0 0 30 30" xml:space="preserve">
<g id="DO_NOT_EDIT_-_BOUNDING_BOX">
	<rect id="BOUNDING_BOX" fill="none" width="30" height="30"/>
</g>
<g id="PLACE_YOUR_GRAPHIC_HERE">
	<path opacity="0.3" d="M22.99,13.129l-15-9C7.838,4.043,7.67,4,7.5,4C7.326,4,7.15,4.046,6.996,4.137C6.688,4.316,6.5,4.645,6.5,5
		v18c0,0.355,0.188,0.684,0.496,0.863C7.15,23.955,7.326,24,7.5,24c0.17,0,0.338-0.043,0.49-0.129l15-9
		c0.314-0.178,0.51-0.51,0.51-0.871S23.305,13.307,22.99,13.129z"/>
	<path opacity="0.15" d="M7.5,26c-0.359,0-0.71-0.096-1.015-0.277C5.88,25.371,5.5,24.709,5.5,24V6c0-0.709,0.38-1.371,0.993-1.728
		C6.794,4.095,7.144,4,7.5,4c0.343,0,0.683,0.089,0.981,0.258l15.023,9.014C24.11,13.613,24.5,14.28,24.5,15
		s-0.39,1.387-1.018,1.741L8.505,25.729C8.183,25.911,7.843,26,7.5,26z"/>
	<path opacity="0.15" d="M22.99,14.129l-15-9C7.838,5.043,7.67,5,7.5,5C7.326,5,7.15,5.046,6.996,5.137C6.688,5.316,6.5,5.645,6.5,6
		v18c0,0.355,0.188,0.684,0.496,0.863C7.15,24.955,7.326,25,7.5,25c0.17,0,0.338-0.043,0.49-0.129l15-9
		c0.314-0.178,0.51-0.51,0.51-0.871S23.305,14.307,22.99,14.129z"/>
	<path fill="#FFFFFF" d="M22.99,14.129l-15-9C7.838,5.043,7.67,5,7.5,5C7.326,5,7.15,5.046,6.996,5.137C6.688,5.316,6.5,5.645,6.5,6
		v18c0,0.355,0.188,0.684,0.496,0.863C7.15,24.955,7.326,25,7.5,25c0.17,0,0.338-0.043,0.49-0.129l15-9
		c0.314-0.178,0.51-0.51,0.51-0.871S23.305,14.307,22.99,14.129z"/>
</g>
</svg>
