<?xml version="1.0" encoding="utf-8"?>
<!-- Generator: Adobe Illustrator 15.0.0, SVG Export Plug-In . SVG Version: 6.00 Build 0)  -->
<!DOCTYPE svg PUBLIC "-//W3C//DTD SVG 1.1//EN" "http://www.w3.org/Graphics/SVG/1.1/DTD/svg11.dtd">
<svg version="1.1" xmlns="http://www.w3.org/2000/svg" xmlns:xlink="http://www.w3.org/1999/xlink" x="0px" y="0px" width="30px"
	 height="30px" viewBox="0 0 30 30" enable-background="new 0 0 30 30" xml:space="preserve">
<g id="DO_NOT_EDIT_-_BOUNDING_BOX">
	<rect id="BOUNDING_BOX" fill="none" width="30" height="30"/>
</g>
<g id="PLACE_YOUR_GRAPHIC_HERE">
	<g>
		<path opacity="0.3" d="M15,0C8.957,0,4.039,4.919,4.039,10.964c0,4.1,2.267,7.677,5.61,9.557
			c-0.279-1.215-0.446-2.223-0.486-2.759c-1.915-1.646-3.134-4.081-3.134-6.798c0-4.949,4.025-8.975,8.972-8.975
			c4.947,0,8.973,4.026,8.973,8.975c0,2.717-1.22,5.152-3.134,6.798c-0.035,0.581-0.196,1.571-0.465,2.744
			c3.331-1.883,5.588-5.452,5.588-9.542C25.962,4.919,21.045,0,15,0z M15.057,15.867c-1.923,0-3.913,0.627-3.915,1.673
			c0.032,3.073,2.868,10.517,3.925,10.46c0.854,0.023,3.758-6.979,3.79-10.434C18.856,16.453,16.946,15.867,15.057,15.867z
			 M18.004,10.964c0-1.662-1.348-3.006-3.004-3.006c-1.654,0-3.003,1.344-3.003,3.006c0,1.657,1.347,3.002,3.003,3.002
			C16.658,13.967,18.004,12.622,18.004,10.964z M15,3.979c-3.85,0-6.982,3.133-6.982,6.985c0,1.823,0.708,3.48,1.857,4.726
			c0.398-0.473,0.944-0.869,1.635-1.166c-0.925-0.906-1.502-2.165-1.502-3.56c0-2.754,2.239-4.996,4.992-4.996
			s4.993,2.241,4.993,4.996c0,1.379-0.563,2.629-1.471,3.534c0.688,0.295,1.228,0.696,1.62,1.171
			c1.139-1.243,1.841-2.892,1.841-4.706C21.983,7.112,18.85,3.979,15,3.979z"/>
		<path opacity="0.15" d="M15.055,30c-1.688,0-3.536-4.916-4.406-8.455c-0.007,0.303-0.152,0.591-0.401,0.777
			c-0.176,0.132-0.387,0.199-0.599,0.199c-0.168,0-0.337-0.042-0.49-0.128c-3.775-2.123-6.12-6.119-6.12-10.429
			C3.039,5.367,8.405,0,15,0c6.596,0,11.962,5.367,11.962,11.964c0,4.297-2.336,8.288-6.096,10.413
			c-0.153,0.087-0.323,0.13-0.492,0.13c-0.211,0-0.421-0.066-0.598-0.198c-0.233-0.174-0.375-0.438-0.398-0.719
			C18.52,25.179,16.661,30,15.071,30c0,0-0.017-1-0.017-1V30z"/>
		<path opacity="0.15" d="M15,1C8.957,1,4.039,5.919,4.039,11.964c0,4.1,2.267,7.677,5.61,9.557
			c-0.279-1.215-0.446-2.223-0.486-2.759c-1.915-1.646-3.134-4.081-3.134-6.798c0-4.949,4.025-8.975,8.972-8.975
			c4.947,0,8.973,4.026,8.973,8.975c0,2.717-1.22,5.152-3.134,6.798c-0.035,0.581-0.196,1.571-0.465,2.744
			c3.331-1.883,5.588-5.452,5.588-9.542C25.962,5.919,21.045,1,15,1z M15.057,16.867c-1.923,0-3.913,0.627-3.915,1.673
			c0.032,3.073,2.868,10.517,3.925,10.46c0.854,0.023,3.758-6.979,3.79-10.434C18.856,17.453,16.946,16.867,15.057,16.867z
			 M18.004,11.964c0-1.662-1.348-3.006-3.004-3.006c-1.654,0-3.003,1.344-3.003,3.006c0,1.657,1.347,3.002,3.003,3.002
			C16.658,14.967,18.004,13.622,18.004,11.964z M15,4.979c-3.85,0-6.982,3.133-6.982,6.985c0,1.823,0.708,3.48,1.857,4.726
			c0.398-0.473,0.944-0.869,1.635-1.166c-0.925-0.906-1.502-2.165-1.502-3.56c0-2.754,2.239-4.996,4.992-4.996
			s4.993,2.241,4.993,4.996c0,1.379-0.563,2.629-1.471,3.534c0.688,0.295,1.228,0.696,1.62,1.171
			c1.139-1.243,1.841-2.892,1.841-4.706C21.983,8.112,18.85,4.979,15,4.979z"/>
		<path fill="#FFFFFF" d="M15,1C8.957,1,4.039,5.919,4.039,11.964c0,4.1,2.267,7.677,5.61,9.557
			c-0.279-1.215-0.446-2.223-0.486-2.759c-1.915-1.646-3.134-4.081-3.134-6.798c0-4.949,4.025-8.975,8.972-8.975
			c4.947,0,8.973,4.026,8.973,8.975c0,2.717-1.22,5.152-3.134,6.798c-0.035,0.581-0.196,1.571-0.465,2.744
			c3.331-1.883,5.588-5.452,5.588-9.542C25.962,5.919,21.045,1,15,1z M15.057,16.867c-1.923,0-3.913,0.627-3.915,1.673
			c0.032,3.073,2.868,10.517,3.925,10.46c0.854,0.023,3.758-6.979,3.79-10.434C18.856,17.453,16.946,16.867,15.057,16.867z
			 M18.004,11.964c0-1.662-1.348-3.006-3.004-3.006c-1.654,0-3.003,1.344-3.003,3.006c0,1.657,1.347,3.002,3.003,3.002
			C16.658,14.967,18.004,13.622,18.004,11.964z M15,4.979c-3.85,0-6.982,3.133-6.982,6.985c0,1.823,0.708,3.48,1.857,4.726
			c0.398-0.473,0.944-0.869,1.635-1.166c-0.925-0.906-1.502-2.165-1.502-3.56c0-2.754,2.239-4.996,4.992-4.996
			s4.993,2.241,4.993,4.996c0,1.379-0.563,2.629-1.471,3.534c0.688,0.295,1.228,0.696,1.62,1.171
			c1.139-1.243,1.841-2.892,1.841-4.706C21.983,8.112,18.85,4.979,15,4.979z"/>
		<g>
			<rect fill="none" width="30" height="30"/>
		</g>
	</g>
</g>
</svg>
