<?xml version="1.0" encoding="utf-8"?>
<!-- Generator: Adobe Illustrator 15.0.0, SVG Export Plug-In . SVG Version: 6.00 Build 0)  -->
<!DOCTYPE svg PUBLIC "-//W3C//DTD SVG 1.1//EN" "http://www.w3.org/Graphics/SVG/1.1/DTD/svg11.dtd">
<svg version="1.1" xmlns="http://www.w3.org/2000/svg" xmlns:xlink="http://www.w3.org/1999/xlink" x="0px" y="0px" width="30px"
	 height="30px" viewBox="0 0 30 30" enable-background="new 0 0 30 30" xml:space="preserve">
<g id="DO_NOT_EDIT_-_BOUNDING_BOX">
	<rect id="BOUNDING_BOX" fill="none" width="30" height="30"/>
</g>
<g id="PLACE_YOUR_GRAPHIC_HERE">
	<g>
		<path opacity="0.3" d="M25.254,10.266c-0.771,0-1.4,0.631-1.4,1.4v1.4c0,0.516-0.418,0.934-0.934,0.934
			c-0.449,0-0.809-0.324-0.896-0.75c-0.012-0.004-0.025-0.008-0.037-0.01V9.799c0-0.77-0.629-1.398-1.398-1.398
			c-0.771,0-1.4,0.629-1.4,1.398v3.268c0,0.516-0.418,0.934-0.934,0.934s-0.934-0.418-0.934-0.934V8.865
			c0-0.77-0.631-1.398-1.4-1.398s-1.398,0.629-1.398,1.398v4.201c0,0.516-0.418,0.934-0.934,0.934s-0.934-0.418-0.934-0.934V1.4
			c0-0.771-0.631-1.4-1.4-1.4c-0.771,0-1.4,0.63-1.4,1.4v15.398c0,0.516-0.418,0.934-0.934,0.934s-0.934-0.418-0.934-0.934v-1.645
			c-1.826-2.229-3.504-1.787-4.277-1.271c-0.816,0.545,0,1.518,0,1.518L11.1,26.521l0.014-0.043C11.58,27.377,12.51,28,13.588,28
			h7.467c1.238,0,2.285-0.822,2.65-1.945h0.012l2.293-5.768c0.549-1.291,0.645-3.379,0.645-3.379v-5.242
			C26.654,10.896,26.023,10.266,25.254,10.266z"/>
		<rect fill="none" width="30" height="30"/>
		<path opacity="0.15" d="M13.588,30c-1.306,0-2.505-0.674-3.2-1.778c-0.045-0.044-0.085-0.093-0.121-0.146L2.901,16.991
			c-0.175-0.225-0.652-0.92-0.537-1.725c0.071-0.498,0.344-0.918,0.79-1.215c0.567-0.378,1.258-0.586,1.944-0.586
			c0.902,0,2.27,0.356,3.662,2.056c0.035,0.043,0.066,0.088,0.094,0.136V2.4c0-1.324,1.077-2.4,2.4-2.4s2.4,1.077,2.4,2.4v6.677
			c0.327-0.937,1.219-1.611,2.266-1.611c1.323,0,2.4,1.076,2.4,2.398v0.146C18.647,9.075,19.54,8.4,20.588,8.4
			c1.322,0,2.398,1.076,2.398,2.398v1.079c0.327-0.938,1.22-1.612,2.268-1.612c1.323,0,2.4,1.077,2.4,2.4v5.242
			c-0.005,0.139-0.112,2.33-0.725,3.771l-2.283,5.745c-0.014,0.034-0.029,0.066-0.046,0.099C24.045,29.011,22.641,30,21.055,30
			H13.588z"/>
		<path opacity="0.15" d="M25.254,11.266c-0.771,0-1.4,0.631-1.4,1.4v1.4c0,0.516-0.418,0.934-0.934,0.934
			c-0.449,0-0.809-0.324-0.896-0.75c-0.012-0.004-0.025-0.008-0.037-0.01v-3.441c0-0.77-0.629-1.398-1.398-1.398
			c-0.771,0-1.4,0.629-1.4,1.398v3.268c0,0.516-0.418,0.934-0.934,0.934s-0.934-0.418-0.934-0.934V9.865
			c0-0.77-0.631-1.398-1.4-1.398s-1.398,0.629-1.398,1.398v4.201c0,0.516-0.418,0.934-0.934,0.934s-0.934-0.418-0.934-0.934V2.4
			c0-0.771-0.631-1.4-1.4-1.4c-0.771,0-1.4,0.63-1.4,1.4v15.398c0,0.516-0.418,0.934-0.934,0.934s-0.934-0.418-0.934-0.934v-1.645
			c-1.826-2.229-3.504-1.787-4.277-1.271c-0.816,0.545,0,1.518,0,1.518L11.1,27.521l0.014-0.043C11.58,28.377,12.51,29,13.588,29
			h7.467c1.238,0,2.285-0.822,2.65-1.945h0.012l2.293-5.768c0.549-1.291,0.645-3.379,0.645-3.379v-5.242
			C26.654,11.896,26.023,11.266,25.254,11.266z"/>
		<path fill="#FFFFFF" d="M25.254,11.266c-0.771,0-1.4,0.631-1.4,1.4v1.4c0,0.516-0.418,0.934-0.934,0.934
			c-0.449,0-0.809-0.324-0.896-0.75c-0.012-0.004-0.025-0.008-0.037-0.01v-3.441c0-0.77-0.629-1.398-1.398-1.398
			c-0.771,0-1.4,0.629-1.4,1.398v3.268c0,0.516-0.418,0.934-0.934,0.934s-0.934-0.418-0.934-0.934V9.865
			c0-0.77-0.631-1.398-1.4-1.398s-1.398,0.629-1.398,1.398v4.201c0,0.516-0.418,0.934-0.934,0.934s-0.934-0.418-0.934-0.934V2.4
			c0-0.771-0.631-1.4-1.4-1.4c-0.771,0-1.4,0.63-1.4,1.4v15.398c0,0.516-0.418,0.934-0.934,0.934s-0.934-0.418-0.934-0.934v-1.645
			c-1.826-2.229-3.504-1.787-4.277-1.271c-0.816,0.545,0,1.518,0,1.518L11.1,27.521l0.014-0.043C11.58,28.377,12.51,29,13.588,29
			h7.467c1.238,0,2.285-0.822,2.65-1.945h0.012l2.293-5.768c0.549-1.291,0.645-3.379,0.645-3.379v-5.242
			C26.654,11.896,26.023,11.266,25.254,11.266z"/>
	</g>
</g>
</svg>
