<?xml version="1.0" encoding="utf-8"?>
<!-- Generator: Adobe Illustrator 15.0.0, SVG Export Plug-In . SVG Version: 6.00 Build 0)  -->
<!DOCTYPE svg PUBLIC "-//W3C//DTD SVG 1.1//EN" "http://www.w3.org/Graphics/SVG/1.1/DTD/svg11.dtd">
<svg version="1.1" xmlns="http://www.w3.org/2000/svg" xmlns:xlink="http://www.w3.org/1999/xlink" x="0px" y="0px" width="30px"
	 height="30px" viewBox="0 0 30 30" enable-background="new 0 0 30 30" xml:space="preserve">
<g id="DO_NOT_EDIT_-_BOUNDING_BOX">
	<rect id="BOUNDING_BOX" fill="none" width="30" height="30"/>
</g>
<g id="PLACE_YOUR_GRAPHIC_HERE">
	<path opacity="0.3" d="M4,23V7h22v8.463c0.743,0.342,1.418,0.805,2,1.367V6c0-0.551-0.451-1-1-1H3C2.45,5,2,5.449,2,6v18
		c0,0.549,0.45,1,1,1h13.463c-0.287-0.625-0.486-1.295-0.586-2H4z M23,16c-3.313,0-6,2.686-6,6c0,3.313,2.687,6,6,6s6-2.688,6-6
		C29,18.686,26.313,16,23,16z M26.168,22.555l-4.336,2.891C21.375,25.75,21,25.549,21,25v-6c0-0.551,0.375-0.75,0.832-0.445
		l4.336,2.891C26.625,21.75,26.625,22.25,26.168,22.555z M18.646,11.354L13.5,16.5l-3.146-3.146c-0.194-0.195-0.513-0.195-0.707,0
		L5.5,17.5v4h10.325c0.255-3.674,3.271-6.594,6.984-6.691l-3.456-3.455C19.159,11.158,18.841,11.158,18.646,11.354z"/>
	<path opacity="0.15" d="M29,19.429V7c0-1.103-0.897-2-2-2H3C1.897,5,1,5.897,1,7v18c0,1.103,0.897,2,2,2h14.272
		c1.267,1.809,3.356,3,5.728,3c3.859,0,7-3.141,7-7C30,21.692,29.627,20.477,29,19.429z"/>
	<path opacity="0.15" d="M4,24V8h22v8.463c0.743,0.342,1.418,0.805,2,1.367V7c0-0.551-0.451-1-1-1H3C2.45,6,2,6.449,2,7v18
		c0,0.549,0.45,1,1,1h13.463c-0.287-0.625-0.486-1.295-0.586-2H4z M23,17c-3.313,0-6,2.686-6,6c0,3.313,2.687,6,6,6s6-2.688,6-6
		C29,19.686,26.313,17,23,17z M26.168,23.555l-4.336,2.891C21.375,26.75,21,26.549,21,26v-6c0-0.551,0.375-0.75,0.832-0.445
		l4.336,2.891C26.625,22.75,26.625,23.25,26.168,23.555z M18.646,12.354L13.5,17.5l-3.146-3.146c-0.194-0.195-0.513-0.195-0.707,0
		L5.5,18.5v4h10.325c0.255-3.674,3.271-6.594,6.984-6.691l-3.456-3.455C19.159,12.158,18.841,12.158,18.646,12.354z"/>
	<path fill="#FFFFFF" d="M4,24V8h22v8.463c0.743,0.342,1.418,0.805,2,1.367V7c0-0.551-0.451-1-1-1H3C2.45,6,2,6.449,2,7v18
		c0,0.549,0.45,1,1,1h13.463c-0.287-0.625-0.486-1.295-0.586-2H4z M23,17c-3.313,0-6,2.686-6,6c0,3.313,2.687,6,6,6s6-2.688,6-6
		C29,19.686,26.313,17,23,17z M26.168,23.555l-4.336,2.891C21.375,26.75,21,26.549,21,26v-6c0-0.551,0.375-0.75,0.832-0.445
		l4.336,2.891C26.625,22.75,26.625,23.25,26.168,23.555z M18.646,12.354L13.5,17.5l-3.146-3.146c-0.194-0.195-0.513-0.195-0.707,0
		L5.5,18.5v4h10.325c0.255-3.674,3.271-6.594,6.984-6.691l-3.456-3.455C19.159,12.158,18.841,12.158,18.646,12.354z"/>
</g>
</svg>
