<?xml version="1.0" encoding="utf-8"?>
<!-- Generator: Adobe Illustrator 15.0.0, SVG Export Plug-In . SVG Version: 6.00 Build 0)  -->
<!DOCTYPE svg PUBLIC "-//W3C//DTD SVG 1.1//EN" "http://www.w3.org/Graphics/SVG/1.1/DTD/svg11.dtd">
<svg version="1.1" xmlns="http://www.w3.org/2000/svg" xmlns:xlink="http://www.w3.org/1999/xlink" x="0px" y="0px" width="30px"
	 height="30px" viewBox="0 0 30 30" enable-background="new 0 0 30 30" xml:space="preserve">
<g id="DO_NOT_EDIT_-_BOUNDING_BOX">
	<rect id="BOUNDING_BOX" fill="none" width="30" height="30"/>
</g>
<g id="PLACE_YOUR_GRAPHIC_HERE">
	<g>
		<path opacity="0.3" d="M23.009,13.769L28,15.128l-1.361-4.99l-1.361-4.991l-2.541,2.541l-1.893-1.704
			c-0.795-0.716-1.806-1.046-2.801-1.007V4.971H5.958C3.781,4.971,2,6.752,2,8.93v10.143c0,2.176,1.781,3.956,3.958,3.956h13.729
			c0.493,0,0.898-0.404,0.898-0.897V20.96c0-0.494-0.405-0.898-0.898-0.898H5.958c-0.537,0-0.989-0.454-0.989-0.989V8.93
			c0-0.535,0.453-0.99,0.989-0.99h11.125c0.986,0,1.885,0.372,2.579,0.974h0.002l0.973,0.875l-2.618,2.618L23.009,13.769z"/>
		<path opacity="0.15" d="M5.958,25.028C3.224,25.028,1,22.805,1,20.072V9.93c0-2.734,2.224-4.958,4.958-4.958h12.085
			c0.029,0,0.156,0.002,0.156,0.002c1.229,0,2.406,0.45,3.313,1.267L22.7,7.31l1.87-1.87c0.19-0.19,0.445-0.293,0.707-0.293
			c0.086,0,0.172,0.011,0.257,0.034c0.345,0.091,0.614,0.359,0.708,0.703l2.723,9.981c0.095,0.346-0.004,0.716-0.258,0.97
			c-0.189,0.19-0.445,0.293-0.707,0.293c-0.088,0-0.176-0.012-0.263-0.035l-9.982-2.721c-0.344-0.094-0.611-0.364-0.703-0.708
			c-0.091-0.344,0.008-0.711,0.26-0.963l1.873-1.873l-0.189-0.17c-0.53-0.458-1.215-0.717-1.912-0.717H5.958l0.011,10.132
			l13.719-0.011c1.047,0,1.898,0.852,1.898,1.898v1.171c0,1.046-0.852,1.897-1.898,1.897H5.958z"/>
		<path opacity="0.15" d="M23.009,14.769L28,16.128l-1.361-4.99l-1.361-4.991l-2.541,2.541l-1.893-1.704
			c-0.795-0.716-1.806-1.046-2.801-1.007V5.971H5.958C3.781,5.971,2,7.752,2,9.93v10.143c0,2.176,1.781,3.956,3.958,3.956h13.729
			c0.493,0,0.898-0.404,0.898-0.897V21.96c0-0.494-0.405-0.898-0.898-0.898H5.958c-0.537,0-0.989-0.454-0.989-0.989V9.93
			c0-0.535,0.453-0.99,0.989-0.99h11.125c0.986,0,1.885,0.372,2.579,0.974h0.002l0.973,0.875l-2.618,2.618L23.009,14.769z"/>
		<path fill="#FFFFFF" d="M23.009,14.769L28,16.128l-1.361-4.99l-1.361-4.991l-2.541,2.541l-1.893-1.704
			c-0.795-0.716-1.806-1.046-2.801-1.007V5.971H5.958C3.781,5.971,2,7.752,2,9.93v10.143c0,2.176,1.781,3.956,3.958,3.956h13.729
			c0.493,0,0.898-0.404,0.898-0.897V21.96c0-0.494-0.405-0.898-0.898-0.898H5.958c-0.537,0-0.989-0.454-0.989-0.989V9.93
			c0-0.535,0.453-0.99,0.989-0.99h11.125c0.986,0,1.885,0.372,2.579,0.974h0.002l0.973,0.875l-2.618,2.618L23.009,14.769z"/>
		<rect fill="none" width="30" height="30"/>
	</g>
</g>
</svg>
