<?xml version="1.0" encoding="utf-8"?>
<!-- Generator: Adobe Illustrator 15.0.0, SVG Export Plug-In . SVG Version: 6.00 Build 0)  -->
<!DOCTYPE svg PUBLIC "-//W3C//DTD SVG 1.1//EN" "http://www.w3.org/Graphics/SVG/1.1/DTD/svg11.dtd">
<svg version="1.1" xmlns="http://www.w3.org/2000/svg" xmlns:xlink="http://www.w3.org/1999/xlink" x="0px" y="0px" width="30px"
	 height="30px" viewBox="0 0 30 30" enable-background="new 0 0 30 30" xml:space="preserve">
<g id="DO_NOT_EDIT_-_BOUNDING_BOX">
	<rect id="BOUNDING_BOX" fill="none" width="30" height="30"/>
</g>
<g id="PLACE_YOUR_GRAPHIC_HERE">
	<g>
		<path opacity="0.3" d="M25.393,2.608H4.607c-0.551,0-1,0.45-1,1v20.784c0,0.55,0.449,1,1,1h20.785c0.549,0,1-0.45,1-1V3.608
			C26.393,3.059,25.941,2.608,25.393,2.608z M24.611,23.613H5.387V4.389h19.225V23.613z M9.063,15.838h11.873c0.55,0,1-0.45,1-1
			v-2.043c0-0.55-0.45-1-1-1H9.063c-0.55,0-1,0.45-1,1v2.043C8.063,15.388,8.513,15.838,9.063,15.838z"/>
		<rect fill="none" width="30" height="30"/>
		<path opacity="0.15" d="M4.607,27.393c-1.103,0-2-0.897-2-2V4.608c0-1.103,0.897-2,2-2h20.785c1.103,0,2,0.897,2,2v20.784
			c0,1.103-0.897,2-2,2H4.607z M23.611,23.613V6.389H6.387v17.225H23.611z M9.063,17.838c-1.103,0-2-0.897-2-2v-2.043
			c0-1.103,0.897-2,2-2h11.873c1.103,0,2,0.897,2,2v2.043c0,1.103-0.897,2-2,2H9.063z"/>
		<path opacity="0.15" d="M25.393,3.608H4.607c-0.551,0-1,0.45-1,1v20.784c0,0.55,0.449,1,1,1h20.785c0.549,0,1-0.45,1-1V4.608
			C26.393,4.059,25.941,3.608,25.393,3.608z M24.611,24.613H5.387V5.389h19.225V24.613z M9.063,16.838h11.873c0.55,0,1-0.45,1-1
			v-2.043c0-0.55-0.45-1-1-1H9.063c-0.55,0-1,0.45-1,1v2.043C8.063,16.388,8.513,16.838,9.063,16.838z"/>
		<path fill="#FFFFFF" d="M25.393,3.608H4.607c-0.551,0-1,0.45-1,1v20.784c0,0.55,0.449,1,1,1h20.785c0.549,0,1-0.45,1-1V4.608
			C26.393,4.059,25.941,3.608,25.393,3.608z M24.611,24.613H5.387V5.389h19.225V24.613z M9.063,16.838h11.873c0.55,0,1-0.45,1-1
			v-2.043c0-0.55-0.45-1-1-1H9.063c-0.55,0-1,0.45-1,1v2.043C8.063,16.388,8.513,16.838,9.063,16.838z"/>
	</g>
</g>
</svg>
