<?xml version="1.0" encoding="utf-8"?>
<!-- Generator: Adobe Illustrator 15.0.0, SVG Export Plug-In . SVG Version: 6.00 Build 0)  -->
<!DOCTYPE svg PUBLIC "-//W3C//DTD SVG 1.1//EN" "http://www.w3.org/Graphics/SVG/1.1/DTD/svg11.dtd">
<svg version="1.1" xmlns="http://www.w3.org/2000/svg" xmlns:xlink="http://www.w3.org/1999/xlink" x="0px" y="0px" width="30px"
	 height="30px" viewBox="0 0 30 30" enable-background="new 0 0 30 30" xml:space="preserve">
<g id="DO_NOT_EDIT_-_BOUNDING_BOX">
	<rect id="BOUNDING_BOX" fill="none" width="30" height="30"/>
</g>
<g id="PLACE_YOUR_GRAPHIC_HERE">
	<path opacity="0.3" d="M22,7h-1c-0.549,0-1,0.451-1,1v2c0,0.551,0.451,1,1,1h1c1.084,0,2,0.916,2,2v5c0,1.084-0.916,2-2,2H8
		c-1.084,0-2-0.916-2-2v-5c0-1.084,0.916-2,2-2h4v3l6-5l-6-5v3H8c-3.301,0-6,2.7-6,6v5c0,3.301,2.699,6,6,6h14c3.301,0,6-2.699,6-6
		v-5C28,9.7,25.301,7,22,7z"/>
	<rect fill="none" width="30" height="30"/>
	<path opacity="0.15" d="M8,26c-3.86,0-7-3.141-7-7v-5c0-3.86,3.14-7,7-7h3V5c0-0.388,0.225-0.741,0.576-0.906
		C11.711,4.031,11.856,4,12,4c0.229,0,0.457,0.079,0.64,0.232l6,5C18.868,9.422,19,9.703,19,10s-0.132,0.578-0.359,0.768l-6,5
		C12.457,15.921,12.229,16,12,16c-0.144,0-0.289-0.031-0.424-0.094C11.225,15.741,11,15.388,11,15v-2H8c-0.533,0-1,0.467-1,1v5
		c0,0.532,0.467,1,1,1h14c0.532,0,1-0.468,1-1v-5c0-0.533-0.468-1-1-1h-1c-1.103,0-2-0.897-2-2V9c0-1.103,0.897-2,2-2h1
		c3.859,0,7,3.14,7,7v5c0,3.859-3.141,7-7,7H8z"/>
	<path opacity="0.15" d="M22,8h-1c-0.549,0-1,0.451-1,1v2c0,0.551,0.451,1,1,1h1c1.084,0,2,0.916,2,2v5c0,1.084-0.916,2-2,2H8
		c-1.084,0-2-0.916-2-2v-5c0-1.084,0.916-2,2-2h4v3l6-5l-6-5v3H8c-3.301,0-6,2.7-6,6v5c0,3.301,2.699,6,6,6h14c3.301,0,6-2.699,6-6
		v-5C28,10.7,25.301,8,22,8z"/>
	<path fill="#FFFFFF" d="M22,8h-1c-0.549,0-1,0.451-1,1v2c0,0.551,0.451,1,1,1h1c1.084,0,2,0.916,2,2v5c0,1.084-0.916,2-2,2H8
		c-1.084,0-2-0.916-2-2v-5c0-1.084,0.916-2,2-2h4v3l6-5l-6-5v3H8c-3.301,0-6,2.7-6,6v5c0,3.301,2.699,6,6,6h14c3.301,0,6-2.699,6-6
		v-5C28,10.7,25.301,8,22,8z"/>
</g>
</svg>
