<?xml version="1.0" encoding="utf-8"?>
<!-- Generator: Adobe Illustrator 15.0.0, SVG Export Plug-In . SVG Version: 6.00 Build 0)  -->
<!DOCTYPE svg PUBLIC "-//W3C//DTD SVG 1.1//EN" "http://www.w3.org/Graphics/SVG/1.1/DTD/svg11.dtd">
<svg version="1.1" xmlns="http://www.w3.org/2000/svg" xmlns:xlink="http://www.w3.org/1999/xlink" x="0px" y="0px" width="30px"
	 height="30px" viewBox="0 0 30 30" enable-background="new 0 0 30 30" xml:space="preserve">
<g id="DO_NOT_EDIT_-_BOUNDING_BOX">
	<rect id="BOUNDING_BOX" fill="none" width="30" height="30"/>
</g>
<g id="PLACE_YOUR_GRAPHIC_HERE">
	<path opacity="0.3" d="M15.832,2.004c0,0-1.26-0.129-1.26,1.191V18.84c-0.873-0.393-1.893-0.631-2.996-0.631
		C8.492,18.209,6,19.951,6,22.105S8.492,26,11.576,26c3.076,0,5.566-1.74,5.566-3.895v-13.5c2.563,0.393,4.91,0.926,6.857,1.469
		V3.549C21.037,2.781,18.096,2.33,15.832,2.004z"/>
	<path opacity="0.15" d="M11.576,28C7.889,28,5,25.85,5,23.105c0-2.746,2.889-4.896,6.576-4.896c0.675,0,1.348,0.081,1.996,0.238
		V4.195c0-1.516,1.09-2.195,2.17-2.195c0.034,0,0.158,0.005,0.191,0.009c2.649,0.381,5.457,0.831,8.317,1.571
		C24.692,3.695,25,4.093,25,4.549v6.525c0,0.313-0.146,0.607-0.396,0.796c-0.176,0.134-0.389,0.204-0.604,0.204
		c-0.09,0-0.18-0.012-0.269-0.037c-1.779-0.496-3.69-0.925-5.589-1.255v12.323C18.143,25.85,15.258,28,11.576,28z"/>
	<path opacity="0.15" d="M15.832,3.004c0,0-1.26-0.129-1.26,1.191V19.84c-0.873-0.393-1.893-0.631-2.996-0.631
		C8.492,19.209,6,20.951,6,23.105S8.492,27,11.576,27c3.076,0,5.566-1.74,5.566-3.895v-13.5c2.563,0.393,4.91,0.926,6.857,1.469
		V4.549C21.037,3.781,18.096,3.33,15.832,3.004z"/>
	<path fill="#FFFFFF" d="M15.832,3.004c0,0-1.26-0.129-1.26,1.191V19.84c-0.873-0.393-1.893-0.631-2.996-0.631
		C8.492,19.209,6,20.951,6,23.105S8.492,27,11.576,27c3.076,0,5.566-1.74,5.566-3.895v-13.5c2.563,0.393,4.91,0.926,6.857,1.469
		V4.549C21.037,3.781,18.096,3.33,15.832,3.004z"/>
</g>
</svg>
