<?xml version="1.0" encoding="utf-8"?>
<!-- Generator: Adobe Illustrator 15.0.0, SVG Export Plug-In . SVG Version: 6.00 Build 0)  -->
<!DOCTYPE svg PUBLIC "-//W3C//DTD SVG 1.1//EN" "http://www.w3.org/Graphics/SVG/1.1/DTD/svg11.dtd">
<svg version="1.1" xmlns="http://www.w3.org/2000/svg" xmlns:xlink="http://www.w3.org/1999/xlink" x="0px" y="0px" width="30px"
	 height="30px" viewBox="0 0 30 30" enable-background="new 0 0 30 30" xml:space="preserve">
<g id="DO_NOT_EDIT_-_BOUNDING_BOX">
	<rect id="BOUNDING_BOX" fill="none" width="30" height="30"/>
</g>
<g id="PLACE_YOUR_GRAPHIC_HERE">
	<g>
		<path opacity="0.3" d="M11.762,23.206c-0.717,0.716-0.715,1.883,0.005,2.604s1.888,0.724,2.605,0.007
			c0.715-0.717,0.713-1.883-0.007-2.604C13.645,22.492,12.479,22.489,11.762,23.206z M5.57,20.423
			c-0.717,0.715-0.714,1.881,0.007,2.602s1.886,0.725,2.603,0.009c0.717-0.717,0.714-1.882-0.007-2.603
			C7.452,19.709,6.287,19.705,5.57,20.423z M26.487,7.194l-1.511-5.546l-3.048,3.047C17.147,0.653,9.993,0.854,5.516,5.331
			c-3.449,3.448-4.351,8.48-2.747,12.797l-0.003,0.001l0.016,0.037c0.004,0.013,0.008,0.024,0.012,0.037l0.002-0.001l0.032,0.078
			c0.183,0.456,0.707,0.678,1.162,0.492l0.9-0.365c0.455-0.185,0.677-0.708,0.494-1.164l-0.047-0.115l0.004-0.001
			C4.125,13.803,4.823,9.942,7.473,7.29c3.404-3.404,8.807-3.603,12.497-0.636l-3.061,3.06l5.546,1.511L28,12.739L26.487,7.194z
			 M18.301,21.811c-0.717,0.717-0.713,1.884,0.007,2.604c0.721,0.721,1.889,0.725,2.605,0.007c0.715-0.715,0.714-1.882-0.009-2.603
			C20.184,21.098,19.019,21.094,18.301,21.811z"/>
		<path opacity="0.15" d="M13.076,28.353c-0.761-0.001-1.477-0.297-2.016-0.836s-0.835-1.255-0.835-2.016
			c0-0.758,0.295-1.469,0.83-2.003c0.534-0.533,1.245-0.827,2.002-0.827c0.761,0,1.477,0.296,2.015,0.835
			c1.108,1.108,1.111,2.91,0.008,4.017C14.544,28.058,13.833,28.353,13.076,28.353L13.076,28.353z M19.617,26.958
			c-0.762,0-1.478-0.297-2.017-0.836c-1.109-1.11-1.112-2.913-0.007-4.019c0.535-0.534,1.245-0.828,2.001-0.828
			c0.762,0,1.478,0.298,2.018,0.837c0.537,0.537,0.835,1.252,0.836,2.014c0,0.758-0.294,1.469-0.828,2.003
			C21.087,26.663,20.375,26.958,19.617,26.958L19.617,26.958z M6.886,25.567c-0.761,0-1.477-0.297-2.016-0.836
			c-0.54-0.539-0.836-1.256-0.835-2.018c0-0.757,0.295-1.467,0.83-1.999c0.533-0.533,1.244-0.828,2-0.828
			c0.761,0,1.477,0.298,2.016,0.837c0.536,0.537,0.833,1.249,0.835,2.007c0.002,0.76-0.292,1.474-0.829,2.01
			C8.353,25.273,7.642,25.567,6.886,25.567L6.886,25.567z M3.657,20.838c-0.778,0-1.467-0.465-1.756-1.185l0-0.001
			c-0.02-0.039-0.037-0.08-0.052-0.122c-0.019-0.043-0.035-0.088-0.047-0.133C0.054,14.599,1.23,9.202,4.809,5.624
			c2.458-2.459,5.738-3.813,9.233-3.813c2.813,0,5.551,0.9,7.807,2.55l2.421-2.42c0.19-0.19,0.445-0.293,0.707-0.293
			c0.086,0,0.172,0.011,0.257,0.034c0.345,0.091,0.614,0.359,0.708,0.704l3.023,11.09c0.095,0.346-0.004,0.717-0.258,0.97
			c-0.19,0.19-0.445,0.293-0.707,0.293c-0.088,0-0.177-0.012-0.264-0.035l-11.09-3.025c-0.344-0.094-0.612-0.364-0.704-0.708
			c-0.092-0.345,0.007-0.712,0.259-0.964l2.219-2.218c-1.311-0.79-2.826-1.216-4.367-1.216c-2.225,0-4.311,0.861-5.874,2.424
			c-2.274,2.276-3.02,5.725-1.9,8.787c0.006,0.016,0.029,0.08,0.029,0.08c0.392,0.975-0.078,2.079-1.042,2.471l-0.9,0.365
			C4.141,20.791,3.901,20.838,3.657,20.838z"/>
		<path opacity="0.15" d="M11.762,24.206c-0.717,0.716-0.715,1.883,0.005,2.604s1.888,0.724,2.605,0.007
			c0.715-0.717,0.713-1.883-0.007-2.604C13.645,23.492,12.479,23.489,11.762,24.206z M5.57,21.423
			c-0.717,0.715-0.714,1.881,0.007,2.602s1.886,0.725,2.603,0.009c0.717-0.717,0.714-1.882-0.007-2.603
			C7.452,20.709,6.287,20.705,5.57,21.423z M26.487,8.194l-1.511-5.546l-3.048,3.047C17.147,1.653,9.993,1.854,5.516,6.331
			c-3.449,3.448-4.351,8.48-2.747,12.797l-0.003,0.001l0.016,0.037c0.004,0.013,0.008,0.024,0.012,0.037l0.002-0.001l0.032,0.078
			c0.183,0.456,0.707,0.678,1.162,0.492l0.9-0.365c0.455-0.185,0.677-0.708,0.494-1.164l-0.047-0.115l0.004-0.001
			c-1.216-3.324-0.519-7.185,2.132-9.837c3.404-3.404,8.807-3.603,12.497-0.636l-3.061,3.06l5.546,1.511L28,13.739L26.487,8.194z
			 M18.301,22.811c-0.717,0.717-0.713,1.884,0.007,2.604c0.721,0.721,1.889,0.725,2.605,0.007c0.715-0.715,0.714-1.882-0.009-2.603
			C20.184,22.098,19.019,22.094,18.301,22.811z"/>
		<path fill="#FFFFFF" d="M11.762,24.206c-0.717,0.716-0.715,1.883,0.005,2.604s1.888,0.724,2.605,0.007
			c0.715-0.717,0.713-1.883-0.007-2.604C13.645,23.492,12.479,23.489,11.762,24.206z M5.57,21.423
			c-0.717,0.715-0.714,1.881,0.007,2.602s1.886,0.725,2.603,0.009c0.717-0.717,0.714-1.882-0.007-2.603
			C7.452,20.709,6.287,20.705,5.57,21.423z M26.487,8.194l-1.511-5.546l-3.048,3.047C17.147,1.653,9.993,1.854,5.516,6.331
			c-3.449,3.448-4.351,8.48-2.747,12.797l-0.003,0.001l0.016,0.037c0.004,0.013,0.008,0.024,0.012,0.037l0.002-0.001l0.032,0.078
			c0.183,0.456,0.707,0.678,1.162,0.492l0.9-0.365c0.455-0.185,0.677-0.708,0.494-1.164l-0.047-0.115l0.004-0.001
			c-1.216-3.324-0.519-7.185,2.132-9.837c3.404-3.404,8.807-3.603,12.497-0.636l-3.061,3.06l5.546,1.511L28,13.739L26.487,8.194z
			 M18.301,22.811c-0.717,0.717-0.713,1.884,0.007,2.604c0.721,0.721,1.889,0.725,2.605,0.007c0.715-0.715,0.714-1.882-0.009-2.603
			C20.184,22.098,19.019,22.094,18.301,22.811z"/>
		<rect fill="none" width="30" height="30"/>
	</g>
</g>
</svg>
