<?xml version="1.0" encoding="utf-8"?>
<!-- Generator: Adobe Illustrator 15.0.0, SVG Export Plug-In . SVG Version: 6.00 Build 0)  -->
<!DOCTYPE svg PUBLIC "-//W3C//DTD SVG 1.1//EN" "http://www.w3.org/Graphics/SVG/1.1/DTD/svg11.dtd">
<svg version="1.1" xmlns="http://www.w3.org/2000/svg" xmlns:xlink="http://www.w3.org/1999/xlink" x="0px" y="0px" width="30px"
	 height="30px" viewBox="0 0 30 30" enable-background="new 0 0 30 30" xml:space="preserve">
<g id="DO_NOT_EDIT_-_BOUNDING_BOX">
	<rect id="BOUNDING_BOX" fill="none" width="30" height="30"/>
</g>
<g id="PLACE_YOUR_GRAPHIC_HERE">
	<g>
		<path opacity="0.3" d="M9.098,21.819c-0.723,0.721-0.724,1.888-0.009,2.603c0.717,0.718,1.884,0.714,2.605-0.007
			c0.72-0.721,0.724-1.888,0.007-2.604S9.818,21.098,9.098,21.819z M15.637,23.213c-0.721,0.721-0.722,1.887-0.007,2.604
			c0.717,0.717,1.885,0.714,2.604-0.007c0.721-0.721,0.723-1.888,0.006-2.604C17.522,22.489,16.357,22.492,15.637,23.213z
			 M24.486,5.331C20.008,0.854,12.852,0.653,8.072,4.695L5.025,1.648L3.513,7.194L2,12.739l5.546-1.514l5.545-1.511l-3.061-3.06
			c3.691-2.967,9.093-2.768,12.498,0.636c2.648,2.652,3.349,6.513,2.131,9.837l0.004,0.001l-0.046,0.115
			c-0.186,0.456,0.036,0.979,0.492,1.164l0.9,0.365c0.455,0.186,0.979-0.036,1.163-0.492l0.031-0.078l0.002,0.001
			c0.004-0.01,0.006-0.021,0.011-0.03l0.018-0.044l-0.003-0.001C28.835,13.812,27.933,8.779,24.486,5.331z M21.829,20.431
			c-0.721,0.721-0.725,1.886-0.007,2.603c0.717,0.716,1.882,0.712,2.603-0.009s0.725-1.887,0.007-2.602
			C23.715,19.705,22.55,19.709,21.829,20.431z"/>
		<path opacity="0.15" d="M16.926,28.353c-0.757-0.001-1.469-0.295-2.003-0.829c-1.105-1.107-1.102-2.909,0.007-4.018
			c0.539-0.539,1.254-0.835,2.015-0.835c0.757,0,1.468,0.294,2.003,0.827c0.536,0.536,0.831,1.25,0.829,2.01
			c-0.002,0.759-0.298,1.472-0.835,2.009C18.403,28.056,17.688,28.353,16.926,28.353C16.926,28.353,16.926,28.353,16.926,28.353z
			 M10.385,26.958c-0.758,0-1.469-0.295-2.003-0.829c-0.534-0.533-0.828-1.245-0.827-2.003c0-0.761,0.298-1.477,0.837-2.015
			c0.537-0.538,1.253-0.836,2.015-0.836c0.756,0,1.467,0.294,2.001,0.828c0.537,0.536,0.831,1.25,0.829,2.011
			c-0.002,0.758-0.299,1.471-0.835,2.008C11.862,26.661,11.146,26.958,10.385,26.958L10.385,26.958z M23.116,25.567
			c-0.757,0-1.467-0.294-2.001-0.826c-0.536-0.537-0.831-1.251-0.829-2.011c0.002-0.758,0.299-1.47,0.836-2.007
			c0.538-0.539,1.255-0.837,2.016-0.837c0.757,0,1.468,0.295,2.002,0.829c0.532,0.531,0.827,1.241,0.828,1.997
			c0.001,0.762-0.296,1.479-0.836,2.019C24.593,25.271,23.877,25.567,23.116,25.567L23.116,25.567z M26.344,20.838
			c-0.245,0-0.484-0.047-0.712-0.14l-0.898-0.364c-0.468-0.189-0.835-0.551-1.032-1.018s-0.201-0.982-0.01-1.45
			c0,0,0.021-0.063,0.028-0.083c1.121-3.06,0.376-6.509-1.899-8.787c-1.563-1.563-3.649-2.424-5.874-2.424
			c-1.541,0-3.056,0.427-4.367,1.216l2.219,2.218c0.252,0.252,0.351,0.619,0.259,0.964c-0.091,0.344-0.359,0.614-0.703,0.708
			L2.263,14.704C2.176,14.727,2.088,14.739,2,14.739c-0.262,0-0.517-0.103-0.707-0.293c-0.254-0.253-0.352-0.624-0.258-0.97
			L4.061,2.385c0.094-0.344,0.364-0.612,0.708-0.703C4.854,1.659,4.94,1.648,5.025,1.648c0.262,0,0.517,0.103,0.707,0.293
			l2.419,2.42c2.256-1.65,4.994-2.55,7.807-2.55c3.496,0,6.775,1.354,9.235,3.813c3.578,3.58,4.753,8.979,3.003,13.776
			c-0.009,0.033-0.04,0.116-0.044,0.127c-0.012,0.032-0.025,0.063-0.04,0.094C27.781,20.393,27.104,20.838,26.344,20.838z"/>
		<path opacity="0.15" d="M9.098,22.819c-0.723,0.721-0.724,1.888-0.009,2.603c0.717,0.718,1.884,0.714,2.605-0.007
			c0.72-0.721,0.724-1.888,0.007-2.604S9.818,22.098,9.098,22.819z M15.637,24.213c-0.721,0.721-0.722,1.887-0.007,2.604
			c0.717,0.717,1.885,0.714,2.604-0.007c0.721-0.721,0.723-1.888,0.006-2.604C17.522,23.489,16.357,23.492,15.637,24.213z
			 M24.486,6.331C20.008,1.854,12.852,1.653,8.072,5.695L5.025,2.648L3.513,8.194L2,13.739l5.546-1.514l5.545-1.511l-3.061-3.06
			c3.691-2.967,9.093-2.768,12.498,0.636c2.648,2.652,3.349,6.513,2.131,9.837l0.004,0.001l-0.046,0.115
			c-0.186,0.456,0.036,0.979,0.492,1.164l0.9,0.365c0.455,0.186,0.979-0.036,1.163-0.492l0.031-0.078l0.002,0.001
			c0.004-0.01,0.006-0.021,0.011-0.03l0.018-0.044l-0.003-0.001C28.835,14.812,27.933,9.779,24.486,6.331z M21.829,21.431
			c-0.721,0.721-0.725,1.886-0.007,2.603c0.717,0.716,1.882,0.712,2.603-0.009s0.725-1.887,0.007-2.602
			C23.715,20.705,22.55,20.709,21.829,21.431z"/>
		<path fill="#FFFFFF" d="M9.098,22.819c-0.723,0.721-0.724,1.888-0.009,2.603c0.717,0.718,1.884,0.714,2.605-0.007
			c0.72-0.721,0.724-1.888,0.007-2.604S9.818,22.098,9.098,22.819z M15.637,24.213c-0.721,0.721-0.722,1.887-0.007,2.604
			c0.717,0.717,1.885,0.714,2.604-0.007c0.721-0.721,0.723-1.888,0.006-2.604C17.522,23.489,16.357,23.492,15.637,24.213z
			 M24.486,6.331C20.008,1.854,12.852,1.653,8.072,5.695L5.025,2.648L3.513,8.194L2,13.739l5.546-1.514l5.545-1.511l-3.061-3.06
			c3.691-2.967,9.093-2.768,12.498,0.636c2.648,2.652,3.349,6.513,2.131,9.837l0.004,0.001l-0.046,0.115
			c-0.186,0.456,0.036,0.979,0.492,1.164l0.9,0.365c0.455,0.186,0.979-0.036,1.163-0.492l0.031-0.078l0.002,0.001
			c0.004-0.01,0.006-0.021,0.011-0.03l0.018-0.044l-0.003-0.001C28.835,14.812,27.933,9.779,24.486,6.331z M21.829,21.431
			c-0.721,0.721-0.725,1.886-0.007,2.603c0.717,0.716,1.882,0.712,2.603-0.009s0.725-1.887,0.007-2.602
			C23.715,20.705,22.55,20.709,21.829,21.431z"/>
		<rect y="0" fill="none" width="30" height="30"/>
	</g>
</g>
</svg>
