<?xml version="1.0" encoding="utf-8"?>
<!-- Generator: Adobe Illustrator 15.0.0, SVG Export Plug-In . SVG Version: 6.00 Build 0)  -->
<!DOCTYPE svg PUBLIC "-//W3C//DTD SVG 1.1//EN" "http://www.w3.org/Graphics/SVG/1.1/DTD/svg11.dtd">
<svg version="1.1" xmlns="http://www.w3.org/2000/svg" xmlns:xlink="http://www.w3.org/1999/xlink" x="0px" y="0px" width="30px"
	 height="30px" viewBox="0 0 30 30" enable-background="new 0 0 30 30" xml:space="preserve">
<g id="DO_NOT_EDIT_-_BOUNDING_BOX">
	<rect id="BOUNDING_BOX" fill="none" width="30" height="30"/>
</g>
<g id="PLACE_YOUR_GRAPHIC_HERE">
	<g>
		<path opacity="0.3" d="M25,2H5C3.896,2,3,2.896,3,4v20c0,1.105,0.896,2,2,2h20c1.104,0,2-0.895,2-2V4C27,2.896,26.104,2,25,2z
			 M8,24c-1.655,0-3-1.344-3-3s1.345-3,3-3s3,1.344,3,3S9.655,24,8,24z M18.334,22.666C18.334,23.402,17.736,24,17,24h-1.334
			c-0.736,0-1.332-0.598-1.332-1.334v-0.771h-0.021c0-3.869-3.338-7.229-7.207-7.229H6.334C5.596,14.666,5,14.07,5,13.334V12
			c0-0.736,0.596-1.334,1.334-1.334h1.332c0.066,0,0.125,0.029,0.188,0.039c5.594,0.371,10.07,4.848,10.441,10.439
			c0.01,0.064,0.039,0.123,0.039,0.189V22.666z M25,22.666C25,23.402,24.404,24,23.666,24h-1.332C21.596,24,21,23.402,21,22.666
			v-0.734c0-7.605-6.326-13.91-13.932-13.91V8H6.334C5.596,8,5,7.402,5,6.666V5.334C5,4.598,5.596,4,6.334,4h1.332
			c0.072,0,0.133,0.029,0.201,0.041c9.248,0.41,16.682,7.842,17.092,17.092C24.971,21.201,25,21.262,25,21.334V22.666z"/>
		<path opacity="0.15" d="M5,28c-1.654,0-3-1.346-3-3V5c0-1.654,1.346-3,3-3h20c1.654,0,3,1.346,3,3v20c0,1.654-1.346,3-3,3H5z"/>
		<path opacity="0.15" d="M25,3H5C3.896,3,3,3.896,3,5v20c0,1.105,0.896,2,2,2h20c1.104,0,2-0.895,2-2V5C27,3.896,26.104,3,25,3z
			 M8,25c-1.655,0-3-1.344-3-3s1.345-3,3-3s3,1.344,3,3S9.655,25,8,25z M18.334,23.666C18.334,24.402,17.736,25,17,25h-1.334
			c-0.736,0-1.332-0.598-1.332-1.334v-0.771h-0.021c0-3.869-3.338-7.229-7.207-7.229H6.334C5.596,15.666,5,15.07,5,14.334V13
			c0-0.736,0.596-1.334,1.334-1.334h1.332c0.066,0,0.125,0.029,0.188,0.039c5.594,0.371,10.07,4.848,10.441,10.439
			c0.01,0.064,0.039,0.123,0.039,0.189V23.666z M25,23.666C25,24.402,24.404,25,23.666,25h-1.332C21.596,25,21,24.402,21,23.666
			v-0.734c0-7.605-6.326-13.91-13.932-13.91V9H6.334C5.596,9,5,8.402,5,7.666V6.334C5,5.598,5.596,5,6.334,5h1.332
			c0.072,0,0.133,0.029,0.201,0.041c9.248,0.41,16.682,7.842,17.092,17.092C24.971,22.201,25,22.262,25,22.334V23.666z"/>
		<path fill="#FFFFFF" d="M25,3H5C3.896,3,3,3.896,3,5v20c0,1.105,0.896,2,2,2h20c1.104,0,2-0.895,2-2V5C27,3.896,26.104,3,25,3z
			 M8,25c-1.655,0-3-1.344-3-3s1.345-3,3-3s3,1.344,3,3S9.655,25,8,25z M18.334,23.666C18.334,24.402,17.736,25,17,25h-1.334
			c-0.736,0-1.332-0.598-1.332-1.334v-0.771h-0.021c0-3.869-3.338-7.229-7.207-7.229H6.334C5.596,15.666,5,15.07,5,14.334V13
			c0-0.736,0.596-1.334,1.334-1.334h1.332c0.066,0,0.125,0.029,0.188,0.039c5.594,0.371,10.07,4.848,10.441,10.439
			c0.01,0.064,0.039,0.123,0.039,0.189V23.666z M25,23.666C25,24.402,24.404,25,23.666,25h-1.332C21.596,25,21,24.402,21,23.666
			v-0.734c0-7.605-6.326-13.91-13.932-13.91V9H6.334C5.596,9,5,8.402,5,7.666V6.334C5,5.598,5.596,5,6.334,5h1.332
			c0.072,0,0.133,0.029,0.201,0.041c9.248,0.41,16.682,7.842,17.092,17.092C24.971,22.201,25,22.262,25,22.334V23.666z"/>
		<rect fill="none" width="30" height="30"/>
	</g>
</g>
</svg>
