<?xml version="1.0" encoding="utf-8"?>
<!-- Generator: Adobe Illustrator 15.0.0, SVG Export Plug-In . SVG Version: 6.00 Build 0)  -->
<!DOCTYPE svg PUBLIC "-//W3C//DTD SVG 1.1//EN" "http://www.w3.org/Graphics/SVG/1.1/DTD/svg11.dtd">
<svg version="1.1" xmlns="http://www.w3.org/2000/svg" xmlns:xlink="http://www.w3.org/1999/xlink" x="0px" y="0px" width="30px"
	 height="30px" viewBox="0 0 30 30" enable-background="new 0 0 30 30" xml:space="preserve">
<g id="DO_NOT_EDIT_-_BOUNDING_BOX">
	<rect id="BOUNDING_BOX" fill="none" width="30" height="30"/>
</g>
<g id="PLACE_YOUR_GRAPHIC_HERE">
	<g>
		<path opacity="0.3" d="M18,21.999h3v4l4-0.002v-4h2.999L23,12.999L18,21.999z M28,1.999H2l13,10L28,1.999z M2,4.001v15.107
			c0,0.551,0.45,1,1,1h14.906l4.219-7.596c0.177-0.316,0.512-0.514,0.875-0.514s0.697,0.197,0.873,0.514l3.956,7.121
			C27.928,19.478,28,19.306,28,19.108V4.001l-13,10L2,4.001z"/>
		<rect fill="none" width="30" height="30"/>
		<path opacity="0.15" d="M21,27.999c-0.265,0-0.52-0.105-0.707-0.293S20,27.265,20,26.999v-3h-2c-0.354,0-0.683-0.188-0.862-0.493
			c-0.18-0.305-0.184-0.683-0.012-0.992l0.225-0.405H3c-1.103,0-2-0.897-2-2V5.001C1,4.62,0.916,3.083,1.053,2.677
			C1.191,2.271,1.572,1.999,2,1.999h26c0.428,0,0.809,0.272,0.946,0.678C29.085,3.083,29,4.62,29,5.001v15.107
			c0,0.366-0.106,0.713-0.325,1.06c-0.091,0.144-0.216,0.26-0.359,0.34l0.558,1.004c0.172,0.31,0.168,0.688-0.012,0.992
			c-0.18,0.306-0.508,0.493-0.862,0.493H26v3c0,0.552-0.447,1-0.999,1L21,27.999z"/>
		<path opacity="0.15" d="M18,22.999h3v4l4-0.002v-4h2.999L23,13.999L18,22.999z M28,2.999H2l13,10L28,2.999z M2,5.001v15.107
			c0,0.551,0.45,1,1,1h14.906l4.219-7.596c0.177-0.316,0.512-0.514,0.875-0.514s0.697,0.197,0.873,0.514l3.956,7.121
			C27.928,20.478,28,20.306,28,20.108V5.001l-13,10L2,5.001z"/>
		<path fill="#FFFFFF" d="M18,22.999h3v4l4-0.002v-4h2.999L23,13.999L18,22.999z M28,2.999H2l13,10L28,2.999z M2,5.001v15.107
			c0,0.551,0.45,1,1,1h14.906l4.219-7.596c0.177-0.316,0.512-0.514,0.875-0.514s0.697,0.197,0.873,0.514l3.956,7.121
			C27.928,20.478,28,20.306,28,20.108V5.001l-13,10L2,5.001z"/>
	</g>
</g>
</svg>
