<?xml version="1.0" encoding="utf-8"?>
<!-- Generator: Adobe Illustrator 15.0.0, SVG Export Plug-In . SVG Version: 6.00 Build 0)  -->
<!DOCTYPE svg PUBLIC "-//W3C//DTD SVG 1.1//EN" "http://www.w3.org/Graphics/SVG/1.1/DTD/svg11.dtd">
<svg version="1.1" xmlns="http://www.w3.org/2000/svg" xmlns:xlink="http://www.w3.org/1999/xlink" x="0px" y="0px" width="30px"
	 height="30px" viewBox="0 0 30 30" enable-background="new 0 0 30 30" xml:space="preserve">
<g id="DO_NOT_EDIT_-_BOUNDING_BOX">
	<rect id="BOUNDING_BOX" fill="none" width="30" height="30"/>
</g>
<g id="PLACE_YOUR_GRAPHIC_HERE">
	<path opacity="0.3" d="M24.938,15.732c0.099-0.564,0.16-1.14,0.16-1.732c0-0.59-0.062-1.166-0.159-1.729l2.701-2.225
		c0.365-0.299,0.47-0.879,0.234-1.289l-1.896-3.285c-0.234-0.409-0.789-0.607-1.232-0.442l-3.269,1.226
		c-0.885-0.741-1.902-1.325-3.007-1.729l-0.575-3.451c-0.078-0.465-0.528-0.847-0.999-0.847h-3.792c-0.473,0-0.921,0.382-1,0.847
		l-0.575,3.451c-1.104,0.404-2.121,0.988-3.005,1.729L5.254,5.031C4.812,4.866,4.257,5.064,4.021,5.473L2.126,8.758
		C1.89,9.167,1.995,9.746,2.359,10.045l2.702,2.224c-0.099,0.564-0.16,1.14-0.16,1.731c0,0.592,0.061,1.168,0.16,1.732L2.36,17.955
		c-0.364,0.301-0.469,0.881-0.233,1.291l1.895,3.281c0.237,0.41,0.792,0.607,1.233,0.443l3.268-1.225
		c0.885,0.74,1.901,1.322,3.005,1.727l0.575,3.451c0.078,0.467,0.529,0.848,1,0.848h3.792c0.472,0,0.921-0.381,0.999-0.848
		l0.575-3.451c1.104-0.404,2.121-0.986,3.006-1.729l3.27,1.227c0.442,0.164,0.997-0.035,1.231-0.443l1.896-3.283
		c0.236-0.41,0.131-0.99-0.233-1.289L24.938,15.732z M14.999,19.148c-2.84,0-5.15-2.309-5.15-5.148c0-2.839,2.31-5.15,5.15-5.15
		c2.839,0,5.149,2.311,5.149,5.15C20.148,16.84,17.838,19.148,14.999,19.148z"/>
	<path opacity="0.15" d="M13.103,29.771c-0.956,0-1.828-0.739-1.986-1.683l-0.482-2.895c-0.82-0.349-1.586-0.789-2.289-1.313
		l-2.74,1.026c-0.218,0.081-0.446,0.121-0.681,0.121c-0.724,0-1.419-0.393-1.77-1.001l-1.895-3.281
		c-0.478-0.83-0.274-1.954,0.462-2.563l2.264-1.862C3.929,15.867,3.901,15.431,3.901,15s0.028-0.866,0.086-1.319l-2.263-1.863
		c-0.738-0.606-0.942-1.73-0.464-2.56l1.895-3.284c0.352-0.608,1.046-1.001,1.77-1.001c0.236,0,0.464,0.041,0.68,0.121l2.742,1.028
		c0.703-0.526,1.47-0.967,2.29-1.316l0.482-2.894c0.158-0.944,1.031-1.683,1.986-1.683h3.792c0.955,0,1.827,0.739,1.985,1.682
		l0.482,2.895c0.82,0.349,1.587,0.79,2.291,1.315l2.739-1.028c0.218-0.081,0.447-0.122,0.683-0.122c0.725,0,1.419,0.394,1.769,1.003
		l1.896,3.282c0.478,0.831,0.272,1.956-0.467,2.562l-2.262,1.863c0.058,0.457,0.086,0.892,0.086,1.318
		c0,0.428-0.028,0.864-0.087,1.32l2.265,1.862c0.737,0.605,0.942,1.73,0.464,2.561l-1.896,3.284
		c-0.349,0.607-1.044,1.001-1.769,1.001l0,0c-0.234,0-0.462-0.04-0.677-0.12l-2.744-1.029c-0.701,0.525-1.469,0.966-2.29,1.315
		l-0.482,2.894c-0.158,0.944-1.03,1.684-1.985,1.684H13.103z M14.999,10.85c-2.288,0-4.15,1.862-4.15,4.15
		c0,2.287,1.862,4.148,4.15,4.148s4.149-1.861,4.149-4.148C19.148,12.712,17.287,10.85,14.999,10.85z"/>
	<path opacity="0.15" d="M24.938,16.732c0.099-0.564,0.16-1.14,0.16-1.732c0-0.59-0.062-1.166-0.159-1.729l2.701-2.225
		c0.365-0.299,0.47-0.879,0.234-1.289l-1.896-3.285c-0.234-0.409-0.789-0.607-1.232-0.442l-3.269,1.226
		c-0.885-0.741-1.902-1.325-3.007-1.729l-0.575-3.451c-0.078-0.465-0.528-0.847-0.999-0.847h-3.792c-0.473,0-0.921,0.382-1,0.847
		l-0.575,3.451c-1.104,0.404-2.121,0.988-3.005,1.729L5.254,6.031C4.812,5.866,4.257,6.064,4.021,6.473L2.126,9.758
		c-0.236,0.409-0.131,0.988,0.233,1.288l2.702,2.224c-0.099,0.564-0.16,1.14-0.16,1.731c0,0.592,0.061,1.168,0.16,1.732L2.36,18.955
		c-0.364,0.301-0.469,0.881-0.233,1.291l1.895,3.281c0.237,0.41,0.792,0.607,1.233,0.443l3.268-1.225
		c0.885,0.74,1.901,1.322,3.005,1.727l0.575,3.451c0.078,0.467,0.529,0.848,1,0.848h3.792c0.472,0,0.921-0.381,0.999-0.848
		l0.575-3.451c1.104-0.404,2.121-0.986,3.006-1.729l3.27,1.227c0.442,0.164,0.997-0.035,1.231-0.443l1.896-3.283
		c0.236-0.41,0.131-0.99-0.233-1.289L24.938,16.732z M14.999,20.148c-2.84,0-5.15-2.309-5.15-5.148c0-2.839,2.31-5.15,5.15-5.15
		c2.839,0,5.149,2.311,5.149,5.15C20.148,17.84,17.838,20.148,14.999,20.148z"/>
	<path fill="#FFFFFF" d="M24.938,16.732c0.099-0.564,0.16-1.14,0.16-1.732c0-0.59-0.062-1.166-0.159-1.729l2.701-2.225
		c0.365-0.299,0.47-0.879,0.234-1.289l-1.896-3.285c-0.234-0.409-0.789-0.607-1.232-0.442l-3.269,1.226
		c-0.885-0.741-1.902-1.325-3.007-1.729l-0.575-3.451c-0.078-0.465-0.528-0.847-0.999-0.847h-3.792c-0.473,0-0.921,0.382-1,0.847
		l-0.575,3.451c-1.104,0.404-2.121,0.988-3.005,1.729L5.254,6.031C4.812,5.866,4.257,6.064,4.021,6.473L2.126,9.758
		c-0.236,0.409-0.131,0.988,0.233,1.288l2.702,2.224c-0.099,0.564-0.16,1.14-0.16,1.731c0,0.592,0.061,1.168,0.16,1.732L2.36,18.955
		c-0.364,0.301-0.469,0.881-0.233,1.291l1.895,3.281c0.237,0.41,0.792,0.607,1.233,0.443l3.268-1.225
		c0.885,0.74,1.901,1.322,3.005,1.727l0.575,3.451c0.078,0.467,0.529,0.848,1,0.848h3.792c0.472,0,0.921-0.381,0.999-0.848
		l0.575-3.451c1.104-0.404,2.121-0.986,3.006-1.729l3.27,1.227c0.442,0.164,0.997-0.035,1.231-0.443l1.896-3.283
		c0.236-0.41,0.131-0.99-0.233-1.289L24.938,16.732z M14.999,20.148c-2.84,0-5.15-2.309-5.15-5.148c0-2.839,2.31-5.15,5.15-5.15
		c2.839,0,5.149,2.311,5.149,5.15C20.148,17.84,17.838,20.148,14.999,20.148z"/>
</g>
</svg>
