<?xml version="1.0" encoding="utf-8"?>
<!-- Generator: Adobe Illustrator 15.0.0, SVG Export Plug-In . SVG Version: 6.00 Build 0)  -->
<!DOCTYPE svg PUBLIC "-//W3C//DTD SVG 1.1//EN" "http://www.w3.org/Graphics/SVG/1.1/DTD/svg11.dtd">
<svg version="1.1" xmlns="http://www.w3.org/2000/svg" xmlns:xlink="http://www.w3.org/1999/xlink" x="0px" y="0px" width="30px"
	 height="30px" viewBox="0 0 30 30" enable-background="new 0 0 30 30" xml:space="preserve">
<g id="DO_NOT_EDIT_-_BOUNDING_BOX">
	<rect id="BOUNDING_BOX" fill="none" width="30" height="30"/>
</g>
<g id="PLACE_YOUR_GRAPHIC_HERE">
	<g>
		<path opacity="0.3" d="M22.967,17.223c-1.189,0-2.299,0.443-3.162,1.254l-5.338-2.924c0.131-0.504,0.197-1.023,0.197-1.547
			c0-0.563-0.076-1.115-0.227-1.654l5.314-2.914c0.871,0.855,2.037,1.34,3.254,1.34c2.57,0,4.662-2.094,4.662-4.666
			c0-2.57-2.092-4.662-4.662-4.662c-2.572,0-4.664,2.092-4.664,4.662c0,0.107,0.004,0.215,0.012,0.324l-5.639,3.072
			C11.578,8.443,10.059,7.84,8.496,7.84c-3.4,0-6.166,2.766-6.166,6.166s2.766,6.168,6.166,6.168c1.609,0,3.158-0.635,4.303-1.75
			l5.529,3.018c-0.018,0.15-0.025,0.297-0.025,0.443c0,2.572,2.094,4.664,4.664,4.664c2.572,0,4.664-2.092,4.664-4.664
			C27.631,19.314,25.539,17.223,22.967,17.223z"/>
		<rect opacity="0.31" fill="none" width="30" height="30"/>
		<path opacity="0.15" d="M22.967,28.549c-3.077,0-5.589-2.467-5.662-5.527l-4.374-2.387c-1.255,0.985-2.834,1.539-4.435,1.539
			c-3.951,0-7.166-3.216-7.166-7.168c0-3.951,3.215-7.166,7.166-7.166c1.555,0,3.099,0.527,4.339,1.464l4.513-2.459
			c0.14-2.999,2.624-5.396,5.658-5.396c3.122,0,5.662,2.54,5.662,5.662c0,3.124-2.54,5.666-5.662,5.666
			c-1.229,0-2.404-0.397-3.379-1.131l-4.054,2.223c0.061,0.375,0.091,0.756,0.091,1.137c0,0.342-0.024,0.684-0.073,1.022
			l4.103,2.247c0.951-0.683,2.089-1.053,3.273-1.053c3.123,0,5.664,2.54,5.664,5.662C28.631,26.008,26.09,28.549,22.967,28.549z"/>
		<path opacity="0.15" d="M22.967,18.223c-1.189,0-2.299,0.443-3.162,1.254l-5.338-2.924c0.131-0.504,0.197-1.023,0.197-1.547
			c0-0.563-0.076-1.115-0.227-1.654l5.314-2.914c0.871,0.855,2.037,1.34,3.254,1.34c2.57,0,4.662-2.094,4.662-4.666
			c0-2.57-2.092-4.662-4.662-4.662c-2.572,0-4.664,2.092-4.664,4.662c0,0.107,0.004,0.215,0.012,0.324l-5.639,3.072
			C11.578,9.443,10.059,8.84,8.496,8.84c-3.4,0-6.166,2.766-6.166,6.166s2.766,6.168,6.166,6.168c1.609,0,3.158-0.635,4.303-1.75
			l5.529,3.018c-0.018,0.15-0.025,0.297-0.025,0.443c0,2.572,2.094,4.664,4.664,4.664c2.572,0,4.664-2.092,4.664-4.664
			C27.631,20.314,25.539,18.223,22.967,18.223z"/>
		<path fill="#FFFFFF" d="M22.967,18.223c-1.189,0-2.299,0.443-3.162,1.254l-5.338-2.924c0.131-0.504,0.197-1.023,0.197-1.547
			c0-0.563-0.076-1.115-0.227-1.654l5.314-2.914c0.871,0.855,2.037,1.34,3.254,1.34c2.57,0,4.662-2.094,4.662-4.666
			c0-2.57-2.092-4.662-4.662-4.662c-2.572,0-4.664,2.092-4.664,4.662c0,0.107,0.004,0.215,0.012,0.324l-5.639,3.072
			C11.578,9.443,10.059,8.84,8.496,8.84c-3.4,0-6.166,2.766-6.166,6.166s2.766,6.168,6.166,6.168c1.609,0,3.158-0.635,4.303-1.75
			l5.529,3.018c-0.018,0.15-0.025,0.297-0.025,0.443c0,2.572,2.094,4.664,4.664,4.664c2.572,0,4.664-2.092,4.664-4.664
			C27.631,20.314,25.539,18.223,22.967,18.223z"/>
	</g>
</g>
</svg>
