<?xml version="1.0" encoding="utf-8"?>
<!-- Generator: Adobe Illustrator 15.0.0, SVG Export Plug-In . SVG Version: 6.00 Build 0)  -->
<!DOCTYPE svg PUBLIC "-//W3C//DTD SVG 1.1//EN" "http://www.w3.org/Graphics/SVG/1.1/DTD/svg11.dtd">
<svg version="1.1" xmlns="http://www.w3.org/2000/svg" xmlns:xlink="http://www.w3.org/1999/xlink" x="0px" y="0px" width="30px"
	 height="30px" viewBox="0 0 30 30" enable-background="new 0 0 30 30" xml:space="preserve">
<g id="DO_NOT_EDIT_-_BOUNDING_BOX">
	<rect id="BOUNDING_BOX" fill="none" width="30" height="30"/>
</g>
<g id="PLACE_YOUR_GRAPHIC_HERE">
	<path opacity="0.3" d="M21,10h3v2l4-4l-4-4v2h-3c-3,0-4.832,1.479-6,3l-5.746,7.584C8.484,17.584,7.666,18,6.441,18H2v4h4.441
		c3,0,4.832-1.479,6-3l5.746-7.584C18.957,10.416,19.775,10,21,10z M9.254,11.416l0.076,0.102l2.469-3.259
		C10.629,7.033,8.945,6,6.441,6H2v4h4.441C7.666,10,8.484,10.416,9.254,11.416z M24,18h-3c-1.225,0-2.043-0.416-2.813-1.416
		l-0.076-0.102l-2.469,3.258C16.813,20.967,18.496,22,21,22h3v2l4-4l-4-4V18z"/>
	<path opacity="0.15" d="M24,26c-0.129,0-0.259-0.024-0.383-0.076C23.243,25.77,23,25.404,23,25v-1h-2
		c-2.409,0-4.455-0.864-6.081-2.569c-0.338-0.355-0.37-0.903-0.073-1.294l2.469-3.258c0.188-0.25,0.484-0.396,0.797-0.396
		c0.001,0,0.002,0,0.003,0c0.313,0.001,0.608,0.148,0.797,0.4l0.076,0.102C19.563,17.731,20.092,18,21,18h2v-1
		c0-0.404,0.243-0.77,0.617-0.924C23.741,16.024,23.871,16,24,16c0.26,0,0.516,0.102,0.707,0.293l4,4
		c0.391,0.391,0.391,1.023,0,1.414l-4,4C24.516,25.898,24.26,26,24,26z M2,24c-0.552,0-1-0.447-1-1v-4c0-0.553,0.448-1,1-1h4.441
		c0.909,0,1.437-0.269,2.02-1.026l5.742-7.578C15.934,7.141,18.22,6,21,6h2V5c0-0.404,0.243-0.769,0.617-0.924
		C23.741,4.025,23.871,4,24,4c0.26,0,0.516,0.102,0.707,0.293l4,4c0.391,0.391,0.391,1.023,0,1.414l-4,4
		C24.516,13.898,24.26,14,24,14c-0.129,0-0.259-0.025-0.383-0.076C23.243,13.769,23,13.404,23,13v-1h-2
		c-0.908,0-1.438,0.269-2.02,1.026l-5.742,7.578C11.507,22.859,9.222,24,6.441,24H2z M9.328,13.518
		c-0.314-0.001-0.609-0.149-0.797-0.4l-0.076-0.102C7.878,12.269,7.35,12,6.441,12H2c-0.552,0-1-0.448-1-1V7c0-0.552,0.448-1,1-1
		h4.441c2.408,0,4.454,0.864,6.081,2.568c0.339,0.355,0.37,0.903,0.074,1.294l-2.469,3.259c-0.189,0.25-0.484,0.396-0.797,0.396
		C9.329,13.518,9.329,13.518,9.328,13.518z"/>
	<path opacity="0.15" d="M21,11h3v2l4-4l-4-4v2h-3c-3,0-4.832,1.479-6,3l-5.746,7.584C8.484,18.584,7.666,19,6.441,19H2v4h4.441
		c3,0,4.832-1.479,6-3l5.746-7.584C18.957,11.416,19.775,11,21,11z M9.254,12.416l0.076,0.102l2.469-3.259
		C10.629,8.033,8.945,7,6.441,7H2v4h4.441C7.666,11,8.484,11.416,9.254,12.416z M24,19h-3c-1.225,0-2.043-0.416-2.813-1.416
		l-0.076-0.102l-2.469,3.258C16.813,21.967,18.496,23,21,23h3v2l4-4l-4-4V19z"/>
	<path fill="#FFFFFF" d="M21,11h3v2l4-4l-4-4v2h-3c-3,0-4.832,1.479-6,3l-5.746,7.584C8.484,18.584,7.666,19,6.441,19H2v4h4.441
		c3,0,4.832-1.479,6-3l5.746-7.584C18.957,11.416,19.775,11,21,11z M9.254,12.416l0.076,0.102l2.469-3.259
		C10.629,8.033,8.945,7,6.441,7H2v4h4.441C7.666,11,8.484,11.416,9.254,12.416z M24,19h-3c-1.225,0-2.043-0.416-2.813-1.416
		l-0.076-0.102l-2.469,3.258C16.813,21.967,18.496,23,21,23h3v2l4-4l-4-4V19z"/>
</g>
</svg>
