<?xml version="1.0" encoding="utf-8"?>
<!-- Generator: Adobe Illustrator 15.0.0, SVG Export Plug-In . SVG Version: 6.00 Build 0)  -->
<!DOCTYPE svg PUBLIC "-//W3C//DTD SVG 1.1//EN" "http://www.w3.org/Graphics/SVG/1.1/DTD/svg11.dtd">
<svg version="1.1" xmlns="http://www.w3.org/2000/svg" xmlns:xlink="http://www.w3.org/1999/xlink" x="0px" y="0px" width="30px"
	 height="30px" viewBox="0 0 30 30" enable-background="new 0 0 30 30" xml:space="preserve">
<g id="DO_NOT_EDIT_-_BOUNDING_BOX">
	<rect id="BOUNDING_BOX" fill="none" width="30" height="30"/>
</g>
<g id="PLACE_YOUR_GRAPHIC_HERE">
	<path opacity="0.3" d="M25,8.521H15V20h10V8.521z M27.783,4.521H7.088c-0.67,0-1.605,0.387-2.078,0.859L1.861,8.529
		C1.389,9.004,1,9.939,1,10.607v12.174C1,23.451,1.549,24,2.219,24h25.564C28.453,24,29,23.451,29,22.781V5.738
		C29,5.068,28.453,4.521,27.783,4.521z M27,22H3V10.615c0.01-0.172,0.168-0.552,0.275-0.672l3.141-3.143
		C6.543,6.688,6.924,6.53,7.088,6.521H27V22z"/>
	<path opacity="0.15" d="M2.219,26C0.995,26,0,25.005,0,23.781V11.607c0-0.927,0.496-2.124,1.153-2.784l3.15-3.15
		c0.657-0.657,1.854-1.152,2.785-1.152h20.695C29.006,4.521,30,5.516,30,6.738v17.043C30,25.005,29.006,26,27.783,26H2.219z"/>
	<path opacity="0.15" d="M25,9.521H15V21h10V9.521z M27.783,5.521H7.088c-0.67,0-1.605,0.387-2.078,0.859L1.861,9.529
		C1.389,10.004,1,10.939,1,11.607v12.174C1,24.451,1.549,25,2.219,25h25.564C28.453,25,29,24.451,29,23.781V6.738
		C29,6.068,28.453,5.521,27.783,5.521z M27,23H3V11.615c0.01-0.172,0.168-0.552,0.275-0.672l3.141-3.143
		C6.543,7.688,6.924,7.53,7.088,7.521H27V23z"/>
	<path fill="#FFFFFF" d="M25,9.521H15V21h10V9.521z M27.783,5.521H7.088c-0.67,0-1.605,0.387-2.078,0.859L1.861,9.529
		C1.389,10.004,1,10.939,1,11.607v12.174C1,24.451,1.549,25,2.219,25h25.564C28.453,25,29,24.451,29,23.781V6.738
		C29,6.068,28.453,5.521,27.783,5.521z M27,23H3V11.615c0.01-0.172,0.168-0.552,0.275-0.672l3.141-3.143
		C6.543,7.688,6.924,7.53,7.088,7.521H27V23z"/>
</g>
</svg>
