<?xml version="1.0" encoding="utf-8"?>
<!-- Generator: Adobe Illustrator 15.0.0, SVG Export Plug-In . SVG Version: 6.00 Build 0)  -->
<!DOCTYPE svg PUBLIC "-//W3C//DTD SVG 1.1//EN" "http://www.w3.org/Graphics/SVG/1.1/DTD/svg11.dtd">
<svg version="1.1" xmlns="http://www.w3.org/2000/svg" xmlns:xlink="http://www.w3.org/1999/xlink" x="0px" y="0px" width="30px"
	 height="30px" viewBox="0 0 30 30" enable-background="new 0 0 30 30" xml:space="preserve">
<g id="DO_NOT_EDIT_-_BOUNDING_BOX">
	<rect id="BOUNDING_BOX" fill="none" width="30" height="30"/>
</g>
<g id="PLACE_YOUR_GRAPHIC_HERE">
	<path opacity="0.3" d="M25,2H5C3.896,2,3,2.896,3,4v20c0,1.104,0.896,2,2,2h20c1.104,0,2-0.896,2-2V4C27,2.896,26.104,2,25,2z"/>
	<rect fill="none" width="30" height="30"/>
	<path opacity="0.15" d="M5,28c-1.654,0-3-1.346-3-3V5c0-1.654,1.346-3,3-3h20c1.654,0,3,1.346,3,3v20c0,1.654-1.346,3-3,3H5z"/>
	<path opacity="0.15" d="M25,3H5C3.896,3,3,3.896,3,5v20c0,1.104,0.896,2,2,2h20c1.104,0,2-0.896,2-2V5C27,3.896,26.104,3,25,3z"/>
	<path fill="#FFFFFF" d="M25,3H5C3.896,3,3,3.896,3,5v20c0,1.104,0.896,2,2,2h20c1.104,0,2-0.896,2-2V5C27,3.896,26.104,3,25,3z"/>
</g>
</svg>
