<?xml version="1.0" encoding="utf-8"?>
<!-- Generator: Adobe Illustrator 15.0.0, SVG Export Plug-In . SVG Version: 6.00 Build 0)  -->
<!DOCTYPE svg PUBLIC "-//W3C//DTD SVG 1.1//EN" "http://www.w3.org/Graphics/SVG/1.1/DTD/svg11.dtd">
<svg version="1.1" xmlns="http://www.w3.org/2000/svg" xmlns:xlink="http://www.w3.org/1999/xlink" x="0px" y="0px" width="30px"
	 height="30px" viewBox="0 0 30 30" enable-background="new 0 0 30 30" xml:space="preserve">
<g id="DO_NOT_EDIT_-_BOUNDING_BOX">
	<rect id="BOUNDING_BOX" fill="none" width="30" height="30"/>
</g>
<g id="PLACE_YOUR_GRAPHIC_HERE">
	<path opacity="0.3" d="M12.833,21.391c-1.206-0.349-2.347-0.986-3.296-1.936c-3.012-3.013-3.012-7.916,0-10.928L6.804,5.796
		c-4.525,4.526-4.525,11.865,0,16.391c1.475,1.476,3.251,2.458,5.129,2.969L11.253,28l9.894-2.399l-7.522-7.521L12.833,21.391z
		 M23.195,5.796c-1.472-1.471-3.243-2.455-5.115-2.967L18.766,0L8.844,2.372l7.521,7.522l0.802-3.302
		c1.208,0.348,2.347,0.986,3.297,1.936c3.013,3.012,3.014,7.913,0,10.928l2.731,2.731C27.722,17.661,27.722,10.322,23.195,5.796z"/>
	<path opacity="0.15" d="M11.253,30c-0.261,0-0.516-0.103-0.706-0.292c-0.247-0.245-0.348-0.602-0.267-0.94l0.463-1.938
		c-1.747-0.623-3.339-1.627-4.647-2.936c-4.908-4.908-4.908-12.896,0-17.805c0.195-0.195,0.451-0.293,0.707-0.293
		s0.512,0.098,0.707,0.293l2.732,2.731c0.188,0.188,0.293,0.442,0.293,0.707s-0.105,0.52-0.293,0.707
		c-2.623,2.623-2.623,6.891,0,9.514c0.549,0.549,1.179,0.988,1.879,1.313l0.529-2.214c0.084-0.353,0.352-0.632,0.701-0.729
		c0.09-0.025,0.181-0.038,0.272-0.038c0.262,0,0.517,0.103,0.707,0.293l7.522,7.521c0.256,0.256,0.354,0.629,0.256,0.978
		c-0.098,0.348-0.376,0.616-0.728,0.701l-9.893,2.399C11.411,29.991,11.332,30,11.253,30z M23.195,24.187
		c-0.256,0-0.512-0.098-0.707-0.293l-2.731-2.731c-0.391-0.391-0.391-1.023,0-1.414c2.622-2.624,2.623-6.891,0-9.514
		c-0.551-0.551-1.182-0.991-1.883-1.316l-0.537,2.211c-0.085,0.352-0.354,0.629-0.701,0.727c-0.09,0.025-0.181,0.037-0.271,0.037
		c-0.262,0-0.517-0.103-0.707-0.293L8.137,4.079C7.881,3.823,7.784,3.449,7.882,3.1C7.98,2.751,8.26,2.484,8.612,2.399l9.921-2.372
		C18.61,0.009,18.688,0,18.766,0c0.263,0,0.519,0.104,0.708,0.294c0.246,0.247,0.346,0.603,0.264,0.941l-0.466,1.922
		c1.738,0.624,3.324,1.626,4.631,2.932c2.378,2.378,3.688,5.54,3.688,8.903c0,3.363-1.31,6.525-3.688,8.902
		C23.707,24.089,23.451,24.187,23.195,24.187z"/>
	<path opacity="0.15" d="M12.833,22.391c-1.206-0.349-2.347-0.986-3.296-1.936c-3.012-3.013-3.012-7.916,0-10.928L6.804,6.796
		c-4.525,4.526-4.525,11.865,0,16.391c1.475,1.476,3.251,2.458,5.129,2.969L11.253,29l9.894-2.399l-7.522-7.521L12.833,22.391z
		 M23.195,6.796c-1.472-1.471-3.243-2.455-5.115-2.967L18.766,1L8.844,3.372l7.521,7.522l0.802-3.302
		c1.208,0.348,2.347,0.986,3.297,1.936c3.013,3.012,3.014,7.913,0,10.928l2.731,2.731C27.722,18.661,27.722,11.322,23.195,6.796z"/>
	<path fill="#FFFFFF" d="M12.833,22.391c-1.206-0.349-2.347-0.986-3.296-1.936c-3.012-3.013-3.012-7.916,0-10.928L6.804,6.796
		c-4.525,4.526-4.525,11.865,0,16.391c1.475,1.476,3.251,2.458,5.129,2.969L11.253,29l9.894-2.399l-7.522-7.521L12.833,22.391z
		 M23.195,6.796c-1.472-1.471-3.243-2.455-5.115-2.967L18.766,1L8.844,3.372l7.521,7.522l0.802-3.302
		c1.208,0.348,2.347,0.986,3.297,1.936c3.013,3.012,3.014,7.913,0,10.928l2.731,2.731C27.722,18.661,27.722,11.322,23.195,6.796z"/>
</g>
</svg>
