<?xml version="1.0" encoding="utf-8"?>
<!-- Generator: Adobe Illustrator 15.0.0, SVG Export Plug-In . SVG Version: 6.00 Build 0)  -->
<!DOCTYPE svg PUBLIC "-//W3C//DTD SVG 1.1//EN" "http://www.w3.org/Graphics/SVG/1.1/DTD/svg11.dtd">
<svg version="1.1" xmlns="http://www.w3.org/2000/svg" xmlns:xlink="http://www.w3.org/1999/xlink" x="0px" y="0px" width="30px"
	 height="30px" viewBox="0 0 30 30" enable-background="new 0 0 30 30" xml:space="preserve">
<g id="DO_NOT_EDIT_-_BOUNDING_BOX">
	<rect id="BOUNDING_BOX" fill="none" width="30" height="30"/>
</g>
<g id="PLACE_YOUR_GRAPHIC_HERE">
	<g>
		<polygon opacity="0.3" points="22.23,4 7.771,4 7.5,8.643 9.121,8.643 10.014,5.896 12.826,5.896 12.826,22.268 10.904,22.652 
			10.904,24 19.096,24 19.096,22.654 17.18,22.268 17.18,5.896 19.988,5.896 20.881,8.643 22.5,8.643 		"/>
		<path opacity="0.3" enable-background="new    " d="M22.5,9.643h-1.619l-0.893-2.746H17.18v16.371l1.916,0.387V25h-8.191v-1.348
			l1.922-0.385V6.896h-2.813L9.121,9.643H7.5L7.771,5H22.23L22.5,9.643z"/>
		<rect fill="none" width="30" height="30"/>
		<path opacity="0.15" d="M10.904,26c-0.552,0-1-0.447-1-1v-1.348c0-0.477,0.336-0.887,0.804-0.98l1.118-0.224V7.896H10.74
			l-0.668,2.055c-0.134,0.412-0.518,0.691-0.951,0.691H7.5c-0.275,0-0.539-0.114-0.728-0.314s-0.287-0.47-0.271-0.745l0.271-4.643
			C6.804,4.413,7.242,4,7.771,4H22.23c0.529,0,0.968,0.413,0.998,0.942l0.27,4.643c0.017,0.275-0.082,0.544-0.271,0.745
			c-0.189,0.2-0.452,0.313-0.728,0.313h-1.619c-0.434,0-0.817-0.279-0.951-0.691l-0.668-2.055H18.18v14.553l1.114,0.225
			c0.466,0.095,0.802,0.505,0.802,0.98V25c0,0.553-0.447,1-1,1H10.904z"/>
		<polygon opacity="0.15" points="22.23,5 7.771,5 7.5,9.643 9.121,9.643 10.014,6.896 12.826,6.896 12.826,23.268 10.904,23.652 
			10.904,25 19.096,25 19.096,23.654 17.18,23.268 17.18,6.896 19.988,6.896 20.881,9.643 22.5,9.643 		"/>
		<polygon fill="#FFFFFF" points="22.23,5 7.771,5 7.5,9.643 9.121,9.643 10.014,6.896 12.826,6.896 12.826,23.268 10.904,23.652 
			10.904,25 19.096,25 19.096,23.654 17.18,23.268 17.18,6.896 19.988,6.896 20.881,9.643 22.5,9.643 		"/>
	</g>
</g>
</svg>
