<?xml version="1.0" encoding="utf-8"?>
<!-- Generator: Adobe Illustrator 15.0.0, SVG Export Plug-In . SVG Version: 6.00 Build 0)  -->
<!DOCTYPE svg PUBLIC "-//W3C//DTD SVG 1.1//EN" "http://www.w3.org/Graphics/SVG/1.1/DTD/svg11.dtd">
<svg version="1.1" xmlns="http://www.w3.org/2000/svg" xmlns:xlink="http://www.w3.org/1999/xlink" x="0px" y="0px" width="30px"
	 height="30px" viewBox="0 0 30 30" enable-background="new 0 0 30 30" xml:space="preserve">
<g id="DO_NOT_EDIT_-_BOUNDING_BOX">
	<rect id="BOUNDING_BOX" fill="none" width="30" height="30"/>
</g>
<g id="PLACE_YOUR_GRAPHIC_HERE">
	<path opacity="0.3" d="M13.293,8.293l-1.586-1.586C11.318,6.318,10.549,6,10,6H4L2.447,5.225C2.201,5.102,2,5.225,2,5.5v4
		c0,0.275,0.201,0.4,0.447,0.277L4,9h9C13.549,9,13.682,8.682,13.293,8.293z M27,10.5h-1L23,12h-2v-1c0-0.549-0.451-1-1-1H6
		c-0.551,0-1,0.451-1,1v11c0,0.551,0.449,1,1,1h14c0.549,0,1-0.449,1-1v-4h2l3,1.5h1c0.549,0,1-0.449,1-1v-7
		C28,10.951,27.549,10.5,27,10.5z"/>
	<path opacity="0.15" d="M6,25c-1.103,0-2-0.897-2-2V12c0-0.364,0.098-0.706,0.269-1H4.236l-1.341,0.671
		c-0.204,0.102-0.415,0.153-0.629,0.153C1.544,11.825,1,11.255,1,10.5v-4c0-0.754,0.544-1.323,1.265-1.323
		c0.214,0,0.426,0.052,0.629,0.153L4.236,6H10c0.819,0,1.835,0.42,2.414,1L14,8.586c0.563,0.563,0.557,1.101,0.479,1.414H20
		c1.103,0,2,0.897,2,2h0.764l2.789-1.395C25.691,10.536,25.845,10.5,26,10.5h1c1.103,0,2,0.897,2,2v7c0,1.103-0.897,2-2,2h-1
		c-0.155,0-0.309-0.036-0.447-0.105L22.764,20H22v3c0,1.103-0.897,2-2,2H6z"/>
	<path opacity="0.15" d="M13.293,9.293l-1.586-1.586C11.318,7.318,10.549,7,10,7H4L2.447,6.225C2.201,6.102,2,6.225,2,6.5v4
		c0,0.275,0.201,0.4,0.447,0.277L4,10h9C13.549,10,13.682,9.682,13.293,9.293z M27,11.5h-1L23,13h-2v-1c0-0.549-0.451-1-1-1H6
		c-0.551,0-1,0.451-1,1v11c0,0.551,0.449,1,1,1h14c0.549,0,1-0.449,1-1v-4h2l3,1.5h1c0.549,0,1-0.449,1-1v-7
		C28,11.951,27.549,11.5,27,11.5z"/>
	<path fill="#FFFFFF" d="M13.293,9.293l-1.586-1.586C11.318,7.318,10.549,7,10,7H4L2.447,6.225C2.201,6.102,2,6.225,2,6.5v4
		c0,0.275,0.201,0.4,0.447,0.277L4,10h9C13.549,10,13.682,9.682,13.293,9.293z M27,11.5h-1L23,13h-2v-1c0-0.549-0.451-1-1-1H6
		c-0.551,0-1,0.451-1,1v11c0,0.551,0.449,1,1,1h14c0.549,0,1-0.449,1-1v-4h2l3,1.5h1c0.549,0,1-0.449,1-1v-7
		C28,11.951,27.549,11.5,27,11.5z"/>
</g>
</svg>
