<?xml version="1.0" encoding="utf-8"?>
<!-- Generator: Adobe Illustrator 15.0.0, SVG Export Plug-In . SVG Version: 6.00 Build 0)  -->
<!DOCTYPE svg PUBLIC "-//W3C//DTD SVG 1.1//EN" "http://www.w3.org/Graphics/SVG/1.1/DTD/svg11.dtd">
<svg version="1.1" xmlns="http://www.w3.org/2000/svg" xmlns:xlink="http://www.w3.org/1999/xlink" x="0px" y="0px" width="30px"
	 height="30px" viewBox="0 0 30 30" enable-background="new 0 0 30 30" xml:space="preserve">
<g id="DO_NOT_EDIT_-_BOUNDING_BOX">
	<rect id="BOUNDING_BOX" fill="none" width="30" height="30"/>
</g>
<g id="PLACE_YOUR_GRAPHIC_HERE">
	<path opacity="0.3" d="M23,12c3.313,0,6-2.687,6-6s-2.687-6-6-6s-6,2.687-6,6S19.687,12,23,12z M23,3.5c1.381,0,2.5,1.119,2.5,2.5
		S24.381,8.5,23,8.5S20.5,7.381,20.5,6S21.619,3.5,23,3.5z M26.699,11.932C25.624,12.604,24.358,13,23,13s-2.624-0.396-3.699-1.068
		L17.6,14.2C17.27,14.64,17.45,15,18,15h10c0.55,0,0.73-0.36,0.4-0.8L26.699,11.932z M27.19,20.633l-4.315-1.615
		c-0.982-0.514-1.561,0.168-1.561,0.168l-2.102,1.879c0.159-0.184-1.797,2.037-7.469-3.462h-0.002l-0.273-0.274l0.001-0.002
		c-5.501-5.674-3.28-7.627-3.46-7.469l1.802-2.171c0,0,0.685-0.579,0.17-1.56L8.37,1.813c0,0-0.528-0.998-1.437-0.781
		C0.442,2.578,2.225,9.37,2.225,9.37c0.91,4.864,4.668,8.882,5.937,10.118l-0.005,0.008l1.845,1.844l0.009-0.009
		c1.625,1.559,5.287,4.634,9.621,5.446c0,0,6.793,1.779,8.338-4.71C28.186,21.157,27.19,20.633,27.19,20.633z"/>
	<path opacity="0.15" d="M21.652,29.001c-1.283-0.001-2.235-0.246-2.274-0.256c-4.362-0.815-8.067-3.803-9.948-5.586
		c-0.048-0.032-0.094-0.07-0.136-0.112l-1.845-1.844c-0.03-0.029-0.058-0.062-0.083-0.094c-1.318-1.303-5.175-5.481-6.125-10.555
		C1.22,10.48,0.351,7.063,2.042,4.242c0.962-1.605,2.53-2.676,4.659-3.184C6.863,1.02,7.027,1,7.189,1
		c1.315,0,1.992,1.207,2.064,1.344c0.02,0.038,0.038,0.078,0.053,0.118l1.591,4.261c0.61,1.228,0.076,2.223-0.357,2.65
		c0,0-1.716,2.07-1.722,2.078c-0.012,0.019-0.948,1.726,3.369,6.179c0.012,0.013,0.263,0.267,0.263,0.267
		c3.105,3.009,4.873,3.46,5.649,3.46c0.329,0,0.487-0.083,0.521-0.104l1.995-1.783c0.19-0.196,0.716-0.644,1.548-0.644
		c0.372,0,0.746,0.092,1.115,0.274l4.263,1.596c0.04,0.015,0.078,0.032,0.115,0.052c0.625,0.329,1.599,1.237,1.285,2.551
		C27.761,28.26,23.868,29.001,21.652,29.001L21.652,29.001z M18,17c-0.655,0-1.175-0.287-1.425-0.788
		c-0.25-0.501-0.168-1.089,0.225-1.612l1.688-2.251C16.968,11.063,16,9.143,16,7c0-3.86,3.141-7,7-7s7,3.14,7,7
		c0,2.143-0.968,4.063-2.488,5.348L29.2,14.6c0.393,0.523,0.475,1.11,0.225,1.612C29.175,16.713,28.655,17,28,17H18z"/>
	<path opacity="0.15" d="M23,13c3.313,0,6-2.687,6-6s-2.687-6-6-6s-6,2.687-6,6S19.687,13,23,13z M23,4.5c1.381,0,2.5,1.119,2.5,2.5
		S24.381,9.5,23,9.5S20.5,8.381,20.5,7S21.619,4.5,23,4.5z M26.699,12.932C25.624,13.604,24.358,14,23,14s-2.624-0.396-3.699-1.068
		L17.6,15.2C17.27,15.64,17.45,16,18,16h10c0.55,0,0.73-0.36,0.4-0.8L26.699,12.932z M27.19,21.633l-4.315-1.615
		c-0.982-0.514-1.561,0.168-1.561,0.168l-2.102,1.879c0.159-0.184-1.797,2.037-7.469-3.462h-0.002l-0.273-0.274l0.001-0.002
		c-5.501-5.674-3.28-7.627-3.46-7.469l1.802-2.171c0,0,0.685-0.579,0.17-1.56L8.37,2.813c0,0-0.528-0.998-1.437-0.781
		C0.442,3.578,2.225,10.37,2.225,10.37c0.91,4.864,4.668,8.882,5.937,10.118l-0.005,0.008l1.845,1.844l0.009-0.009
		c1.625,1.559,5.287,4.634,9.621,5.446c0,0,6.793,1.779,8.338-4.71C28.186,22.157,27.19,21.633,27.19,21.633z"/>
	<path fill="#FFFFFF" d="M23,13c3.313,0,6-2.687,6-6s-2.687-6-6-6s-6,2.687-6,6S19.687,13,23,13z M23,4.5c1.381,0,2.5,1.119,2.5,2.5
		S24.381,9.5,23,9.5S20.5,8.381,20.5,7S21.619,4.5,23,4.5z M26.699,12.932C25.624,13.604,24.358,14,23,14s-2.624-0.396-3.699-1.068
		L17.6,15.2C17.27,15.64,17.45,16,18,16h10c0.55,0,0.73-0.36,0.4-0.8L26.699,12.932z M27.19,21.633l-4.315-1.615
		c-0.982-0.514-1.561,0.168-1.561,0.168l-2.102,1.879c0.159-0.184-1.797,2.037-7.469-3.462h-0.002l-0.273-0.274l0.001-0.002
		c-5.501-5.674-3.28-7.627-3.46-7.469l1.802-2.171c0,0,0.685-0.579,0.17-1.56L8.37,2.813c0,0-0.528-0.998-1.437-0.781
		C0.442,3.578,2.225,10.37,2.225,10.37c0.91,4.864,4.668,8.882,5.937,10.118l-0.005,0.008l1.845,1.844l0.009-0.009
		c1.625,1.559,5.287,4.634,9.621,5.446c0,0,6.793,1.779,8.338-4.71C28.186,22.157,27.19,21.633,27.19,21.633z"/>
</g>
</svg>
