<?xml version="1.0" encoding="utf-8"?>
<!-- Generator: Adobe Illustrator 15.0.0, SVG Export Plug-In . SVG Version: 6.00 Build 0)  -->
<!DOCTYPE svg PUBLIC "-//W3C//DTD SVG 1.1//EN" "http://www.w3.org/Graphics/SVG/1.1/DTD/svg11.dtd">
<svg version="1.1" xmlns="http://www.w3.org/2000/svg" xmlns:xlink="http://www.w3.org/1999/xlink" x="0px" y="0px" width="30px"
	 height="30px" viewBox="0 0 30 30" enable-background="new 0 0 30 30" xml:space="preserve">
<g id="DO_NOT_EDIT_-_BOUNDING_BOX">
	<rect id="BOUNDING_BOX" fill="none" width="30" height="30"/>
</g>
<g id="PLACE_YOUR_GRAPHIC_HERE">
	<path opacity="0.3" d="M25,13c0-0.553-0.447-1-1-1s-1,0.447-1,1c0,4.412-3.588,8-8,8c-4.411,0-8-3.588-8-8c0-0.553-0.447-1-1-1
		s-1,0.447-1,1c0,4.83,3.441,8.869,8,9.799V25h-2c-0.553,0-1,0.449-1,1c0,0.553,0.447,1,1,1h8c0.553,0,1-0.447,1-1
		c0-0.551-0.447-1-1-1h-2v-2.201C21.559,21.869,25,17.83,25,13z M15,19c3.147,0,5.721-2.42,5.975-5.5H21V6c0-3.313-2.686-6-6-6
		c-3.314,0-6,2.688-6,6v7.5h0.025C9.279,16.58,11.854,19,15,19z"/>
	<path opacity="0.15" d="M11,29c-1.103,0-2-0.897-2-2s0.897-2,2-2h1v-0.416C7.318,23.255,4,18.929,4,14c0-1.103,0.897-2,2-2
		s2,0.897,2,2V7c0-3.86,3.14-7,7-7c3.86,0,7,3.14,7,7v7c0-1.103,0.897-2,2-2s2,0.897,2,2c0,4.93-3.318,9.256-8,10.584V25h1
		c1.103,0,2,0.897,2,2s-0.897,2-2,2H11z M8.044,14.787C8.436,18.274,11.4,20.995,14.989,21c-3.531-0.006-6.534-2.704-6.938-6.191
		C8.049,14.802,8.046,14.794,8.044,14.787z M21.947,14.821c-0.408,3.481-3.409,6.173-6.937,6.179
		c3.585-0.005,6.547-2.72,6.945-6.202C21.952,14.806,21.95,14.813,21.947,14.821z"/>
	<path opacity="0.15" d="M25,14c0-0.553-0.447-1-1-1s-1,0.447-1,1c0,4.412-3.588,8-8,8c-4.411,0-8-3.588-8-8c0-0.553-0.447-1-1-1
		s-1,0.447-1,1c0,4.83,3.441,8.869,8,9.799V26h-2c-0.553,0-1,0.449-1,1c0,0.553,0.447,1,1,1h8c0.553,0,1-0.447,1-1
		c0-0.551-0.447-1-1-1h-2v-2.201C21.559,22.869,25,18.83,25,14z M15,20c3.147,0,5.721-2.42,5.975-5.5H21V7c0-3.313-2.686-6-6-6
		c-3.314,0-6,2.688-6,6v7.5h0.025C9.279,17.58,11.854,20,15,20z"/>
	<path fill="#FFFFFF" d="M25,14c0-0.553-0.447-1-1-1s-1,0.447-1,1c0,4.412-3.588,8-8,8c-4.411,0-8-3.588-8-8c0-0.553-0.447-1-1-1
		s-1,0.447-1,1c0,4.83,3.441,8.869,8,9.799V26h-2c-0.553,0-1,0.449-1,1c0,0.553,0.447,1,1,1h8c0.553,0,1-0.447,1-1
		c0-0.551-0.447-1-1-1h-2v-2.201C21.559,22.869,25,18.83,25,14z M15,20c3.147,0,5.721-2.42,5.975-5.5H21V7c0-3.313-2.686-6-6-6
		c-3.314,0-6,2.688-6,6v7.5h0.025C9.279,17.58,11.854,20,15,20z"/>
</g>
</svg>
