<?xml version="1.0" encoding="utf-8"?>
<!-- Generator: Adobe Illustrator 15.0.0, SVG Export Plug-In . SVG Version: 6.00 Build 0)  -->
<!DOCTYPE svg PUBLIC "-//W3C//DTD SVG 1.1//EN" "http://www.w3.org/Graphics/SVG/1.1/DTD/svg11.dtd">
<svg version="1.1" xmlns="http://www.w3.org/2000/svg" xmlns:xlink="http://www.w3.org/1999/xlink" x="0px" y="0px" width="30px"
	 height="30px" viewBox="0 0 30 30" enable-background="new 0 0 30 30" xml:space="preserve">
<g id="DO_NOT_EDIT_-_BOUNDING_BOX">
	<rect id="BOUNDING_BOX" fill="none" width="30" height="30"/>
</g>
<g id="PLACE_YOUR_GRAPHIC_HERE">
	<g>
		<path opacity="0.3" d="M23,3H7C4.25,3,2,5.25,2,8v9c0,2.75,2.25,5,5,5h17l4,4V8C28,5.25,25.75,3,23,3z M20.254,15.494H9.699
			c-4.181,0-4.33-6.494,0-6.494c2.919,0,3.861,3.162,2.795,4.871h4.959C16.439,12.162,17.283,9,20.251,9
			C24.036,9,25.078,15.092,20.254,15.494z"/>
		<rect fill="none" width="30" height="30"/>
		<path opacity="0.15" d="M28,28c-0.26,0-0.516-0.102-0.707-0.293L23.586,24H7c-3.309,0-6-2.691-6-6V9c0-3.309,2.691-6,6-6h16
			c3.309,0,6,2.691,6,6v18c0,0.404-0.243,0.77-0.617,0.924C28.259,27.976,28.129,28,28,28z"/>
		<path opacity="0.15" d="M23,4H7C4.25,4,2,6.25,2,9v9c0,2.75,2.25,5,5,5h17l4,4V9C28,6.25,25.75,4,23,4z M20.254,16.494H9.699
			c-4.181,0-4.33-6.494,0-6.494c2.919,0,3.861,3.162,2.795,4.871h4.959C16.439,13.162,17.283,10,20.251,10
			C24.036,10,25.078,16.092,20.254,16.494z"/>
		<path fill="#FFFFFF" d="M23,4H7C4.25,4,2,6.25,2,9v9c0,2.75,2.25,5,5,5h17l4,4V9C28,6.25,25.75,4,23,4z M20.254,16.494H9.699
			c-4.181,0-4.33-6.494,0-6.494c2.919,0,3.861,3.162,2.795,4.871h4.959C16.439,13.162,17.283,10,20.251,10
			C24.036,10,25.078,16.092,20.254,16.494z"/>
	</g>
</g>
</svg>
