<?xml version="1.0" encoding="utf-8"?>
<!-- Generator: Adobe Illustrator 15.0.0, SVG Export Plug-In . SVG Version: 6.00 Build 0)  -->
<!DOCTYPE svg PUBLIC "-//W3C//DTD SVG 1.1//EN" "http://www.w3.org/Graphics/SVG/1.1/DTD/svg11.dtd">
<svg version="1.1" xmlns="http://www.w3.org/2000/svg" xmlns:xlink="http://www.w3.org/1999/xlink" x="0px" y="0px" width="30px"
	 height="30px" viewBox="0 0 30 30" enable-background="new 0 0 30 30" xml:space="preserve">
<g id="DO_NOT_EDIT_-_BOUNDING_BOX">
	<rect id="BOUNDING_BOX" fill="none" width="30" height="30"/>
</g>
<g id="PLACE_YOUR_GRAPHIC_HERE">
	<path opacity="0.3" d="M15,21c5.523,0,10-4.479,10-10c0-5.523-4.477-10-10-10S5,5.477,5,11C5,16.521,9.477,21,15,21z M15,7
		c2.209,0,4,1.791,4,4s-1.791,4-4,4s-4-1.791-4-4S12.791,7,15,7z M21.605,21.008C19.709,22.264,17.439,23,15,23
		c-2.441,0-4.711-0.736-6.607-1.992l-2.619,3.574C4.799,25.91,5.35,27,7,27h16c1.65,0,2.201-1.09,1.227-2.418L21.605,21.008z"/>
	<path opacity="0.15" d="M22.412,21.416c-0.274-0.418-0.453-0.675-0.573-0.829C24.367,18.569,26,15.478,26,12
		c0-6.065-4.935-11-11-11S4,5.935,4,12c0,3.495,1.65,6.601,4.199,8.616c-0.129,0.156-0.323,0.407-0.613,0.801L4.967,24.99
		c-0.696,0.948-0.862,1.95-0.457,2.751C4.916,28.541,5.823,29,7,29h16c1.177,0,2.084-0.459,2.49-1.259
		c0.404-0.801,0.238-1.803-0.457-2.751L22.412,21.416z"/>
	<path opacity="0.15" d="M15,22c5.523,0,10-4.479,10-10c0-5.523-4.477-10-10-10S5,6.477,5,12C5,17.521,9.477,22,15,22z M15,8
		c2.209,0,4,1.791,4,4s-1.791,4-4,4s-4-1.791-4-4S12.791,8,15,8z M21.605,22.008C19.709,23.264,17.439,24,15,24
		c-2.441,0-4.711-0.736-6.607-1.992l-2.619,3.574C4.799,26.91,5.35,28,7,28h16c1.65,0,2.201-1.09,1.227-2.418L21.605,22.008z"/>
	<path fill="#FFFFFF" d="M15,22c5.523,0,10-4.479,10-10c0-5.523-4.477-10-10-10S5,6.477,5,12C5,17.521,9.477,22,15,22z M15,8
		c2.209,0,4,1.791,4,4s-1.791,4-4,4s-4-1.791-4-4S12.791,8,15,8z M21.605,22.008C19.709,23.264,17.439,24,15,24
		c-2.441,0-4.711-0.736-6.607-1.992l-2.619,3.574C4.799,26.91,5.35,28,7,28h16c1.65,0,2.201-1.09,1.227-2.418L21.605,22.008z"/>
</g>
</svg>
