<?xml version="1.0" encoding="utf-8"?>
<!-- Generator: Adobe Illustrator 15.0.0, SVG Export Plug-In . SVG Version: 6.00 Build 0)  -->
<!DOCTYPE svg PUBLIC "-//W3C//DTD SVG 1.1//EN" "http://www.w3.org/Graphics/SVG/1.1/DTD/svg11.dtd">
<svg version="1.1" xmlns="http://www.w3.org/2000/svg" xmlns:xlink="http://www.w3.org/1999/xlink" x="0px" y="0px" width="30px"
	 height="30px" viewBox="0 0 30 30" enable-background="new 0 0 30 30" xml:space="preserve">
<g id="DO_NOT_EDIT_-_BOUNDING_BOX">
	<rect id="BOUNDING_BOX" fill="none" width="30" height="30"/>
</g>
<g id="PLACE_YOUR_GRAPHIC_HERE">
	<path opacity="0.3" d="M14.375,21H7.904c-0.553,0-1-0.447-1-1s0.447-1,1-1h4.361c0.01-0.024,0.031-0.039,0.042-0.062
		c-0.011-0.075-0.029-0.149-0.029-0.227c0-0.859,0.704-1.559,1.568-1.559c0.016,0,0.034,0.001,0.051,0.001c0,0,0,0,0,0l4.598,0.002
		L18.548,17H7.904c-0.553,0-1-0.447-1-1s0.447-1,1-1h11.305l0.661-2H7.904c-0.553,0-1-0.447-1-1s0.447-1,1-1h14.192
		c0.553,0,1,0.447,1,1c0,0.263-0.108,0.494-0.277,0.668c0.023,0.051,0.06,0.094,0.078,0.147l1.436,4.341L26,17.155V2
		c0-0.55-0.449-1-1-1H5C4.451,1,4,1.45,4,2v24c0,0.55,0.451,1,1,1h10.235c0.018-0.056,0.031-0.111,0.055-0.167l1.39-4.192L14.375,21
		z M7.904,7h14.192c0.553,0,1,0.447,1,1s-0.447,1-1,1H7.904c-0.553,0-1-0.447-1-1S7.351,7,7.904,7z M29.299,19.16
		c0.146-0.102,0.248-0.26,0.248-0.448c0-0.306-0.248-0.549-0.557-0.558h-0.006c-0.002,0-0.004-0.001-0.006-0.001
		c-0.004,0-0.006,0.001-0.008,0.001l-5.361,0.002l-1.658-5.015c-0.076-0.221-0.283-0.384-0.533-0.384
		c-0.246,0-0.451,0.158-0.529,0.375h-0.01l-1.66,5.023l-5.321-0.002l-0.002,0.007c-0.018,0-0.031-0.008-0.049-0.008
		c-0.314,0-0.568,0.249-0.568,0.559c0,0.222,0.135,0.41,0.326,0.501l-0.004,0.009l4.26,3.032l-1.641,4.95
		c-0.039,0.077-0.064,0.156-0.064,0.248c0,0.307,0.254,0.556,0.568,0.556c0.123,0,0.23-0.047,0.324-0.113l0.004,0.003l4.359-3.109
		l4.281,3.056c0.006,0.004,0.012,0.006,0.016,0.01l0.039,0.026h0.002c0.098,0.075,0.213,0.128,0.348,0.128
		c0.314,0,0.568-0.249,0.568-0.556c0-0.05-0.016-0.093-0.027-0.14l0.004-0.002l-0.014-0.037c-0.006-0.018-0.008-0.037-0.018-0.055
		l-1.645-4.965l4.334-3.086L29.299,19.16z"/>
	<path opacity="0.15" d="M26.098,30.008c-0.326,0-0.644-0.106-0.92-0.308c-0.014-0.008-3.766-2.684-3.766-2.684l-3.778,2.695
		c-0.041,0.029-0.084,0.055-0.128,0.077c-0.244,0.144-0.512,0.219-0.781,0.219c-0.671,0-1.244-0.42-1.468-1.008C15.25,29,5,29,5,29
		c-1.103,0-2-0.897-2-2V3c0-1.103,0.897-2,2-2h20c1.103,0,2,0.897,2,2v15.155c0,0,1.964-0.002,1.979-0.002
		c0.046,0,0.092,0.003,0.138,0.01c0.824,0.085,1.431,0.742,1.431,1.549c0,0.44-0.196,0.861-0.533,1.156
		c-0.04,0.042-0.085,0.08-0.133,0.114l-3.732,2.658c0,0,1.438,4.341,1.446,4.374c0.029,0.08,0.047,0.159,0.056,0.238
		c0.009,0.059,0.016,0.125,0.016,0.199C27.666,29.31,26.963,30.008,26.098,30.008z M18.548,17c0.108,0,0.214,0.018,0.313,0.051
		L18.878,17H7.904H18.548z M7.904,13H19.87c0.187,0,0.365,0.052,0.521,0.146c0.073-0.064,0.152-0.122,0.236-0.171L7.904,13z
		 M7.902,9h14.193H7.904H7.902z"/>
	<path opacity="0.15" d="M14.375,22H7.904c-0.553,0-1-0.447-1-1s0.447-1,1-1h4.361c0.01-0.024,0.031-0.039,0.042-0.062
		c-0.011-0.075-0.029-0.149-0.029-0.227c0-0.859,0.704-1.559,1.568-1.559c0.016,0,0.034,0.001,0.051,0.001c0,0,0,0,0,0l4.598,0.002
		L18.548,18H7.904c-0.553,0-1-0.447-1-1s0.447-1,1-1h11.305l0.661-2H7.904c-0.553,0-1-0.447-1-1s0.447-1,1-1h14.192
		c0.553,0,1,0.447,1,1c0,0.263-0.108,0.494-0.277,0.668c0.023,0.051,0.06,0.094,0.078,0.147l1.436,4.341L26,18.155V3
		c0-0.55-0.449-1-1-1H5C4.451,2,4,2.45,4,3v24c0,0.55,0.451,1,1,1h10.235c0.018-0.056,0.031-0.111,0.055-0.167l1.39-4.192L14.375,22
		z M7.904,8h14.192c0.553,0,1,0.447,1,1s-0.447,1-1,1H7.904c-0.553,0-1-0.447-1-1S7.351,8,7.904,8z M29.299,20.16
		c0.146-0.102,0.248-0.26,0.248-0.448c0-0.306-0.248-0.549-0.557-0.558h-0.006c-0.002,0-0.004-0.001-0.006-0.001
		c-0.004,0-0.006,0.001-0.008,0.001l-5.361,0.002l-1.658-5.015c-0.076-0.221-0.283-0.384-0.533-0.384
		c-0.246,0-0.451,0.158-0.529,0.375h-0.01l-1.66,5.023l-5.321-0.002l-0.002,0.007c-0.018,0-0.031-0.008-0.049-0.008
		c-0.314,0-0.568,0.249-0.568,0.559c0,0.222,0.135,0.41,0.326,0.501l-0.004,0.009l4.26,3.032l-1.641,4.95
		c-0.039,0.077-0.064,0.156-0.064,0.248c0,0.307,0.254,0.556,0.568,0.556c0.123,0,0.23-0.047,0.324-0.113l0.004,0.003l4.359-3.109
		l4.281,3.056c0.006,0.004,0.012,0.006,0.016,0.01l0.039,0.026h0.002c0.098,0.075,0.213,0.128,0.348,0.128
		c0.314,0,0.568-0.249,0.568-0.556c0-0.05-0.016-0.093-0.027-0.14l0.004-0.002l-0.014-0.037c-0.006-0.018-0.008-0.037-0.018-0.055
		l-1.645-4.965l4.334-3.086L29.299,20.16z"/>
	<path fill="#FFFFFF" d="M14.375,22H7.904c-0.553,0-1-0.447-1-1s0.447-1,1-1h4.361c0.01-0.024,0.031-0.039,0.042-0.062
		c-0.011-0.075-0.029-0.149-0.029-0.227c0-0.859,0.704-1.559,1.568-1.559c0.016,0,0.034,0.001,0.051,0.001c0,0,0,0,0,0l4.598,0.002
		L18.548,18H7.904c-0.553,0-1-0.447-1-1s0.447-1,1-1h11.305l0.661-2H7.904c-0.553,0-1-0.447-1-1s0.447-1,1-1h14.192
		c0.553,0,1,0.447,1,1c0,0.263-0.108,0.494-0.277,0.668c0.023,0.051,0.06,0.094,0.078,0.147l1.436,4.341L26,18.155V3
		c0-0.55-0.449-1-1-1H5C4.451,2,4,2.45,4,3v24c0,0.55,0.451,1,1,1h10.235c0.018-0.056,0.031-0.111,0.055-0.167l1.39-4.192L14.375,22
		z M7.904,8h14.192c0.553,0,1,0.447,1,1s-0.447,1-1,1H7.904c-0.553,0-1-0.447-1-1S7.351,8,7.904,8z M29.299,20.16
		c0.146-0.102,0.248-0.26,0.248-0.448c0-0.306-0.248-0.549-0.557-0.558h-0.006c-0.002,0-0.004-0.001-0.006-0.001
		c-0.004,0-0.006,0.001-0.008,0.001l-5.361,0.002l-1.658-5.015c-0.076-0.221-0.283-0.384-0.533-0.384
		c-0.246,0-0.451,0.158-0.529,0.375h-0.01l-1.66,5.023l-5.321-0.002l-0.002,0.007c-0.018,0-0.031-0.008-0.049-0.008
		c-0.314,0-0.568,0.249-0.568,0.559c0,0.222,0.135,0.41,0.326,0.501l-0.004,0.009l4.26,3.032l-1.641,4.95
		c-0.039,0.077-0.064,0.156-0.064,0.248c0,0.307,0.254,0.556,0.568,0.556c0.123,0,0.23-0.047,0.324-0.113l0.004,0.003l4.359-3.109
		l4.281,3.056c0.006,0.004,0.012,0.006,0.016,0.01l0.039,0.026h0.002c0.098,0.075,0.213,0.128,0.348,0.128
		c0.314,0,0.568-0.249,0.568-0.556c0-0.05-0.016-0.093-0.027-0.14l0.004-0.002l-0.014-0.037c-0.006-0.018-0.008-0.037-0.018-0.055
		l-1.645-4.965l4.334-3.086L29.299,20.16z"/>
</g>
</svg>
