<?xml version="1.0" encoding="utf-8"?>
<!-- Generator: Adobe Illustrator 15.0.0, SVG Export Plug-In . SVG Version: 6.00 Build 0)  -->
<!DOCTYPE svg PUBLIC "-//W3C//DTD SVG 1.1//EN" "http://www.w3.org/Graphics/SVG/1.1/DTD/svg11.dtd">
<svg version="1.1" xmlns="http://www.w3.org/2000/svg" xmlns:xlink="http://www.w3.org/1999/xlink" x="0px" y="0px" width="30px"
	 height="30px" viewBox="0 0 30 30" enable-background="new 0 0 30 30" xml:space="preserve">
<g id="DO_NOT_EDIT_-_BOUNDING_BOX">
	<rect id="BOUNDING_BOX" fill="none" width="30" height="30"/>
</g>
<g id="PLACE_YOUR_GRAPHIC_HERE">
	<g>
		<path opacity="0.3" d="M15,14c-2.133,0-4.141,0.832-5.654,2.346c-0.391,0.391-0.391,1.023,0,1.414s1.023,0.391,1.414,0
			C11.895,16.625,13.4,16,15,16s3.105,0.625,4.24,1.76c0.195,0.195,0.451,0.293,0.707,0.293s0.512-0.098,0.707-0.293
			c0.391-0.391,0.391-1.023,0-1.414C19.143,14.832,17.134,14,15,14z M15,19c-1.656,0-3,1.344-3,3s1.344,3,3,3c1.658,0,3-1.344,3-3
			S16.658,19,15,19z M15,9c-3.467,0-6.73,1.354-9.188,3.813c-0.392,0.391-0.392,1.021,0,1.414c0.391,0.391,1.023,0.391,1.414,0
			C9.307,12.146,12.066,11,15,11s5.695,1.146,7.775,3.227c0.195,0.193,0.451,0.293,0.707,0.293s0.512-0.1,0.707-0.293
			c0.391-0.393,0.391-1.023,0-1.414C21.73,10.354,18.468,9,15,9z M27.723,9.277C24.32,5.873,19.802,4,15,4
			C10.199,4,5.682,5.873,2.277,9.277c-0.391,0.391-0.391,1.021,0,1.414c0.392,0.391,1.023,0.391,1.414,0C6.717,7.666,10.732,6,15,6
			s8.283,1.666,11.309,4.691c0.195,0.195,0.451,0.293,0.707,0.293s0.512-0.098,0.707-0.293C28.113,10.301,28.113,9.668,27.723,9.277
			z"/>
		<path opacity="0.15" d="M15,27c-2.206,0-4-1.794-4-4s1.794-4,4-4c2.206,0,4,1.794,4,4S17.206,27,15,27z M10.053,20.053
			c-0.534,0-1.036-0.208-1.414-0.586c-0.78-0.779-0.78-2.049,0-2.828C10.34,14.937,12.599,14,15,14c2.403,0,4.662,0.937,6.362,2.639
			c0.779,0.779,0.779,2.049-0.001,2.828c-0.378,0.378-0.88,0.586-1.414,0.586s-1.036-0.208-1.414-0.586
			C17.587,18.521,16.332,18,15,18c-1.333,0-2.587,0.521-3.533,1.467C11.089,19.845,10.587,20.053,10.053,20.053z M23.482,16.52
			c-0.53,0-1.031-0.207-1.41-0.583C20.177,14.042,17.666,13,15,13c-2.665,0-5.174,1.042-7.066,2.934
			c-0.378,0.378-0.88,0.586-1.414,0.586s-1.036-0.208-1.414-0.586c-0.78-0.782-0.779-2.051,0.001-2.829C7.75,10.458,11.265,9,15,9
			c3.734,0,7.249,1.458,9.896,4.105c0.778,0.778,0.778,2.046,0.002,2.827C24.514,16.313,24.013,16.52,23.482,16.52z M27.016,12.984
			c-0.534,0-1.036-0.208-1.414-0.586C22.765,9.562,19,8,15,8S7.235,9.562,4.398,12.398c-0.378,0.378-0.88,0.586-1.414,0.586
			s-1.036-0.208-1.414-0.585c-0.78-0.783-0.779-2.051-0.001-2.829C5.162,5.978,9.932,4,15,4c5.07,0,9.84,1.979,13.43,5.57
			c0.78,0.78,0.78,2.048,0,2.828C28.052,12.776,27.55,12.984,27.016,12.984z"/>
		<path opacity="0.15" d="M15,15c-2.133,0-4.141,0.832-5.654,2.346c-0.391,0.391-0.391,1.023,0,1.414s1.023,0.391,1.414,0
			C11.895,17.625,13.4,17,15,17s3.105,0.625,4.24,1.76c0.195,0.195,0.451,0.293,0.707,0.293s0.512-0.098,0.707-0.293
			c0.391-0.391,0.391-1.023,0-1.414C19.143,15.832,17.134,15,15,15z M15,20c-1.656,0-3,1.344-3,3s1.344,3,3,3c1.658,0,3-1.344,3-3
			S16.658,20,15,20z M15,10c-3.467,0-6.73,1.354-9.188,3.813c-0.392,0.391-0.392,1.021,0,1.414c0.391,0.391,1.023,0.391,1.414,0
			C9.307,13.146,12.066,12,15,12s5.695,1.146,7.775,3.227c0.195,0.193,0.451,0.293,0.707,0.293s0.512-0.1,0.707-0.293
			c0.391-0.393,0.391-1.023,0-1.414C21.73,11.354,18.468,10,15,10z M27.723,10.277C24.32,6.873,19.802,5,15,5
			c-4.801,0-9.318,1.873-12.723,5.277c-0.391,0.391-0.391,1.021,0,1.414c0.392,0.391,1.023,0.391,1.414,0C6.717,8.666,10.732,7,15,7
			s8.283,1.666,11.309,4.691c0.195,0.195,0.451,0.293,0.707,0.293s0.512-0.098,0.707-0.293
			C28.113,11.301,28.113,10.668,27.723,10.277z"/>
		<path fill="#FFFFFF" d="M15,15c-2.133,0-4.141,0.832-5.654,2.346c-0.391,0.391-0.391,1.023,0,1.414s1.023,0.391,1.414,0
			C11.895,17.625,13.4,17,15,17s3.105,0.625,4.24,1.76c0.195,0.195,0.451,0.293,0.707,0.293s0.512-0.098,0.707-0.293
			c0.391-0.391,0.391-1.023,0-1.414C19.143,15.832,17.134,15,15,15z M15,20c-1.656,0-3,1.344-3,3s1.344,3,3,3c1.658,0,3-1.344,3-3
			S16.658,20,15,20z M15,10c-3.467,0-6.73,1.354-9.188,3.813c-0.392,0.391-0.392,1.021,0,1.414c0.391,0.391,1.023,0.391,1.414,0
			C9.307,13.146,12.066,12,15,12s5.695,1.146,7.775,3.227c0.195,0.193,0.451,0.293,0.707,0.293s0.512-0.1,0.707-0.293
			c0.391-0.393,0.391-1.023,0-1.414C21.73,11.354,18.468,10,15,10z M27.723,10.277C24.32,6.873,19.802,5,15,5
			c-4.801,0-9.318,1.873-12.723,5.277c-0.391,0.391-0.391,1.021,0,1.414c0.392,0.391,1.023,0.391,1.414,0C6.717,8.666,10.732,7,15,7
			s8.283,1.666,11.309,4.691c0.195,0.195,0.451,0.293,0.707,0.293s0.512-0.098,0.707-0.293
			C28.113,11.301,28.113,10.668,27.723,10.277z"/>
		<rect fill="none" width="30" height="30"/>
	</g>
</g>
</svg>
