<?xml version="1.0" encoding="utf-8"?>
<!-- Generator: Adobe Illustrator 15.0.0, SVG Export Plug-In . SVG Version: 6.00 Build 0)  -->
<!DOCTYPE svg PUBLIC "-//W3C//DTD SVG 1.1//EN" "http://www.w3.org/Graphics/SVG/1.1/DTD/svg11.dtd">
<svg version="1.1" xmlns="http://www.w3.org/2000/svg" xmlns:xlink="http://www.w3.org/1999/xlink" x="0px" y="0px" width="30px"
	 height="30px" viewBox="0 0 30 30" enable-background="new 0 0 30 30" xml:space="preserve">
<g id="DO_NOT_EDIT_-_BOUNDING_BOX">
	<rect id="BOUNDING_BOX" fill="none" width="30" height="30"/>
</g>
<g id="PLACE_YOUR_GRAPHIC_HERE">
	<g>
		<path opacity="0.3" d="M5.813,12.813c-0.392,0.391-0.392,1.023,0,1.414c0.391,0.391,1.023,0.391,1.414,0
			c1.945-1.947,4.49-3.061,7.211-3.199l1.949-1.949C15.93,9.029,15.466,9,15,9C11.533,9,8.27,10.354,5.813,12.813z M3.691,10.691
			C6.717,7.666,10.734,6,15,6c1.354,0,2.676,0.186,3.955,0.512l1.617-1.619C18.794,4.313,16.921,4,15,4
			C10.199,4,5.682,5.875,2.277,9.277c-0.391,0.391-0.391,1.023,0,1.414C2.669,11.082,3.301,11.082,3.691,10.691z M28.707,0.293
			c-0.391-0.391-1.023-0.391-1.414,0l-26,26c-0.391,0.391-0.391,1.023,0,1.414C1.488,27.902,1.744,28,2,28s0.512-0.098,0.707-0.293
			l26-26C29.098,1.316,29.098,0.684,28.707,0.293z M15,19c-1.656,0-3,1.344-3,3s1.344,3,3,3s3-1.344,3-3S16.656,19,15,19z
			 M25.287,7.25l-1.43,1.428c0.871,0.582,1.692,1.256,2.451,2.014c0.194,0.195,0.45,0.293,0.707,0.293
			c0.256,0,0.512-0.098,0.707-0.293c0.391-0.391,0.391-1.021,0-1.414C26.964,8.52,26.145,7.852,25.287,7.25z M21.673,10.861
			l-1.455,1.455c0.929,0.502,1.789,1.143,2.558,1.908c0.195,0.195,0.451,0.293,0.707,0.293s0.512-0.098,0.707-0.293
			c0.391-0.391,0.391-1.021,0-1.414C23.423,12.049,22.576,11.404,21.673,10.861z M17.964,14.57l-1.594,1.594
			c1.075,0.252,2.065,0.793,2.868,1.596c0.195,0.195,0.451,0.293,0.707,0.293c0.257,0,0.513-0.098,0.707-0.293
			c0.392-0.391,0.392-1.023,0-1.414C19.873,15.564,18.958,14.969,17.964,14.57z"/>
		<rect fill="none" width="30" height="30"/>
		<path opacity="0.15" d="M2,30c-0.534,0-1.036-0.208-1.414-0.586S0,28.534,0,28s0.208-1.036,0.586-1.414L14.12,13.052
			c-2.341,0.205-4.526,1.22-6.186,2.881c-0.378,0.378-0.88,0.586-1.415,0.586s-1.036-0.208-1.414-0.586
			c-0.378-0.377-0.586-0.879-0.586-1.414s0.208-1.037,0.587-1.415C7.75,10.458,11.265,9,15,9c0.477,0,0.965,0.027,1.493,0.084
			c0.383,0.041,0.708,0.298,0.837,0.661c0.008,0.024,0.016,0.049,0.022,0.074l1.342-1.342C17.448,8.161,16.205,8,15,8
			c-4,0-7.765,1.562-10.602,4.398c-0.378,0.378-0.88,0.586-1.414,0.586s-1.036-0.208-1.414-0.585
			C0.791,11.619,0.791,10.35,1.57,9.57C5.165,5.978,9.934,4,15,4c1.987,0,3.967,0.317,5.883,0.942
			c0.321,0.105,0.568,0.366,0.655,0.692l5.048-5.048C26.964,0.208,27.466,0,28,0s1.036,0.208,1.414,0.586S30,1.466,30,2
			s-0.208,1.036-0.586,1.414l-3.869,3.87c0.11,0.029,0.218,0.079,0.316,0.147c0.965,0.677,1.806,1.377,2.568,2.139
			c0.778,0.783,0.778,2.051,0,2.829c-0.378,0.378-0.88,0.586-1.414,0.586c-0.536,0-1.039-0.208-1.416-0.587
			c-0.706-0.706-1.48-1.341-2.298-1.888c-0.203-0.136-0.348-0.34-0.41-0.573l-0.959,0.959c0.088,0.024,0.174,0.06,0.256,0.109
			c1,0.602,1.911,1.307,2.706,2.097c0.78,0.785,0.78,2.053,0.002,2.831c-0.378,0.378-0.88,0.586-1.414,0.586
			s-1.036-0.208-1.414-0.586c-0.696-0.693-1.479-1.278-2.326-1.735c-0.243-0.131-0.419-0.356-0.49-0.62l-1.028,1.028
			c0.038,0.01,0.075,0.023,0.112,0.038c1.141,0.458,2.158,1.129,3.024,1.998c0.377,0.376,0.586,0.879,0.586,1.413
			s-0.209,1.037-0.588,1.415c-0.374,0.376-0.877,0.585-1.413,0.585c-0.534,0-1.036-0.208-1.414-0.586
			c-0.657-0.657-1.483-1.117-2.39-1.329c-0.353-0.083-0.634-0.351-0.733-0.699c-0.001-0.005-0.002-0.01-0.004-0.015l-1.844,1.844
			C14.007,19.095,14.493,19,15,19c2.206,0,4,1.794,4,4s-1.794,4-4,4c-2.206,0-4-1.794-4-4c0-0.507,0.095-0.992,0.268-1.439
			l-7.854,7.854C3.036,29.792,2.534,30,2,30z"/>
		<path opacity="0.15" d="M5.813,13.813c-0.392,0.391-0.392,1.023,0,1.414c0.391,0.391,1.023,0.391,1.414,0
			c1.945-1.947,4.49-3.061,7.211-3.199l1.949-1.949C15.93,10.029,15.466,10,15,10C11.533,10,8.27,11.354,5.813,13.813z
			 M3.691,11.691C6.717,8.666,10.734,7,15,7c1.354,0,2.676,0.186,3.955,0.512l1.617-1.619C18.794,5.313,16.921,5,15,5
			c-4.801,0-9.318,1.875-12.723,5.277c-0.391,0.391-0.391,1.023,0,1.414C2.669,12.082,3.301,12.082,3.691,11.691z M28.707,1.293
			c-0.391-0.391-1.023-0.391-1.414,0l-26,26c-0.391,0.391-0.391,1.023,0,1.414C1.488,28.902,1.744,29,2,29s0.512-0.098,0.707-0.293
			l26-26C29.098,2.316,29.098,1.684,28.707,1.293z M15,20c-1.656,0-3,1.344-3,3s1.344,3,3,3s3-1.344,3-3S16.656,20,15,20z
			 M25.287,8.25l-1.43,1.428c0.871,0.582,1.692,1.256,2.451,2.014c0.194,0.195,0.45,0.293,0.707,0.293
			c0.256,0,0.512-0.098,0.707-0.293c0.391-0.391,0.391-1.021,0-1.414C26.964,9.52,26.145,8.852,25.287,8.25z M21.673,11.861
			l-1.455,1.455c0.929,0.502,1.789,1.143,2.558,1.908c0.195,0.195,0.451,0.293,0.707,0.293s0.512-0.098,0.707-0.293
			c0.391-0.391,0.391-1.021,0-1.414C23.423,13.049,22.576,12.404,21.673,11.861z M17.964,15.57l-1.594,1.594
			c1.075,0.252,2.065,0.793,2.868,1.596c0.195,0.195,0.451,0.293,0.707,0.293c0.257,0,0.513-0.098,0.707-0.293
			c0.392-0.391,0.392-1.023,0-1.414C19.873,16.564,18.958,15.969,17.964,15.57z"/>
		<path fill="#FFFFFF" d="M5.813,13.813c-0.392,0.391-0.392,1.023,0,1.414c0.391,0.391,1.023,0.391,1.414,0
			c1.945-1.947,4.49-3.061,7.211-3.199l1.949-1.949C15.93,10.029,15.466,10,15,10C11.533,10,8.27,11.354,5.813,13.813z
			 M3.691,11.691C6.717,8.666,10.734,7,15,7c1.354,0,2.676,0.186,3.955,0.512l1.617-1.619C18.794,5.313,16.921,5,15,5
			c-4.801,0-9.318,1.875-12.723,5.277c-0.391,0.391-0.391,1.023,0,1.414C2.669,12.082,3.301,12.082,3.691,11.691z M15,20
			c-1.656,0-3,1.344-3,3s1.344,3,3,3s3-1.344,3-3S16.656,20,15,20z M25.287,8.25l-1.43,1.428c0.871,0.582,1.692,1.256,2.451,2.014
			c0.194,0.195,0.45,0.293,0.707,0.293c0.256,0,0.512-0.098,0.707-0.293c0.391-0.391,0.391-1.021,0-1.414
			C26.964,9.52,26.145,8.852,25.287,8.25z M21.673,11.861l-1.455,1.455c0.929,0.502,1.789,1.143,2.558,1.908
			c0.195,0.195,0.451,0.293,0.707,0.293s0.512-0.098,0.707-0.293c0.391-0.391,0.391-1.021,0-1.414
			C23.423,13.049,22.576,12.404,21.673,11.861z M17.964,15.57l-1.594,1.594c1.075,0.252,2.065,0.793,2.868,1.596
			c0.195,0.195,0.451,0.293,0.707,0.293c0.257,0,0.513-0.098,0.707-0.293c0.392-0.391,0.392-1.023,0-1.414
			C19.873,16.564,18.958,15.969,17.964,15.57z"/>
		<path fill="#EA2227" d="M2,29c-0.256,0-0.512-0.098-0.707-0.293c-0.391-0.391-0.391-1.023,0-1.414l26-26
			c0.391-0.391,1.023-0.391,1.414,0s0.391,1.023,0,1.414l-26,26C2.512,28.902,2.256,29,2,29L2,29z"/>
	</g>
</g>
</svg>
