<?xml version="1.0" encoding="utf-8"?>
<!-- Generator: Adobe Illustrator 15.0.0, SVG Export Plug-In . SVG Version: 6.00 Build 0)  -->
<!DOCTYPE svg PUBLIC "-//W3C//DTD SVG 1.1//EN" "http://www.w3.org/Graphics/SVG/1.1/DTD/svg11.dtd">
<svg version="1.1" xmlns="http://www.w3.org/2000/svg" xmlns:xlink="http://www.w3.org/1999/xlink" x="0px" y="0px" width="30px"
	 height="30px" viewBox="0 0 30 30" enable-background="new 0 0 30 30" xml:space="preserve">
<g id="DO_NOT_EDIT_-_BOUNDING_BOX">
	<rect id="BOUNDING_BOX" fill="none" width="30" height="30"/>
</g>
<g id="PLACE_YOUR_GRAPHIC_HERE">
	<g>
		<path opacity="0.3" d="M27.268,22.732l-4.934-4.932C23.385,16.115,24,14.133,24,12c0-6.074-4.926-11-11-11C6.924,1,2,5.926,2,12
			c0,6.076,4.924,11,11,11c2.131,0,4.113-0.615,5.799-1.664l4.934,4.932c0.977,0.979,2.561,0.979,3.535,0
			C28.244,25.293,28.244,23.709,27.268,22.732z M13,19.5c-4.137,0-7.5-3.363-7.5-7.5c0-4.135,3.363-7.5,7.5-7.5
			c4.135,0,7.5,3.365,7.5,7.5C20.5,16.137,17.135,19.5,13,19.5z M14,11V7c0-0.553-0.447-1-1-1s-1,0.447-1,1v4H8
			c-0.553,0-1,0.447-1,1s0.447,1,1,1h4v4c0,0.553,0.447,1,1,1s1-0.447,1-1v-4h4c0.553,0,1-0.447,1-1s-0.447-1-1-1H14z"/>
		<rect fill="none" width="30" height="30"/>
		<path opacity="0.15" d="M25.501,29.002c-0.936,0-1.815-0.365-2.477-1.028l-4.391-4.389C16.897,24.513,14.965,25,13,25
			C6.383,25,1,19.617,1,13C1,6.383,6.383,1,13,1c6.617,0,12,5.383,12,12c0,1.968-0.487,3.9-1.416,5.636l4.391,4.39
			C28.636,23.687,29,24.565,29,25.501s-0.364,1.814-1.026,2.475C27.315,28.637,26.437,29.002,25.501,29.002z M15,18
			c0,0.509-0.191,0.973-0.504,1.326c2.385-0.563,4.267-2.445,4.831-4.831C18.973,14.809,18.509,15,18,15h-3V18z M6.674,14.496
			c0.563,2.385,2.445,4.267,4.831,4.831C11.191,18.973,11,18.509,11,18v-3H8C7.492,15,7.027,14.809,6.674,14.496z M18,11
			c0.509,0,0.973,0.191,1.326,0.504c-0.563-2.385-2.445-4.267-4.831-4.831C14.809,7.027,15,7.492,15,8v3H18z M11.504,6.674
			c-2.385,0.563-4.267,2.445-4.831,4.831C7.027,11.191,7.492,11,8,11h3V8C11,7.492,11.191,7.027,11.504,6.674z"/>
		<path opacity="0.15" d="M27.268,23.732l-4.934-4.932C23.385,17.115,24,15.133,24,13c0-6.074-4.926-11-11-11C6.924,2,2,6.926,2,13
			c0,6.076,4.924,11,11,11c2.131,0,4.113-0.615,5.799-1.664l4.934,4.932c0.977,0.979,2.561,0.979,3.535,0
			C28.244,26.293,28.244,24.709,27.268,23.732z M13,20.5c-4.137,0-7.5-3.363-7.5-7.5c0-4.135,3.363-7.5,7.5-7.5
			c4.135,0,7.5,3.365,7.5,7.5C20.5,17.137,17.135,20.5,13,20.5z M14,12V8c0-0.553-0.447-1-1-1s-1,0.447-1,1v4H8
			c-0.553,0-1,0.447-1,1s0.447,1,1,1h4v4c0,0.553,0.447,1,1,1s1-0.447,1-1v-4h4c0.553,0,1-0.447,1-1s-0.447-1-1-1H14z"/>
		<path fill="#FFFFFF" d="M27.268,23.732l-4.934-4.932C23.385,17.115,24,15.133,24,13c0-6.074-4.926-11-11-11C6.924,2,2,6.926,2,13
			c0,6.076,4.924,11,11,11c2.131,0,4.113-0.615,5.799-1.664l4.934,4.932c0.977,0.979,2.561,0.979,3.535,0
			C28.244,26.293,28.244,24.709,27.268,23.732z M13,20.5c-4.137,0-7.5-3.363-7.5-7.5c0-4.135,3.363-7.5,7.5-7.5
			c4.135,0,7.5,3.365,7.5,7.5C20.5,17.137,17.135,20.5,13,20.5z M14,12V8c0-0.553-0.447-1-1-1s-1,0.447-1,1v4H8
			c-0.553,0-1,0.447-1,1s0.447,1,1,1h4v4c0,0.553,0.447,1,1,1s1-0.447,1-1v-4h4c0.553,0,1-0.447,1-1s-0.447-1-1-1H14z"/>
	</g>
</g>
</svg>
